<svg width="20" height="20" viewBox="0 0 20 20" fill="none" xmlns="http://www.w3.org/2000/svg">
<path fill-rule="evenodd" clip-rule="evenodd" d="M10.6384 3.31896C10.8409 3.40285 11.0249 3.52582 11.1798 3.68083L16.3198 8.82C16.4749 8.97495 16.598 9.15895 16.682 9.3615C16.766 9.56404 16.8092 9.78115 16.8092 10.0004C16.8092 10.2197 16.766 10.4368 16.682 10.6393C16.598 10.8419 16.4749 11.0259 16.3198 11.1808L11.1798 16.32C11.0249 16.475 10.8409 16.598 10.6384 16.6819C10.436 16.7658 10.219 16.809 9.9998 16.809C9.78064 16.809 9.56362 16.7658 9.36115 16.6819C9.15869 16.598 8.97473 16.475 8.8198 16.32L3.6798 11.1808C3.52466 11.0259 3.40159 10.8419 3.31762 10.6393C3.23365 10.4368 3.19043 10.2197 3.19043 10.0004C3.19043 9.78115 3.23365 9.56404 3.31762 9.3615C3.40159 9.15895 3.52466 8.97495 3.6798 8.82L8.8198 3.68083C8.97473 3.52582 9.15869 3.40285 9.36115 3.31896C9.56362 3.23506 9.78064 3.19188 9.9998 3.19188C10.219 3.19188 10.436 3.23506 10.6384 3.31896ZM9.41054 11.4226C9.56682 11.5789 9.77878 11.6667 9.9998 11.6667C10.2208 11.6667 10.4328 11.5789 10.5891 11.4226C10.7453 11.2663 10.8331 11.0543 10.8331 10.8333V6.66666C10.8331 6.44565 10.7453 6.23369 10.5891 6.07741C10.4328 5.92113 10.2208 5.83333 9.9998 5.83333C9.77878 5.83333 9.56682 5.92113 9.41054 6.07741C9.25426 6.23369 9.16646 6.44565 9.16646 6.66666V10.8333C9.16646 11.0543 9.25426 11.2663 9.41054 11.4226ZM9.41054 13.9226C9.56682 14.0789 9.77878 14.1667 9.9998 14.1667C10.2208 14.1667 10.4328 14.0789 10.5891 13.9226C10.7453 13.7663 10.8331 13.5543 10.8331 13.3333C10.8331 13.1123 10.7453 12.9004 10.5891 12.7441C10.4328 12.5878 10.2208 12.5 9.9998 12.5C9.77878 12.5 9.56682 12.5878 9.41054 12.7441C9.25426 12.9004 9.16646 13.1123 9.16646 13.3333C9.16646 13.5543 9.25426 13.7663 9.41054 13.9226Z" fill="#FF5E78"/>
</svg>
