<svg width="12" height="10" viewBox="0 0 12 10" fill="none" xmlns="http://www.w3.org/2000/svg">
<path d="M11.5128 5.41499L7.29404 9.63374C7.16182 9.76383 6.98355 9.8364 6.79806 9.83564C6.61257 9.83489 6.4349 9.76087 6.30374 9.62971C6.17258 9.49855 6.09856 9.32088 6.0978 9.13539C6.09705 8.9499 6.16962 8.77163 6.29971 8.63941L9.31811 5.62095H0.703125C0.516645 5.62095 0.337802 5.54687 0.205941 5.41501C0.0740791 5.28315 0 5.10431 0 4.91783C0 4.73135 0.0740791 4.5525 0.205941 4.42064C0.337802 4.28878 0.516645 4.2147 0.703125 4.2147H9.31816L6.29971 1.19624C6.16962 1.06402 6.09705 0.885749 6.0978 0.700262C6.09856 0.514775 6.17258 0.337101 6.30374 0.20594C6.4349 0.0747803 6.61257 0.000761122 6.79806 5.83702e-06C6.98355 -0.000749448 7.16182 0.0718203 7.29404 0.201908L11.5128 4.42066C11.6446 4.55252 11.7187 4.73135 11.7187 4.91783C11.7187 5.1043 11.6446 5.28313 11.5128 5.41499Z" fill="#29294B"/>
</svg>
