<svg width="24" height="24" viewBox="0 0 24 24" fill="none" xmlns="http://www.w3.org/2000/svg">
<path d="M17.5128 12.415L13.294 16.6337C13.1618 16.7638 12.9835 16.8364 12.7981 16.8356C12.6126 16.8349 12.4349 16.7609 12.3037 16.6297C12.1726 16.4986 12.0986 16.3209 12.0978 16.1354C12.097 15.9499 12.1696 15.7716 12.2997 15.6394L15.3181 12.621H6.70312C6.51664 12.621 6.3378 12.5469 6.20594 12.415C6.07408 12.2831 6 12.1043 6 11.9178C6 11.7313 6.07408 11.5525 6.20594 11.4206C6.3378 11.2888 6.51664 11.2147 6.70312 11.2147H15.3182L12.2997 8.19624C12.1696 8.06402 12.097 7.88575 12.0978 7.70026C12.0986 7.51478 12.1726 7.3371 12.3037 7.20594C12.4349 7.07478 12.6126 7.00076 12.7981 7.00001C12.9835 6.99925 13.1618 7.07182 13.294 7.20191L17.5128 11.4207C17.6446 11.5525 17.7187 11.7314 17.7187 11.9178C17.7187 12.1043 17.6446 12.2831 17.5128 12.415V12.415Z" fill="#31B0ED"/>
</svg>
