<svg width="24" height="24" viewBox="0 0 24 24" fill="none" xmlns="http://www.w3.org/2000/svg">
<path d="M9.33069 18.0522C9.16236 18.0522 9.02569 18.1925 9.02736 18.3652C9.02569 18.5387 9.16319 18.6789 9.33153 18.6789C9.49986 18.6789 9.63653 18.5387 9.63653 18.366C9.63653 18.1925 9.49986 18.0522 9.33069 18.0522Z" stroke="#29294B" stroke-width="1.5" stroke-linecap="round" stroke-linejoin="round"/>
<path d="M16.3405 18.0522C16.1721 18.0522 16.0355 18.1925 16.0371 18.3652C16.0371 18.5378 16.1738 18.6781 16.3421 18.6781C16.5105 18.6781 16.6471 18.5378 16.6471 18.3652C16.6463 18.1925 16.5096 18.0522 16.3405 18.0522Z" stroke="#29294B" stroke-width="1.5" stroke-linecap="round" stroke-linejoin="round"/>
<path d="M6.97833 7.56479L6.43667 5H5" stroke="#29294B" stroke-width="1.5" stroke-linecap="round" stroke-linejoin="round"/>
<path d="M8.25573 13.7598L6.97656 7.56494H17.4982C18.0407 7.56494 18.4382 8.0873 18.3066 8.62762L17.1832 13.2374C17.0124 13.9376 16.4324 14.4523 15.7324 14.5241L10.0524 15.1071C9.20573 15.1935 8.43156 14.613 8.25573 13.7598V13.7598Z" stroke="#29294B" stroke-width="1.5" stroke-linecap="round" stroke-linejoin="round"/>
</svg>
