<svg width="55" height="27" viewBox="0 0 55 27" fill="none" xmlns="http://www.w3.org/2000/svg">
<path d="M24.1263 0.553534C20.8666 -1.41219 19.0392 2.42664 14.9695 3.23969C10.8998 4.04244 7.84751 4.04244 6.32631 7.26377C4.80511 10.4851 4.80512 12.8934 3.01722 14.7768C1.2392 16.6499 0.725548 19.6036 0.982374 23.0925C1.2392 26.5814 18.2687 27.1166 22.8422 25.5111C27.4157 23.9056 29.4505 3.78515 24.1164 0.574118L24.1263 0.553534Z" fill="#E55256"/>
<path d="M31.7745 0.553534C35.033 -1.41219 36.8598 2.42664 40.9279 3.23969C44.9961 4.04244 48.0472 4.04244 49.5679 7.26377C51.0885 10.4851 51.0885 12.8934 52.8757 14.7768C54.6531 16.6499 55.1665 19.6036 54.9098 23.0925C54.6531 26.5814 37.6299 27.1166 33.0483 25.5111C28.4765 23.9056 26.4425 3.78515 31.7745 0.574118V0.553534Z" fill="#E55256"/>
<path d="M23.5872 15.8452C22.6475 16.6133 21.7563 17.0078 20.8942 15.8348C20.5261 15.3365 20.2936 14.7863 19.8093 14.4023C19.2862 13.987 18.7146 13.8313 18.1334 13.8417C18.1528 13.7171 18.1722 13.5926 18.1916 13.4576C18.3659 12.1185 18.424 11.4022 19.6252 10.8728C19.9836 10.7171 20.2839 10.6445 20.5842 10.4576C20.6714 10.5199 20.7489 10.5822 20.8361 10.6341C21.7176 11.122 23.5872 11.3607 24.1006 10.1669C24.2265 9.87629 24.0715 9.60639 23.7906 9.56487C23.4225 9.51297 23.1416 9.68944 22.7832 9.77248C22.3085 9.88667 21.8048 9.85553 21.3495 9.66868C20.4777 9.31574 20.0611 8.49566 19.7705 7.59255C20.342 6.47144 21.0879 4.63406 21.9888 5.36071C22.3763 5.67213 22.7832 5.08043 22.5991 4.68597C22.0857 3.57524 20.807 3.76209 20.0902 4.5614C19.3734 5.35033 19.3346 6.62715 18.6468 7.4576C17.4553 8.89013 15.9926 8.58909 14.6752 7.78978C14.927 6.8659 15.4308 6.11849 16.4866 5.76555C16.8741 5.6306 16.8838 5.00777 16.4866 4.8832C13.7065 3.9697 13.1543 7.86244 13.1446 10.032C13.1349 9.9801 13.1059 9.92819 13.0671 9.89705C12.4569 9.35726 11.8466 8.95241 11.4882 8.14272C11.3041 7.7275 11.246 7.31227 11.1976 6.85552C11.1685 6.50258 11.1588 6.20154 10.9166 5.9524C10.8294 5.86936 10.6938 5.79669 10.5776 5.8486C9.57984 6.30535 10.0739 8.02853 10.471 8.7967C10.9651 9.73096 11.9047 10.6133 12.9315 10.4576C13.0381 10.4368 13.1059 10.3434 13.135 10.2292C13.1253 11.8486 13.0284 12.7933 11.7594 14.0701C11.2557 14.5787 10.6551 14.8382 10.2289 15.4611C10.1707 15.5441 10.1417 15.6272 10.0932 15.7102C9.9092 15.2638 9.66702 14.8279 9.50234 14.34C8.95019 12.6479 9.51203 11.2673 9.88014 9.6583C10.0061 9.09774 9.41516 8.77594 9.04706 9.1185C7.92337 10.1669 7.68119 11.9836 7.86525 13.5303C7.94274 14.1946 8.10742 14.8382 8.37865 15.4403C8.83394 16.4472 9.95763 17.3504 7.37122 18.0043C7.36153 18.0043 7.35183 18.0043 7.34214 18.0043C6.68343 16.8521 5.47256 16.1254 4.1842 16.3434C3.64173 16.4369 3.8161 17.3192 4.31013 17.3504C4.94947 17.3919 5.60818 17.7033 6.07315 18.2016C5.94722 18.3158 5.93754 18.5545 6.09253 18.6583C6.21846 18.7414 6.35408 18.7933 6.49938 18.8556C6.68343 19.2708 6.75124 19.7483 6.61562 20.2673C6.21845 21.7725 5.06571 21.6479 4.13576 22.3954C3.95171 22.5511 3.84515 22.8832 4.05826 23.0805C5.60818 24.5545 7.78774 21.8037 7.87493 20.122C7.8943 19.769 7.84588 19.4265 7.77807 19.0943C8.66927 19.0839 9.5314 18.6791 9.99637 17.8486C10.0061 17.8694 10.0061 17.9005 10.0254 17.9213C10.1223 18.1185 10.3064 18.1393 10.4517 18.0666C10.7907 18.5753 10.9457 19.1981 10.936 19.9559C10.9166 20.7967 11.0232 21.5234 11.6335 22.0736C12.0791 22.4784 13.2706 22.7691 13.9487 22.4369C13.9583 22.4576 13.9583 22.4784 13.968 22.4888C14.3458 23.3815 15.0045 24.077 15.8473 24.3988C16.0023 24.4611 16.2154 24.3884 16.322 24.2535C16.9032 23.5476 15.6923 23.1428 15.3533 22.7898C15.0239 22.4369 14.7914 21.9905 14.6558 21.5026C14.5299 21.0251 14.5783 20.558 14.4136 20.1012C14.3458 19.9144 14.1521 19.8313 14.0068 19.987C13.7259 20.2881 13.629 20.6929 13.6387 21.1289C13.3287 21.2327 13.0381 21.4196 12.67 21.2846C11.7788 20.9732 12.0694 19.8936 11.9531 19.0943C11.8272 18.2327 11.4107 17.4957 10.8295 16.9663C11.3913 15.4611 13.4256 14.558 13.9874 13.0216C14.4621 11.7344 14.3168 10.032 14.5202 8.57871C15.3339 9.3365 16.4963 9.61677 17.5425 9.35726C18.1431 9.21193 18.7146 8.86937 19.1796 8.423C19.2959 8.87975 19.5187 9.31573 19.7996 9.68944C18.9181 9.81401 17.9881 10.4265 17.5425 11.1843C17.1066 11.9005 17.2713 12.6272 17.1647 13.4369C17.1357 13.686 17.0775 13.8936 17.0291 14.0908C16.9516 14.1324 16.8644 14.1427 16.7869 14.1843C16.5738 14.2984 16.6319 14.5995 16.7869 14.7241C16.1185 16.0528 14.7624 16.2396 13.2415 15.9282C12.7572 15.8244 12.544 16.4576 12.9218 16.7794C14.3458 17.994 16.5157 17.2569 17.5038 15.7206C17.7363 15.3677 17.8816 15.0043 17.9881 14.6306C19.1699 14.7241 19.5865 15.9905 20.3517 16.9144C19.5865 17.205 19.0731 17.9005 19.1699 18.9801C18.8793 19.1462 18.5597 19.2604 18.1916 19.2915C17.5813 19.3331 17.0485 18.9697 16.4576 19.2396C16.351 19.2915 16.3316 19.4369 16.351 19.5407C16.4963 20.5684 17.8234 20.558 18.5306 20.4126C18.8406 20.3504 19.1409 20.2154 19.4315 20.0493C19.5574 20.4646 19.6833 20.8798 19.664 21.295C19.6252 22.5614 18.5015 22.6549 17.6491 22.7172C17.3197 22.7379 17.1163 23.1843 17.3682 23.4646C18.2787 24.43 19.7705 23.7137 20.3905 22.6756C20.5939 22.3331 20.7005 21.9594 20.7392 21.5753C21.3301 21.6168 21.8629 21.7206 22.4441 22.0217C22.5797 22.0943 22.7541 22.1255 22.8897 22.0217C22.9963 21.9386 23.0738 21.8763 23.0931 21.731C23.1222 21.513 23.0738 21.3054 22.8897 21.1808C22.2601 20.7552 21.4464 20.558 20.7102 20.7033C20.623 20.2258 20.4583 19.7794 20.3517 19.3019C20.3421 19.2708 20.3421 19.2396 20.3421 19.2085C20.4486 19.0424 20.5455 18.8763 20.6036 18.6895C20.652 18.5441 20.5842 18.4092 20.4874 18.3261C20.6811 18.0355 21.0008 17.8279 21.3689 17.6825C22.4151 18.1185 23.8584 17.776 24.3234 16.5718C24.4978 16.1254 24.0909 15.4196 23.6259 15.7933L23.5872 15.8452Z" fill="#EB847C"/>
<path d="M32.2946 15.8452C33.2338 16.6133 34.1246 17.0078 34.9863 15.8348C35.3542 15.3365 35.5866 14.7863 36.0707 14.4023C36.5936 13.987 37.1648 13.8313 37.7458 13.8417C37.7264 13.7171 37.707 13.5926 37.6877 13.4576C37.5134 12.1185 37.4553 11.4022 36.2547 10.8728C35.8964 10.7171 35.5963 10.6445 35.2961 10.4576C35.209 10.5199 35.1315 10.5822 35.0444 10.6341C34.1633 11.122 32.2946 11.3607 31.7814 10.1669C31.6556 9.87629 31.8105 9.60639 32.0913 9.56487C32.4592 9.51297 32.74 9.68944 33.0982 9.77248C33.5727 9.88667 34.0761 9.85553 34.5312 9.66868C35.4026 9.31574 35.819 8.49566 36.1095 7.59255C35.5382 6.47144 34.7926 4.63406 33.8922 5.36071C33.5049 5.67213 33.0982 5.08043 33.2822 4.68597C33.7953 3.57524 35.0734 3.76209 35.7996 4.5614C36.5064 5.35033 36.5548 6.62715 37.2423 7.4576C38.4332 8.89013 39.8953 8.58909 41.2121 7.78978C40.9603 6.8659 40.4568 6.11849 39.4015 5.76555C39.0142 5.6306 39.0142 5.00777 39.4015 4.8832C42.1803 3.9697 42.7322 7.86244 42.7419 10.032C42.7516 9.9801 42.7806 9.92819 42.8193 9.89705C43.4293 9.35726 44.0393 8.95241 44.3976 8.14272C44.5815 7.7275 44.6396 7.31227 44.688 6.85552C44.7171 6.50258 44.7365 6.20154 44.9785 5.9524C45.056 5.86936 45.2012 5.79669 45.3174 5.8486C46.3147 6.30535 45.8306 8.02853 45.4239 8.7967C44.9301 9.73096 43.9812 10.6133 42.9646 10.4576C42.8581 10.4368 42.7903 10.3434 42.7613 10.2292C42.7709 11.8486 42.8678 12.7933 44.1362 14.0701C44.6396 14.5787 45.2399 14.8382 45.666 15.4611C45.7241 15.5441 45.7531 15.6272 45.8112 15.7102C45.9952 15.2638 46.2372 14.8279 46.3922 14.34C46.944 12.6479 46.3922 11.2673 46.0145 9.6583C45.8887 9.09774 46.4793 8.77594 46.8472 9.1185C47.9704 10.1669 48.2124 11.9836 48.0285 13.5303C47.951 14.1946 47.7864 14.8382 47.5153 15.4403C47.0602 16.4472 45.9468 17.3504 48.5223 18.0043C48.532 18.0043 48.5416 18.0043 48.5513 18.0043C49.2097 16.8521 50.42 16.1254 51.7078 16.3434C52.25 16.4369 52.0757 17.3192 51.5819 17.3504C50.9526 17.3919 50.2845 17.7033 49.8197 18.2016C49.9456 18.3158 49.9553 18.5545 49.8004 18.6583C49.6745 18.7414 49.5389 18.7933 49.3937 18.8556C49.2097 19.2708 49.1419 19.7483 49.2775 20.2673C49.6745 21.7725 50.8267 21.6479 51.7562 22.3954C51.9402 22.5511 52.0467 22.8832 51.8337 23.0805C50.2845 24.5545 48.1059 21.8037 48.0188 20.122C47.9994 19.769 48.0478 19.4265 48.1156 19.0943C47.2248 19.0839 46.3631 18.6791 45.8983 17.8486C45.8887 17.8694 45.8887 17.9005 45.8693 17.9213C45.7725 18.1185 45.5885 18.1393 45.4336 18.0666C45.0947 18.5753 44.9398 19.1981 44.9495 19.9559C44.9688 20.7967 44.8623 21.5234 44.2523 22.0736C43.8069 22.4784 42.616 22.7691 41.9382 22.4369C41.9286 22.4576 41.9286 22.4784 41.9189 22.4888C41.5413 23.3815 40.8732 24.077 40.0405 24.3988C39.8856 24.4611 39.6726 24.3884 39.5661 24.2535C38.9851 23.5476 40.1954 23.1428 40.5343 22.7898C40.8635 22.4369 41.0959 21.9905 41.2314 21.5026C41.3573 21.0251 41.3089 20.558 41.4735 20.1012C41.5413 19.9144 41.7349 19.8313 41.8802 19.987C42.1706 20.2881 42.2578 20.6929 42.2481 21.1289C42.5579 21.2327 42.8484 21.4196 43.2163 21.2846C44.1071 20.9732 43.8166 19.8936 43.9328 19.0943C44.0587 18.2327 44.475 17.4957 45.056 16.9663C44.4944 15.4611 42.4611 14.558 41.8995 13.0216C41.4251 11.7344 41.5703 10.032 41.367 8.57871C40.5537 9.3365 39.3918 9.61677 38.3461 9.35726C37.7555 9.21193 37.1745 8.86937 36.7098 8.423C36.5936 8.87975 36.3709 9.31573 36.0804 9.68944C36.9615 9.81401 37.891 10.4265 38.3364 11.1843C38.7624 11.9005 38.6075 12.6272 38.714 13.4369C38.7431 13.686 38.8012 13.8936 38.8593 14.0908C38.9367 14.1324 39.0239 14.1427 39.1013 14.1843C39.3143 14.2984 39.2562 14.5995 39.1013 14.7241C39.7694 16.0528 41.1249 16.2396 42.6451 15.9282C43.1292 15.8244 43.3422 16.4576 42.9646 16.7794C41.5413 17.994 39.3724 17.2569 38.3848 15.7206C38.1524 15.3677 38.0072 15.0043 37.9007 14.6306C36.7194 14.7241 36.3128 15.9905 35.5382 16.9144C36.3031 17.205 36.8163 17.9005 36.7194 18.9801C37.0099 19.1462 37.3294 19.2604 37.6974 19.2915C38.3074 19.3331 38.8399 18.9697 39.4305 19.2396C39.537 19.2915 39.5564 19.4369 39.537 19.5407C39.3918 20.5684 38.0653 20.558 37.3585 20.4126C37.0486 20.3504 36.7485 20.2154 36.458 20.0493C36.3321 20.4646 36.2063 20.8798 36.2256 21.295C36.2644 22.5614 37.3875 22.6549 38.2396 22.7172C38.5688 22.7379 38.7721 23.1843 38.5204 23.4646C37.6102 24.43 36.1191 23.7137 35.4995 22.6756C35.2961 22.3331 35.1896 21.9594 35.1509 21.5753C34.5603 21.6168 34.0277 21.7206 33.4468 22.0217C33.3112 22.0943 33.137 22.1255 33.0014 22.0217C32.9046 21.9386 32.8174 21.8763 32.7981 21.731C32.769 21.513 32.8174 21.3054 33.0014 21.1808C33.6308 20.7552 34.4441 20.558 35.1799 20.7033C35.2671 20.2258 35.422 19.7794 35.5382 19.3019C35.5479 19.2708 35.5479 19.2396 35.5479 19.2085C35.4414 19.0424 35.3445 18.8763 35.2864 18.6895C35.2477 18.5441 35.3058 18.4092 35.4026 18.3261C35.209 18.0355 34.8895 17.8279 34.5215 17.6825C33.4758 18.1185 32.0332 17.776 31.5684 16.5718C31.3941 16.1254 31.8008 15.4196 32.2655 15.7933L32.2946 15.8452Z" fill="#EB847C"/>
</svg>
