<svg width="18" height="18" viewBox="0 0 18 18" fill="none" xmlns="http://www.w3.org/2000/svg">
<path d="M17.1562 4.5H16.875V2.8125C16.875 1.2375 13.3875 0 9 0C4.6125 0 1.125 1.2375 1.125 2.8125V4.5H0.84375C0.37793 4.5 0 4.87758 0 5.34375V8.15625C0 8.62207 0.37793 9 0.84375 9H1.125V14.625C1.125 15.2462 1.62879 15.75 2.25 15.75V16.875C2.25 17.4962 2.75379 18 3.375 18H4.5C5.12121 18 5.625 17.4962 5.625 16.875V15.75H12.375V16.875C12.375 17.4962 12.8788 18 13.5 18H14.625C15.2462 18 15.75 17.4962 15.75 16.875V15.75H15.975C16.5375 15.75 16.875 15.3 16.875 14.85V9H17.1562C17.6221 9 18 8.62207 18 8.15625V5.34375C18 4.87758 17.6221 4.5 17.1562 4.5ZM3.9375 14.0625C3.31629 14.0625 2.8125 13.5587 2.8125 12.9375C2.8125 12.3163 3.31629 11.8125 3.9375 11.8125C4.55871 11.8125 5.0625 12.3163 5.0625 12.9375C5.0625 13.5587 4.55871 14.0625 3.9375 14.0625ZM4.5 10.125C3.87879 10.125 3.375 9.62121 3.375 9V4.5C3.375 3.87879 3.87879 3.375 4.5 3.375H13.5C14.1212 3.375 14.625 3.87879 14.625 4.5V9C14.625 9.62121 14.1212 10.125 13.5 10.125H4.5ZM14.0625 14.0625C13.4413 14.0625 12.9375 13.5587 12.9375 12.9375C12.9375 12.3163 13.4413 11.8125 14.0625 11.8125C14.6837 11.8125 15.1875 12.3163 15.1875 12.9375C15.1875 13.5587 14.6837 14.0625 14.0625 14.0625Z" fill="#31B0ED"/>
</svg>
