<svg width="16" height="18" viewBox="0 0 16 18" fill="none" xmlns="http://www.w3.org/2000/svg">
<path d="M3.55556 8.88889H5.33333V10.6667H3.55556V8.88889ZM16 3.55556V16C16 16.4715 15.8127 16.9237 15.4793 17.2571C15.1459 17.5905 14.6937 17.7778 14.2222 17.7778H1.77778C1.30628 17.7778 0.854097 17.5905 0.520699 17.2571C0.187301 16.9237 0 16.4715 0 16V3.55556C0 3.08406 0.187301 2.63188 0.520699 2.29848C0.854097 1.96508 1.30628 1.77778 1.77778 1.77778H2.66667V0H4.44444V1.77778H11.5556V0H13.3333V1.77778H14.2222C14.6937 1.77778 15.1459 1.96508 15.4793 2.29848C15.8127 2.63188 16 3.08406 16 3.55556ZM1.77778 5.33333H14.2222V3.55556H1.77778V5.33333ZM14.2222 16V7.11111H1.77778V16H14.2222ZM10.6667 10.6667V8.88889H12.4444V10.6667H10.6667ZM7.11111 10.6667V8.88889H8.88889V10.6667H7.11111ZM3.55556 12.4444H5.33333V14.2222H3.55556V12.4444ZM10.6667 14.2222V12.4444H12.4444V14.2222H10.6667ZM7.11111 14.2222V12.4444H8.88889V14.2222H7.11111Z" fill="#E0E0E0"/>
</svg>
