<svg width="36" height="37" viewBox="0 0 36 37" fill="none" xmlns="http://www.w3.org/2000/svg">
<path d="M13.875 27.2539V28.0009C13.875 28.9641 14.2578 29.8878 14.9392 30.5686C15.6205 31.2494 16.5446 31.6315 17.5078 31.6307V31.6307C18.4711 31.6311 19.3951 31.2487 20.0764 30.5677C20.7577 29.8866 21.1405 28.9628 21.1405 27.9994V27.2539" stroke="white" stroke-width="1.5" stroke-linecap="round" stroke-linejoin="round"/>
<path fill-rule="evenodd" clip-rule="evenodd" d="M26.1838 27.2533C27.838 27.2533 29.179 25.9123 29.179 24.2581V24.2581C29.1783 23.4177 28.8447 22.6119 28.2511 22.0171L26.2611 20.0286V14.1228C26.2611 9.28828 22.342 5.36914 17.5075 5.36914V5.36914C12.673 5.36914 8.75382 9.28828 8.75382 14.1228V20.0286L6.76382 22.0171C6.17026 22.6119 5.83661 23.4177 5.83594 24.2581V24.2581C5.83594 25.0524 6.1515 25.8143 6.71321 26.376C7.27492 26.9377 8.03677 27.2533 8.83114 27.2533H26.1838Z" stroke="white" stroke-width="1.5" stroke-linecap="round" stroke-linejoin="round"/>
<circle cx="24.5078" cy="7.5" r="7.5" fill="#FFCC4D"/>
</svg>
