<svg width="16" height="16" viewBox="0 0 16 16" fill="none" xmlns="http://www.w3.org/2000/svg">
<path d="M5.33069 14.0522C5.16236 14.0522 5.02569 14.1925 5.02736 14.3652C5.02569 14.5387 5.16319 14.6789 5.33153 14.6789C5.49986 14.6789 5.63653 14.5387 5.63653 14.366C5.63653 14.1925 5.49986 14.0522 5.33069 14.0522Z" stroke="none" stroke-width="1.5" stroke-linecap="round" stroke-linejoin="round"/>
<path d="M12.3405 14.0522C12.1721 14.0522 12.0355 14.1925 12.0371 14.3652C12.0371 14.5378 12.1738 14.6781 12.3421 14.6781C12.5105 14.6781 12.6471 14.5378 12.6471 14.3652C12.6463 14.1925 12.5096 14.0522 12.3405 14.0522Z" stroke="none" stroke-width="1.5" stroke-linecap="round" stroke-linejoin="round"/>
<path d="M2.97833 3.56479L2.43667 1H1" stroke="none" stroke-width="1.5" stroke-linecap="round" stroke-linejoin="round"/>
<path d="M4.25671 9.75977L2.97754 3.56494H13.4992C14.0417 3.56494 14.4392 4.0873 14.3075 4.62762L13.1842 9.23741C13.0134 9.9376 12.4334 10.4523 11.7334 10.5241L6.05337 11.1071C5.20671 11.1935 4.43254 10.613 4.25671 9.75977V9.75977Z" stroke="none" stroke-width="1.5" stroke-linecap="round" stroke-linejoin="round"/>
</svg>
