<svg width="24" height="12" viewBox="0 0 24 12" fill="none" xmlns="http://www.w3.org/2000/svg">
<path d="M-1.84407e-07 4.59375C-8.27252e-08 2.26753 1.89253 0.374999 4.21875 0.374999L18.375 0.375C21.4766 0.375 24 2.89838 24 6C24 9.10163 21.4766 11.625 18.375 11.625L4.21875 11.625L4.21875 10.2187L18.375 10.2187C20.7012 10.2187 22.5937 8.32622 22.5937 6C22.5937 3.67378 20.7012 1.78125 18.375 1.78125L4.21875 1.78125C2.66794 1.78125 1.40625 3.04294 1.40625 4.59375C1.40625 6.14456 2.66794 7.40625 4.21875 7.40625L15.5625 7.40625C16.3379 7.40625 16.9687 6.77541 16.9687 6C16.9687 5.22459 16.3379 4.59375 15.5625 4.59375L4.21875 4.59375L4.21875 3.1875L15.5625 3.1875C17.1133 3.1875 18.375 4.44919 18.375 6C18.375 7.55081 17.1133 8.8125 15.5625 8.8125L4.21875 8.8125C1.89253 8.8125 -2.8609e-07 6.91997 -1.84407e-07 4.59375Z" fill="#29294B"/>
</svg>
