<svg width="15" height="15" viewBox="0 0 15 15" fill="none" xmlns="http://www.w3.org/2000/svg">
<path d="M9.0961 6.99997L14.7661 1.32996C14.8935 1.18117 14.9601 0.989782 14.9525 0.794034C14.945 0.598286 14.8638 0.4126 14.7253 0.274082C14.5868 0.135564 14.4011 0.0544161 14.2054 0.0468552C14.0096 0.0392943 13.8182 0.105877 13.6694 0.233298L7.99944 5.9033L2.32944 0.22552C2.18065 0.0980992 1.98925 0.0315171 1.79351 0.039078C1.59776 0.0466389 1.41207 0.127786 1.27355 0.266304C1.13504 0.404822 1.05389 0.590508 1.04633 0.786256C1.03877 0.982004 1.10535 1.1734 1.23277 1.32219L6.90277 6.99997L1.22499 12.67C1.14357 12.7397 1.07745 12.8255 1.03076 12.922C0.984077 13.0185 0.957842 13.1236 0.953705 13.2307C0.949567 13.3378 0.967616 13.4446 1.00672 13.5444C1.04582 13.6442 1.10513 13.7349 1.18093 13.8107C1.25673 13.8865 1.34738 13.9458 1.44719 13.9849C1.54699 14.024 1.65381 14.0421 1.76092 14.0379C1.86804 14.0338 1.97314 14.0075 2.06964 13.9609C2.16613 13.9142 2.25193 13.8481 2.32166 13.7666L7.99944 8.09663L13.6694 13.7666C13.8182 13.8941 14.0096 13.9606 14.2054 13.9531C14.4011 13.9455 14.5868 13.8644 14.7253 13.7258C14.8638 13.5873 14.945 13.4016 14.9525 13.2059C14.9601 13.0101 14.8935 12.8188 14.7661 12.67L9.0961 6.99997Z" fill="#8296A9"/>
</svg>
