<svg width="40" height="30" viewBox="0 0 40 30" fill="none" xmlns="http://www.w3.org/2000/svg">
<path d="M27.9418 22.5678L26.6445 17.3505C26.4274 16.4782 25.651 15.8732 24.7566 15.8732H21.5134V12.1734C21.5134 10.7107 19.9756 9.78179 18.6971 10.4234L16.1026 11.7276C15.4391 12.0612 15.0313 12.7317 15.0313 13.4777V14.6835C14.2066 15.0894 13.4953 15.6982 12.9652 16.4643C12.3338 17.377 12 18.449 12 19.5644C12 22.561 14.4249 24.999 17.4054 24.999C20.3135 24.999 22.6921 22.6779 22.8061 19.7818H23.2373L24.166 23.5175C24.4291 24.5734 25.4891 25.2029 26.5259 24.9406C27.5665 24.6793 28.2017 23.615 27.9418 22.5678ZM16.6827 12.8942L19.2769 11.5902C19.4539 11.5013 19.6577 11.5009 19.8306 11.5778C19.8306 11.5778 19.8306 11.5778 19.8306 11.5778C20.0615 11.6804 20.2205 11.9138 20.2205 12.1734V14.9196C19.821 14.6752 19.3817 14.4808 18.9189 14.3459V14.284C18.9189 13.9238 18.6284 13.6318 18.2702 13.6318C17.912 13.6318 17.6259 13.9238 17.6259 14.284V17.3906C17.6259 17.7502 17.3306 18.0427 16.9729 18.0427C16.6153 18.0427 16.3243 17.7502 16.3243 17.3906V13.4777H16.3243C16.3242 13.2289 16.4616 13.0054 16.6827 12.8942ZM17.4054 23.6947C15.1402 23.6947 13.2973 21.8418 13.2973 19.5644C13.2973 18.1942 13.9575 16.9547 15.0313 16.1936V17.3906C15.0313 18.4693 15.8999 19.347 16.9729 19.347C18.0459 19.347 18.9188 18.4693 18.9188 17.3906V15.7234C19.4831 15.9473 19.9817 16.2914 20.3875 16.7224C20.3954 16.731 20.4031 16.7397 20.4115 16.7478C20.4619 16.8024 20.5114 16.8577 20.5588 16.9149C20.5675 16.9263 20.5763 16.9375 20.5857 16.9483C21.1687 17.6656 21.5135 18.58 21.5135 19.5643C21.5135 21.8418 19.6706 23.6947 17.4054 23.6947ZM26.2105 23.6755C25.8691 23.7618 25.5132 23.5566 25.4245 23.2009L24.3731 18.9715C24.3009 18.6812 24.0414 18.4819 23.7438 18.4819H22.7024C22.61 18.0249 22.4604 17.583 22.2608 17.1733H24.7566C25.0548 17.1733 25.3136 17.3764 25.386 17.667L26.6832 22.8839C26.7699 23.2331 26.5584 23.5882 26.2105 23.6755Z" fill="#29294B"/>
<path d="M20.2141 5C18.7757 5 17.6055 6.17021 17.6055 7.60859C17.6055 9.04697 18.7757 10.2172 20.2141 10.2172C21.6524 10.2172 22.8227 9.04697 22.8227 7.60859C22.8227 6.17021 21.6524 5 20.2141 5ZM20.2141 8.91287C19.4949 8.91287 18.9097 8.32774 18.9097 7.60859C18.9097 6.88944 19.4949 6.30428 20.2141 6.30428C20.9333 6.30428 21.5183 6.8894 21.5183 7.60859C21.5183 8.32778 20.9333 8.91287 20.2141 8.91287Z" fill="#29294B"/>
</svg>
