<svg width="40" height="30" viewBox="0 0 40 30" fill="none" xmlns="http://www.w3.org/2000/svg">
<mask id="path-1-inside-1_1000_34801" fill="white">
<path d="M19.8056 19.4369C19.6227 19.4369 19.4746 19.585 19.4746 19.7678C19.4746 19.9505 19.6227 20.0986 19.8056 20.0986C22.728 20.0951 25.0961 17.727 25.0996 14.8046C25.0996 14.6218 24.9515 14.4736 24.7688 14.4736C24.586 14.4736 24.4379 14.6218 24.4379 14.8046C24.4351 17.3618 22.3628 19.4342 19.8056 19.4369V19.4369Z"/>
</mask>
<path d="M19.8056 19.4369C19.6227 19.4369 19.4746 19.585 19.4746 19.7678C19.4746 19.9505 19.6227 20.0986 19.8056 20.0986C22.728 20.0951 25.0961 17.727 25.0996 14.8046C25.0996 14.6218 24.9515 14.4736 24.7688 14.4736C24.586 14.4736 24.4379 14.6218 24.4379 14.8046C24.4351 17.3618 22.3628 19.4342 19.8056 19.4369V19.4369Z" fill="#29294B"/>
<path d="M19.8056 20.0986V27.0986L19.8139 27.0986L19.8056 20.0986ZM25.0996 14.8046L32.0996 14.8129V14.8046H25.0996ZM24.4379 14.8046L31.4379 14.812V14.8046H24.4379ZM19.8056 12.4369C15.7568 12.4369 12.4746 15.719 12.4746 19.7678H26.4746C26.4746 23.451 23.4887 26.4369 19.8056 26.4369V12.4369ZM12.4746 19.7678C12.4746 23.8186 15.7588 27.0986 19.8056 27.0986V13.0986C23.4866 13.0986 26.4746 16.0824 26.4746 19.7678H12.4746ZM19.8139 27.0986C26.5958 27.0905 32.0915 21.5948 32.0996 14.8129L18.0996 14.7962C18.1007 13.8592 18.8601 13.0998 19.7972 13.0986L19.8139 27.0986ZM32.0996 14.8046C32.0996 10.7579 28.8196 7.47363 24.7688 7.47363V21.4736C21.0834 21.4736 18.0996 18.4857 18.0996 14.8046H32.0996ZM24.7688 7.47363C20.72 7.47363 17.4379 10.7558 17.4379 14.8046H31.4379C31.4379 18.4878 28.452 21.4736 24.7688 21.4736V7.47363ZM17.4379 14.7971C17.4392 13.4942 18.4951 12.4383 19.7981 12.4369L19.813 26.4369C26.2304 26.43 31.431 21.2294 31.4378 14.812L17.4379 14.7971Z" fill="#29294B" mask="url(#path-1-inside-1_1000_34801)"/>
<path d="M18.9481 11.3158C18.076 11.3158 17.3691 12.0228 17.3691 12.8948C17.3691 13.7668 18.076 14.4737 18.9481 14.4737C19.8201 14.4737 20.527 13.7668 20.527 12.8948C20.527 12.0228 19.8201 11.3158 18.9481 11.3158ZM18.9481 13.6843C18.5121 13.6843 18.1586 13.3308 18.1586 12.8948C18.1586 12.4588 18.5121 12.1054 18.9481 12.1054C19.3841 12.1054 19.7376 12.4588 19.7376 12.8948C19.7376 13.3308 19.3841 13.6843 18.9481 13.6843Z" fill="#29294B" stroke="#29294B" stroke-width="7"/>
<path d="M18.4217 16.5789C18.4217 15.9976 17.9503 15.5264 17.3691 15.5264C16.7878 15.5264 16.3164 15.9976 16.3164 16.5789C16.3164 17.1603 16.7878 17.6316 17.3691 17.6316C17.9503 17.6316 18.4217 17.1603 18.4217 16.5789ZM16.8427 16.5789C16.8427 16.2883 17.0784 16.0527 17.3691 16.0527C17.6598 16.0527 17.8954 16.2883 17.8954 16.5789C17.8954 16.8696 17.6598 17.1052 17.3691 17.1052C17.0784 17.1052 16.8427 16.8696 16.8427 16.5789Z" fill="#29294B" stroke="#29294B" stroke-width="7"/>
<mask id="path-5-outside-2_1000_34801" maskUnits="userSpaceOnUse" x="9" y="4" width="22" height="22" fill="black">
<rect fill="white" x="9" y="4" width="22" height="22"/>
<path d="M28.6673 13.6674C28.0613 13.6696 27.5331 14.0803 27.3816 14.6668H26.3176C26.2422 13.1335 25.6369 11.6739 24.6046 10.5373L25.3488 9.79331C26.0624 10.2649 27.0172 10.1197 27.5583 9.45717C28.0992 8.79481 28.0507 7.83032 27.4458 7.22561C26.841 6.6209 25.8764 6.5724 25.2138 7.11321C24.5513 7.65417 24.4059 8.60875 24.8776 9.3222L24.1351 10.0662C22.9979 9.0338 21.5372 8.42848 20.0029 8.35359V7.62306C20.6529 7.45529 21.0766 6.83045 20.992 6.16474C20.9075 5.49902 20.341 5 19.6698 5C18.9984 5 18.432 5.49902 18.3473 6.16474C18.2628 6.83045 18.6866 7.45529 19.3365 7.62306V8.35359C17.8028 8.42893 16.3427 9.03425 15.206 10.0662L14.4618 9.3222C14.9326 8.60966 14.7872 7.65661 14.1256 7.11657C13.464 6.57667 12.5008 6.62517 11.8969 7.22897C11.293 7.83276 11.2445 8.79573 11.7845 9.45717C12.3247 10.1188 13.2779 10.264 13.9906 9.79331L14.7347 10.5373C13.7026 11.6739 13.0972 13.1335 13.0218 14.6668H12.2841C12.1186 14.112 11.5709 13.7626 10.998 13.8462C10.4248 13.9297 10 14.421 10 15.0001C10 15.579 10.4248 16.0703 10.998 16.1538C11.5709 16.2376 12.1186 15.888 12.2841 15.3332H13.0218C13.0967 16.8671 13.7022 18.3274 14.7347 19.4644L13.9906 20.2085C13.277 19.7368 12.3222 19.8821 11.7811 20.5445C11.2402 21.207 11.2887 22.1714 11.8936 22.7761C12.4984 23.3808 13.4631 23.4294 14.1256 22.8885C14.7881 22.3477 14.9335 21.3929 14.4618 20.6795L15.206 19.9355C16.343 20.967 17.8029 21.5717 19.3365 21.6464V22.3771C18.6866 22.5449 18.2628 23.1695 18.3473 23.8353C18.432 24.5011 18.9984 25 19.6698 25C20.341 25 20.9075 24.5011 20.992 23.8353C21.0766 23.1695 20.6529 22.5449 20.0029 22.3771V21.6464C21.5372 21.5715 22.9979 20.9662 24.1351 19.9338L24.8792 20.678C24.4076 21.3913 24.5529 22.346 25.2154 22.8868C25.878 23.4278 26.8427 23.3791 27.4475 22.7744C28.0523 22.1697 28.1009 21.2053 27.5599 20.5428C27.0188 19.8805 26.0641 19.7353 25.3504 20.2068L24.6046 19.4644C25.6372 18.3274 26.2427 16.8671 26.3176 15.3332H27.3816C27.556 16.0021 28.2136 16.4261 28.895 16.3088C29.5763 16.1915 30.0544 15.5722 29.995 14.8834C29.9355 14.1948 29.3586 13.6664 28.6673 13.6674V13.6674ZM25.5608 7.69703C25.8467 7.41107 26.2767 7.32551 26.6503 7.48015C27.0239 7.6348 27.2675 7.99931 27.2675 8.40362C27.2675 8.80793 27.0239 9.17243 26.6503 9.32708C26.2767 9.48173 25.8467 9.39617 25.5608 9.11036C25.3726 8.92323 25.2667 8.66899 25.2667 8.40362C25.2667 8.1384 25.3726 7.88401 25.5608 7.69703ZM19.0031 6.33769C19.0031 5.96967 19.3017 5.67136 19.6698 5.67136C20.0379 5.67136 20.3362 5.96967 20.3362 6.33769C20.3362 6.7057 20.0379 7.00401 19.6698 7.00401C19.3017 7.00401 19.0031 6.7057 19.0031 6.33769V6.33769ZM12.3651 9.11036C12.0791 8.8244 11.9935 8.39447 12.1482 8.02096C12.3028 7.64746 12.6674 7.4039 13.0718 7.4039C13.4762 7.4039 13.8408 7.64746 13.9955 8.02096C14.1502 8.39447 14.0646 8.8244 13.7786 9.11036C13.3882 9.50048 12.7554 9.50048 12.3651 9.11036ZM11.172 15.4999C10.8959 15.4999 10.6721 15.276 10.6721 15.0001C10.6721 14.724 10.8959 14.5003 11.172 14.5003C11.4481 14.5003 11.6719 14.724 11.6719 15.0001C11.6719 15.276 11.4481 15.4999 11.172 15.4999ZM13.7786 22.3031C13.4927 22.5889 13.0627 22.6745 12.6891 22.5198C12.3155 22.3652 12.0719 22.0007 12.0719 21.5964C12.0719 21.1921 12.3155 20.8277 12.6891 20.6729C13.0627 20.5183 13.4927 20.6038 13.7786 20.8898C14.1689 21.2801 14.1689 21.9128 13.7786 22.3031V22.3031ZM20.3362 23.6625C20.3362 24.0305 20.0379 24.3288 19.6698 24.3288C19.3017 24.3288 19.0031 24.0305 19.0031 23.6625C19.0031 23.2945 19.3017 22.9961 19.6698 22.9961C20.0379 22.9961 20.3362 23.2945 20.3362 23.6625ZM26.2679 20.5973C26.7449 20.5974 27.1552 20.9345 27.2481 21.4022C27.3409 21.87 27.0902 22.3382 26.6495 22.5205C26.2087 22.7027 25.7005 22.5482 25.4359 22.1515C25.1711 21.7548 25.2235 21.2264 25.5611 20.8895C25.7484 20.7019 26.0027 20.5968 26.2679 20.5973V20.5973ZM19.6698 20.997C16.3569 20.997 13.6713 18.312 13.6713 15.0001C13.6713 11.688 16.3569 9.00299 19.6698 9.00299C22.9825 9.00299 25.668 11.688 25.668 15.0001C25.6642 18.3105 22.9809 20.9932 19.6698 20.997ZM28.6673 15.6664C28.2992 15.6664 28.0008 15.3681 28.0008 15.0001C28.0008 14.6321 28.2992 14.3338 28.6673 14.3338C29.0354 14.3338 29.3337 14.6321 29.3337 15.0001C29.3337 15.3681 29.0354 15.6664 28.6673 15.6664Z"/>
</mask>
<path d="M28.6673 13.6674C28.0613 13.6696 27.5331 14.0803 27.3816 14.6668H26.3176C26.2422 13.1335 25.6369 11.6739 24.6046 10.5373L25.3488 9.79331C26.0624 10.2649 27.0172 10.1197 27.5583 9.45717C28.0992 8.79481 28.0507 7.83032 27.4458 7.22561C26.841 6.6209 25.8764 6.5724 25.2138 7.11321C24.5513 7.65417 24.4059 8.60875 24.8776 9.3222L24.1351 10.0662C22.9979 9.0338 21.5372 8.42848 20.0029 8.35359V7.62306C20.6529 7.45529 21.0766 6.83045 20.992 6.16474C20.9075 5.49902 20.341 5 19.6698 5C18.9984 5 18.432 5.49902 18.3473 6.16474C18.2628 6.83045 18.6866 7.45529 19.3365 7.62306V8.35359C17.8028 8.42893 16.3427 9.03425 15.206 10.0662L14.4618 9.3222C14.9326 8.60966 14.7872 7.65661 14.1256 7.11657C13.464 6.57667 12.5008 6.62517 11.8969 7.22897C11.293 7.83276 11.2445 8.79573 11.7845 9.45717C12.3247 10.1188 13.2779 10.264 13.9906 9.79331L14.7347 10.5373C13.7026 11.6739 13.0972 13.1335 13.0218 14.6668H12.2841C12.1186 14.112 11.5709 13.7626 10.998 13.8462C10.4248 13.9297 10 14.421 10 15.0001C10 15.579 10.4248 16.0703 10.998 16.1538C11.5709 16.2376 12.1186 15.888 12.2841 15.3332H13.0218C13.0967 16.8671 13.7022 18.3274 14.7347 19.4644L13.9906 20.2085C13.277 19.7368 12.3222 19.8821 11.7811 20.5445C11.2402 21.207 11.2887 22.1714 11.8936 22.7761C12.4984 23.3808 13.4631 23.4294 14.1256 22.8885C14.7881 22.3477 14.9335 21.3929 14.4618 20.6795L15.206 19.9355C16.343 20.967 17.8029 21.5717 19.3365 21.6464V22.3771C18.6866 22.5449 18.2628 23.1695 18.3473 23.8353C18.432 24.5011 18.9984 25 19.6698 25C20.341 25 20.9075 24.5011 20.992 23.8353C21.0766 23.1695 20.6529 22.5449 20.0029 22.3771V21.6464C21.5372 21.5715 22.9979 20.9662 24.1351 19.9338L24.8792 20.678C24.4076 21.3913 24.5529 22.346 25.2154 22.8868C25.878 23.4278 26.8427 23.3791 27.4475 22.7744C28.0523 22.1697 28.1009 21.2053 27.5599 20.5428C27.0188 19.8805 26.0641 19.7353 25.3504 20.2068L24.6046 19.4644C25.6372 18.3274 26.2427 16.8671 26.3176 15.3332H27.3816C27.556 16.0021 28.2136 16.4261 28.895 16.3088C29.5763 16.1915 30.0544 15.5722 29.995 14.8834C29.9355 14.1948 29.3586 13.6664 28.6673 13.6674V13.6674ZM25.5608 7.69703C25.8467 7.41107 26.2767 7.32551 26.6503 7.48015C27.0239 7.6348 27.2675 7.99931 27.2675 8.40362C27.2675 8.80793 27.0239 9.17243 26.6503 9.32708C26.2767 9.48173 25.8467 9.39617 25.5608 9.11036C25.3726 8.92323 25.2667 8.66899 25.2667 8.40362C25.2667 8.1384 25.3726 7.88401 25.5608 7.69703ZM19.0031 6.33769C19.0031 5.96967 19.3017 5.67136 19.6698 5.67136C20.0379 5.67136 20.3362 5.96967 20.3362 6.33769C20.3362 6.7057 20.0379 7.00401 19.6698 7.00401C19.3017 7.00401 19.0031 6.7057 19.0031 6.33769V6.33769ZM12.3651 9.11036C12.0791 8.8244 11.9935 8.39447 12.1482 8.02096C12.3028 7.64746 12.6674 7.4039 13.0718 7.4039C13.4762 7.4039 13.8408 7.64746 13.9955 8.02096C14.1502 8.39447 14.0646 8.8244 13.7786 9.11036C13.3882 9.50048 12.7554 9.50048 12.3651 9.11036ZM11.172 15.4999C10.8959 15.4999 10.6721 15.276 10.6721 15.0001C10.6721 14.724 10.8959 14.5003 11.172 14.5003C11.4481 14.5003 11.6719 14.724 11.6719 15.0001C11.6719 15.276 11.4481 15.4999 11.172 15.4999ZM13.7786 22.3031C13.4927 22.5889 13.0627 22.6745 12.6891 22.5198C12.3155 22.3652 12.0719 22.0007 12.0719 21.5964C12.0719 21.1921 12.3155 20.8277 12.6891 20.6729C13.0627 20.5183 13.4927 20.6038 13.7786 20.8898C14.1689 21.2801 14.1689 21.9128 13.7786 22.3031V22.3031ZM20.3362 23.6625C20.3362 24.0305 20.0379 24.3288 19.6698 24.3288C19.3017 24.3288 19.0031 24.0305 19.0031 23.6625C19.0031 23.2945 19.3017 22.9961 19.6698 22.9961C20.0379 22.9961 20.3362 23.2945 20.3362 23.6625ZM26.2679 20.5973C26.7449 20.5974 27.1552 20.9345 27.2481 21.4022C27.3409 21.87 27.0902 22.3382 26.6495 22.5205C26.2087 22.7027 25.7005 22.5482 25.4359 22.1515C25.1711 21.7548 25.2235 21.2264 25.5611 20.8895C25.7484 20.7019 26.0027 20.5968 26.2679 20.5973V20.5973ZM19.6698 20.997C16.3569 20.997 13.6713 18.312 13.6713 15.0001C13.6713 11.688 16.3569 9.00299 19.6698 9.00299C22.9825 9.00299 25.668 11.688 25.668 15.0001C25.6642 18.3105 22.9809 20.9932 19.6698 20.997ZM28.6673 15.6664C28.2992 15.6664 28.0008 15.3681 28.0008 15.0001C28.0008 14.6321 28.2992 14.3338 28.6673 14.3338C29.0354 14.3338 29.3337 14.6321 29.3337 15.0001C29.3337 15.3681 29.0354 15.6664 28.6673 15.6664Z" fill="#29294B"/>
<path d="M28.6673 13.6674C28.0613 13.6696 27.5331 14.0803 27.3816 14.6668H26.3176C26.2422 13.1335 25.6369 11.6739 24.6046 10.5373L25.3488 9.79331C26.0624 10.2649 27.0172 10.1197 27.5583 9.45717C28.0992 8.79481 28.0507 7.83032 27.4458 7.22561C26.841 6.6209 25.8764 6.5724 25.2138 7.11321C24.5513 7.65417 24.4059 8.60875 24.8776 9.3222L24.1351 10.0662C22.9979 9.0338 21.5372 8.42848 20.0029 8.35359V7.62306C20.6529 7.45529 21.0766 6.83045 20.992 6.16474C20.9075 5.49902 20.341 5 19.6698 5C18.9984 5 18.432 5.49902 18.3473 6.16474C18.2628 6.83045 18.6866 7.45529 19.3365 7.62306V8.35359C17.8028 8.42893 16.3427 9.03425 15.206 10.0662L14.4618 9.3222C14.9326 8.60966 14.7872 7.65661 14.1256 7.11657C13.464 6.57667 12.5008 6.62517 11.8969 7.22897C11.293 7.83276 11.2445 8.79573 11.7845 9.45717C12.3247 10.1188 13.2779 10.264 13.9906 9.79331L14.7347 10.5373C13.7026 11.6739 13.0972 13.1335 13.0218 14.6668H12.2841C12.1186 14.112 11.5709 13.7626 10.998 13.8462C10.4248 13.9297 10 14.421 10 15.0001C10 15.579 10.4248 16.0703 10.998 16.1538C11.5709 16.2376 12.1186 15.888 12.2841 15.3332H13.0218C13.0967 16.8671 13.7022 18.3274 14.7347 19.4644L13.9906 20.2085C13.277 19.7368 12.3222 19.8821 11.7811 20.5445C11.2402 21.207 11.2887 22.1714 11.8936 22.7761C12.4984 23.3808 13.4631 23.4294 14.1256 22.8885C14.7881 22.3477 14.9335 21.3929 14.4618 20.6795L15.206 19.9355C16.343 20.967 17.8029 21.5717 19.3365 21.6464V22.3771C18.6866 22.5449 18.2628 23.1695 18.3473 23.8353C18.432 24.5011 18.9984 25 19.6698 25C20.341 25 20.9075 24.5011 20.992 23.8353C21.0766 23.1695 20.6529 22.5449 20.0029 22.3771V21.6464C21.5372 21.5715 22.9979 20.9662 24.1351 19.9338L24.8792 20.678C24.4076 21.3913 24.5529 22.346 25.2154 22.8868C25.878 23.4278 26.8427 23.3791 27.4475 22.7744C28.0523 22.1697 28.1009 21.2053 27.5599 20.5428C27.0188 19.8805 26.0641 19.7353 25.3504 20.2068L24.6046 19.4644C25.6372 18.3274 26.2427 16.8671 26.3176 15.3332H27.3816C27.556 16.0021 28.2136 16.4261 28.895 16.3088C29.5763 16.1915 30.0544 15.5722 29.995 14.8834C29.9355 14.1948 29.3586 13.6664 28.6673 13.6674V13.6674ZM25.5608 7.69703C25.8467 7.41107 26.2767 7.32551 26.6503 7.48015C27.0239 7.6348 27.2675 7.99931 27.2675 8.40362C27.2675 8.80793 27.0239 9.17243 26.6503 9.32708C26.2767 9.48173 25.8467 9.39617 25.5608 9.11036C25.3726 8.92323 25.2667 8.66899 25.2667 8.40362C25.2667 8.1384 25.3726 7.88401 25.5608 7.69703ZM19.0031 6.33769C19.0031 5.96967 19.3017 5.67136 19.6698 5.67136C20.0379 5.67136 20.3362 5.96967 20.3362 6.33769C20.3362 6.7057 20.0379 7.00401 19.6698 7.00401C19.3017 7.00401 19.0031 6.7057 19.0031 6.33769V6.33769ZM12.3651 9.11036C12.0791 8.8244 11.9935 8.39447 12.1482 8.02096C12.3028 7.64746 12.6674 7.4039 13.0718 7.4039C13.4762 7.4039 13.8408 7.64746 13.9955 8.02096C14.1502 8.39447 14.0646 8.8244 13.7786 9.11036C13.3882 9.50048 12.7554 9.50048 12.3651 9.11036ZM11.172 15.4999C10.8959 15.4999 10.6721 15.276 10.6721 15.0001C10.6721 14.724 10.8959 14.5003 11.172 14.5003C11.4481 14.5003 11.6719 14.724 11.6719 15.0001C11.6719 15.276 11.4481 15.4999 11.172 15.4999ZM13.7786 22.3031C13.4927 22.5889 13.0627 22.6745 12.6891 22.5198C12.3155 22.3652 12.0719 22.0007 12.0719 21.5964C12.0719 21.1921 12.3155 20.8277 12.6891 20.6729C13.0627 20.5183 13.4927 20.6038 13.7786 20.8898C14.1689 21.2801 14.1689 21.9128 13.7786 22.3031V22.3031ZM20.3362 23.6625C20.3362 24.0305 20.0379 24.3288 19.6698 24.3288C19.3017 24.3288 19.0031 24.0305 19.0031 23.6625C19.0031 23.2945 19.3017 22.9961 19.6698 22.9961C20.0379 22.9961 20.3362 23.2945 20.3362 23.6625ZM26.2679 20.5973C26.7449 20.5974 27.1552 20.9345 27.2481 21.4022C27.3409 21.87 27.0902 22.3382 26.6495 22.5205C26.2087 22.7027 25.7005 22.5482 25.4359 22.1515C25.1711 21.7548 25.2235 21.2264 25.5611 20.8895C25.7484 20.7019 26.0027 20.5968 26.2679 20.5973V20.5973ZM19.6698 20.997C16.3569 20.997 13.6713 18.312 13.6713 15.0001C13.6713 11.688 16.3569 9.00299 19.6698 9.00299C22.9825 9.00299 25.668 11.688 25.668 15.0001C25.6642 18.3105 22.9809 20.9932 19.6698 20.997ZM28.6673 15.6664C28.2992 15.6664 28.0008 15.3681 28.0008 15.0001C28.0008 14.6321 28.2992 14.3338 28.6673 14.3338C29.0354 14.3338 29.3337 14.6321 29.3337 15.0001C29.3337 15.3681 29.0354 15.6664 28.6673 15.6664Z" stroke="#29294B" stroke-width="0.4" mask="url(#path-5-outside-2_1000_34801)"/>
</svg>
