<svg width="22" height="22" viewBox="0 0 22 22" fill="none" xmlns="http://www.w3.org/2000/svg">
<mask id="path-1-inside-1_2088_9291" fill="white">
<path d="M11.0198 15.7644C10.8287 15.7644 10.6738 15.9154 10.6738 16.1017C10.6738 16.288 10.8287 16.439 11.0198 16.439C14.0744 16.4354 16.5498 14.0213 16.5534 11.0423C16.5534 10.856 16.3986 10.705 16.2076 10.705C16.0165 10.705 15.8617 10.856 15.8617 11.0423C15.8588 13.6491 13.6927 15.7616 11.0198 15.7644Z"/>
</mask>
<path d="M11.0198 15.7644C10.8287 15.7644 10.6738 15.9154 10.6738 16.1017C10.6738 16.288 10.8287 16.439 11.0198 16.439C14.0744 16.4354 16.5498 14.0213 16.5534 11.0423C16.5534 10.856 16.3986 10.705 16.2076 10.705C16.0165 10.705 15.8617 10.856 15.8617 11.0423C15.8588 13.6491 13.6927 15.7616 11.0198 15.7644Z" fill="#29294B"/>
<path d="M11.0198 16.439V23.439L11.0279 23.4389L11.0198 16.439ZM16.5534 11.0423L23.5534 11.0509V11.0423H16.5534ZM15.8617 11.0423L22.8617 11.05V11.0423H15.8617ZM11.0198 8.76438C7.12917 8.76438 3.67383 11.885 3.67383 16.1017H17.6738C17.6738 19.9458 14.5282 22.7644 11.0198 22.7644V8.76438ZM3.67383 16.1017C3.67383 20.3204 7.13128 23.439 11.0198 23.439V9.43895C14.5261 9.43895 17.6738 12.2555 17.6738 16.1017H3.67383ZM11.0279 23.4389C17.7761 23.4311 23.5448 18.0532 23.5534 11.0509L9.55341 11.0338C9.55468 9.98949 10.3727 9.4397 11.0116 9.43896L11.0279 23.4389ZM23.5534 11.0423C23.5534 6.82762 20.1002 3.70497 16.2076 3.70497V17.705C12.697 17.705 9.5534 14.8843 9.5534 11.0423H23.5534ZM16.2076 3.70497C12.317 3.70497 8.8617 6.82556 8.8617 11.0423H22.8617C22.8617 14.8864 19.716 17.705 16.2076 17.705V3.70497ZM8.8617 11.0347C8.86325 9.61738 9.99122 8.76544 11.0125 8.76438L11.027 22.7644C17.3942 22.7578 22.8544 17.6808 22.8617 11.05L8.8617 11.0347Z" fill="#29294B" mask="url(#path-1-inside-1_2088_9291)"/>
<path d="M10.124 7.48589C9.21252 7.48589 8.47363 8.20663 8.47363 9.09552C8.47363 9.98442 9.21252 10.705 10.124 10.705C11.0356 10.705 11.7744 9.98442 11.7744 9.09552C11.7744 8.20663 11.0356 7.48589 10.124 7.48589ZM10.124 9.90025C9.66828 9.90025 9.29884 9.53997 9.29884 9.09552C9.29884 8.65107 9.66828 8.2908 10.124 8.2908C10.5798 8.2908 10.9492 8.65107 10.9492 9.09552C10.9492 9.53997 10.5798 9.90025 10.124 9.90025Z" fill="#29294B" stroke="#29294B" stroke-width="7"/>
<path d="M9.57408 12.851C9.57408 12.2584 9.08139 11.778 8.47387 11.778C7.86622 11.778 7.37354 12.2584 7.37354 12.851C7.37354 13.4436 7.86622 13.9241 8.47387 13.9241C9.08139 13.9241 9.57408 13.4436 9.57408 12.851ZM7.92364 12.851C7.92364 12.5547 8.17005 12.3145 8.47387 12.3145C8.77769 12.3145 9.02397 12.5547 9.02397 12.851C9.02397 13.1473 8.77769 13.3874 8.47387 13.3874C8.17005 13.3874 7.92364 13.1473 7.92364 12.851Z" fill="#29294B" stroke="#29294B" stroke-width="7"/>
<mask id="path-5-outside-2_2088_9291" maskUnits="userSpaceOnUse" x="-0.228516" y="0.0477333" width="23" height="22" fill="black">
<rect fill="white" x="-0.228516" y="0.0477333" width="23" height="22"/>
<path d="M20.2836 9.88309C19.6502 9.88527 19.0981 10.3039 18.9397 10.9019H17.8276C17.7488 9.3388 17.1161 7.85098 16.0371 6.69228L16.8149 5.93391C17.5608 6.41462 18.5588 6.26661 19.1244 5.59126C19.6898 4.91607 19.6391 3.93289 19.0069 3.31647C18.3746 2.70004 17.3664 2.6506 16.6738 3.20189C15.9813 3.75333 15.8293 4.7264 16.3224 5.45367L15.5463 6.21204C14.3576 5.15969 12.8309 4.54264 11.2271 4.4663V3.72161C11.9065 3.5506 12.3493 2.91365 12.261 2.23504C12.1727 1.55642 11.5805 1.04773 10.8789 1.04773C10.1771 1.04773 9.5851 1.55642 9.49661 2.23504C9.40827 2.91365 9.85122 3.5506 10.5305 3.72161V4.4663C8.92737 4.5431 7.40127 5.16015 6.21305 6.21204L5.43525 5.45367C5.92731 4.72733 5.77535 3.75582 5.08382 3.20531C4.39228 2.65495 3.38551 2.70439 2.75425 3.31989C2.12299 3.93538 2.07228 4.917 2.63673 5.59126C3.20135 6.26568 4.19775 6.41368 4.94271 5.93391L5.7205 6.69228C4.64166 7.85098 4.0088 9.3388 3.93004 10.9019H3.15893C2.98593 10.3363 2.4135 9.9801 1.81461 10.0653C1.21555 10.1505 0.771484 10.6513 0.771484 11.2416C0.771484 11.8317 1.21555 12.3325 1.81461 12.4177C2.4135 12.503 2.98593 12.1467 3.15893 11.5811H3.93004C4.00833 13.1448 4.64118 14.6334 5.7205 15.7924L4.94271 16.5509C4.1968 16.0701 3.1988 16.2182 2.63323 16.8934C2.06782 17.5688 2.11852 18.5518 2.75074 19.1682C3.38296 19.7846 4.39133 19.8342 5.08382 19.2828C5.77631 18.7315 5.92827 17.7583 5.43525 17.031L6.21305 16.2726C7.40159 17.3241 8.92753 17.9405 10.5305 18.0167V18.7615C9.85122 18.9325 9.40827 19.5693 9.49661 20.2479C9.5851 20.9267 10.1771 21.4352 10.8789 21.4352C11.5805 21.4352 12.1727 20.9267 12.261 20.2479C12.3493 19.5693 11.9065 18.9325 11.2271 18.7615V18.0167C12.8309 17.9403 14.3576 17.3233 15.5463 16.2709L16.3241 17.0294C15.8311 17.7566 15.983 18.7298 16.6755 19.2811C17.368 19.8325 18.3764 19.7829 19.0086 19.1665C19.6408 18.5501 19.6915 17.5671 19.1261 16.8917C18.5606 16.2165 17.5626 16.0685 16.8167 16.5492L16.0371 15.7924C17.1164 14.6334 17.7493 13.1448 17.8276 11.5811H18.9397C19.122 12.263 19.8094 12.6952 20.5216 12.5756C21.2337 12.4561 21.7335 11.8247 21.6714 11.1226C21.6093 10.4207 21.0062 9.882 20.2836 9.88309ZM17.0365 3.79702C17.3353 3.50551 17.7848 3.4183 18.1753 3.57594C18.5658 3.73358 18.8205 4.10515 18.8205 4.51729C18.8205 4.92944 18.5658 5.301 18.1753 5.45865C17.7848 5.61629 17.3353 5.52908 17.0365 5.23773C16.8398 5.04697 16.7291 4.78781 16.7291 4.51729C16.7291 4.24694 16.8398 3.98762 17.0365 3.79702ZM10.1821 2.41134C10.1821 2.03619 10.4941 1.7321 10.8789 1.7321C11.2636 1.7321 11.5755 2.03619 11.5755 2.41134C11.5755 2.78648 11.2636 3.09057 10.8789 3.09057C10.4941 3.09057 10.1821 2.78648 10.1821 2.41134ZM3.2436 5.23773C2.94463 4.94623 2.85518 4.50797 3.01686 4.12723C3.17855 3.74649 3.55963 3.49821 3.98234 3.49821C4.40504 3.49821 4.78613 3.74649 4.94781 4.12723C5.10949 4.50797 5.02004 4.94623 4.72107 5.23773C4.31304 5.63541 3.65164 5.63541 3.2436 5.23773ZM1.99654 11.751C1.70794 11.751 1.47402 11.5228 1.47402 11.2416C1.47402 10.9602 1.70794 10.7321 1.99654 10.7321C2.28515 10.7321 2.51906 10.9602 2.51906 11.2416C2.51906 11.5228 2.28515 11.751 1.99654 11.751ZM4.72107 18.6861C4.42226 18.9775 3.97277 19.0647 3.58227 18.907C3.19178 18.7494 2.93714 18.3778 2.93714 17.9657C2.93714 17.5535 3.19178 17.1821 3.58227 17.0243C3.97277 16.8667 4.42226 16.9539 4.72107 17.2454C5.1291 17.6432 5.1291 18.2883 4.72107 18.6861ZM11.5755 20.0718C11.5755 20.4469 11.2636 20.751 10.8789 20.751C10.4941 20.751 10.1821 20.4469 10.1821 20.0718C10.1821 19.6966 10.4941 19.3926 10.8789 19.3926C11.2636 19.3926 11.5755 19.6966 11.5755 20.0718ZM17.7756 16.9472C18.2742 16.9474 18.7031 17.2909 18.8002 17.7678C18.8972 18.2446 18.6352 18.7219 18.1745 18.9076C17.7137 19.0934 17.1826 18.9359 16.9059 18.5316C16.6291 18.1272 16.684 17.5885 17.0369 17.2451C17.2327 17.0539 17.4985 16.9467 17.7756 16.9472ZM10.8789 17.3547C7.4161 17.3547 4.60898 14.6177 4.60898 11.2416C4.60898 7.86528 7.4161 5.12828 10.8789 5.12828C14.3415 5.12828 17.1486 7.86528 17.1486 11.2416C17.1446 14.6161 14.3399 17.3508 10.8789 17.3547ZM20.2836 11.9208C19.8988 11.9208 19.5869 11.6167 19.5869 11.2416C19.5869 10.8664 19.8988 10.5623 20.2836 10.5623C20.6683 10.5623 20.9802 10.8664 20.9802 11.2416C20.9802 11.6167 20.6683 11.9208 20.2836 11.9208Z"/>
</mask>
<path d="M20.2836 9.88309C19.6502 9.88527 19.0981 10.3039 18.9397 10.9019H17.8276C17.7488 9.3388 17.1161 7.85098 16.0371 6.69228L16.8149 5.93391C17.5608 6.41462 18.5588 6.26661 19.1244 5.59126C19.6898 4.91607 19.6391 3.93289 19.0069 3.31647C18.3746 2.70004 17.3664 2.6506 16.6738 3.20189C15.9813 3.75333 15.8293 4.7264 16.3224 5.45367L15.5463 6.21204C14.3576 5.15969 12.8309 4.54264 11.2271 4.4663V3.72161C11.9065 3.5506 12.3493 2.91365 12.261 2.23504C12.1727 1.55642 11.5805 1.04773 10.8789 1.04773C10.1771 1.04773 9.5851 1.55642 9.49661 2.23504C9.40827 2.91365 9.85122 3.5506 10.5305 3.72161V4.4663C8.92737 4.5431 7.40127 5.16015 6.21305 6.21204L5.43525 5.45367C5.92731 4.72733 5.77535 3.75582 5.08382 3.20531C4.39228 2.65495 3.38551 2.70439 2.75425 3.31989C2.12299 3.93538 2.07228 4.917 2.63673 5.59126C3.20135 6.26568 4.19775 6.41368 4.94271 5.93391L5.7205 6.69228C4.64166 7.85098 4.0088 9.3388 3.93004 10.9019H3.15893C2.98593 10.3363 2.4135 9.9801 1.81461 10.0653C1.21555 10.1505 0.771484 10.6513 0.771484 11.2416C0.771484 11.8317 1.21555 12.3325 1.81461 12.4177C2.4135 12.503 2.98593 12.1467 3.15893 11.5811H3.93004C4.00833 13.1448 4.64118 14.6334 5.7205 15.7924L4.94271 16.5509C4.1968 16.0701 3.1988 16.2182 2.63323 16.8934C2.06782 17.5688 2.11852 18.5518 2.75074 19.1682C3.38296 19.7846 4.39133 19.8342 5.08382 19.2828C5.77631 18.7315 5.92827 17.7583 5.43525 17.031L6.21305 16.2726C7.40159 17.3241 8.92753 17.9405 10.5305 18.0167V18.7615C9.85122 18.9325 9.40827 19.5693 9.49661 20.2479C9.5851 20.9267 10.1771 21.4352 10.8789 21.4352C11.5805 21.4352 12.1727 20.9267 12.261 20.2479C12.3493 19.5693 11.9065 18.9325 11.2271 18.7615V18.0167C12.8309 17.9403 14.3576 17.3233 15.5463 16.2709L16.3241 17.0294C15.8311 17.7566 15.983 18.7298 16.6755 19.2811C17.368 19.8325 18.3764 19.7829 19.0086 19.1665C19.6408 18.5501 19.6915 17.5671 19.1261 16.8917C18.5606 16.2165 17.5626 16.0685 16.8167 16.5492L16.0371 15.7924C17.1164 14.6334 17.7493 13.1448 17.8276 11.5811H18.9397C19.122 12.263 19.8094 12.6952 20.5216 12.5756C21.2337 12.4561 21.7335 11.8247 21.6714 11.1226C21.6093 10.4207 21.0062 9.882 20.2836 9.88309ZM17.0365 3.79702C17.3353 3.50551 17.7848 3.4183 18.1753 3.57594C18.5658 3.73358 18.8205 4.10515 18.8205 4.51729C18.8205 4.92944 18.5658 5.301 18.1753 5.45865C17.7848 5.61629 17.3353 5.52908 17.0365 5.23773C16.8398 5.04697 16.7291 4.78781 16.7291 4.51729C16.7291 4.24694 16.8398 3.98762 17.0365 3.79702ZM10.1821 2.41134C10.1821 2.03619 10.4941 1.7321 10.8789 1.7321C11.2636 1.7321 11.5755 2.03619 11.5755 2.41134C11.5755 2.78648 11.2636 3.09057 10.8789 3.09057C10.4941 3.09057 10.1821 2.78648 10.1821 2.41134ZM3.2436 5.23773C2.94463 4.94623 2.85518 4.50797 3.01686 4.12723C3.17855 3.74649 3.55963 3.49821 3.98234 3.49821C4.40504 3.49821 4.78613 3.74649 4.94781 4.12723C5.10949 4.50797 5.02004 4.94623 4.72107 5.23773C4.31304 5.63541 3.65164 5.63541 3.2436 5.23773ZM1.99654 11.751C1.70794 11.751 1.47402 11.5228 1.47402 11.2416C1.47402 10.9602 1.70794 10.7321 1.99654 10.7321C2.28515 10.7321 2.51906 10.9602 2.51906 11.2416C2.51906 11.5228 2.28515 11.751 1.99654 11.751ZM4.72107 18.6861C4.42226 18.9775 3.97277 19.0647 3.58227 18.907C3.19178 18.7494 2.93714 18.3778 2.93714 17.9657C2.93714 17.5535 3.19178 17.1821 3.58227 17.0243C3.97277 16.8667 4.42226 16.9539 4.72107 17.2454C5.1291 17.6432 5.1291 18.2883 4.72107 18.6861ZM11.5755 20.0718C11.5755 20.4469 11.2636 20.751 10.8789 20.751C10.4941 20.751 10.1821 20.4469 10.1821 20.0718C10.1821 19.6966 10.4941 19.3926 10.8789 19.3926C11.2636 19.3926 11.5755 19.6966 11.5755 20.0718ZM17.7756 16.9472C18.2742 16.9474 18.7031 17.2909 18.8002 17.7678C18.8972 18.2446 18.6352 18.7219 18.1745 18.9076C17.7137 19.0934 17.1826 18.9359 16.9059 18.5316C16.6291 18.1272 16.684 17.5885 17.0369 17.2451C17.2327 17.0539 17.4985 16.9467 17.7756 16.9472ZM10.8789 17.3547C7.4161 17.3547 4.60898 14.6177 4.60898 11.2416C4.60898 7.86528 7.4161 5.12828 10.8789 5.12828C14.3415 5.12828 17.1486 7.86528 17.1486 11.2416C17.1446 14.6161 14.3399 17.3508 10.8789 17.3547ZM20.2836 11.9208C19.8988 11.9208 19.5869 11.6167 19.5869 11.2416C19.5869 10.8664 19.8988 10.5623 20.2836 10.5623C20.6683 10.5623 20.9802 10.8664 20.9802 11.2416C20.9802 11.6167 20.6683 11.9208 20.2836 11.9208Z" fill="#29294B"/>
<path d="M20.2836 9.88309C19.6502 9.88527 19.0981 10.3039 18.9397 10.9019H17.8276C17.7488 9.3388 17.1161 7.85098 16.0371 6.69228L16.8149 5.93391C17.5608 6.41462 18.5588 6.26661 19.1244 5.59126C19.6898 4.91607 19.6391 3.93289 19.0069 3.31647C18.3746 2.70004 17.3664 2.6506 16.6738 3.20189C15.9813 3.75333 15.8293 4.7264 16.3224 5.45367L15.5463 6.21204C14.3576 5.15969 12.8309 4.54264 11.2271 4.4663V3.72161C11.9065 3.5506 12.3493 2.91365 12.261 2.23504C12.1727 1.55642 11.5805 1.04773 10.8789 1.04773C10.1771 1.04773 9.5851 1.55642 9.49661 2.23504C9.40827 2.91365 9.85122 3.5506 10.5305 3.72161V4.4663C8.92737 4.5431 7.40127 5.16015 6.21305 6.21204L5.43525 5.45367C5.92731 4.72733 5.77535 3.75582 5.08382 3.20531C4.39228 2.65495 3.38551 2.70439 2.75425 3.31989C2.12299 3.93538 2.07228 4.917 2.63673 5.59126C3.20135 6.26568 4.19775 6.41368 4.94271 5.93391L5.7205 6.69228C4.64166 7.85098 4.0088 9.3388 3.93004 10.9019H3.15893C2.98593 10.3363 2.4135 9.9801 1.81461 10.0653C1.21555 10.1505 0.771484 10.6513 0.771484 11.2416C0.771484 11.8317 1.21555 12.3325 1.81461 12.4177C2.4135 12.503 2.98593 12.1467 3.15893 11.5811H3.93004C4.00833 13.1448 4.64118 14.6334 5.7205 15.7924L4.94271 16.5509C4.1968 16.0701 3.1988 16.2182 2.63323 16.8934C2.06782 17.5688 2.11852 18.5518 2.75074 19.1682C3.38296 19.7846 4.39133 19.8342 5.08382 19.2828C5.77631 18.7315 5.92827 17.7583 5.43525 17.031L6.21305 16.2726C7.40159 17.3241 8.92753 17.9405 10.5305 18.0167V18.7615C9.85122 18.9325 9.40827 19.5693 9.49661 20.2479C9.5851 20.9267 10.1771 21.4352 10.8789 21.4352C11.5805 21.4352 12.1727 20.9267 12.261 20.2479C12.3493 19.5693 11.9065 18.9325 11.2271 18.7615V18.0167C12.8309 17.9403 14.3576 17.3233 15.5463 16.2709L16.3241 17.0294C15.8311 17.7566 15.983 18.7298 16.6755 19.2811C17.368 19.8325 18.3764 19.7829 19.0086 19.1665C19.6408 18.5501 19.6915 17.5671 19.1261 16.8917C18.5606 16.2165 17.5626 16.0685 16.8167 16.5492L16.0371 15.7924C17.1164 14.6334 17.7493 13.1448 17.8276 11.5811H18.9397C19.122 12.263 19.8094 12.6952 20.5216 12.5756C21.2337 12.4561 21.7335 11.8247 21.6714 11.1226C21.6093 10.4207 21.0062 9.882 20.2836 9.88309ZM17.0365 3.79702C17.3353 3.50551 17.7848 3.4183 18.1753 3.57594C18.5658 3.73358 18.8205 4.10515 18.8205 4.51729C18.8205 4.92944 18.5658 5.301 18.1753 5.45865C17.7848 5.61629 17.3353 5.52908 17.0365 5.23773C16.8398 5.04697 16.7291 4.78781 16.7291 4.51729C16.7291 4.24694 16.8398 3.98762 17.0365 3.79702ZM10.1821 2.41134C10.1821 2.03619 10.4941 1.7321 10.8789 1.7321C11.2636 1.7321 11.5755 2.03619 11.5755 2.41134C11.5755 2.78648 11.2636 3.09057 10.8789 3.09057C10.4941 3.09057 10.1821 2.78648 10.1821 2.41134ZM3.2436 5.23773C2.94463 4.94623 2.85518 4.50797 3.01686 4.12723C3.17855 3.74649 3.55963 3.49821 3.98234 3.49821C4.40504 3.49821 4.78613 3.74649 4.94781 4.12723C5.10949 4.50797 5.02004 4.94623 4.72107 5.23773C4.31304 5.63541 3.65164 5.63541 3.2436 5.23773ZM1.99654 11.751C1.70794 11.751 1.47402 11.5228 1.47402 11.2416C1.47402 10.9602 1.70794 10.7321 1.99654 10.7321C2.28515 10.7321 2.51906 10.9602 2.51906 11.2416C2.51906 11.5228 2.28515 11.751 1.99654 11.751ZM4.72107 18.6861C4.42226 18.9775 3.97277 19.0647 3.58227 18.907C3.19178 18.7494 2.93714 18.3778 2.93714 17.9657C2.93714 17.5535 3.19178 17.1821 3.58227 17.0243C3.97277 16.8667 4.42226 16.9539 4.72107 17.2454C5.1291 17.6432 5.1291 18.2883 4.72107 18.6861ZM11.5755 20.0718C11.5755 20.4469 11.2636 20.751 10.8789 20.751C10.4941 20.751 10.1821 20.4469 10.1821 20.0718C10.1821 19.6966 10.4941 19.3926 10.8789 19.3926C11.2636 19.3926 11.5755 19.6966 11.5755 20.0718ZM17.7756 16.9472C18.2742 16.9474 18.7031 17.2909 18.8002 17.7678C18.8972 18.2446 18.6352 18.7219 18.1745 18.9076C17.7137 19.0934 17.1826 18.9359 16.9059 18.5316C16.6291 18.1272 16.684 17.5885 17.0369 17.2451C17.2327 17.0539 17.4985 16.9467 17.7756 16.9472ZM10.8789 17.3547C7.4161 17.3547 4.60898 14.6177 4.60898 11.2416C4.60898 7.86528 7.4161 5.12828 10.8789 5.12828C14.3415 5.12828 17.1486 7.86528 17.1486 11.2416C17.1446 14.6161 14.3399 17.3508 10.8789 17.3547ZM20.2836 11.9208C19.8988 11.9208 19.5869 11.6167 19.5869 11.2416C19.5869 10.8664 19.8988 10.5623 20.2836 10.5623C20.6683 10.5623 20.9802 10.8664 20.9802 11.2416C20.9802 11.6167 20.6683 11.9208 20.2836 11.9208Z" stroke="#29294B" stroke-width="0.4" mask="url(#path-5-outside-2_2088_9291)"/>
</svg>
