<svg width="22" height="23" viewBox="0 0 22 23" fill="none" xmlns="http://www.w3.org/2000/svg">
<path d="M5.37089 11.5171L7.62274 11.5171V13.7689L5.37089 13.7689V11.5171ZM21.1339 4.76152L21.1339 20.5245C21.1339 21.1217 20.8966 21.6945 20.4743 22.1168C20.052 22.5391 19.4792 22.7763 18.882 22.7763L3.11904 22.7763C2.52181 22.7763 1.94904 22.5391 1.52674 22.1168C1.10444 21.6945 0.867188 21.1217 0.867188 20.5245L0.867188 4.76152C0.867188 4.16429 1.10444 3.59152 1.52674 3.16922C1.94904 2.74691 2.52181 2.50966 3.11904 2.50966H4.24497V0.257812L6.49682 0.257812V2.50966L15.5042 2.50966V0.257812L17.7561 0.257812V2.50966L18.882 2.50966C19.4792 2.50966 20.052 2.74691 20.4743 3.16922C20.8966 3.59152 21.1339 4.16429 21.1339 4.76152ZM3.11904 7.01337L18.882 7.01337V4.76152L3.11904 4.76152V7.01337ZM18.882 20.5245L18.882 9.26522L3.11904 9.26522L3.11904 20.5245L18.882 20.5245ZM14.3783 13.7689V11.5171H16.6302V13.7689H14.3783ZM9.87459 13.7689V11.5171H12.1264V13.7689H9.87459ZM5.37089 16.0208H7.62274V18.2726H5.37089V16.0208ZM14.3783 18.2726L14.3783 16.0208H16.6302L16.6302 18.2726H14.3783ZM9.87459 18.2726L9.87459 16.0208H12.1264L12.1264 18.2726L9.87459 18.2726Z" fill="#E0E0E0"/>
</svg>
