<svg width="40" height="40" viewBox="0 0 40 40" fill="none" xmlns="http://www.w3.org/2000/svg">
<path d="M0 20C0 8.95431 8.95431 0 20 0C31.0457 0 40 8.95431 40 20C40 31.0457 31.0457 40 20 40C8.95431 40 0 31.0457 0 20Z" fill="white"/>
<path d="M21.5645 20L29.6645 11.9C29.8465 11.6874 29.9416 11.414 29.9308 11.1344C29.92 10.8548 29.8041 10.5895 29.6062 10.3916C29.4083 10.1937 29.1431 10.0778 28.8634 10.067C28.5838 10.0562 28.3104 10.1513 28.0978 10.3333L19.9978 18.4333L11.8978 10.3222C11.6852 10.1402 11.4118 10.0451 11.1322 10.0559C10.8525 10.0667 10.5873 10.1826 10.3894 10.3805C10.1915 10.5784 10.0756 10.8436 10.0648 11.1233C10.054 11.4029 10.1491 11.6763 10.3311 11.8889L18.4311 20L10.32 28.1C10.2037 28.1996 10.1092 28.3222 10.0426 28.46C9.97586 28.5979 9.93838 28.748 9.93247 28.9011C9.92656 29.0541 9.95234 29.2067 10.0082 29.3493C10.0641 29.4918 10.1488 29.6213 10.2571 29.7296C10.3654 29.8379 10.4949 29.9226 10.6374 29.9785C10.78 30.0344 10.9326 30.0601 11.0856 30.0542C11.2387 30.0483 11.3888 30.0108 11.5267 29.9441C11.6645 29.8775 11.7871 29.783 11.8867 29.6667L19.9978 21.5667L28.0978 29.6667C28.3104 29.8487 28.5838 29.9438 28.8634 29.933C29.1431 29.9222 29.4083 29.8063 29.6062 29.6084C29.8041 29.4105 29.92 29.1453 29.9308 28.8656C29.9416 28.586 29.8465 28.3126 29.6645 28.1L21.5645 20Z" fill="#8C9EAF"/>
</svg>
