<svg width="30" height="39" viewBox="0 0 30 39" fill="none" xmlns="http://www.w3.org/2000/svg">
<path d="M22.5818 7.24544C19.1278 3.07779 15.7183 0.369001 15.575 0.255916C14.7967 -0.358411 13.6558 0.202968 13.6558 1.19954V6.46883C13.6558 9.18975 10.0874 10.1473 8.7501 7.78241C8.33427 7.04893 7.32315 6.97164 6.7997 7.6169C3.20607 12.0423 0 17.6222 0 23.3671C0 31.626 6.65869 38.3452 14.8433 38.3452C23.0278 38.3452 29.6865 31.626 29.6865 23.3671C29.6865 17.4735 26.3142 11.7495 22.5818 7.24544ZM8.31223 19.1733C8.31223 17.8514 9.37797 16.7768 10.6871 16.7768C11.9963 16.7768 13.0621 17.8514 13.0621 19.1733C13.0621 20.4951 11.9963 21.5697 10.6871 21.5697C9.37797 21.5697 8.31223 20.4951 8.31223 19.1733ZM11.6245 29.4947C11.224 30.0155 10.4777 30.1125 9.95834 29.7051C9.44031 29.2984 9.34754 28.5458 9.7498 28.0238L18.062 17.2396C18.465 16.7168 19.2109 16.6232 19.7282 17.0291C20.2462 17.4358 20.339 18.1884 19.9367 18.7104L11.6245 29.4947ZM18.9994 29.9575C17.6902 29.9575 16.6245 28.8828 16.6245 27.561C16.6245 26.2392 17.6902 25.1645 18.9994 25.1645C20.3085 25.1645 21.3743 26.2392 21.3743 27.561C21.3743 28.8828 20.3085 29.9575 18.9994 29.9575Z" fill="#31B0ED"/>
</svg>
