<svg width="25" height="31" viewBox="0 0 25 31" fill="none" xmlns="http://www.w3.org/2000/svg">
<path fill-rule="evenodd" clip-rule="evenodd" d="M13.042 0.083374V8.87504L13.042 8.92945C13.0419 9.35352 13.0418 9.76565 13.0875 10.1056C13.139 10.4888 13.2646 10.926 13.6278 11.2893C13.991 11.6525 14.4283 11.778 14.8115 11.8295C15.1514 11.8752 15.5635 11.8751 15.9875 11.875H15.9876H15.9876H15.9876L16.042 11.875H24.8337V21.6667C24.8337 26.0272 24.8337 28.2074 23.479 29.5621C22.1244 30.9167 19.9441 30.9167 15.5837 30.9167H9.41699C5.0565 30.9167 2.87625 30.9167 1.52162 29.5621C0.166992 28.2074 0.166992 26.0272 0.166992 21.6667V9.33337C0.166992 4.97288 0.166992 2.79264 1.52162 1.43801C2.87625 0.083374 5.0565 0.083374 9.41699 0.083374H13.042ZM15.042 0.0839271V8.87504C15.042 9.37472 15.0441 9.64887 15.0697 9.83906L15.0707 9.84635L15.078 9.84735C15.2682 9.87292 15.5423 9.87504 16.042 9.87504H24.8331C24.8295 8.91913 24.8024 8.38015 24.599 7.88893C24.3643 7.32231 23.9187 6.87672 23.0275 5.98557L23.0275 5.98555L23.0275 5.98553L18.9315 1.88955C18.0403 0.998372 17.5947 0.552784 17.0281 0.318079C16.5369 0.114606 15.9979 0.08753 15.042 0.0839271ZM6.87533 17.0417C6.87533 16.4894 7.32304 16.0417 7.87533 16.0417L17.1253 16.0417C17.6776 16.0417 18.1253 16.4894 18.1253 17.0417C18.1253 17.594 17.6776 18.0417 17.1253 18.0417H7.87533C7.32304 18.0417 6.87533 17.594 6.87533 17.0417ZM7.87533 22.2084C7.32304 22.2084 6.87533 22.6561 6.87533 23.2084C6.87533 23.7607 7.32304 24.2084 7.87533 24.2084H14.042C14.5943 24.2084 15.042 23.7607 15.042 23.2084C15.042 22.6561 14.5943 22.2084 14.042 22.2084H7.87533Z" fill="#31B0ED"/>
</svg>
