<svg width="24" height="24" viewBox="0 0 24 24" fill="none" xmlns="http://www.w3.org/2000/svg">
<path fill-rule="evenodd" clip-rule="evenodd" d="M18.414 7.03467L15.586 4.52089C15.211 4.18756 14.702 4 14.172 4H7C5.895 4 5 4.79556 5 5.77778V18.2222C5 19.2044 5.895 20 7 20H17C18.105 20 19 19.2044 19 18.2222V8.29156C19 7.82044 18.789 7.368 18.414 7.03467V7.03467Z" stroke="#31B0ED" stroke-width="1.5" stroke-linecap="round" stroke-linejoin="round"/>
<path d="M12.0886 15.5555L10.0586 13.7511" stroke="#31B0ED" stroke-width="1.5" stroke-linecap="round" stroke-linejoin="round"/>
<path d="M13.9998 13.8578L12.0898 15.5556" stroke="#31B0ED" stroke-width="1.5" stroke-linecap="round" stroke-linejoin="round"/>
<path d="M12.0898 15.5555V10.2222" stroke="#31B0ED" stroke-width="1.5" stroke-linecap="round" stroke-linejoin="round"/>
<path d="M19 8.44444H15C14.448 8.44444 14 8.04622 14 7.55556V4" stroke="#31B0ED" stroke-width="1.5" stroke-linecap="round" stroke-linejoin="round"/>
</svg>
