<svg width="12" height="12" viewBox="0 0 12 12" fill="none" xmlns="http://www.w3.org/2000/svg">
<path fill-rule="evenodd" clip-rule="evenodd" d="M6.51115 0.654397C6.67312 0.721514 6.82029 0.819888 6.94423 0.943897L11.0562 5.05523C11.1803 5.17919 11.2788 5.32639 11.346 5.48843C11.4132 5.65047 11.4477 5.82415 11.4477 5.99956C11.4477 6.17497 11.4132 6.34866 11.346 6.5107C11.2788 6.67273 11.1803 6.81994 11.0562 6.9439L6.94423 11.0552C6.82029 11.1792 6.67312 11.2776 6.51115 11.3447C6.34917 11.4118 6.17556 11.4464 6.00023 11.4464C5.8249 11.4464 5.65129 11.4118 5.48931 11.3447C5.32734 11.2776 5.18018 11.1792 5.05623 11.0552L0.944231 6.9439C0.820121 6.81994 0.721663 6.67273 0.654487 6.5107C0.587311 6.34866 0.552734 6.17497 0.552734 5.99956C0.552734 5.82415 0.587311 5.65047 0.654487 5.48843C0.721663 5.32639 0.820121 5.17919 0.944231 5.05523L5.05623 0.943897C5.18018 0.819888 5.32734 0.721514 5.48931 0.654397C5.65129 0.58728 5.8249 0.552734 6.00023 0.552734C6.17556 0.552734 6.34917 0.58728 6.51115 0.654397ZM5.52882 7.1373C5.65385 7.26232 5.82342 7.33256 6.00023 7.33256C6.17704 7.33256 6.34661 7.26232 6.47163 7.1373C6.59666 7.01227 6.6669 6.8427 6.6669 6.66589V3.33256C6.6669 3.15575 6.59666 2.98618 6.47163 2.86116C6.34661 2.73613 6.17704 2.66589 6.00023 2.66589C5.82342 2.66589 5.65385 2.73613 5.52882 2.86116C5.4038 2.98618 5.33356 3.15575 5.33356 3.33256V6.66589C5.33356 6.8427 5.4038 7.01227 5.52882 7.1373ZM5.52882 9.1373C5.65385 9.26232 5.82342 9.33256 6.00023 9.33256C6.17704 9.33256 6.34661 9.26232 6.47163 9.1373C6.59666 9.01227 6.6669 8.8427 6.6669 8.66589C6.6669 8.48908 6.59666 8.31951 6.47163 8.19449C6.34661 8.06946 6.17704 7.99923 6.00023 7.99923C5.82342 7.99923 5.65385 8.06946 5.52882 8.19449C5.4038 8.31951 5.33356 8.48908 5.33356 8.66589C5.33356 8.8427 5.4038 9.01227 5.52882 9.1373Z" fill="#FF5E78"/>
</svg>
