<svg width="34" height="34" viewBox="0 0 34 34" fill="none" xmlns="http://www.w3.org/2000/svg">
<path d="M17 32C18.9702 32.0025 20.9215 31.6157 22.7417 30.8617C24.5619 30.1077 26.2152 29.0015 27.6065 27.6065C29.0015 26.2152 30.1077 24.5619 30.8617 22.7417C31.6157 20.9215 32.0025 18.9702 32 17C32.0025 15.0298 31.6156 13.0785 30.8617 11.2583C30.1077 9.43811 29.0014 7.78484 27.6065 6.39351C26.2152 4.99853 24.5619 3.89226 22.7417 3.13828C20.9215 2.38429 18.9702 1.99746 17 2.00001C15.0298 1.9975 13.0785 2.38435 11.2583 3.13833C9.43811 3.89231 7.78484 4.99856 6.39351 6.39351C4.99856 7.78484 3.89231 9.43811 3.13833 11.2583C2.38435 13.0785 1.9975 15.0298 2.00001 17C1.99746 18.9702 2.38429 20.9215 3.13828 22.7417C3.89226 24.5619 4.99853 26.2152 6.39351 27.6065C7.78484 29.0014 9.43811 30.1077 11.2583 30.8617C13.0785 31.6156 15.0298 32.0025 17 32V32Z" fill="#FF5E78"/>
<path fill-rule="evenodd" clip-rule="evenodd" d="M19 8.40039C19 7.29582 18.1046 6.40039 17 6.40039C15.8954 6.40039 15 7.29582 15 8.40039V19.2004C15 20.305 15.8954 21.2004 17 21.2004C18.1046 21.2004 19 20.305 19 19.2004V8.40039ZM18.4142 26.4142C18.0391 26.7893 17.5304 27 17 27C16.4696 27 15.9609 26.7893 15.5858 26.4142C15.2107 26.0391 15 25.5304 15 25C15 24.4696 15.2107 23.9609 15.5858 23.5858C15.9609 23.2107 16.4696 23 17 23C17.5304 23 18.0391 23.2107 18.4142 23.5858C18.7893 23.9609 19 24.4696 19 25C19 25.5304 18.7893 26.0391 18.4142 26.4142Z" fill="white"/>
</svg>
