<svg width="81" height="67" viewBox="0 0 81 67" fill="none" xmlns="http://www.w3.org/2000/svg">
<circle cx="57.3352" cy="23.5" r="23.5" fill="#DAEDFF"/>
<path fill-rule="evenodd" clip-rule="evenodd" d="M10.1991 65.4119H4.0828C2.38109 65.4119 1 64.0308 1 62.3291V43.8323C1 42.1306 2.38109 40.7495 4.0828 40.7495H10.1991C11.9008 40.7495 13.2819 42.1306 13.2819 43.8323V62.3291C13.2819 64.0308 11.9008 65.4119 10.1991 65.4119Z" fill="#EBF8FF" stroke="#31B0ED" stroke-width="1.5" stroke-linecap="round" stroke-linejoin="round"/>
<path fill-rule="evenodd" clip-rule="evenodd" d="M31.7045 53.081H38.8689C40.1976 53.081 41.4893 52.6494 42.5529 51.8478L49.9701 46.2618C51.8229 44.8684 54.4124 45.0534 56.0494 46.6965C57.8651 48.5215 57.8651 51.4779 56.0494 53.2998L49.6865 59.6905C47.9724 61.4107 45.7898 62.5852 43.4099 63.0631L34.4112 64.8696C32.6294 65.2272 30.7889 65.184 29.0225 64.7401L20.887 62.6993C19.9159 62.4527 18.914 62.3294 17.909 62.3294L13.5876 62.3985V46.1559" fill="#EBF8FF"/>
<path d="M31.7045 53.081H38.8689C40.1976 53.081 41.4893 52.6494 42.5529 51.8478L49.9701 46.2618C51.8229 44.8684 54.4124 45.0534 56.0494 46.6965C57.8651 48.5215 57.8651 51.4779 56.0494 53.2998L49.6865 59.6905C47.9724 61.4107 45.7898 62.5852 43.4099 63.0631L34.4112 64.8696C32.6294 65.2272 30.7889 65.184 29.0225 64.7401L20.887 62.6993C19.9159 62.4527 18.914 62.3294 17.909 62.3294L13.5876 62.3985V46.1559" stroke="#31B0ED" stroke-width="1.5" stroke-linecap="round" stroke-linejoin="round"/>
<path fill-rule="evenodd" clip-rule="evenodd" d="M31.7045 53.0807H36.264C38.8319 53.0807 40.9159 50.9906 40.9159 48.4103V47.4762C40.9159 45.3336 39.4639 43.4655 37.3923 42.9475L30.3543 41.1811C29.2105 40.8944 28.036 40.7495 26.8584 40.7495C24.0129 40.7495 21.2292 41.5942 18.8616 43.1818L13.2817 46.9151" fill="#EBF8FF"/>
<path d="M31.7045 53.0807H36.264C38.8319 53.0807 40.9159 50.9906 40.9159 48.4103V47.4762C40.9159 45.3336 39.4639 43.4655 37.3923 42.9475L30.3543 41.1811C29.2105 40.8944 28.036 40.7495 26.8584 40.7495C24.0129 40.7495 21.2292 41.5942 18.8616 43.1818L13.2817 46.9151" stroke="#31B0ED" stroke-width="1.5" stroke-linecap="round" stroke-linejoin="round"/>
<path fill-rule="evenodd" clip-rule="evenodd" d="M38.875 14.0367L37.7991 15.1866L36.7201 14.0367C34.3556 11.515 30.4343 11.3085 27.8201 13.5651C25.1473 15.871 24.8298 19.8694 27.0278 22.6377C30.1723 26.596 33.7761 30.505 37.7991 33.5786C41.9239 30.428 45.6048 26.4018 48.8047 22.3418C50.8825 19.706 50.454 15.8802 47.9199 13.6884L47.8028 13.5866C45.1639 11.3085 41.2395 11.515 38.875 14.0367Z" fill="#EBF8FF" stroke="#31B0ED" stroke-width="1.5" stroke-linecap="round" stroke-linejoin="round"/>
</svg>
