<svg width="160" height="64" viewBox="0 0 160 64" fill="none" xmlns="http://www.w3.org/2000/svg">
<circle cx="43.993" cy="22.7041" r="22.7041" fill="#DAEDFF"/>
<path fill-rule="evenodd" clip-rule="evenodd" d="M9.12149 44.0928L1 52.4065L7.49512 56.3036L11.3922 62.7987L21.522 52.1597" fill="#EBF8FF"/>
<path d="M9.12149 44.0928L1 52.4065L7.49512 56.3036L11.3922 62.7987L21.522 52.1597" stroke="#31B0ED" stroke-width="1.4492" stroke-linecap="round" stroke-linejoin="round"/>
<path fill-rule="evenodd" clip-rule="evenodd" d="M27.2427 52.1597L37.3725 62.7987L41.2695 56.3036L47.7646 52.4065L39.6432 44.0928" fill="#EBF8FF"/>
<path d="M27.2427 52.1597L37.3725 62.7987L41.2695 56.3036L47.7646 52.4065L39.6432 44.0928" stroke="#31B0ED" stroke-width="1.4492" stroke-linecap="round" stroke-linejoin="round"/>
<path fill-rule="evenodd" clip-rule="evenodd" d="M37.242 21.3603C44.3442 28.4625 44.3442 39.9775 37.242 47.0797C30.1398 54.1819 18.6249 54.1819 11.5227 47.0797C4.42049 39.9775 4.42049 28.4625 11.5227 21.3603C18.6249 14.2581 30.1398 14.2581 37.242 21.3603Z" fill="#EBF8FF"/>
<path d="M37.242 21.3603C44.3442 28.4625 44.3442 39.9775 37.242 47.0797C30.1398 54.1819 18.6249 54.1819 11.5227 47.0797C4.42049 39.9775 4.42049 28.4625 11.5227 21.3603C18.6249 14.2581 30.1398 14.2581 37.242 21.3603" stroke="#31B0ED" stroke-width="1.4492" stroke-linecap="round" stroke-linejoin="round"/>
<path fill-rule="evenodd" clip-rule="evenodd" d="M24.3799 40.9338L29.0485 43.3863C29.9579 43.8644 31.0205 43.0927 30.8464 42.0795L29.9553 36.8808L33.7328 33.202C34.4681 32.4849 34.0628 31.2353 33.0469 31.0872L27.8275 30.3285L25.4944 25.5975C25.0398 24.6752 23.7277 24.6752 23.2731 25.5975L20.94 30.3285L15.718 31.0898C14.7021 31.2379 14.2968 32.4875 15.0321 33.2046L18.8096 36.8834L17.9185 42.0821C17.7444 43.0953 18.807 43.867 19.7164 43.3889L24.385 40.9364H24.3799V40.9338Z" stroke="#31B0ED" stroke-width="1.4492" stroke-linecap="round" stroke-linejoin="round"/>
<path d="M58.9768 57.6021C58.1892 57.6021 57.432 57.4805 56.705 57.2372C55.9881 56.994 55.4328 56.6729 55.0391 56.2739L55.4783 55.4419C55.8619 55.8117 56.3718 56.1134 57.0079 56.3469C57.644 56.5707 58.3003 56.6826 58.9768 56.6826C59.9258 56.6826 60.6377 56.5172 61.1122 56.1863C61.5868 55.8458 61.824 55.4079 61.824 54.8727C61.824 54.464 61.6928 54.1381 61.4303 53.8948C61.1778 53.6515 60.8648 53.4667 60.4913 53.3402C60.1177 53.2039 59.5977 53.058 58.9313 52.9023C58.1337 52.7077 57.4976 52.5228 57.0231 52.3477C56.5485 52.1628 56.1396 51.8855 55.7963 51.5157C55.4631 51.1459 55.2965 50.6448 55.2965 50.0123C55.2965 49.4966 55.4379 49.0296 55.7206 48.6112C56.0033 48.183 56.4375 47.8424 57.0231 47.5895C57.6087 47.3365 58.3356 47.21 59.2039 47.21C59.8097 47.21 60.4004 47.2927 60.9759 47.4581C61.5615 47.6138 62.0663 47.8327 62.4904 48.1149L62.1118 48.976C61.6675 48.6939 61.193 48.4847 60.6881 48.3484C60.1833 48.2025 59.6886 48.1295 59.2039 48.1295C58.275 48.1295 57.5733 48.3046 57.0988 48.6549C56.6343 48.9955 56.4021 49.4382 56.4021 49.9831C56.4021 50.3918 56.5283 50.7227 56.7807 50.9757C57.0433 51.2189 57.3663 51.4087 57.75 51.5449C58.1438 51.6714 58.6688 51.8125 59.3251 51.9682C60.1025 52.153 60.7285 52.3379 61.2031 52.5228C61.6877 52.698 62.0966 52.9704 62.4298 53.3402C62.763 53.7002 62.9296 54.1916 62.9296 54.8143C62.9296 55.3301 62.7832 55.802 62.4904 56.2301C62.2077 56.6485 61.7685 56.9842 61.1728 57.2372C60.5771 57.4805 59.8451 57.6021 58.9768 57.6021Z" fill="#31B0ED"/>
<path d="M70.037 48.2317H66.3113V47.2975H74.8834V48.2317H71.1577V57.5145H70.037V48.2317Z" fill="#31B0ED"/>
<path d="M85.5436 54.7851H79.6371L78.3649 57.5145H77.1987L82.0451 47.2975H83.1507L87.9971 57.5145H86.8158L85.5436 54.7851ZM85.1347 53.9094L82.5904 48.4214L80.046 53.9094H85.1347Z" fill="#31B0ED"/>
<path d="M101.364 47.2975V57.5145H100.44L93.6252 49.2242V57.5145H92.5045V47.2975H93.4283L100.259 55.5879V47.2975H101.364Z" fill="#31B0ED"/>
<path d="M107.578 47.2975H111.895C113.015 47.2975 114.005 47.5165 114.863 47.9543C115.721 48.3825 116.388 48.9858 116.862 49.7642C117.337 50.5329 117.574 51.4135 117.574 52.406C117.574 53.3985 117.337 54.284 116.862 55.0625C116.388 55.8312 115.721 56.4345 114.863 56.8723C114.005 57.3005 113.015 57.5145 111.895 57.5145H107.578V47.2975ZM111.834 56.5804C112.763 56.5804 113.576 56.4053 114.272 56.055C114.969 55.6949 115.509 55.2036 115.893 54.5808C116.277 53.9483 116.468 53.2234 116.468 52.406C116.468 51.5887 116.277 50.8686 115.893 50.2459C115.509 49.6134 114.969 49.122 114.272 48.7717C113.576 48.4117 112.763 48.2317 111.834 48.2317H108.699V56.5804H111.834Z" fill="#31B0ED"/>
<path d="M129.345 54.7851H123.438L122.166 57.5145H121L125.847 47.2975H126.952L131.799 57.5145H130.617L129.345 54.7851ZM128.936 53.9094L126.392 48.4214L123.847 53.9094H128.936Z" fill="#31B0ED"/>
<path d="M143.545 57.5145L141.122 54.2305C140.849 54.2597 140.567 54.2743 140.274 54.2743H137.427V57.5145H136.306V47.2975H140.274C141.627 47.2975 142.687 47.6089 143.454 48.2317C144.222 48.8544 144.605 49.7107 144.605 50.8005C144.605 51.5984 144.393 52.2747 143.969 52.8293C143.555 53.3742 142.96 53.7683 142.182 54.0116L144.772 57.5145H143.545ZM140.244 53.3548C141.294 53.3548 142.096 53.131 142.652 52.6834C143.207 52.2358 143.485 51.6081 143.485 50.8005C143.485 49.9734 143.207 49.3409 142.652 48.9031C142.096 48.4555 141.294 48.2317 140.244 48.2317H137.427V53.3548H140.244Z" fill="#31B0ED"/>
<path d="M150.004 47.2975H154.32C155.441 47.2975 156.431 47.5165 157.289 47.9543C158.147 48.3825 158.813 48.9858 159.288 49.7642C159.763 50.5329 160 51.4135 160 52.406C160 53.3985 159.763 54.284 159.288 55.0625C158.813 55.8312 158.147 56.4345 157.289 56.8723C156.431 57.3005 155.441 57.5145 154.32 57.5145H150.004V47.2975ZM154.26 56.5804C155.189 56.5804 156.002 56.4053 156.698 56.055C157.395 55.6949 157.935 55.2036 158.319 54.5808C158.702 53.9483 158.894 53.2234 158.894 52.406C158.894 51.5887 158.702 50.8686 158.319 50.2459C157.935 49.6134 157.395 49.122 156.698 48.7717C156.002 48.4117 155.189 48.2317 154.26 48.2317H151.125V56.5804H154.26Z" fill="#31B0ED"/>
<path d="M55.0391 22.4548H57.4674V38.7107H55.0391V22.4548Z" fill="#31B0ED"/>
<path d="M67.0891 38.8965C65.8102 38.8965 64.5717 38.7107 63.3737 38.3391C62.1919 37.9521 61.261 37.4567 60.5811 36.8529L61.4796 35.0415C62.1271 35.5989 62.9528 36.0556 63.9565 36.4117C64.9764 36.7523 66.0206 36.9226 67.0891 36.9226C68.4976 36.9226 69.5499 36.6981 70.246 36.2491C70.9422 35.7847 71.2902 35.1731 71.2902 34.4145C71.2902 33.8572 71.096 33.4082 70.7074 33.0676C70.3351 32.7115 69.8656 32.4406 69.299 32.2548C68.7485 32.069 67.9633 31.86 66.9434 31.6278C65.6645 31.3336 64.6284 31.0395 63.8351 30.7453C63.058 30.4512 62.3862 30.0022 61.8195 29.3984C61.2691 28.7791 60.9939 27.9509 60.9939 26.9136C60.9939 26.0466 61.2286 25.2648 61.6981 24.5681C62.1838 23.8714 62.9123 23.3141 63.8837 22.8961C64.855 22.478 66.0611 22.269 67.502 22.269C68.5057 22.269 69.4932 22.3929 70.4646 22.6406C71.4359 22.8883 72.2697 23.2444 72.9658 23.7088L72.1645 25.5667C71.4521 25.1332 70.6912 24.8081 69.8818 24.5913C69.0723 24.3591 68.279 24.243 67.502 24.243C66.1259 24.243 65.0898 24.4829 64.3936 24.9629C63.7137 25.4428 63.3737 26.0621 63.3737 26.8207C63.3737 27.378 63.568 27.8347 63.9565 28.1908C64.3451 28.5314 64.8226 28.8024 65.3893 29.0036C65.9721 29.1894 66.7573 29.3907 67.7448 29.6074C69.0237 29.9016 70.0518 30.1957 70.8288 30.4899C71.6059 30.784 72.2697 31.233 72.8201 31.8368C73.3867 32.4406 73.6701 33.2534 73.6701 34.2752C73.6701 35.1267 73.4272 35.9085 72.9415 36.6207C72.4559 37.3173 71.7193 37.8747 70.7317 38.2927C69.7442 38.6952 68.53 38.8965 67.0891 38.8965Z" fill="#31B0ED"/>
<path d="M84.4701 38.8965C82.754 38.8965 81.2079 38.5404 79.8319 37.8282C78.4558 37.1006 77.3711 36.102 76.5778 34.8325C75.8007 33.563 75.4122 32.1464 75.4122 30.5828C75.4122 29.0191 75.8007 27.6025 76.5778 26.333C77.3711 25.0635 78.4558 24.0727 79.8319 23.3605C81.2079 22.6329 82.754 22.269 84.4701 22.269C86.1699 22.269 87.7079 22.6329 89.084 23.3605C90.4601 24.0727 91.5367 25.0635 92.3138 26.333C93.0908 27.587 93.4794 29.0036 93.4794 30.5828C93.4794 32.1619 93.0908 33.5862 92.3138 34.8557C91.5367 36.1098 90.4601 37.1006 89.084 37.8282C87.7079 38.5404 86.1699 38.8965 84.4701 38.8965ZM84.4701 36.8297C85.7166 36.8297 86.8337 36.5587 87.8212 36.0169C88.825 35.475 89.6102 34.7319 90.1768 33.7875C90.7596 32.8276 91.051 31.7594 91.051 30.5828C91.051 29.4062 90.7596 28.3456 90.1768 27.4013C89.6102 26.4414 88.825 25.6905 87.8212 25.1487C86.8337 24.6068 85.7166 24.3359 84.4701 24.3359C83.2235 24.3359 82.0903 24.6068 81.0703 25.1487C80.0666 25.6905 79.2733 26.4414 78.6905 27.4013C78.1239 28.3456 77.8406 29.4062 77.8406 30.5828C77.8406 31.7594 78.1239 32.8276 78.6905 33.7875C79.2733 34.7319 80.0666 35.475 81.0703 36.0169C82.0903 36.5587 83.2235 36.8297 84.4701 36.8297Z" fill="#31B0ED"/>
<path d="M106.755 22.4548V38.7107H104.351V24.4752H100.514V22.4548H106.755Z" fill="#31B0ED"/>
<path d="M114.909 28.934C117.337 28.934 119.118 29.3752 120.251 30.2576C121.401 31.1246 121.975 32.3167 121.975 33.8339C121.975 34.7938 121.733 35.6608 121.247 36.4349C120.777 37.1935 120.057 37.7973 119.086 38.2463C118.13 38.6797 116.949 38.8965 115.54 38.8965C114.342 38.8965 113.185 38.7262 112.068 38.3856C110.951 38.0295 110.028 37.5418 109.299 36.9226L110.416 35.088C110.999 35.6144 111.744 36.0401 112.65 36.3652C113.557 36.6749 114.512 36.8297 115.516 36.8297C116.795 36.8297 117.782 36.5742 118.479 36.0633C119.191 35.5369 119.547 34.8248 119.547 33.9268C119.547 32.9515 119.159 32.2161 118.381 31.7207C117.604 31.2098 116.277 30.9543 114.399 30.9543H110.538L111.436 22.4548H121.028V24.4752H113.476L113.015 28.934H114.909Z" fill="#31B0ED"/>
<path d="M128.844 22.4548V38.7107H126.44V24.4752H122.604V22.4548H128.844Z" fill="#31B0ED"/>
<path d="M142.535 30.188C143.506 30.5441 144.251 31.055 144.769 31.7207C145.287 32.3864 145.546 33.1837 145.546 34.1126C145.546 35.088 145.271 35.9395 144.72 36.6671C144.17 37.3793 143.385 37.9289 142.365 38.3159C141.345 38.703 140.147 38.8965 138.771 38.8965C137.411 38.8965 136.221 38.703 135.201 38.3159C134.197 37.9289 133.42 37.3793 132.87 36.6671C132.319 35.9395 132.044 35.088 132.044 34.1126C132.044 33.1837 132.295 32.3864 132.797 31.7207C133.315 31.055 134.06 30.5441 135.031 30.188C134.254 29.8319 133.663 29.3597 133.258 28.7714C132.854 28.1831 132.651 27.4864 132.651 26.6814C132.651 25.7834 132.902 25.0016 133.404 24.3359C133.922 23.6701 134.643 23.1592 135.565 22.8032C136.488 22.4471 137.557 22.269 138.771 22.269C140.001 22.269 141.078 22.4471 142.001 22.8032C142.94 23.1592 143.66 23.6701 144.162 24.3359C144.68 25.0016 144.939 25.7834 144.939 26.6814C144.939 27.4709 144.729 28.1676 144.308 28.7714C143.903 29.3597 143.312 29.8319 142.535 30.188ZM138.771 24.1501C137.621 24.1501 136.715 24.39 136.051 24.87C135.387 25.3344 135.055 25.9692 135.055 26.7742C135.055 27.5793 135.379 28.2141 136.027 28.6785C136.691 29.143 137.605 29.3752 138.771 29.3752C139.953 29.3752 140.875 29.143 141.539 28.6785C142.219 28.2141 142.559 27.5793 142.559 26.7742C142.559 25.9692 142.211 25.3344 141.515 24.87C140.835 24.39 139.92 24.1501 138.771 24.1501ZM138.771 37.0155C140.115 37.0155 141.175 36.7523 141.952 36.2259C142.729 35.684 143.118 34.9564 143.118 34.0429C143.118 33.145 142.729 32.4406 141.952 31.9297C141.175 31.4033 140.115 31.1401 138.771 31.1401C137.427 31.1401 136.375 31.4033 135.614 31.9297C134.853 32.4406 134.473 33.145 134.473 34.0429C134.473 34.9564 134.853 35.684 135.614 36.2259C136.375 36.7523 137.427 37.0155 138.771 37.0155Z" fill="#31B0ED"/>
<path d="M152.86 22.269C155.143 22.269 156.9 22.9735 158.13 24.3823C159.377 25.7912 160 27.7883 160 30.3738C160 32.1851 159.66 33.7333 158.98 35.0183C158.316 36.2878 157.377 37.2554 156.163 37.9211C154.965 38.5714 153.565 38.8965 151.962 38.8965C151.136 38.8965 150.359 38.8191 149.631 38.6643C148.902 38.494 148.271 38.254 147.736 37.9444L148.659 36.133C149.485 36.6439 150.578 36.8993 151.938 36.8993C153.702 36.8993 155.078 36.3807 156.066 35.3434C157.07 34.2907 157.571 32.7657 157.571 30.7685V30.188C157.086 30.8847 156.414 31.4188 155.556 31.7903C154.698 32.1464 153.735 32.3245 152.666 32.3245C151.549 32.3245 150.545 32.1232 149.655 31.7207C148.781 31.3182 148.093 30.7453 147.591 30.0022C147.105 29.2436 146.862 28.3766 146.862 27.4013C146.862 26.3795 147.121 25.4815 147.639 24.7074C148.174 23.9333 148.894 23.3373 149.801 22.9193C150.707 22.4858 151.727 22.269 152.86 22.269ZM153.079 30.4434C153.84 30.4434 154.52 30.3041 155.119 30.0254C155.718 29.7468 156.179 29.3674 156.503 28.8875C156.843 28.4076 157.013 27.8735 157.013 27.2851C157.013 26.7123 156.851 26.1937 156.527 25.7292C156.22 25.2493 155.758 24.87 155.143 24.5913C154.544 24.2972 153.816 24.1501 152.958 24.1501C151.84 24.1501 150.934 24.4365 150.238 25.0093C149.558 25.5821 149.218 26.3485 149.218 27.3084C149.218 28.2682 149.566 29.0346 150.262 29.6074C150.958 30.1648 151.897 30.4434 153.079 30.4434Z" fill="#31B0ED"/>
</svg>
