<svg width="57" height="65" viewBox="0 0 57 65" fill="none" xmlns="http://www.w3.org/2000/svg">
<circle cx="33.5" cy="23.5" r="23.5" fill="#DAEDFF"/>
<path d="M44.9067 58.0329H21.429C21.4167 58.0323 21.4057 58.0293 21.3934 58.0293C12.6375 58.0293 5.51289 50.9053 5.51289 42.1488C5.51289 37.9164 7.21312 33.8557 10.2025 30.8835C11.2092 31.8084 12.5002 32.3271 13.8774 32.3431C13.8983 32.3431 13.9199 32.3431 13.9414 32.3431C15.0921 32.3431 16.1881 31.9881 17.1123 31.3376L21.7244 36.0605C21.9053 36.2457 22.1453 36.3386 22.3847 36.3386C22.6173 36.3386 22.8499 36.2512 23.0296 36.0759L23.9815 35.1467L26.5746 37.8093C26.7451 37.9847 26.9789 38.085 27.2238 38.0881C27.2281 38.0881 27.2318 38.0881 27.2361 38.0881C27.4774 38.0881 27.7087 37.9939 27.881 37.8259L31.1935 34.5941C31.3683 34.423 31.4686 34.1892 31.4716 33.9443C31.4747 33.6994 31.3806 33.4637 31.2089 33.2883L28.6121 30.6281L29.3856 29.8737C29.5603 29.7026 29.6606 29.4694 29.6637 29.2245C29.6668 28.9802 29.5726 28.7439 29.401 28.5685L14.9235 13.7348C14.8952 13.7059 14.8632 13.6825 14.8318 13.6579C14.8072 13.6246 14.7949 13.5859 14.7648 13.5551C12.7298 11.4924 9.36809 11.4795 7.26727 13.5293C5.19783 15.5593 5.11353 18.8662 7.05866 20.9449C7.10235 21.0495 7.16204 21.1486 7.24635 21.2347L9.48316 23.5251C8.79581 24.4537 8.41183 25.5668 8.39891 26.7422C8.38783 27.6941 8.6192 28.6104 9.0598 29.4251C5.62796 32.7554 3.66867 37.3521 3.66867 42.1488C3.66867 49.1029 7.69555 55.1309 13.5377 58.0329H1.44232C0.932806 58.0329 0.519287 58.4459 0.519287 58.956V64.077C0.519287 64.5871 0.932806 65 1.44232 65H44.9079C45.4174 65 45.8309 64.5871 45.8309 64.077V58.956C45.8297 58.4465 45.4162 58.0329 44.9067 58.0329ZM29.2428 33.9172L27.2528 35.8593L25.3027 33.8575L27.2903 31.9173L29.2428 33.9172ZM8.55767 14.8486C9.75884 13.6776 11.5871 13.5305 12.9119 14.4086L8.01985 19.1887C7.17189 17.8478 7.36019 16.0233 8.55767 14.8486ZM14.2466 15.6849L27.4349 29.1968L22.4001 34.1104L9.21117 20.6052L14.2466 15.6849ZM15.7985 29.9931C15.2324 30.3272 14.5863 30.5057 13.8977 30.4971C12.9107 30.486 11.9877 30.0909 11.296 29.3833C10.6056 28.6787 10.232 27.7483 10.2431 26.7637C10.2511 26.0837 10.4462 25.4358 10.7957 24.8709L15.7985 29.9931ZM43.9836 63.1539H2.36412V59.879H43.9836V63.1539Z" fill="#31B0ED"/>
<path fill-rule="evenodd" clip-rule="evenodd" d="M45.3654 64.8788C45.2306 64.956 45.0744 65 44.9079 65H45.3654V64.8788ZM1.44234 65C0.93279 65 0.519287 64.5871 0.519287 64.0769V65H1.44234ZM27.2528 35.8592L29.2428 33.9172L27.2903 31.9173L25.3027 33.8575L27.2528 35.8592ZM12.9119 14.4086C11.5871 13.5305 9.75887 13.6776 8.55767 14.8486C7.36021 16.0233 7.17191 17.8478 8.01981 19.1887L12.9119 14.4086ZM27.4349 29.1968L14.2466 15.6849L9.21118 20.6052L22.4001 34.1104L27.4349 29.1968ZM13.8977 30.4971C14.5863 30.5057 15.2324 30.3272 15.7985 29.9931L10.7957 24.8709C10.4462 25.4358 10.2511 26.0837 10.2431 26.7637C10.232 27.7482 10.6056 28.6787 11.296 29.3833C11.9876 30.0909 12.9107 30.486 13.8977 30.4971ZM2.36409 63.1539H43.9837V59.879H2.36409V63.1539Z" fill="#EBF8FF"/>
<path d="M29.6837 50.8913C29.8659 51.0852 30.1114 51.1836 30.3581 51.1836C30.584 51.1836 30.8104 51.1012 30.9883 50.935L44.6799 38.1283C45.0522 37.78 45.0719 37.1954 44.7236 36.8231C44.3747 36.4508 43.7907 36.4317 43.419 36.7794L29.7274 49.5862C29.3551 49.9351 29.336 50.5191 29.6837 50.8913Z" fill="#31B0ED"/>
</svg>
