<svg width="75" height="65" viewBox="0 0 75 65" fill="none" xmlns="http://www.w3.org/2000/svg">
<circle cx="51.5" cy="23.5" r="23.5" fill="#DAEDFF"/>
<path fill-rule="evenodd" clip-rule="evenodd" d="M18.0083 12.0166C17.0498 12.0535 14.6696 12.2728 13.6824 12.4153C12.893 12.5292 12.5708 12.6124 12.1907 12.8004C11.6219 13.0817 10.9753 13.7073 10.6825 14.2595C10.2469 15.081 10.2515 15.0072 10.2515 21.2551C10.2515 24.5012 10.2838 27.3214 10.326 27.7627C10.5194 29.7836 11.0122 31.6026 11.812 33.2478C11.9792 33.5918 12.1161 33.881 12.1161 33.8904C12.1161 33.8999 11.6379 34.1407 11.0533 34.4256C5.18215 37.287 1.4448 41.2704 0.452829 45.724C0.272484 46.5337 0.191635 47.8064 0.144721 50.5743C0.120183 52.0218 0.0703606 54.7342 0.0341126 56.6019C-0.0457673 60.7126 -0.0247345 60.9413 0.538079 62.0795C1.21292 63.4443 2.39225 64.4142 3.89012 64.8363L4.47121 65.0001L30.3147 65C50.718 65 56.2524 64.9802 56.6057 64.9059C58.3729 64.5342 59.9479 62.9022 60.254 61.1253C60.3583 60.5197 60.3147 55.7979 60.1514 50.0103C60.0744 47.2805 59.9943 46.696 59.5127 45.3481C58.3986 42.2293 55.657 39.3761 52.0345 37.5651C51.5381 37.317 51.1301 37.0942 51.1279 37.07C51.1256 37.0459 51.2999 36.9035 51.5153 36.7537C52.0451 36.3852 52.9917 35.4175 53.4067 34.8204C53.8253 34.2182 54.0594 33.7634 54.2883 33.1073C54.6196 32.1577 54.6665 31.8295 54.6665 30.459C54.6665 29.3645 54.6372 29.0049 54.4923 28.3225C53.9525 25.7793 52.6032 23.3744 50.5559 21.3066L49.7956 20.5387L49.9749 19.953C50.199 19.2205 50.199 18.9414 49.975 18.4562C49.7681 18.0084 49.5257 17.8071 48.6817 17.3822C45.9397 16.0018 42.9866 15.592 40.2717 16.215C39.0036 16.5061 37.2962 17.1906 36.4131 17.7619C35.6839 18.2336 35.4896 18.9413 35.8093 19.9597L35.9953 20.552L35.2088 21.3508C33.5775 23.0073 32.5205 24.6369 31.7787 26.6388C31.2629 28.031 31.0924 29.0649 31.1057 30.7221C31.115 31.8927 31.2902 32.7229 31.7257 33.66C32.2738 34.8391 33.0736 35.8323 34.1275 36.6427C34.4097 36.8597 34.6401 37.0544 34.6395 37.0756C34.6389 37.0966 34.3187 37.2756 33.928 37.4732L33.2175 37.8326L32.3814 37.2033C30.8131 36.0228 29.7001 35.3381 27.8861 34.4377L26.6853 33.8416L27.0454 33.0947C27.8371 31.4527 28.2697 29.8861 28.4898 27.8646C28.6178 26.6895 28.6491 15.9305 28.5264 15.2784C28.3113 14.1349 27.4003 13.0442 26.3473 12.6696C25.257 12.2818 20.5988 11.917 18.0083 12.0166ZM22.1104 13.4268C25.6388 13.7204 26.2106 13.8591 26.7795 14.559C27.2416 15.1277 27.2567 15.2385 27.2567 18.0608C27.2567 20.4369 27.2479 20.608 27.1262 20.6075C27.0545 20.6072 26.6088 20.5582 26.1359 20.4987C25.6631 20.4393 24.8408 20.3693 24.3086 20.3431C23.7765 20.3169 23.3021 20.2835 23.2546 20.2688C23.207 20.2541 22.284 20.219 21.2035 20.1909C18.7474 20.1269 15.6398 20.2437 12.9738 20.5C12.3585 20.5592 11.7772 20.6077 11.682 20.6079L11.509 20.6081L11.5329 18.0326C11.5555 15.588 11.5649 15.4394 11.7161 15.1095C11.9299 14.6433 12.3531 14.1845 12.746 13.9927C13.1834 13.7793 15.0996 13.5218 17.4116 13.3659C18.3105 13.3053 21.082 13.3412 22.1104 13.4268ZM18.9198 14.913C18.7903 15.052 18.7569 15.1941 18.7389 15.6838L18.7168 16.2842L18.1033 16.3218C17.3773 16.3663 17.158 16.5146 17.158 16.961C17.158 17.4075 17.3773 17.5557 18.1033 17.6002L18.7168 17.6378L18.7541 18.265C18.7864 18.8088 18.8148 18.9114 18.9675 19.0358C19.193 19.2196 19.5832 19.2196 19.8087 19.0358C19.9613 18.9114 19.9897 18.8088 20.022 18.265L20.0593 17.6378L20.6814 17.6002C21.2208 17.5676 21.3226 17.539 21.4459 17.385C21.647 17.1343 21.6339 16.692 21.4194 16.4888C21.2815 16.3583 21.1406 16.3247 20.6549 16.3065L20.0593 16.2842L20.0373 15.6838C20.01 14.9421 19.8724 14.7427 19.3881 14.7427C19.1628 14.7427 19.0352 14.7891 18.9198 14.913ZM44.7468 17.4113C46.1903 17.6708 48.7469 18.722 48.797 19.0766C48.818 19.2251 48.6498 19.7985 47.7343 22.7002C47.5474 23.2926 47.3945 23.8451 47.3945 23.928C47.3945 24.1599 47.7926 24.5184 48.0499 24.5184C48.4689 24.5184 48.5998 24.3198 48.9609 23.137C49.1454 22.5325 49.3358 22.0377 49.3839 22.0374C49.5231 22.0365 50.7217 23.4323 51.2821 24.2477C52.2448 25.6486 52.8907 27.1239 53.2124 28.6565C53.4381 29.7322 53.4412 31.2865 53.2192 32.1386C52.9017 33.3574 52.1692 34.5064 51.1553 35.3759C50.6409 35.8169 49.5737 36.5162 49.5111 36.4531C49.4946 36.4364 49.6472 36.0707 49.8503 35.6404C50.5737 34.1078 51.0181 32.3239 51.1097 30.5848L51.161 29.6098L51.6458 29.5985C51.9124 29.5924 52.2053 29.5458 52.2967 29.495C52.6745 29.2851 52.721 28.8243 52.3974 28.498C52.1833 28.2822 52.1648 28.2782 51.3719 28.2779C50.5511 28.2776 49.5677 28.1526 48.6251 27.9286C47.7151 27.7124 46.2264 27.0873 45.6581 26.6828L45.4508 26.5352L45.9092 26.0411C46.4092 25.5022 46.5698 25.2066 46.5162 24.9239C46.4689 24.6744 46.1573 24.4432 45.8684 24.4432C45.6623 24.4432 45.4904 24.5827 44.5918 25.4804C42.8293 27.2408 41.2242 28.1575 39.1622 28.5813C38.0756 28.8047 36.685 28.7626 35.573 28.4727C35.163 28.3658 34.7548 28.2782 34.666 28.2782C34.4521 28.2782 34.1185 28.6874 34.1185 28.9498C34.1185 29.1573 34.4106 29.5566 34.5624 29.5566C34.6081 29.5566 34.6406 29.741 34.6406 29.9998C34.6406 31.7869 35.175 34.0853 35.9737 35.7329C36.1715 36.141 36.3113 36.4748 36.2843 36.4748C36.1939 36.4748 35.3678 35.9487 34.8465 35.5591C33.8634 34.8242 33.0074 33.597 32.6266 32.3765C32.3963 31.638 32.3413 30.0338 32.5107 28.9928C32.8699 26.7855 34.1706 24.3146 35.9251 22.5068C36.176 22.2484 36.4028 22.0368 36.429 22.0368C36.4551 22.0368 36.6247 22.519 36.8059 23.1084C37.0125 23.7807 37.1973 24.243 37.3016 24.3492C37.6742 24.7281 38.3698 24.4408 38.3698 23.9079C38.3698 23.7752 38.1481 22.97 37.8772 22.1185C37.6063 21.2671 37.285 20.2572 37.1633 19.8744C37.0416 19.4916 36.9528 19.1193 36.966 19.0472C37.0161 18.7738 39.3103 17.7791 40.57 17.4845C41.7221 17.2152 43.4837 17.1843 44.7468 17.4113ZM42.4448 19.2272C42.2706 19.4029 42.2482 19.4842 42.2482 19.9415V20.4577H41.737C41.2977 20.4577 41.198 20.4836 41.0284 20.6421C40.636 21.0087 40.8812 21.7246 41.4058 21.7436C41.5204 21.7477 41.7485 21.7562 41.9125 21.7624L42.2109 21.7736L42.2482 22.3C42.2687 22.5895 42.3147 22.8721 42.3505 22.9281C42.4616 23.1018 42.8938 23.2462 43.0837 23.1729C43.4083 23.0478 43.5072 22.8544 43.531 22.2983L43.5534 21.7736L44.0651 21.7602C44.4754 21.7494 44.6106 21.7145 44.7486 21.5839C44.9831 21.3618 45.0343 21.1033 44.8967 20.8353C44.7391 20.5279 44.5734 20.4577 44.0058 20.4577H43.5161V19.9279C43.5161 19.4657 43.4928 19.3745 43.333 19.2135C43.0803 18.9588 42.7053 18.9645 42.4448 19.2272ZM23.8258 21.6285C25.2627 21.7248 26.6516 21.8564 27.0533 21.9343L27.2601 21.9743L27.2398 23.3027L27.2194 24.6312L26.6601 24.7204C24.4343 25.0756 21.9075 24.442 19.761 22.9902C19.233 22.6331 18.0567 21.6781 18.02 21.5769C17.9831 21.4747 22.0758 21.5111 23.8258 21.6285ZM15.5087 22.3846C14.9956 23.638 14.2121 24.6257 13.1866 25.312C12.7275 25.6192 12.0311 25.9323 11.7337 25.9652L11.5567 25.9847L11.5369 23.9732C11.5259 22.8668 11.5427 21.961 11.5742 21.9601C11.6056 21.9593 12.118 21.9088 12.7128 21.8477C13.3076 21.7867 14.197 21.7154 14.6893 21.689C15.1815 21.6628 15.5988 21.6282 15.6166 21.6122C15.6344 21.5963 15.6788 21.6133 15.7154 21.6502C15.7544 21.6895 15.6688 21.9937 15.5087 22.3846ZM17.2868 22.7096C19.0089 24.3368 21.3395 25.5689 23.4996 25.9937C24.2319 26.1378 25.8284 26.1762 26.716 26.0711L27.2567 26.007V26.5816C27.2567 28.0681 26.9176 29.9165 26.3704 31.4129C25.1621 34.7168 22.7318 37.1415 20.2341 37.535C19.5707 37.6396 18.4934 37.5819 17.9337 37.4118C16.9137 37.1019 15.9168 36.4719 15.0238 35.5727C13.1795 33.7155 12.0245 31.0441 11.6407 27.7477L11.6009 27.4052L11.9457 27.3122C13.9938 26.7599 15.835 25.082 16.6822 22.9956C16.8124 22.6751 16.931 22.4128 16.9458 22.4128C16.9607 22.4128 17.1142 22.5464 17.2868 22.7096ZM44.8136 27.7048C46.0358 28.5198 47.9406 29.2254 49.5015 29.4415L49.8558 29.4906L49.8532 29.8056C49.8482 30.4314 49.7103 31.6408 49.5557 32.4141C48.8602 35.8913 46.7975 38.5991 44.2614 39.3639C43.637 39.5523 42.6089 39.5945 41.9739 39.4578C40.751 39.1947 39.9349 38.7283 38.9256 37.7155C38.089 36.8762 37.7108 36.3391 37.1782 35.234C36.5146 33.8569 36.102 32.2784 36.011 30.7681L35.9604 29.9286L36.4006 29.9869C37.7223 30.1623 39.329 29.9994 40.6819 29.5529C41.7019 29.2162 43.1769 28.4185 44.0009 27.7579C44.206 27.5934 44.3871 27.4571 44.4034 27.455C44.4197 27.4528 44.6043 27.5653 44.8136 27.7048ZM13.0944 35.4048C13.2883 35.6834 13.2889 35.6887 13.1906 36.2492C13.0563 37.0145 13.061 38.417 13.2006 39.2284C13.6828 42.031 15.3659 45.4285 17.8811 48.6767C19.2886 50.4943 19.3953 50.5242 20.3639 49.3711C22.4756 46.8571 24.1701 43.9098 25.0111 41.2874C25.5329 39.6609 25.7465 37.6483 25.5434 36.2725C25.454 35.6664 25.4569 35.6241 25.596 35.4838C25.7423 35.3363 25.7448 35.3399 26.1201 36.2248C26.9236 38.1195 27.5586 40.0486 27.6671 40.9242C27.7184 41.338 27.7182 41.3385 27.4774 41.4391C27.0853 41.6028 26.5173 42.0724 26.2058 42.4903C25.6532 43.2318 25.5167 43.7312 25.4349 45.3105C25.4113 45.7654 25.3385 47.0265 25.2731 48.1131C25.1766 49.716 25.1715 50.1626 25.2461 50.4818C25.3485 50.92 25.6186 51.508 25.8777 51.8565C25.9919 52.0101 26.0361 52.1506 26.0112 52.2818C25.955 52.5783 26.1786 53.2463 26.4409 53.5656C26.8 54.0025 27.1962 54.1793 27.8161 54.1793C28.4217 54.1793 28.8123 54.0112 29.1752 53.5945C30.0957 52.5375 29.5479 50.8963 28.1787 50.6097C27.7608 50.5222 27.0871 50.6131 26.9911 50.7698C26.8939 50.9282 26.7381 50.8142 26.6178 50.4966C26.5083 50.2075 26.4962 50.0047 26.5378 49.1618C26.7563 44.7323 26.8141 44.0489 27.0016 43.6795C27.3797 42.9345 28.0035 42.497 28.7756 42.4352C29.3382 42.3902 29.7303 42.4915 30.195 42.8017C30.7644 43.182 30.8026 43.2583 31.7906 45.9872C31.9553 46.4422 32.2618 47.286 32.4716 47.8623C32.8905 49.0124 32.9668 49.349 32.8958 49.7309L32.8485 49.9849L32.4476 49.9514C30.8282 49.816 29.8836 51.8269 31.0299 52.9694C31.8862 53.8227 33.2347 53.6485 33.8266 52.6082C34.0018 52.3001 34.0426 52.1392 34.0432 51.7537C34.0436 51.4925 34.0077 51.2107 33.9636 51.1274C33.9032 51.0137 33.9118 50.9039 33.9986 50.6855C34.196 50.188 34.266 49.5372 34.1811 48.9878C34.1386 48.7121 33.9082 47.958 33.6692 47.3121C33.4301 46.6661 32.9941 45.4608 32.7002 44.6337C32.4063 43.8065 32.0881 42.9937 31.9931 42.8274C31.5297 42.017 30.4801 41.2979 29.5123 41.1277C29.0952 41.0542 29.0414 41.0244 29.0061 40.8469C28.7608 39.6102 28.2918 38.08 27.7091 36.6148C27.5064 36.1053 27.3496 35.6792 27.3606 35.6682C27.3889 35.6396 28.7466 36.38 29.457 36.8113C32.4971 38.6574 34.9386 41.0777 36.094 43.3909C36.7356 44.6756 37.1351 46.0656 37.2108 47.2771C37.2856 48.4755 37.4307 55.8677 37.4349 58.6956C37.4376 60.5012 37.3945 60.8388 37.0805 61.4753C36.6233 62.4016 35.8431 63.096 34.8159 63.4909L34.3795 63.6586L19.5806 63.6786C6.49468 63.6962 4.72912 63.6851 4.32808 63.5833C2.87197 63.2135 1.77379 62.123 1.4043 60.6798C1.29608 60.2569 1.2872 59.858 1.33002 57.3421C1.46889 49.1888 1.54773 46.8854 1.7148 46.1C2.39732 42.8926 4.64589 39.9903 8.38689 37.4885C9.41444 36.8013 10.606 36.0988 10.7441 36.0988C10.7969 36.0988 10.701 36.4047 10.5073 36.8546C9.46209 39.2823 8.82164 42.3708 8.64137 45.8532L8.58983 46.8473L8.32058 46.9351C7.4199 47.2289 6.70628 47.8477 6.29368 48.6928C6.04486 49.2024 6.03748 49.2437 6.03748 50.1215C6.03748 50.9931 6.04636 51.0438 6.2857 51.5373C6.92496 52.8554 8.36436 53.6318 9.74335 53.4022C11.3543 53.1339 12.5658 51.7301 12.5627 50.1352C12.56 48.7389 11.6479 47.4276 10.3783 46.995L9.99045 46.8628L9.96539 46.2746C9.88268 44.3369 10.5144 40.7114 11.3453 38.3547C11.6648 37.4485 12.7492 35.1195 12.85 35.1228C12.8771 35.1237 12.9871 35.2506 13.0944 35.4048ZM15.0995 37.4257C17.842 39.5025 21.2138 39.4038 23.9564 37.1664C24.157 37.0027 24.2754 36.9456 24.2791 37.0109C24.2822 37.0675 24.2974 37.1816 24.3128 37.2643C24.3736 37.5905 24.1947 39.1867 24.0136 39.9338C23.396 42.4818 21.7523 45.5575 19.5209 48.3401C19.393 48.4997 19.3236 48.4292 18.4866 47.2905C15.9876 43.8907 14.5825 40.733 14.3778 38.0571C14.3249 37.3664 14.3924 36.8788 14.5259 36.9867C14.5747 37.0263 14.8328 37.2238 15.0995 37.4257ZM36.8024 38.1574L37.4268 38.4114L37.5937 38.9945C37.7674 39.6012 38.153 40.4094 38.5415 40.9808C38.9111 41.5243 39.7567 42.3765 40.4465 42.9004C41.2006 43.4732 42.5875 44.2205 42.8934 44.219C43.1812 44.2175 44.5182 43.5601 45.3015 43.0349C45.6527 42.7994 46.2422 42.3004 46.6114 41.9261C47.5534 40.971 48.0523 40.0431 48.2886 38.8059L48.3676 38.3923L48.9866 38.1501L49.6056 37.9078L50.0104 38.0629C50.7421 38.3432 52.3191 39.1916 53.2023 39.7801C56.002 41.6456 57.7816 43.8984 58.499 46.4847C58.7958 47.5548 58.8479 48.3147 58.9159 52.567C58.9368 53.8698 58.9757 56.2251 59.0024 57.8008C59.0495 60.5808 59.0462 60.6814 58.8926 61.1847C58.519 62.4098 57.6311 63.2581 56.3849 63.581C55.9971 63.6815 54.7371 63.6962 46.5211 63.6962C41.3405 63.6962 37.1019 63.6777 37.1019 63.6549C37.1019 63.6322 37.2231 63.4884 37.3712 63.3353C37.8778 62.8119 38.3598 61.9804 38.5697 61.2679C38.8148 60.4355 38.8156 60.1316 38.5972 50.1231C38.5349 47.2693 38.5006 46.6273 38.3782 46.0248C37.8851 43.5969 36.6679 41.3396 34.8 39.3889C34.4933 39.0685 34.2594 38.7891 34.2804 38.7679C34.3221 38.7259 36.0691 37.9173 36.1365 37.9088C36.1593 37.9058 36.459 38.0178 36.8024 38.1574ZM46.6042 39.8022C46.3752 40.2066 45.8411 40.878 45.4941 41.1978C44.9763 41.6749 44.0078 42.3297 43.3707 42.6333L42.8897 42.8627L42.4011 42.5892C41.6638 42.1765 41.1131 41.785 40.6121 41.3174C40.1389 40.8758 39.3715 39.9516 39.4295 39.8932C39.448 39.8745 39.645 39.9582 39.8674 40.0792C40.8452 40.6113 41.8301 40.8574 42.9567 40.8512C44.0113 40.8455 44.7209 40.6629 45.7536 40.1316C46.6096 39.6912 46.6833 39.6627 46.6042 39.8022ZM42.6957 45.1755C42.2171 45.352 42.1029 45.8899 42.4662 46.2562C42.7092 46.5012 42.8994 46.5292 43.2124 46.366C43.4472 46.2436 43.5161 46.115 43.5161 45.7992C43.5161 45.4835 43.4472 45.3549 43.2124 45.2325C42.9928 45.118 42.8843 45.1061 42.6957 45.1755ZM42.4777 47.9491C42.2477 48.1442 42.1772 48.4581 42.2945 48.7662C42.3533 48.9206 42.7082 49.1079 42.9421 49.1079C43.236 49.1079 43.5165 48.7868 43.5137 48.4536C43.5111 48.1416 43.4174 47.9765 43.1668 47.8418C42.916 47.7072 42.7284 47.7364 42.4777 47.9491ZM10.123 48.3122C10.8092 48.6483 11.2211 49.3265 11.2211 50.1202C11.2211 50.685 11.0889 51.0357 10.721 51.4462C10.2995 51.9166 9.94242 52.0728 9.2819 52.0757C8.57454 52.0789 8.10511 51.8556 7.70273 51.3245C6.92832 50.3025 7.25485 48.9068 8.40568 48.3201C8.74198 48.1486 8.87057 48.1243 9.31919 48.1474C9.6226 48.163 9.95927 48.232 10.123 48.3122ZM42.5838 50.2515C42.2066 50.4696 42.1226 50.9931 42.4196 51.2744C42.7026 51.5425 43.0025 51.5606 43.2788 51.3263C43.8828 50.8138 43.2647 49.8578 42.5838 50.2515ZM32.6985 51.535C32.9192 51.926 32.4689 52.3325 32.0597 52.1116C31.7218 51.9293 31.7636 51.4311 32.1282 51.2942C32.3497 51.211 32.5675 51.303 32.6985 51.535ZM28.1351 52.0073C28.3363 52.1494 28.3585 52.5287 28.1775 52.7303C27.9083 53.0302 27.3313 52.8197 27.3313 52.4217C27.3313 51.962 27.7589 51.7416 28.1351 52.0073Z" fill="#31B0ED"/>
<path fill-rule="evenodd" clip-rule="evenodd" d="M26.7794 14.559C26.2106 13.8592 25.6388 13.7204 22.1104 13.4268C21.082 13.3412 18.3105 13.3053 17.4116 13.3659C15.0996 13.5217 13.1834 13.7793 12.746 13.9928C12.3531 14.1845 11.9299 14.6433 11.7161 15.1095C11.5648 15.4393 11.5555 15.588 11.5328 18.0326L11.509 20.6081L11.682 20.6079C11.7772 20.6078 12.3585 20.5592 12.9738 20.5C15.6398 20.2437 18.7474 20.1269 21.2035 20.1909C22.284 20.219 23.207 20.254 23.2546 20.2688C23.3021 20.2835 23.7765 20.317 24.3086 20.3431C24.8408 20.3693 25.6631 20.4392 26.1359 20.4988C26.6088 20.5582 27.0544 20.6072 27.1262 20.6075C27.2479 20.608 27.2567 20.4369 27.2567 18.0608C27.2567 15.2385 27.2416 15.1277 26.7794 14.559ZM18.7389 15.6837C18.7569 15.194 18.7903 15.0519 18.9198 14.9131C19.0352 14.7891 19.1628 14.7427 19.3881 14.7427C19.8723 14.7427 20.01 14.9421 20.0373 15.6837L20.0593 16.2842L20.6549 16.3065C21.1406 16.3247 21.2815 16.3583 21.4194 16.4889C21.6339 16.692 21.647 17.1343 21.4459 17.385C21.3226 17.539 21.2208 17.5677 20.6814 17.6002L20.0593 17.6378L20.022 18.265C19.9897 18.8087 19.9613 18.9113 19.8087 19.0357C19.5832 19.2197 19.193 19.2197 18.9675 19.0357C18.8148 18.9113 18.7864 18.8087 18.7541 18.265L18.7168 17.6378L18.1033 17.6002C17.3773 17.5557 17.158 17.4075 17.158 16.9611C17.158 16.5145 17.3773 16.3663 18.1033 16.3218L18.7168 16.2842L18.7389 15.6837ZM48.797 19.0767C48.7469 18.7219 46.1903 17.6708 44.7467 17.4113C43.4837 17.1844 41.722 17.2152 40.57 17.4845C39.3103 17.779 37.0161 18.7738 36.966 19.0472C36.9528 19.1193 37.0416 19.4915 37.1633 19.8743L37.8772 22.1186C38.1481 22.97 38.3698 23.7751 38.3698 23.9079C38.3698 24.4407 37.6742 24.7281 37.3016 24.3492C37.1972 24.243 37.0125 23.7807 36.8059 23.1084C36.6247 22.519 36.4551 22.0368 36.429 22.0368C36.4028 22.0368 36.176 22.2484 35.9251 22.5068C34.1706 24.3147 32.8699 26.7855 32.5107 28.9928C32.3413 30.0338 32.3963 31.638 32.6266 32.3764C33.0074 33.597 33.8634 34.8242 34.8465 35.5591C35.3678 35.9486 36.1939 36.4748 36.2843 36.4748C36.3113 36.4748 36.1715 36.1409 35.9737 35.7329C35.175 34.0852 34.6406 31.7869 34.6406 29.9998C34.6406 29.741 34.6081 29.5566 34.5624 29.5566C34.4106 29.5566 34.1185 29.1573 34.1185 28.9498C34.1185 28.6873 34.4521 28.2782 34.666 28.2782C34.7548 28.2782 35.163 28.3658 35.573 28.4727C36.685 28.7625 38.0756 28.8047 39.1622 28.5814C41.2242 28.1575 42.8293 27.2408 44.5918 25.4804C45.4904 24.5827 45.6623 24.4432 45.8684 24.4432C46.1573 24.4432 46.4689 24.6744 46.5162 24.9239C46.5698 25.2065 46.4092 25.5022 45.9091 26.0411L45.4507 26.5352L45.6581 26.6827C46.2264 27.0873 47.7151 27.7124 48.6251 27.9286C49.5677 28.1526 50.5511 28.2776 51.3719 28.278C52.1648 28.2782 52.1833 28.2822 52.3974 28.4981C52.721 28.8243 52.6745 29.2851 52.2967 29.4949C52.2053 29.5457 51.9124 29.5923 51.6458 29.5986L51.161 29.6098L51.1097 30.5849C51.0181 32.3239 50.5737 34.1078 49.8503 35.6403C49.6472 36.0708 49.4946 36.4364 49.5111 36.453C49.5737 36.5162 50.6409 35.8169 51.1553 35.3759C52.1692 34.5064 52.9017 33.3574 53.2192 32.1386C53.4412 31.2865 53.4381 29.7322 53.2124 28.6564C52.8907 27.1239 52.2448 25.6486 51.282 24.2478C50.7217 23.4322 49.523 22.0366 49.3839 22.0375C49.3358 22.0377 49.1454 22.5325 48.9609 23.137C48.5998 24.3198 48.4689 24.5184 48.0499 24.5184C47.7925 24.5184 47.3945 24.1599 47.3945 23.928C47.3945 23.8451 47.5474 23.2926 47.7343 22.7003C48.6498 19.7985 48.818 19.225 48.797 19.0767ZM42.2482 19.9415C42.2482 19.4841 42.2705 19.4029 42.4448 19.2271C42.7053 18.9644 43.0803 18.9588 43.333 19.2135C43.4928 19.3745 43.5161 19.4656 43.5161 19.9279V20.4577H44.0058C44.5734 20.4577 44.7391 20.5279 44.8967 20.8352C45.0343 21.1034 44.9831 21.3618 44.7486 21.5839C44.6106 21.7145 44.4754 21.7494 44.065 21.7602L43.5534 21.7736L43.5309 22.2983C43.5071 22.8544 43.4083 23.0477 43.0837 23.1729C42.8938 23.2462 42.4616 23.1017 42.3505 22.9281C42.3147 22.8722 42.2687 22.5895 42.2482 22.3L42.2109 21.7736L41.9125 21.7624L41.5458 21.7487L41.4057 21.7435C40.8812 21.7246 40.636 21.0088 41.0284 20.6421C41.198 20.4836 41.2977 20.4577 41.737 20.4577H42.2482V19.9415ZM27.0533 21.9343C26.6515 21.8564 25.2627 21.7248 23.8258 21.6285C22.0758 21.5112 17.983 21.4747 18.02 21.5769C18.0567 21.6782 19.233 22.6331 19.761 22.9902C21.9075 24.442 24.4343 25.0757 26.66 24.7204L27.2194 24.6312L27.2398 23.3027L27.2601 21.9743L27.0533 21.9343ZM13.1866 25.312C14.2121 24.6257 14.9956 23.638 15.5087 22.3846C15.6688 21.9936 15.7544 21.6895 15.7154 21.6502C15.6788 21.6134 15.6344 21.5963 15.6166 21.6122C15.5988 21.6282 15.1815 21.6628 14.6893 21.6891C14.197 21.7153 13.3076 21.7867 12.7128 21.8477C12.118 21.9087 11.6056 21.9593 11.5742 21.9602C11.5427 21.9609 11.5259 22.8668 11.5369 23.9731L11.5567 25.9847L11.7337 25.9651C12.0311 25.9322 12.7275 25.6191 13.1866 25.312ZM23.4996 25.9937C21.3395 25.5688 19.0089 24.3368 17.2868 22.7095C17.1142 22.5463 16.9607 22.4128 16.9458 22.4128C16.931 22.4128 16.8124 22.6751 16.6822 22.9956C15.835 25.082 13.9938 26.7599 11.9457 27.3122L11.6009 27.4052L11.6407 27.7477C12.0245 31.0441 13.1794 33.7156 15.0238 35.5727C15.9168 36.4719 16.9137 37.1019 17.9337 37.4118C18.4934 37.5819 19.5707 37.6396 20.2341 37.535C22.7318 37.1415 25.1621 34.7168 26.3704 31.4129C26.9176 29.9165 27.2567 28.068 27.2567 26.5817V26.0071L26.716 26.0711C25.8284 26.1762 24.2319 26.1378 23.4996 25.9937ZM49.5015 29.4415C47.9406 29.2255 46.0358 28.5198 44.8136 27.7048C44.6043 27.5653 44.4197 27.4527 44.4034 27.455C44.3871 27.4571 44.206 27.5934 44.0009 27.7578C43.1769 28.4185 41.7019 29.2162 40.6819 29.553C39.329 29.9994 37.7223 30.1623 36.4006 29.987L35.9604 29.9285L36.011 30.768C36.102 32.2784 36.5146 33.8569 37.1782 35.2339C37.7108 36.339 38.089 36.8761 38.9256 37.7155C39.9349 38.7283 40.751 39.1948 41.9739 39.4578C42.6089 39.5944 43.637 39.5523 44.2613 39.3639C46.7975 38.5991 48.8602 35.8913 49.5556 32.4141C49.7103 31.6408 49.8482 30.4314 49.8532 29.8056L49.8558 29.4906L49.5015 29.4415ZM13.1906 36.2491C13.2889 35.6887 13.2883 35.6835 13.0944 35.4047C12.9871 35.2506 12.8771 35.1237 12.85 35.1227C12.7492 35.1195 11.6648 37.4485 11.3453 38.3547C10.5144 40.7114 9.88267 44.337 9.96538 46.2747L9.99044 46.8628L10.3783 46.995C11.6479 47.4276 12.56 48.7388 12.5627 50.1352C12.5658 51.7301 11.3543 53.1339 9.74335 53.4022C8.36436 53.6318 6.92496 52.8554 6.28569 51.5372C6.04635 51.0439 6.03747 50.9931 6.03747 50.1215C6.03747 49.2437 6.04486 49.2024 6.29367 48.6928C6.70627 47.8477 7.41989 47.2289 8.32058 46.9351L8.58983 46.8472L8.64136 45.8532C8.82164 42.3708 9.46208 39.2823 10.5073 36.8546C10.701 36.4047 10.7969 36.0988 10.744 36.0988C10.606 36.0988 9.41442 36.8013 8.38688 37.4885C4.64588 39.9903 2.39731 42.8925 1.7148 46.1C1.54773 46.8854 1.46889 49.1888 1.33001 57.342C1.28719 59.858 1.29608 60.257 1.40429 60.6799C1.77379 62.1231 2.87197 63.2135 4.32808 63.5833C4.72912 63.6851 6.49468 63.6962 19.5806 63.6786L34.3795 63.6586L34.8159 63.4909C35.8431 63.096 36.6233 62.4016 37.0804 61.4753C37.3945 60.8388 37.4376 60.5013 37.4349 58.6955C37.4307 55.8676 37.2855 48.4755 37.2107 47.2771C37.135 46.0656 36.7356 44.6755 36.094 43.3909C34.9386 41.0778 32.4971 38.6573 29.457 36.8113C28.7466 36.38 27.3889 35.6396 27.3606 35.6682C27.3496 35.6792 27.5064 36.1053 27.7091 36.6149C28.2918 38.08 28.7608 39.6102 29.0061 40.8469C29.0414 41.0245 29.0951 41.0542 29.5123 41.1276C30.4801 41.2979 31.5297 42.017 31.9931 42.8274C32.0881 42.9937 32.4063 43.8065 32.7002 44.6337C32.9941 45.4608 33.4301 46.6661 33.6692 47.312C33.9082 47.958 34.1386 48.7121 34.1811 48.9877C34.266 49.5372 34.196 50.188 33.9985 50.6855C33.9118 50.904 33.9031 51.0136 33.9636 51.1274C34.0077 51.2106 34.0436 51.4925 34.0432 51.7536C34.0426 52.1393 34.0018 52.3001 33.8266 52.6082C33.2347 53.6485 31.8862 53.8226 31.0299 52.9694C29.8836 51.8269 30.8282 49.8159 32.4476 49.9514L32.8485 49.9848L32.8958 49.7308C32.9668 49.349 32.8905 49.0125 32.4716 47.8623C32.2618 47.2859 31.9553 46.4422 31.7906 45.9872C30.8026 43.2583 30.7644 43.182 30.195 42.8017C29.7303 42.4914 29.3381 42.3901 28.7756 42.4352C28.0035 42.497 27.3797 42.9345 27.0016 43.6795C26.8141 44.0488 26.7563 44.7323 26.5378 49.1618C26.4962 50.0047 26.5083 50.2076 26.6178 50.4966C26.7381 50.8142 26.8939 50.9282 26.9911 50.7698C27.0871 50.6131 27.7608 50.5223 28.1787 50.6097C29.5479 50.8963 30.0957 52.5375 29.1752 53.5945C28.8122 54.0111 28.4216 54.1793 27.8161 54.1793C27.1962 54.1793 26.8 54.0024 26.4409 53.5656C26.1786 53.2464 25.955 52.5783 26.0112 52.2818C26.0361 52.1506 25.9919 52.0101 25.8777 51.8565C25.6186 51.508 25.3485 50.92 25.2461 50.4818C25.1715 50.1625 25.1766 49.716 25.2731 48.1131C25.3385 47.0265 25.4113 45.7654 25.4348 45.3104C25.5167 43.7313 25.6532 43.2319 26.2058 42.4903C26.5173 42.0723 27.0853 41.6028 27.4774 41.4391C27.7182 41.3385 27.7184 41.338 27.6671 40.9242C27.5586 40.0485 26.9236 38.1194 26.1201 36.2248C25.7448 35.3399 25.7423 35.3363 25.5959 35.4838C25.4568 35.6241 25.454 35.6664 25.5434 36.2726C25.7465 37.6483 25.5329 39.6609 25.0111 41.2874C24.17 43.9099 22.4756 46.8572 20.3639 49.3711C19.3953 50.5242 19.2886 50.4944 17.8811 48.6767C15.3659 45.4285 13.6828 42.0311 13.2006 39.2284C13.061 38.4169 13.0563 37.0146 13.1906 36.2491ZM23.9564 37.1664C21.2137 39.4038 17.842 39.5025 15.0995 37.4257C14.8328 37.2238 14.5747 37.0263 14.5258 36.9867C14.3924 36.8788 14.3249 37.3664 14.3778 38.0571C14.5824 40.733 15.9876 43.8907 18.4866 47.2905C19.3236 48.4292 19.393 48.4997 19.5209 48.3401C21.7522 45.5575 23.396 42.4818 24.0136 39.9339C24.1947 39.1867 24.3736 37.5905 24.3128 37.2643C24.2974 37.1816 24.2822 37.0676 24.2791 37.0109C24.2754 36.9456 24.157 37.0027 23.9564 37.1664ZM37.4268 38.4114L36.8024 38.1575C36.459 38.0178 36.1593 37.9058 36.1365 37.9087C36.0691 37.9172 34.3221 38.7259 34.2804 38.7679C34.2594 38.7891 34.4933 39.0685 34.8 39.3888C36.6679 41.3396 37.8851 43.597 38.3782 46.0248C38.5006 46.6273 38.5349 47.2693 38.5972 50.123C38.8156 60.1316 38.8148 60.4356 38.5697 61.2678C38.3598 61.9804 37.8778 62.8119 37.3712 63.3352C37.2231 63.4884 37.1018 63.6322 37.1018 63.6548C37.1018 63.6777 41.3405 63.6962 46.5211 63.6962C54.7371 63.6962 55.9971 63.6815 56.3849 63.581C57.6311 63.2582 58.519 62.4097 58.8926 61.1847C59.0462 60.6814 59.0495 60.5808 59.0023 57.8008C58.9756 56.2251 58.9368 53.8698 58.9159 52.567C58.8479 48.3147 58.7957 47.5548 58.499 46.4847C57.7816 43.8984 56.002 41.6456 53.2023 39.7802C52.3191 39.1916 50.7421 38.3432 50.0104 38.0629L49.6055 37.9078L48.9866 38.1501L48.3676 38.3923L48.2886 38.8059C48.0523 40.0431 47.5534 40.971 46.6114 41.9261C46.2422 42.3005 45.6527 42.7994 45.3015 43.0349C44.5181 43.56 43.1811 44.2175 42.8934 44.2191C42.5875 44.2205 41.2006 43.4733 40.4465 42.9005C39.7567 42.3764 38.911 41.5243 38.5415 40.9809C38.153 40.4094 37.7674 39.6011 37.5937 38.9945L37.4268 38.4114ZM45.4941 41.1977C45.8411 40.878 46.3752 40.2066 46.6042 39.8022C46.6833 39.6627 46.6096 39.6913 45.7536 40.1316C44.7209 40.6628 44.0113 40.8455 42.9567 40.8512C41.8301 40.8574 40.8452 40.6113 39.8674 40.0792C39.645 39.9582 39.448 39.8745 39.4295 39.8932C39.3715 39.9516 40.1389 40.8758 40.6121 41.3174C41.1131 41.785 41.6638 42.1765 42.4011 42.5893L42.8897 42.8627L43.3707 42.6333C44.0078 42.3297 44.9762 41.6749 45.4941 41.1977ZM42.4662 46.2563C42.1029 45.8898 42.2171 45.3519 42.6957 45.1756C42.8843 45.1061 42.9928 45.118 43.2124 45.2325C43.4472 45.3548 43.5161 45.4835 43.5161 45.7992C43.5161 46.115 43.4472 46.2435 43.2124 46.366C42.8994 46.5292 42.7092 46.5012 42.4662 46.2563ZM42.2945 48.7662C42.1772 48.4582 42.2477 48.1442 42.4777 47.9491C42.7283 47.7364 42.916 47.7073 43.1668 47.8418C43.4174 47.9765 43.5111 48.1416 43.5137 48.4535C43.5165 48.7868 43.236 49.108 42.9421 49.108C42.7082 49.108 42.3533 48.9206 42.2945 48.7662ZM11.2211 50.1201C11.2211 49.3265 10.8092 48.6483 10.123 48.3122C9.95926 48.232 9.6226 48.163 9.31919 48.1473C8.87056 48.1242 8.74198 48.1487 8.40568 48.3201C7.25484 48.9068 6.92832 50.3025 7.70272 51.3245C8.1051 51.8556 8.57453 52.0789 9.28189 52.0758C9.94242 52.0728 10.2995 51.9166 10.721 51.4462C11.0888 51.0357 11.2211 50.685 11.2211 50.1201ZM42.4196 51.2743C42.1226 50.9931 42.2066 50.4696 42.5838 50.2515C43.2647 49.8578 43.8828 50.8137 43.2788 51.3263C43.0025 51.5605 42.7026 51.5425 42.4196 51.2743ZM32.0597 52.1116C32.4689 52.3325 32.9192 51.926 32.6985 51.535C32.5675 51.303 32.3497 51.2111 32.1282 51.2942C31.7635 51.431 31.7218 51.9293 32.0597 52.1116ZM28.1775 52.7302C28.3585 52.5287 28.3363 52.1494 28.1351 52.0073C27.7589 51.7416 27.3313 51.962 27.3313 52.4217C27.3313 52.8197 27.9083 53.0302 28.1775 52.7302Z" fill="#EBF8FF"/>
</svg>
