<svg width="34" height="40" viewBox="0 0 34 40" fill="none" xmlns="http://www.w3.org/2000/svg">
<path d="M24.0266 7.35255C24.0266 7.35255 24.0572 2.03344 19.2065 1.61243C14.3557 1.19142 10.8705 6.55161 10.8705 6.55161C10.8705 6.55161 2.34097 6.5824 1.53591 6.54133C0.72066 6.51052 0.832755 8.75933 1.19962 9.59108C1.56648 10.4228 10.7177 10.0224 10.7177 10.0224C10.7177 10.0224 10.9521 13.9244 11.5635 13.9449C12.1749 13.9758 18.7275 12.6306 18.7275 12.6306L23.7923 8.35886L24.0368 7.34227L24.0266 7.35255Z" fill="#6F2721"/>
<path d="M26.0858 6.63382C26.0858 6.63382 26.3915 -0.307702 19.8797 0.0106229C13.3679 0.328947 5.37842 6.72624 8.72095 18.3297L13.9997 18.3605C13.9997 18.3605 11.9412 9.67332 16.1601 6.18202C20.3688 2.69072 22.9776 8.12277 22.9776 8.12277L26.0858 6.62356V6.63382Z" fill="#972825"/>
<path d="M26.5735 9.31401C26.5735 9.31401 26.5429 9.58099 26.5633 10.115C26.6041 11.265 26.8894 13.6679 28.2448 17.3646C30.2421 22.7761 34.2165 38.4972 27.6741 39.4316C21.1419 40.3661 15.4657 26.4111 15.4657 26.4111L16.6274 18.4838L18.7165 12.641L21.3049 9.2832L26.5837 9.31401H26.5735Z" fill="#6F2721"/>
<path d="M19.777 20.8657C20.2051 24.9731 20.8674 28.2796 23.3641 31.4629C25.8608 34.6461 28.1741 37.4083 27.685 39.4312C27.1856 41.4541 3.16631 38.5379 7.70114 23.1967L13.4792 20.9992L19.777 20.876V20.8657Z" fill="#972825"/>
<path d="M32.5572 7.12687C34.7787 7.43493 33.617 10.649 33.617 10.649C33.617 10.649 23.3143 9.57078 21.4086 11.3267C19.503 13.0826 20.9908 20.7121 19.2788 22.6837C17.5668 24.6553 8.85376 24.2651 7.68184 23.1869C6.50991 22.1087 13.2867 11.1624 18.0967 7.90728C22.9066 4.64188 32.547 7.1166 32.547 7.1166L32.5572 7.12687Z" fill="#BD2828"/>
</svg>
