<svg width="22" height="22" viewBox="0 0 22 22" fill="none" xmlns="http://www.w3.org/2000/svg">
<path d="M1.43164 5.38875V16.5239C1.43164 18.7102 3.20397 20.4825 5.39027 20.4825H16.5254C18.7117 20.4825 20.4841 18.7102 20.4841 16.5239V5.38875C20.4841 3.20244 18.7117 1.43011 16.5254 1.43011H5.39027C3.20397 1.43011 1.43164 3.20244 1.43164 5.38875ZM12.976 16.3546C8.27674 17.976 3.9382 13.6374 5.55959 8.93817C6.1059 7.35434 7.35575 6.10438 8.93958 5.55806C13.639 3.93668 17.9775 8.27522 16.3561 12.9746C15.8098 14.5584 14.5599 15.8083 12.976 16.3546ZM17.5689 5.19525C17.4941 5.58678 17.1701 5.81459 16.835 5.81459C16.631 5.81459 16.4231 5.7304 16.2639 5.54771C16.2498 5.53155 16.2367 5.51422 16.2251 5.4962C16.0607 5.24502 16.0556 4.94663 16.1953 4.70463C16.2941 4.53334 16.4537 4.41101 16.6447 4.35984C16.8356 4.30844 17.0351 4.33484 17.2062 4.4338C17.4483 4.57335 17.5929 4.83441 17.5764 5.13373C17.5753 5.1542 17.5728 5.17501 17.5689 5.19525Z" fill="#31B0ED"/>
<path d="M10.9585 6.32916C8.40626 6.32916 6.33008 8.40534 6.33008 10.9576C6.33008 13.5099 8.40626 15.586 10.9585 15.586C13.5108 15.586 15.587 13.5099 15.587 10.9576C15.587 8.40534 13.5108 6.32916 10.9585 6.32916Z" fill="#31B0ED"/>
</svg>
