<svg width="85" height="95" viewBox="0 0 85 95" fill="none" xmlns="http://www.w3.org/2000/svg">
<path d="M24.6647 61.7329C24.6647 61.7329 25.9579 66.3484 30.7683 65.6052C35.5786 64.8718 37.7928 61.7329 41.3099 65.4194C44.8271 69.1059 67.7423 58.9656 67.7423 58.9656L75.8739 46.0483L76.7948 27.5963C76.7948 27.5963 76.9809 13.7598 76.06 13.2024C75.1391 12.645 66.263 11.3543 63.4904 11.5401C60.7179 11.7259 40.7515 15.9697 40.7515 15.9697L15.6123 16.3413L11.3604 35.1649L14.1329 46.6056L24.6745 57.8606V61.7329H24.6647Z" fill="#E95E5B"/>
<path d="M41.3307 78.4364C41.3307 78.4364 39.6788 85.3866 41.3307 87.6051C42.9827 89.8237 40.5047 94.5553 43.2548 94.5553C46.0048 94.5553 44.0807 89.8335 45.7327 88.4396C47.3847 87.0456 47.6567 79.5457 49.3087 78.1615C50.9607 76.7676 57.8309 78.1615 59.4828 75.6583C61.1348 73.1551 61.9608 72.6053 65.8089 71.4862C69.6569 70.3769 72.407 67.8737 73.5148 63.4268C74.6128 58.9799 75.9927 58.9799 79.0148 54.8176C82.0369 50.6456 83.9707 48.1521 82.8629 44.2549C81.7648 40.3675 80.6668 39.2583 82.8629 34.8113C85.059 30.3644 84.7869 27.5863 84.2428 22.8645C83.6889 18.1427 81.4927 16.4739 82.5908 13.4209C83.6889 10.3679 85.6129 6.47073 82.3187 3.14289C79.0148 -0.194761 73.5148 0.0899199 69.6667 3.41776C65.8186 6.75541 57.0146 8.42423 52.3405 7.30513C47.6665 6.19585 41.6125 7.86469 41.6125 7.86469C41.6125 7.86469 32.2644 9.80838 28.1345 8.42424C24.0046 7.03028 21.2546 4.53684 17.6786 7.03027C14.1026 9.53351 13.8305 10.3679 9.42849 11.4772C5.0265 12.5865 2.27648 16.7586 2.54856 20.0864C2.82065 23.424 -1.02744 32.0332 1.4505 34.5365C3.92844 37.0397 3.64663 40.0927 3.37454 43.7052C3.10245 47.3177 1.99467 53.4335 6.95055 55.0925C11.8967 56.7613 11.8967 55.3673 13.8305 58.4301C15.7545 61.4831 20.4286 57.5957 21.8085 60.099C23.1786 62.6022 25.3845 66.7644 26.7546 63.1519C28.1345 59.5394 23.7325 58.9799 25.1027 55.9269C26.4825 52.8739 25.9286 50.6455 23.1786 47.3177C20.4286 43.98 16.5805 40.6522 17.6786 36.4801C18.7766 32.3081 20.1565 30.9239 18.2325 27.871C16.3084 24.818 17.9604 22.0399 20.4286 20.6459C22.9065 19.2618 28.1345 17.593 31.1566 20.6459C34.1787 23.6989 40.5047 22.5896 43.2548 20.9208C46.0048 19.252 51.5048 18.7022 51.5048 18.7022C51.5048 18.7022 59.4828 19.5367 62.777 17.3181C66.0809 15.0995 68.831 13.4307 71.581 15.6493C74.331 17.8678 69.3849 24.818 71.3089 28.7054C73.233 32.5928 75.7109 35.6556 73.2329 39.2681C70.755 42.8806 66.9069 47.8773 67.179 50.94C67.4511 53.993 67.179 56.4963 60.5809 58.44C53.9828 60.3836 48.4827 58.1651 46.549 60.9432C44.6249 63.7213 39.9509 62.0525 39.1249 65.1152C38.2989 68.1682 42.4288 72.3403 41.321 78.456L41.3307 78.4364Z" fill="#D2242A"/>
<path d="M80.7045 41.514C79.8881 40.0588 77.5556 41.1679 77.8207 42.5343C78.1281 44.0605 77.757 45.5955 77.0149 46.9885C75.9547 48.976 79.2944 50.7417 80.5879 48.7364C82.0828 46.4206 82.0086 43.8564 80.6939 41.514H80.7045Z" fill="#E64F3C"/>
<path d="M76.9824 50.7444C76.2337 50.4411 75.2186 50.6195 74.7871 51.1459C74.4826 51.5117 74.2034 51.8596 73.975 52.2522C73.4167 53.2693 75.447 53.9206 76.4368 53.2604C76.8682 52.9749 77.1981 52.6091 77.5534 52.279C78.0737 51.7972 77.6549 51.021 76.9824 50.7355V50.7444Z" fill="#E64F3C"/>
<path d="M82.6552 25.4827C82.3678 23.4273 81.6051 21.597 80.566 19.7471C80.1571 19.0032 78.72 19.3458 78.7864 20.1777C78.9301 21.9493 78.7974 23.7209 78.7643 25.4925C78.72 27.7633 82.9647 27.6458 82.6552 25.4925V25.4827Z" fill="#E64F3C"/>
<path d="M79.2303 3.82944C78.1381 2.96635 76.3946 2.45977 75.0018 2.88193C74.3605 3.07894 73.8795 3.61367 73.8795 4.27037C73.8795 4.94584 74.3705 5.4243 75.0018 5.65884C75.2423 5.74327 75.8034 5.89338 76.1942 6.01534C76.4747 6.09977 76.6751 6.25924 77.086 6.43749C77.8876 6.77522 78.7994 6.71895 79.3706 6.01534C79.8615 5.39616 79.9116 4.38296 79.2303 3.83883V3.82944Z" fill="#E64F3C"/>
<path d="M82.6248 8.12395C82.5653 7.89253 82.4701 7.66111 82.3869 7.42969C82.1966 6.909 81.578 6.57151 80.9119 6.64865C80.3053 6.72579 79.6749 7.16933 79.7463 7.71896C79.7938 8.05644 79.8295 8.39395 79.9128 8.73144C80.0555 9.33891 80.9595 9.68603 81.6494 9.53175C82.4226 9.35819 82.7913 8.73143 82.6367 8.12395H82.6248Z" fill="#E64F3C"/>
<path d="M64.9505 7.80202C64.261 8.19042 63.4852 8.27279 62.8172 8.6965C61.8583 9.29677 61.923 11.2624 63.1512 11.4742C64.3364 11.6861 65.3922 11.1682 66.3727 10.4738C67.8918 9.39094 66.5666 6.89571 64.9505 7.81376V7.80202Z" fill="#E64F3C"/>
<path d="M41.9164 9.05458C41.2553 8.52115 40.2985 8.54874 39.5069 8.64991C38.6545 8.76027 37.8455 8.99021 37.2105 9.634C36.3668 10.4893 36.7669 12.0988 37.8977 12.4023C38.6632 12.6047 39.4373 12.4483 40.2028 12.3011C40.9509 12.154 41.612 11.9792 42.1948 11.4366C42.9603 10.7284 42.5862 9.6064 41.9077 9.05458H41.9164Z" fill="#E64F3C"/>
<path d="M48.0337 8.86654C47.9908 8.83301 47.9479 8.79949 47.9049 8.76597C47.4613 8.41957 46.9031 8.58717 46.6455 9.27998C46.4094 9.91692 46.5311 10.9003 46.9747 11.2467C47.0176 11.2802 47.0606 11.3137 47.1035 11.3472C47.5471 11.6936 48.0981 11.526 48.3629 10.8332C48.599 10.1963 48.4774 9.21294 48.0337 8.86654Z" fill="#E64F3C"/>
<path d="M22.7297 9.31632C21.6606 8.0985 19.1375 8.60128 17.9829 9.46156C17.3521 9.93081 17.0207 10.7017 17.3521 11.4838C17.6407 12.1765 18.4426 12.7016 19.1803 12.4223C19.779 12.1988 20.3028 11.953 20.9229 11.7854C21.5965 11.6067 22.1738 11.5285 22.7404 11.0704C23.2536 10.6459 23.136 9.76322 22.7404 9.31632H22.7297Z" fill="#E64F3C"/>
<path d="M16.8525 12.7506C16.3937 12.4463 15.4457 12.3854 14.9972 12.7506L14.62 13.0617C13.6108 13.8935 15.1297 14.9079 16.3835 14.2316C16.5365 14.1505 16.6894 14.0693 16.8423 13.9814C17.3927 13.6839 17.301 13.0549 16.8423 12.7506H16.8525Z" fill="#E64F3C"/>
<path d="M3.7399 24.8573C3.11192 25.6471 2.92661 26.7879 2.76189 27.7532C2.58688 28.8063 2.43246 29.8789 2.76189 30.9125C3.20457 32.3166 5.63416 32.5018 5.97389 30.9125C6.15919 30.0057 6.08713 29.1086 6.1489 28.192C6.21067 27.3145 6.52981 26.4369 6.46804 25.5593C6.3651 24.1162 4.61497 23.7749 3.7399 24.8573Z" fill="#E64F3C"/>
<path d="M6.28212 33.8347C6.12989 33.2402 5.24186 32.8977 4.55681 33.0488C3.78295 33.2201 3.42773 33.8347 3.57997 34.4291C3.66877 34.7818 3.75758 35.0841 3.96056 35.4065C4.58218 36.4342 6.40898 35.8397 6.47241 34.8624C6.49778 34.5097 6.3836 34.1672 6.2948 33.8347H6.28212Z" fill="#E64F3C"/>
<path d="M12.9171 50.8363C12.4469 50.2431 11.6816 50.0849 11.0454 49.7685C10.4369 49.462 9.81916 49.2148 9.23829 48.849C7.9659 48.0383 6.9148 49.8081 7.75384 50.9154C8.74962 52.2403 10.566 53.9408 12.281 53.4366C13.3966 53.1103 13.6087 51.7064 12.9171 50.8462V50.8363Z" fill="#E64F3C"/>
<path d="M14.8636 52.8061C14.7836 52.758 14.7035 52.7178 14.6162 52.6696C14.1505 52.4126 13.5902 52.5732 13.3791 53.1274C13.1899 53.6173 13.4228 54.316 13.9467 54.4285C14.0413 54.4445 14.1287 54.4686 14.2233 54.4847C14.6308 54.565 15.0456 54.3963 15.2057 53.9546C15.3512 53.5531 15.242 53.015 14.8636 52.8061Z" fill="#E64F3C"/>
<path d="M22.7486 50.5854C22.555 50.3815 22.3613 50.1777 22.1677 49.9738C21.128 48.873 19.4055 50.5956 20.5063 51.6352C20.7101 51.8289 20.914 52.0225 21.1178 52.2162C22.1982 53.2456 23.7781 51.6658 22.7486 50.5854Z" fill="#E64F3C"/>
<path d="M15.2471 29.9015C15.1303 28.8401 13.4514 28.8401 13.3346 29.9015C13.32 30.0215 13.3054 30.1289 13.32 30.249C13.4295 31.3293 15.1522 31.3293 15.2616 30.249C15.2762 30.1289 15.2617 30.0215 15.2471 29.9015Z" fill="#E64F3C"/>
<path d="M64.7736 64.5984C63.7029 65.6314 62.6753 66.88 61.2851 67.0957C60.154 67.266 59.6877 69.5136 60.9916 69.9109C63.133 70.5579 65.5593 69.8314 66.8286 67.3C67.6316 65.7108 65.991 63.4178 64.7736 64.5984Z" fill="#E64F3C"/>
<path d="M69.1238 61.5246C68.7088 61.7609 68.4782 62.2689 68.2107 62.7298C67.7864 63.4505 68.1184 64.6085 68.6811 65.022C69.3544 65.5183 70.0462 65.152 70.4705 64.4194C70.6826 64.0649 70.8763 63.7577 70.9317 63.2969C71.0885 61.8908 70.1569 60.9219 69.1331 61.5246H69.1238Z" fill="#E64F3C"/>
<path d="M46.7612 63.3079C46.4747 63.3357 46.1881 63.4193 45.9818 63.5376C45.9704 63.5445 45.9704 63.5445 45.9475 63.5515C45.936 63.5515 45.936 63.5515 45.9131 63.5515C45.2483 63.5236 44.6638 63.8855 44.5836 64.2613C44.5033 64.6927 44.9159 64.9989 45.5463 65.159C46.7153 65.4513 48.6523 65.0198 48.4689 64.1082C48.3543 63.5236 47.6896 63.2314 46.7383 63.3079H46.7612Z" fill="#E64F3C"/>
<path d="M45.8233 79.2624C45.3749 78.7087 44.4183 78.8895 44.1344 79.4319C43.8504 79.963 43.8653 80.5393 43.7757 81.1042C43.671 81.6805 43.5365 82.2794 43.6262 82.867C43.7757 83.9857 45.5991 84.1552 46.1521 83.1269C46.735 82.0647 46.6453 80.2568 45.8382 79.2737L45.8233 79.2624Z" fill="#E64F3C"/>
<path d="M44.086 84.7866C43.8031 84.7866 43.501 85.6375 43.6257 86.436C43.6832 86.8156 43.7264 87.1821 43.8463 87.457C43.9949 87.7974 44.1772 87.8105 44.3258 87.457C44.4457 87.1821 44.4888 86.8156 44.5464 86.436C44.6663 85.6375 44.369 84.7866 44.086 84.7866Z" fill="#E64F3C"/>
<path d="M71.4312 31.3724C66.4183 30.3335 61.6922 32.8229 56.7386 33.1109C55.4434 33.1829 54.0592 33.1417 52.8134 32.7302C50.9249 32.113 50.4602 30.8787 49.6791 29.2122C49.3429 28.5025 49.0463 27.947 48.5618 27.6178C49.1452 27.2063 49.6593 26.692 50.2031 26.1159C51.5181 25.3547 52.6947 24.3775 53.9998 23.6266C56.5804 22.1453 60.4661 23.7912 59.5268 27.3092C59.1511 28.7082 57.9844 29.1814 57.2429 30.2615C57.1242 30.4363 57.2429 30.7141 57.4406 30.7552C59.2203 31.105 60.6342 28.9242 60.8814 27.3709C60.9605 26.8874 60.9506 26.404 60.8616 25.9205C64.3123 26.6097 68.4452 23.5649 70.215 20.9418C70.4721 20.5509 69.8789 20.088 69.5724 20.4377C68.2376 21.9499 66.7545 23.1123 64.8462 23.8117C63.4027 24.3467 61.8998 24.3158 60.4464 24.6553C59.5071 22.7522 57.9844 21.0241 55.8191 21.2298C53.4659 21.4458 52.2498 23.6163 50.2723 24.4084C49.6296 24.6655 49.3429 24.9021 48.8485 25.4062C47.662 26.62 46.5843 27.3401 44.7552 27.1446C43.015 26.9594 41.9768 25.5605 40.5333 25.0153C41.4627 24.0792 42.1251 22.8139 42.4317 21.6104C42.6096 20.9006 41.7297 20.6126 41.3342 21.1475C39.8016 23.2048 39.5347 24.6655 36.43 24.861C34.8876 24.9536 33.5726 24.9844 32.05 25.3341C27.66 26.3422 24.1994 26.5274 20.7982 23.0917C20.5114 22.8036 19.9676 23.1843 20.2148 23.5443C22.9042 27.5972 27.1755 28.019 31.5358 27.0006C33.1771 26.62 34.7393 26.3422 36.43 26.3731C37.3298 26.3937 38.1603 26.4657 39.0008 26.0954C39.2776 25.9719 39.5347 25.8176 39.7917 25.6428C40.998 26.0542 41.4924 27.3298 42.58 27.947C43.5291 28.4922 44.8046 28.5436 45.8626 28.5127C46.5646 28.4922 47.1578 28.3379 47.6818 28.1116C48.4926 28.6053 49.0067 30.282 49.6 31.5576C49.5308 31.5062 49.4517 31.465 49.3528 31.465C47.751 31.4444 46.2679 32.2262 45.4275 33.6458C44.2114 35.7134 45.121 37.9353 45.823 39.9926C46.6832 42.5334 46.3668 46.8538 42.3427 44.6628C40.3949 43.6032 39.4457 41.3402 38.9216 39.2726C38.3482 37.0609 38.3383 35.0962 39.2776 32.9977C39.7423 31.9485 40.0982 31.1873 40.2465 30.0352C40.3158 29.5002 39.4259 29.2534 39.2183 29.7574C38.5558 31.3107 37.4583 32.6685 37.0628 34.335C36.6772 35.95 36.875 37.6576 37.2309 39.2623C37.8934 42.1734 39.594 45.9795 42.8568 46.6069C45.1309 47.039 47.2369 45.7429 47.5731 43.3769C48.1268 39.5091 42.9359 33.6252 49.4912 32.3908C49.7285 32.3497 49.8274 32.1542 49.8175 31.9587C50.0152 32.3291 50.2229 32.648 50.4503 32.8434C51.8048 33.9955 53.6637 34.3761 55.384 34.4687C60.7726 34.7567 65.8251 32.2982 71.2532 32.7405C72.0244 32.8023 72.1925 31.5267 71.4411 31.3724H71.4312Z" fill="#F4A496"/>
<path d="M58.228 55.5801C58.198 55.5995 58.1781 55.6093 58.1481 55.6287C55.9727 55.289 54.6056 51.3102 54.6056 49.6313C54.6056 47.8845 55.6434 46.2057 55.6434 44.391C55.6434 42.2269 55.1744 39.6261 52.8394 38.743C52.1807 38.4907 51.8415 39.3544 52.2107 39.762C54.4959 42.3239 54.1266 44.9247 53.3882 47.9622C52.9791 49.6119 53.2385 50.7182 53.8472 52.3583C54.3661 53.7751 55.1245 55.7451 56.5316 56.3953C53.488 57.2202 52.2107 53.5907 50.1151 51.611C48.4387 50.0292 46.2932 49.9613 44.1178 50.3689C44.0679 49.9613 43.998 49.5537 44.028 49.1558C44.0978 48.2824 44.6866 47.3605 44.3074 46.5356C44.2375 46.3901 43.998 46.3027 43.8484 46.3609C42.8205 46.72 42.7008 48.0786 42.611 48.9908C42.5611 49.5052 42.5112 50.1457 42.601 50.7376C40.6651 51.2714 37.9209 52.038 36.7534 50.4271C36.0548 49.4664 36.4041 47.4575 36.4141 46.3027C36.4141 45.7302 36.3243 45.1479 36.1746 44.5851C35.6457 42.6151 34.2786 41.0429 33.4403 39.2088C32.0134 36.0646 32.9614 32.5807 34.2387 29.5529C34.3983 29.1744 33.8495 28.9804 33.58 29.1939C32.203 30.3002 31.7739 31.5035 31.3647 33.1047C31.4545 34.3372 31.1352 35.5017 30.4068 36.608C28.5008 36.938 27.3632 36.3848 26.984 34.9583C26.6547 34.1625 26.515 33.2988 26.1458 32.5031C24.8585 29.7179 22.1941 29.6985 19.4 30.3293C19.0009 30.4166 19.1805 30.9601 19.5697 30.8921C22.1941 30.4845 24.2198 30.7563 25.3574 33.3765C25.7067 34.1819 25.7366 35.1039 26.1158 35.9093C26.6347 37.035 27.4729 37.9181 28.7902 38.1219C28.3611 38.5392 28.0418 39.0632 27.8821 39.7911C27.1936 42.8868 28.7103 47.5449 25.0381 49.1752C24.589 49.379 24.8186 50.0486 25.2876 50.0389C27.2035 50.0098 28.2713 48.4862 28.5906 46.7977C29.1594 43.7117 27.6825 39.9172 30.6762 37.8987C30.9755 37.7823 31.2749 37.6367 31.5344 37.4523C31.9435 40.0046 34.2985 42.4501 34.9072 44.9247C35.3962 46.9044 34.069 49.0103 35.2765 50.8638C35.7056 51.5237 36.3941 52.0089 37.1525 52.3195C37.0926 52.3486 37.0427 52.368 36.9829 52.3971C35.0769 53.2608 33.5701 53.9401 31.5643 52.8532C30.6961 51.1258 27.6326 50.2039 26.2855 51.8245C25.4572 52.8241 25.8364 54.1342 26.6148 55.0464C27.2035 55.7354 28.0517 56.0751 28.8002 56.57C29.7382 57.1911 30.6263 57.9771 30.8658 59.1028C31.0853 60.1509 30.1673 63.9065 28.381 63.0331C28.0617 62.8778 27.6326 63.1399 27.7524 63.4989C27.7923 63.6057 27.8222 63.7124 27.8521 63.8289C27.912 64.0036 28.0617 64.1879 28.2613 64.2268C31.0254 64.7314 32.5822 60.9467 32.0632 58.7826C31.4346 56.2012 29.0496 56.1139 27.6725 54.338C26.8343 53.2608 27.7224 52.4262 28.88 52.4553C31.0953 52.5038 31.9635 55.027 34.3784 54.6485C36.2045 54.3574 37.7512 53.3578 39.4976 52.7756C40.6052 52.3971 42.112 51.9895 43.5989 51.7566C43.3095 52.0186 43.06 52.3292 42.8704 52.7465C42.3814 53.7848 42.4812 54.9299 42.6509 56.0265C42.7706 56.8029 43.3594 58.1421 42.6609 58.802C42.3116 59.1319 41.5033 59.0834 41.0543 59.4037C40.7749 59.6075 40.705 60.0151 41.0543 60.2091C42.4413 60.9661 44.3174 59.9568 44.477 58.4818C44.6167 57.2008 43.7985 55.9198 43.7486 54.6388C43.6687 52.4553 45.2055 51.9022 47.0216 51.7372C49.1871 52.2418 50.1351 54.2991 51.3824 55.8519C53.2884 58.2197 56.791 58.967 59.0662 56.57C59.5252 56.0848 58.9165 55.1822 58.2779 55.6092L58.228 55.5801Z" fill="#F4A496"/>
<path d="M61.8451 53.1146C59.9757 51.924 60.1104 48.206 60.523 46.1176C60.7504 44.9759 61.1715 43.9903 61.1462 42.79C61.1041 40.7992 60.1778 39.15 58.8052 37.9692C58.4683 37.6862 58.0473 38.3108 58.3589 38.623C61.3988 41.6872 58.7462 45.7468 58.7967 49.5624C58.8304 51.7581 59.2178 54.2466 61.5083 54.5003C62.182 54.5784 62.3925 53.4464 61.8451 53.1048V53.1146Z" fill="#F4A496"/>
<path d="M25.7705 35.0836C25.6833 34.984 25.5089 34.9397 25.3781 34.984C24.6913 35.2276 24.4951 36.0359 23.852 36.3902C22.8601 36.9438 21.5739 36.9217 20.473 36.8663C20.1024 36.8552 20.0261 37.4089 20.3858 37.4974C21.8137 37.8407 23.2743 38.2172 24.6368 37.4421C25.3889 37.0103 26.5117 35.9362 25.7705 35.0725V35.0836Z" fill="#F4A496"/>
</svg>
