<svg width="250" height="89" viewBox="0 0 250 89" fill="none" xmlns="http://www.w3.org/2000/svg">
<path fill-rule="evenodd" clip-rule="evenodd" d="M21.6089 80.3864L7.64439 82.1174L7.79206 81.6241C8.13356 80.4595 8.66427 79.2675 9.16267 78.1622C9.60108 77.1894 10.0579 76.2304 10.4917 75.253C11.4239 73.1476 12.3146 71.0238 13.2468 68.9184C13.7452 67.7903 14.3359 66.6942 14.7974 65.5616C15.102 64.8171 15.4204 63.8763 15.2266 63.0725C15.2081 62.9949 15.185 62.9218 15.1573 62.8487C14.8897 62.1317 14.6543 61.4055 14.4005 60.6885C14.2298 60.1952 14.0359 59.6974 13.7637 59.2498C13.3068 58.5054 12.6423 57.9665 11.927 57.4732C9.90104 56.0803 7.55671 56.4182 5.74769 54.4133C4.67705 53.2304 4.16942 51.9379 4.13711 50.3531C4.11865 49.3757 4.27556 48.4075 4.42323 47.4484C4.54322 46.6674 4.6632 45.8773 4.6632 45.0872C4.65859 43.3426 4.0402 42.0227 2.76651 40.817C0.496005 38.6567 -0.851527 36.0398 0.606762 33.03C1.07748 32.0481 1.76047 31.1986 2.47116 30.3857C2.76189 30.0523 3.05724 29.7326 3.34336 29.3946C3.52334 29.18 3.74485 28.9196 3.86484 28.673C4.51553 27.3623 4.91241 26.1931 4.63552 24.7316C4.5386 24.2201 4.39093 23.7131 4.27556 23.2016C4.12327 22.5303 4.02636 21.8772 4.0079 21.1875C3.96636 19.8813 4.34478 18.5843 5.05085 17.4836C5.65539 16.5382 6.54144 15.6887 7.57517 15.2092C8.23509 14.9077 8.90424 14.6428 9.60108 14.4328C10.0395 14.3003 10.4917 14.1907 10.9163 14.0354C11.8808 13.6792 12.61 12.953 13.2976 12.2177C14.8758 10.5324 14.7651 7.88809 16.3018 6.13432C17.9539 4.2481 20.6167 3.50823 23.0487 4.11566C25.5823 4.74592 27.9727 4.82356 30.0725 3.10176C30.714 2.57197 31.2724 1.95998 31.9046 1.42563C33.2152 0.306684 34.5166 -0.0678194 36.2472 0.00982151C37.3593 0.0600597 38.3792 0.311251 39.3206 0.918677C40.0313 1.37539 40.5666 1.95084 41.1666 2.53087C41.4988 2.85057 41.845 3.15199 42.2372 3.40319C45.1123 5.21633 46.3998 4.46276 49.501 3.97864C51.4946 3.67265 53.3636 3.95581 54.8403 5.40358C55.6249 6.17542 56.1786 7.14822 56.6355 8.13015C57.0324 8.9842 57.36 9.86565 57.7431 10.7288C58.0338 11.3865 58.403 12.1492 58.906 12.6744C59.7644 13.5604 60.632 13.9395 61.7903 14.2912C62.9671 14.652 63.9546 14.9077 64.9838 15.6248C66.9635 17.0086 67.9603 18.6847 67.8219 21.1007C67.7711 21.9822 67.5819 22.8499 67.4204 23.7177C67.2819 24.4484 67.1343 25.2477 67.2035 25.9921C67.3004 27.07 67.5865 28.0336 68.1818 28.9379C68.6618 29.6686 69.2802 30.2624 69.8709 30.9018C70.9323 32.0572 71.5553 33.094 71.7537 34.6833C71.966 36.428 71.5507 37.8438 70.5169 39.255C69.6632 40.4196 68.5418 41.4107 67.8311 42.6758C66.9081 44.3062 66.9866 45.9687 67.5034 47.727C68.2926 50.3988 67.7803 52.8741 65.7267 54.7923C64.8222 55.6418 63.8254 55.9935 62.6625 56.336C61.5734 56.6603 60.572 56.9343 59.6859 57.6833C58.2507 58.9119 56.4002 61.0538 57.2908 63.0725C57.8215 64.2737 58.3753 65.4657 58.9245 66.6531C59.769 68.4891 60.6181 70.3205 61.458 72.1565C62.3856 74.1843 63.3178 76.2167 64.2269 78.2536C64.5546 78.9889 64.8822 79.7288 65.196 80.4732C65.3622 80.8614 65.5652 81.3227 65.6806 81.72L65.819 82.2087L65.3114 82.1448C64.4161 82.0351 63.5162 81.889 62.6256 81.7429C61.4211 81.5465 60.2166 81.3455 59.0168 81.1491C57.6369 80.9208 56.2571 80.697 54.868 80.5006C54.3373 80.4275 53.802 80.3545 53.2667 80.2997C52.9898 80.2722 52.6852 80.2403 52.3991 80.2357L48.6703 84.5334L48.6565 84.5471C48.3842 84.8028 48.1257 85.0951 47.8765 85.3737C47.5166 85.771 47.1659 86.173 46.8059 86.5703C46.4044 87.0133 46.0029 87.4609 45.5876 87.8856C45.3338 88.1414 44.9553 88.5387 44.6415 88.7123L44.3231 88.895L36.8655 73.385C36.8009 73.4947 36.7456 73.6043 36.6809 73.7139C36.3487 74.3076 36.0349 74.9059 35.7211 75.5042C34.8212 77.226 33.9397 78.9615 33.0675 80.697C32.2138 82.396 31.3693 84.0995 30.5478 85.8076C30.2525 86.4196 29.9617 87.0361 29.6802 87.6481C29.5464 87.9359 29.371 88.2967 29.2787 88.5981L29.1541 89L28.785 88.7899C28.5819 88.6712 28.3419 88.4291 28.1804 88.2647C27.8712 87.9541 27.5759 87.6344 27.2805 87.3102C26.4775 86.4241 25.7022 85.5153 24.9362 84.6019C24.184 83.7021 23.4364 82.7933 22.7164 81.8662C22.4488 81.5236 22.1857 81.1811 21.9273 80.8294C21.8304 80.697 21.715 80.5371 21.6181 80.3819L21.6089 80.3864ZM34.9873 3.94667C34.5212 4.09739 33.8197 4.71395 33.4413 5.03364C32.643 5.69131 31.8584 6.32157 30.9678 6.85136C28.3373 8.43158 25.6146 8.71017 22.6611 7.86069C19.9522 7.08428 18.9646 8.26259 18.3093 10.7197C17.774 12.7247 16.4449 14.652 14.8297 15.9627C13.9667 16.6661 13.3068 17.0908 12.2777 17.543C11.7285 17.7896 11.1471 17.9403 10.5702 18.1002C10.0995 18.228 9.58262 18.365 9.15806 18.598C8.67811 18.8674 8.29047 19.2145 8.0828 19.7306C7.84283 20.3289 7.89821 21.0596 7.97666 21.6899C8.08741 22.5851 8.27201 23.4665 8.37353 24.3662C8.65965 26.9923 8.16587 29.1617 6.61067 31.3448C6.11226 32.0435 5.38773 32.6418 4.82472 33.3041C3.97098 34.3043 3.53718 35.3045 4.0725 36.6015C4.37247 37.3368 5.33697 38.031 5.88614 38.6293C8.2997 41.2645 8.95962 45.3475 7.99973 48.7089C7.21521 51.4629 8.53505 52.317 11.0132 52.9701C13.9298 53.7465 16.7125 56.2401 17.8801 58.9758C18.037 59.3457 18.1478 59.7294 18.2447 60.1221C18.4062 60.7707 18.5539 61.5151 18.9184 62.086C19.223 62.561 19.6014 62.9401 20.1506 63.1227C20.7505 63.3237 21.4612 63.2552 22.0796 63.1684C22.9564 63.0451 23.8194 62.867 24.7008 62.7756C27.382 62.4971 29.6018 63.0771 31.8538 64.5568C32.4768 64.9679 33.0168 65.557 33.5752 66.0548C34.5858 66.9774 35.5734 67.5574 36.9717 67.0276C37.3732 66.8815 38.0654 66.2375 38.4023 65.9543C39.1822 65.2876 39.9621 64.6619 40.8435 64.1275C43.4371 62.561 46.1506 62.2322 49.0764 63.0588C50.0317 63.3328 51.3377 63.5886 52.1868 62.9127C52.6898 62.5107 53.0036 61.8394 53.239 61.2548C53.5851 60.4053 53.862 59.5376 54.2404 58.6926C55.3664 56.167 57.037 54.5183 59.6075 53.4085C60.0551 53.2167 60.5304 53.0888 61.0011 52.9746C61.5826 52.8285 62.2518 52.6823 62.764 52.3763C63.2716 52.0749 63.687 51.6958 63.8854 51.1341C64.0931 50.5404 64.0239 49.8279 63.9362 49.2113C63.8116 48.3436 63.6224 47.485 63.5208 46.6081C63.2301 43.982 63.7885 41.8217 65.3068 39.625C65.8606 38.8257 66.4882 38.1452 67.1343 37.419C67.5081 36.9989 67.9926 36.4462 68.1172 35.8845C68.2234 35.4186 68.0849 34.9802 67.8634 34.5692C67.4665 33.8064 66.7651 33.0529 66.1652 32.45C64.7484 31.0251 63.9131 28.9379 63.6039 26.9832C63.3778 25.5354 63.4055 23.9917 63.807 22.5759C64.0792 21.6031 64.3884 20.1736 63.6547 19.315C63.2532 18.8492 62.5933 18.566 62.0256 18.3513C61.1857 18.0362 60.332 17.7805 59.5059 17.4197C56.9539 16.3235 55.311 14.6246 54.1343 12.1264C53.8851 11.5966 53.7328 11.0394 53.5713 10.4776C53.4328 9.99353 53.2897 9.47744 53.059 9.02073C52.7729 8.46355 52.3806 7.92919 51.753 7.72824C51.2085 7.55926 50.5485 7.65517 49.9994 7.74651C49.1641 7.89722 48.3519 8.08904 47.5074 8.18952C44.8215 8.51835 42.5372 7.88809 40.239 6.49055C39.5745 6.08865 39.0391 5.58627 38.4807 5.05648C38.0608 4.65914 37.5993 4.207 37.0686 3.95581C36.3902 3.62697 35.698 3.70462 35.0011 3.93754L34.9873 3.94667ZM39.3668 69.9871C39.436 70.1607 39.5283 70.3525 39.5883 70.4941C39.8144 71.0101 40.0498 71.5171 40.2897 72.0286C40.9635 73.4672 41.6557 74.9013 42.3572 76.3308C43.0633 77.7786 43.774 79.2172 44.5031 80.6422C44.7569 81.1446 45.0153 81.6424 45.283 82.1402C45.3384 82.2452 45.3984 82.3549 45.4538 82.4553L50.9823 76.2395L59.6767 77.5365C59.6444 77.4543 59.6075 77.3767 59.5798 77.3036C59.386 76.8195 59.1783 76.3354 58.9752 75.8513C58.3984 74.4949 57.7984 73.143 57.1939 71.7957C56.5801 70.4347 55.9571 69.0691 55.3203 67.7127C55.0988 67.2377 54.8726 66.7673 54.6327 66.2969C54.5819 66.1964 54.5035 66.0274 54.425 65.8813C54.1527 66.0137 53.8897 66.169 53.6174 66.3197C52.6483 66.8541 51.8822 67.0687 50.7562 67.0687H50.5301C49.9394 67.0687 49.3348 66.9363 48.758 66.8175C48.1165 66.6759 47.4797 66.5344 46.829 66.4659C45.0892 66.274 43.6355 66.6714 42.1772 67.6214C41.7896 67.8771 41.4665 68.1694 41.1435 68.4982C40.5482 69.092 40.0729 69.5715 39.3714 69.9962L39.3668 69.9871ZM18.337 66.4293L13.5606 77.5685L22.9657 76.477L28.0281 82.3731L33.9213 70.6539C32.9199 70.2246 32.0523 69.6857 31.2031 68.9915C30.5294 68.4389 29.8925 67.804 29.1818 67.3062C28.4896 66.8312 27.7928 66.5709 26.9483 66.475C25.6653 66.3288 24.2163 66.58 22.9657 66.8723C21.9412 67.1098 21.0505 67.192 20.026 66.9271C19.4538 66.7856 18.9092 66.5846 18.337 66.4248V66.4293Z" fill="#0088CE"/>
<path fill-rule="evenodd" clip-rule="evenodd" d="M35.1129 54.9706C31.1383 54.9706 27.1726 53.3796 23.9868 51.1078C19.7611 48.099 17.0204 43.5989 16.2052 38.5395C15.7161 35.5047 15.9496 32.3616 16.8838 29.4265C17.862 26.3614 19.5717 23.5998 21.8894 21.3454C24.498 18.8048 27.9702 17.023 31.5349 16.2123C35.7209 15.2628 40.0171 15.6487 43.9476 17.3698C47.1378 18.7701 50.0196 21.0852 52.1038 23.8382C54.5185 27.0334 55.8492 30.7792 55.8492 34.7721V36.0337C55.8492 45.9617 46.7016 54.9663 36.6066 54.9663H35.1129V54.9706ZM33.8703 19.9624C31.7464 20.2615 29.693 20.9855 27.8468 22.0564C25.2735 23.5521 23.132 25.7111 21.7616 28.3297C20.2634 31.1867 19.8008 34.3559 20.2679 37.525C20.5146 39.1942 21.039 40.8113 21.8145 42.3156C23.2377 45.0946 25.4762 47.4271 28.2345 48.9575C31.2353 50.6179 34.6149 51.1902 38.0167 50.7393C39.8144 50.5009 41.555 49.9503 43.1633 49.1222C45.9261 47.7089 48.2394 45.5152 49.7552 42.8315C51.3943 39.9355 51.9892 36.6666 51.5706 33.3804C51.0727 29.4439 48.9136 25.7805 45.8115 23.2703C42.445 20.5433 38.1973 19.3554 33.8791 19.9667L33.8703 19.9624Z" fill="#FDC504"/>
<path d="M91.2908 72.3686C90.0536 72.3686 88.864 72.1767 87.7219 71.793C86.5957 71.4092 85.7233 70.9027 85.1047 70.2733L85.7947 68.961C86.3975 69.5442 87.1985 70.0201 88.1978 70.3885C89.1971 70.7415 90.2281 70.918 91.2908 70.918C92.7818 70.918 93.9 70.6571 94.6455 70.1352C95.391 69.598 95.7638 68.9072 95.7638 68.063C95.7638 67.4183 95.5576 66.9041 95.1452 66.5204C94.7486 66.1366 94.2569 65.845 93.67 65.6455C93.0832 65.4306 92.2663 65.2003 91.2194 64.9547C89.9663 64.6477 88.9671 64.3561 88.2216 64.0798C87.4761 63.7882 86.8337 63.3507 86.2944 62.7674C85.7709 62.1841 85.5092 61.3936 85.5092 60.3959C85.5092 59.5824 85.7313 58.8456 86.1754 58.1856C86.6195 57.5102 87.3016 56.9729 88.2216 56.5739C89.1415 56.1748 90.2836 55.9752 91.6477 55.9752C92.5994 55.9752 93.5273 56.1057 94.4314 56.3666C95.3514 56.6122 96.1445 56.9576 96.8107 57.4027L96.2158 58.7612C95.5179 58.316 94.7724 57.986 93.9794 57.7711C93.1863 57.5409 92.409 57.4258 91.6477 57.4258C90.1884 57.4258 89.086 57.702 88.3405 58.2546C87.6109 58.7919 87.2461 59.4903 87.2461 60.3498C87.2461 60.9945 87.4443 61.5164 87.8409 61.9155C88.2533 62.2992 88.7609 62.5986 89.3636 62.8135C89.9822 63.013 90.807 63.2356 91.838 63.4812C93.0594 63.7728 94.0428 64.0644 94.7883 64.3561C95.5497 64.6324 96.1921 65.0622 96.7155 65.6455C97.2389 66.2134 97.5006 66.9885 97.5006 67.9709C97.5006 68.7844 97.2707 69.5289 96.8107 70.2043C96.3665 70.8643 95.6766 71.3939 94.7407 71.793C93.8049 72.1767 92.6549 72.3686 91.2908 72.3686Z" fill="#0088CE"/>
<path d="M108.666 57.5869H102.813V56.1134H116.28V57.5869H110.427V72.2304H108.666V57.5869Z" fill="#0088CE"/>
<path d="M133.027 67.9249H123.748L121.749 72.2304H119.917L127.531 56.1134H129.268L136.881 72.2304H135.025L133.027 67.9249ZM132.384 66.5434L128.387 57.8862L124.39 66.5434H132.384Z" fill="#0088CE"/>
<path d="M157.881 56.1134V72.2304H156.43L145.723 59.1526V72.2304H143.962V56.1134H145.414L156.144 69.1912V56.1134H157.881Z" fill="#0088CE"/>
<path d="M167.643 56.1134H174.424C176.184 56.1134 177.739 56.4587 179.087 57.1495C180.435 57.8248 181.482 58.7765 182.228 60.0045C182.973 61.2171 183.346 62.6062 183.346 64.1719C183.346 65.7375 182.973 67.1344 182.228 68.3623C181.482 69.5749 180.435 70.5266 179.087 71.2173C177.739 71.8927 176.184 72.2304 174.424 72.2304H167.643V56.1134ZM174.329 70.7569C175.788 70.7569 177.065 70.4806 178.159 69.928C179.254 69.36 180.102 68.5849 180.705 67.6025C181.308 66.6048 181.609 65.4613 181.609 64.1719C181.609 62.8825 181.308 61.7467 180.705 60.7643C180.102 59.7666 179.254 58.9914 178.159 58.4388C177.065 57.8709 175.788 57.5869 174.329 57.5869H169.404V70.7569H174.329Z" fill="#0088CE"/>
<path d="M201.838 67.9249H192.559L190.56 72.2304H188.728L196.342 56.1134H198.079L205.692 72.2304H203.837L201.838 67.9249ZM201.196 66.5434L197.199 57.8862L193.201 66.5434H201.196Z" fill="#0088CE"/>
<path d="M224.146 72.2304L220.34 67.0499C219.911 67.096 219.467 67.119 219.007 67.119H214.534V72.2304H212.773V56.1134H219.007C221.133 56.1134 222.798 56.6046 224.004 57.5869C225.209 58.5693 225.812 59.9201 225.812 61.6392C225.812 62.8979 225.479 63.9647 224.813 64.8396C224.162 65.6992 223.226 66.3208 222.005 66.7046L226.074 72.2304H224.146ZM218.96 65.6685C220.609 65.6685 221.87 65.3154 222.743 64.6094C223.615 63.9033 224.051 62.9132 224.051 61.6392C224.051 60.3345 223.615 59.3368 222.743 58.646C221.87 57.94 220.609 57.5869 218.96 57.5869H214.534V65.6685H218.96Z" fill="#0088CE"/>
<path d="M234.293 56.1134H241.074C242.835 56.1134 244.389 56.4587 245.737 57.1495C247.086 57.8248 248.133 58.7765 248.878 60.0045C249.624 61.2171 249.996 62.6062 249.996 64.1719C249.996 65.7375 249.624 67.1344 248.878 68.3623C248.133 69.5749 247.086 70.5266 245.737 71.2173C244.389 71.8927 242.835 72.2304 241.074 72.2304H234.293V56.1134ZM240.979 70.7569C242.438 70.7569 243.715 70.4806 244.81 69.928C245.904 69.36 246.753 68.5849 247.355 67.6025C247.958 66.6048 248.259 65.4613 248.259 64.1719C248.259 62.8825 247.958 61.7467 247.355 60.7643C246.753 59.7666 245.904 58.9914 244.81 58.4388C243.715 57.8709 242.438 57.5869 240.979 57.5869H236.054V70.7569H240.979Z" fill="#0088CE"/>
<path d="M85.1079 16.9243H88.9229V42.5675H85.1079V16.9243Z" fill="#0088CE"/>
<path d="M104.038 42.8606C102.029 42.8606 100.084 42.5675 98.2015 41.9814C96.3449 41.3708 94.8825 40.5893 93.8143 39.6369L95.2258 36.7795C96.2431 37.6587 97.5402 38.3791 99.1171 38.9408C100.719 39.4781 102.36 39.7468 104.038 39.7468C106.251 39.7468 107.904 39.3926 108.998 38.6844C110.091 37.9517 110.638 36.9871 110.638 35.7904C110.638 34.9112 110.333 34.2029 109.723 33.6657C109.138 33.1039 108.4 32.6766 107.51 32.3835C106.645 32.0904 105.412 31.7607 103.809 31.3944C101.8 30.9304 100.173 30.4664 98.9263 30.0023C97.7055 29.5383 96.6501 28.8301 95.7599 27.8776C94.8952 26.9007 94.4628 25.5941 94.4628 23.9579C94.4628 22.5902 94.8316 21.3569 95.5692 20.2579C96.3322 19.1589 97.4766 18.2797 99.0026 17.6203C100.529 16.9609 102.423 16.6312 104.687 16.6312C106.264 16.6312 107.815 16.8266 109.341 17.2174C110.867 17.6081 112.177 18.1698 113.271 18.9025L112.012 21.8331C110.893 21.1493 109.697 20.6365 108.426 20.2945C107.154 19.9282 105.908 19.745 104.687 19.745C102.525 19.745 100.897 20.1236 99.8038 20.8807C98.7356 21.6378 98.2015 22.6146 98.2015 23.8113C98.2015 24.6905 98.5067 25.411 99.1171 25.9727C99.7275 26.51 100.478 26.9374 101.368 27.2548C102.283 27.5479 103.517 27.8654 105.068 28.2073C107.078 28.6713 108.693 29.1354 109.913 29.5994C111.134 30.0634 112.177 30.7716 113.042 31.7241C113.932 32.6766 114.377 33.9587 114.377 35.5706C114.377 36.9138 113.995 38.1471 113.232 39.2705C112.469 40.3695 111.312 41.2487 109.761 41.9081C108.209 42.5431 106.302 42.8606 104.038 42.8606Z" fill="#0088CE"/>
<path d="M131.344 42.8606C128.648 42.8606 126.219 42.2989 124.057 41.1755C121.895 40.0276 120.191 38.4524 118.945 36.4498C117.724 34.4472 117.114 32.2125 117.114 29.7459C117.114 27.2793 117.724 25.0446 118.945 23.042C120.191 21.0394 121.895 19.4764 124.057 18.353C126.219 17.2051 128.648 16.6312 131.344 16.6312C134.014 16.6312 136.43 17.2051 138.592 18.353C140.754 19.4764 142.445 21.0394 143.666 23.042C144.887 25.0202 145.497 27.2548 145.497 29.7459C145.497 32.237 144.887 34.4838 143.666 36.4864C142.445 38.4646 140.754 40.0276 138.592 41.1755C136.43 42.2989 134.014 42.8606 131.344 42.8606ZM131.344 39.6002C133.302 39.6002 135.057 39.1728 136.608 38.3181C138.185 37.4633 139.418 36.291 140.309 34.8013C141.224 33.2871 141.682 31.602 141.682 29.7459C141.682 27.8898 141.224 26.2169 140.309 24.7272C139.418 23.213 138.185 22.0285 136.608 21.1737C135.057 20.319 133.302 19.8916 131.344 19.8916C129.385 19.8916 127.605 20.319 126.003 21.1737C124.426 22.0285 123.18 23.213 122.264 24.7272C121.374 26.2169 120.929 27.8898 120.929 29.7459C120.929 31.602 121.374 33.2871 122.264 34.8013C123.18 36.291 124.426 37.4633 126.003 38.3181C127.605 39.1728 129.385 39.6002 131.344 39.6002Z" fill="#0088CE"/>
<path d="M166.353 16.9243V42.5675H162.576V20.1114H156.549V16.9243H166.353Z" fill="#0088CE"/>
<path d="M179.162 27.1449C182.977 27.1449 185.775 27.841 187.555 29.233C189.361 30.6007 190.264 32.4812 190.264 34.8745C190.264 36.3887 189.882 37.7564 189.119 38.9775C188.382 40.1741 187.25 41.1266 185.724 41.8349C184.223 42.5187 182.367 42.8606 180.154 42.8606C178.272 42.8606 176.454 42.5919 174.699 42.0546C172.944 41.4929 171.494 40.7236 170.35 39.7468L172.105 36.8527C173.02 37.6831 174.19 38.3547 175.614 38.8676C177.039 39.356 178.539 39.6002 180.116 39.6002C182.125 39.6002 183.677 39.1973 184.77 38.3913C185.889 37.561 186.449 36.4376 186.449 35.0211C186.449 33.4825 185.838 32.3224 184.618 31.5409C183.397 30.735 181.311 30.332 178.361 30.332H172.295L173.707 16.9243H188.776V20.1114H176.911L176.187 27.1449H179.162Z" fill="#0088CE"/>
<path d="M201.055 16.9243V42.5675H197.278V20.1114H191.251V16.9243H201.055Z" fill="#0088CE"/>
<path d="M222.562 29.1231C224.088 29.6848 225.258 30.4908 226.072 31.5409C226.886 32.5911 227.293 33.8488 227.293 35.3141C227.293 36.8527 226.86 38.196 225.996 39.3438C225.131 40.4672 223.898 41.3342 222.295 41.9448C220.693 42.5553 218.811 42.8606 216.649 42.8606C214.513 42.8606 212.643 42.5553 211.041 41.9448C209.464 41.3342 208.244 40.4672 207.379 39.3438C206.514 38.196 206.082 36.8527 206.082 35.3141C206.082 33.8488 206.476 32.5911 207.264 31.5409C208.078 30.4908 209.248 29.6848 210.774 29.1231C209.553 28.5614 208.625 27.8166 207.989 26.8885C207.353 25.9605 207.035 24.8615 207.035 23.5915C207.035 22.175 207.43 20.9417 208.218 19.8916C209.032 18.8414 210.164 18.0355 211.613 17.4738C213.063 16.9121 214.742 16.6312 216.649 16.6312C218.582 16.6312 220.273 16.9121 221.723 17.4738C223.198 18.0355 224.33 18.8414 225.118 19.8916C225.932 20.9417 226.339 22.175 226.339 23.5915C226.339 24.8371 226.008 25.9361 225.347 26.8885C224.711 27.8166 223.783 28.5614 222.562 29.1231ZM216.649 19.5985C214.843 19.5985 213.419 19.9771 212.376 20.7341C211.334 21.4668 210.812 22.4681 210.812 23.7381C210.812 25.008 211.321 26.0093 212.338 26.742C213.381 27.4746 214.818 27.841 216.649 27.841C218.506 27.841 219.955 27.4746 220.998 26.742C222.066 26.0093 222.6 25.008 222.6 23.7381C222.6 22.4681 222.054 21.4668 220.96 20.7341C219.892 19.9771 218.455 19.5985 216.649 19.5985ZM216.649 39.8933C218.76 39.8933 220.426 39.4781 221.647 38.6478C222.867 37.793 223.478 36.6452 223.478 35.2042C223.478 33.7878 222.867 32.6766 221.647 31.8706C220.426 31.0403 218.76 30.6251 216.649 30.6251C214.538 30.6251 212.885 31.0403 211.69 31.8706C210.494 32.6766 209.897 33.7878 209.897 35.2042C209.897 36.6452 210.494 37.793 211.69 38.6478C212.885 39.4781 214.538 39.8933 216.649 39.8933Z" fill="#0088CE"/>
<path d="M238.784 16.6312C242.37 16.6312 245.129 17.7424 247.062 19.9648C249.02 22.1873 249.999 25.3377 249.999 29.4162C249.999 32.2736 249.465 34.7158 248.397 36.7428C247.354 38.7455 245.879 40.2718 243.972 41.322C242.09 42.3477 239.89 42.8606 237.372 42.8606C236.075 42.8606 234.854 42.7385 233.71 42.4942C232.565 42.2256 231.573 41.8471 230.734 41.3586L232.184 38.5012C233.481 39.3072 235.197 39.7101 237.334 39.7101C240.106 39.7101 242.268 38.892 243.819 37.2557C245.396 35.595 246.185 33.1894 246.185 30.039V29.1231C245.422 30.2221 244.366 31.0647 243.018 31.6508C241.67 32.2125 240.157 32.4934 238.478 32.4934C236.723 32.4934 235.147 32.1759 233.748 31.5409C232.374 30.906 231.293 30.0023 230.505 28.8301C229.742 27.6334 229.361 26.2658 229.361 24.7272C229.361 23.1153 229.768 21.6988 230.581 20.4777C231.421 19.2566 232.552 18.3164 233.977 17.657C235.401 16.9731 237.003 16.6312 238.784 16.6312ZM239.127 29.5261C240.322 29.5261 241.39 29.3063 242.331 28.8667C243.272 28.4271 243.997 27.8288 244.506 27.0717C245.04 26.3146 245.307 25.472 245.307 24.544C245.307 23.6404 245.053 22.8222 244.544 22.0896C244.061 21.3325 243.336 20.7341 242.37 20.2945C241.429 19.8305 240.284 19.5985 238.936 19.5985C237.181 19.5985 235.757 20.0503 234.663 20.9539C233.595 21.8576 233.061 23.0665 233.061 24.5806C233.061 26.0948 233.608 27.3037 234.702 28.2073C235.795 29.0865 237.27 29.5261 239.127 29.5261Z" fill="#0088CE"/>
</svg>
