<svg width="50" height="20" viewBox="0 0 50 20" fill="none" xmlns="http://www.w3.org/2000/svg">
<path fill-rule="evenodd" clip-rule="evenodd" d="M42.4681 8.57227C44.184 8.57227 45.2088 8.59537 46.5673 8.59537C47.9258 8.59537 49.9992 9.77379 49.9992 11.8071C49.9992 13.8405 49.9992 13.956 49.9992 15.3424C49.9992 16.7519 48.4024 18.6697 46.8533 18.6697C45.2803 18.6697 42.3966 18.6697 42.4681 18.6697V8.57227ZM44.47 10.3745C45.5425 10.3745 45.4233 10.3745 46.1621 10.3745C46.8771 10.3745 47.9734 10.9753 47.9734 11.8302C47.9734 12.7083 47.9734 14.1871 47.9734 15.0882C47.9734 15.9663 47.2584 16.8905 46.0191 16.8905C44.756 16.8905 44.47 16.8905 44.47 16.8905V10.3745Z" fill="#29294B"/>
<path d="M28.8851 15.0882H27.5505V18.6697H25.0957V8.57227H29.0996C30.315 8.57227 31.2683 8.82643 31.9356 9.35788C32.6268 9.88932 32.9604 10.6518 32.9604 11.6223C32.9604 12.3155 32.8174 12.8931 32.5315 13.3552C32.2455 13.8174 31.7926 14.2102 31.173 14.4875L33.3179 18.5541V18.6697H30.6725L28.8851 15.0882ZM27.5505 13.2166H29.0996C29.5762 13.2166 29.9337 13.1011 30.172 12.8469C30.3865 12.6159 30.5057 12.2693 30.5057 11.8302C30.5057 11.3912 30.3865 11.0677 30.1482 10.8136C29.9099 10.5594 29.5762 10.4439 29.0996 10.4439H27.5505V13.2166ZM40.7537 14.3719H36.8928V16.7981H41.4448V18.6697H34.4381V8.57227H41.4687V10.4439H36.8928V12.5696H40.7537V14.3719Z" fill="#29294B"/>
<path d="M26.6687 4.11271L26.2158 4.62105V5.82257H25.0957V1.22444H26.2158V3.25778L26.5972 2.68013L27.5743 1.22444H28.9327L27.3836 3.25778L28.9327 5.82257H27.622L26.6687 4.11271ZM31.8165 4.96764H30.315L30.029 5.82257H28.8612L30.5295 1.22444H31.5782L33.2703 5.82257H32.0786L31.8165 4.96764ZM30.5772 4.11271H31.5543L31.0538 2.51838L30.5772 4.11271ZM35.9633 4.62105C35.9633 4.4593 35.8918 4.32067 35.7965 4.22824C35.6773 4.13582 35.4629 4.04339 35.1769 3.95097C34.8909 3.85854 34.6525 3.76612 34.4857 3.67369C33.8899 3.37331 33.6039 2.98051 33.6039 2.44906C33.6039 2.1949 33.6754 1.98694 33.8184 1.77898C33.9614 1.59413 34.1759 1.43239 34.4381 1.33997C34.7002 1.22444 35.01 1.17822 35.3437 1.17822C35.6773 1.17822 35.9872 1.22444 36.2255 1.33997C36.4877 1.4555 36.7021 1.64035 36.8451 1.8483C36.9881 2.05626 37.0596 2.31043 37.0596 2.5877H35.9633C35.9633 2.40285 35.8918 2.26421 35.7965 2.14868C35.6773 2.05626 35.5105 2.01005 35.3199 2.01005C35.1292 2.01005 34.9624 2.05626 34.867 2.12558C34.7479 2.218 34.7002 2.33353 34.7002 2.47217C34.7002 2.5877 34.7479 2.68013 34.867 2.79566C35.01 2.88808 35.2245 2.98051 35.5344 3.07293C35.868 3.18846 36.1063 3.30399 36.3208 3.41952C36.8213 3.6968 37.0596 4.0896 37.0596 4.59794C37.0596 4.99075 36.9166 5.31423 36.6068 5.54529C36.297 5.77636 35.8918 5.89189 35.3675 5.89189C34.9862 5.89189 34.6525 5.82257 34.3666 5.68393C34.0567 5.54529 33.8422 5.38355 33.6754 5.15249C33.5324 4.92143 33.4609 4.64415 33.4609 4.34377H34.5572C34.5572 4.59794 34.6287 4.78279 34.7479 4.89832C34.867 5.01385 35.0815 5.06006 35.3675 5.06006C35.5582 5.06006 35.7012 5.03696 35.7965 4.94453C35.9157 4.87522 35.9633 4.75968 35.9633 4.62105ZM38.7279 4.25135V5.82257H37.6316V1.22444H39.4429C39.8004 1.22444 40.1102 1.29375 40.3724 1.43239C40.6583 1.54792 40.849 1.73277 41.0158 1.98694C41.1588 2.218 41.2303 2.49528 41.2303 2.79566C41.2303 3.23467 41.0635 3.58127 40.7537 3.85854C40.42 4.13582 39.991 4.25135 39.4429 4.25135H38.7279ZM38.7279 3.41952H39.4429C39.6574 3.41952 39.8242 3.35021 39.9434 3.25778C40.0625 3.14225 40.1102 2.98051 40.1102 2.79566C40.1102 2.5877 40.0387 2.40285 39.9434 2.28732C39.8242 2.14868 39.6574 2.07936 39.4667 2.07936H38.7279V3.41952ZM42.9939 5.82257H41.8976V1.22444H42.9939V5.82257Z" fill="#29294B"/>
<path d="M7.36425 17.8149C7.41192 19.2244 7.17359 19.4785 6.86377 19.4554C6.57778 19.4323 6.36329 18.9702 6.24412 18.1384C6.05346 16.6827 6.22029 14.5107 6.64928 14.4876C7.05443 14.4645 7.29276 16.3592 7.36425 17.8149ZM12.9172 13.3554V13.2399C12.7504 12.2232 12.5836 11.0679 10.7008 10.7906C10.2003 10.7213 9.81901 10.7906 9.55685 10.9986C8.88954 11.5531 8.91337 13.1012 8.91337 14.9035V15.4118C8.91337 17.2141 8.9372 18.7391 9.36619 19.4323C9.62834 19.8482 10.3672 20.0562 11.2966 19.9869C12.3453 19.9175 13.2747 19.5247 13.4654 19.0857C13.513 18.9702 13.5369 18.7391 13.5369 18.4387C13.5369 17.2603 13.1794 14.9959 13.0126 13.9099L12.9172 13.3554ZM15.0145 14.7187C14.4902 14.9497 14.7047 17.63 15.2052 18.485C15.372 18.716 15.9916 18.3694 16.087 18.3232C16.4206 18.0922 16.6351 17.9766 16.7304 17.4914C16.8258 17.0293 15.658 14.4183 15.0145 14.7187ZM16.5874 7.62505C17.1594 7.16292 17.3024 7.02429 17.7076 6.3311C17.9459 5.89208 18.3034 5.82276 18.5417 5.93829C18.8039 6.05382 18.9707 6.42352 18.7324 6.97807C18.5417 7.37088 18.0412 7.90232 17.5169 8.47998C16.8019 9.21937 16.0155 10.0512 16.0155 10.6057C16.0155 13.3554 17.6122 15.7815 17.8029 16.0357C18.0174 16.3592 18.1127 16.4285 18.1604 16.4285C18.1842 16.4285 18.2081 16.4054 18.2557 16.3823C19.781 14.6031 20.639 12.3387 20.639 10.005C20.639 4.4826 16.0155 0 10.3195 0C4.62351 0 0 4.4826 0 10.005C0 13.1474 1.54911 16.1512 4.17069 18.0228C4.28986 18.1153 4.36135 18.1153 4.40902 18.0922C4.50435 18.0459 4.55201 17.8149 4.59968 17.6069L4.62351 17.5376C4.86184 16.4978 4.93333 15.4812 4.81417 14.2796C4.74267 13.5633 4.62351 13.1474 4.52818 12.7546C4.40902 12.3618 4.31369 12.0152 4.31369 11.4607C4.33752 10.9754 4.43285 10.6289 4.55201 10.2592C4.67118 9.86635 4.81417 9.38112 4.838 8.5724C4.9095 7.00118 5.07633 6.60837 5.55298 6.16936C6.02963 5.70723 6.17263 5.52238 6.17263 5.17579C6.17263 4.8523 5.71981 4.0898 6.53011 3.28108C7.31659 2.49547 8.07923 2.47236 8.34139 2.74964C8.60355 3.00381 8.53205 3.51214 8.00773 4.18222C7.50725 4.8523 7.53108 5.15268 7.55491 5.31443C7.57875 5.45306 7.74557 5.66102 8.03156 5.89208C8.26989 6.07693 8.53205 6.28489 8.69888 6.58527C9.03253 7.13982 9.22319 7.67126 9.48535 8.41066L9.55685 8.64172C9.77134 9.28869 10.391 9.49665 11.4873 9.49665C12.5836 9.49665 13.7514 8.80346 13.7514 8.27202C13.7514 7.74058 13.513 7.67126 13.513 7.23224C13.513 6.77012 14.228 5.45306 15.2767 5.45306C15.8248 5.45306 16.1108 5.82276 15.8248 6.35421C15.5865 6.88565 15.0622 7.62505 15.0622 7.94853C15.0622 8.54929 15.9916 8.08717 16.5874 7.62505Z" fill="#29294B"/>
</svg>
