<svg width="45" height="79" viewBox="0 0 45 79" fill="none" xmlns="http://www.w3.org/2000/svg">
<path d="M38.7163 0.122156C47.1979 1.02563 39.3339 24.9585 42.3947 31.0985C45.4647 37.2292 44.847 43.0557 43.6208 46.7342C42.3947 50.4126 46.6908 70.9621 39.6382 74.3363C32.5855 77.7105 9.88798 80.7713 3.14878 76.1801C-3.59963 71.5798 4.0707 -3.55629 38.7255 0.13137L38.7163 0.122156Z" fill="#D2242A"/>
<path d="M18.9593 62.9876C22.8774 62.0657 26.3715 61.5586 29.1833 58.3319C30.5938 56.7186 31.2576 55.0683 31.5711 53.3628C31.2484 53.6301 30.9165 53.8883 30.5662 54.128C29.8287 54.6166 28.9067 55.2988 27.994 55.2804C27.5054 55.2712 27.2934 54.6996 27.6068 54.3492C28.1692 53.7223 29.1833 53.4365 29.9208 53.0217C30.557 52.6621 31.1654 52.2473 31.7647 51.8416C31.9214 49.7673 31.7186 47.6008 31.7923 45.3053C31.82 44.5401 31.9306 43.7288 32.1334 42.9267C31.5987 43.1756 31.064 43.4246 30.5662 43.7288C30.0223 44.0607 29.4691 44.7245 28.8422 44.8351C28.5011 44.8996 28.2245 44.6415 28.2891 44.2819C28.4366 43.5536 29.3585 43.0281 29.9485 42.6778C30.6584 42.2629 31.442 41.9864 32.2625 41.8942C32.327 41.885 32.3639 41.9218 32.4192 41.9403C33.249 39.4603 34.8992 37.2477 37.2777 36.9343C36.909 36.7038 36.5586 36.4641 36.2175 36.1691C33.4887 35.1273 30.7967 36.2797 28.0217 36.6485C27.4501 37.8101 26.4544 38.7689 25.2928 39.3405C24.3433 39.8014 22.4441 40.456 21.5867 39.5156C21.4208 39.3312 21.4761 39.1008 21.6605 38.9533C22.4257 38.3725 23.7071 38.5384 24.6198 38.1604C25.4311 37.8285 26.0672 37.3307 26.6388 36.7407C26.5282 36.7407 26.4083 36.7591 26.2977 36.7499C24.583 36.6946 22.3888 36.1967 22.0385 34.2884C21.9924 34.021 22.2136 33.7076 22.5086 33.8182C23.8178 34.2884 24.8411 35.1181 26.2977 35.2287C27.1551 35.2933 28.0033 35.2011 28.8422 35.0628C28.3905 34.7585 27.9387 34.4635 27.4593 34.1962C26.897 33.8919 25.975 33.6983 25.7999 33.0161C25.7538 32.841 25.8275 32.675 25.9751 32.5828C26.602 32.168 27.5239 32.7949 28.0862 33.1175C28.8606 33.5601 29.589 34.0948 30.179 34.7493C30.1974 34.7678 30.2066 34.7954 30.2251 34.8139C30.4648 34.7678 30.7045 34.7309 30.9442 34.694C32.2533 34.5004 33.5532 34.4267 34.7886 34.6848C34.4751 34.2884 34.1709 33.8643 33.8943 33.431C33.0738 32.1126 32.6036 30.7113 32.2902 29.2824C32.2256 29.2547 32.1519 29.2086 32.0966 29.1533C31.2576 28.3512 30.4371 27.5676 29.423 26.9868C28.5841 26.5074 27.4317 26.3876 26.8601 25.5855C26.6849 25.3366 26.7956 24.8756 27.0813 24.7466C28.16 24.2579 29.4783 25.0785 30.4002 25.65C30.9165 25.9727 31.4143 26.3322 31.8569 26.7379C31.4604 23.797 31.2392 20.8469 29.5521 18.3024C29.2202 17.8045 29.8747 17.15 30.3818 17.4726C32.6589 18.9569 32.9355 21.5475 33.0738 24.092C33.1291 25.1245 33.2858 26.3415 33.5532 27.6045C33.8298 26.8301 34.2354 26.0096 34.9729 25.8068C35.185 25.7514 35.4155 25.8805 35.4708 26.0926C35.7289 26.9868 34.9545 28.0654 34.6871 28.9228C34.5581 29.3377 34.4843 29.9001 34.3276 30.3887C35.6736 34.1501 38.2089 37.4321 42.5142 36.5655C43.1688 36.4364 43.4269 37.3583 42.7908 37.5704C41.7767 37.9023 40.8179 37.9853 39.9236 37.8746C39.8406 37.9853 39.7024 38.059 39.5088 38.0037C37.8585 38.6214 36.2175 39.2483 34.5673 39.8752L33.9127 41.258C33.922 43.148 34.1063 44.9918 34.6595 46.8172C35.2126 48.6518 36.2452 50.2283 36.8629 52.0076C37.0012 52.4132 36.4572 52.6806 36.1714 52.4132C34.429 50.7538 33.5071 48.1632 33.1475 45.5449C33.1568 47.1399 33.544 48.7163 33.5624 50.3205C33.5993 53.0125 32.8157 55.6768 31.4143 57.9724C30.6215 59.2723 29.5336 60.4984 28.2614 61.5402C28.372 62.8677 28.0862 64.1769 27.3671 65.3477C26.6112 66.5738 25.1361 68.1411 23.5781 67.8737C23.1263 67.8 23.0895 67.2284 23.3292 66.9426C23.6979 66.5001 24.1865 66.3341 24.6567 66.0115C25.2744 65.5966 25.7907 65.0711 26.2055 64.4534C26.6204 63.8265 26.9062 63.1443 27.0629 62.4344C24.6383 64.0293 21.7435 64.8867 18.9777 64.2598C18.3508 64.1215 18.36 63.1443 18.9777 62.9968L18.9593 62.9876Z" fill="#E65D4C"/>
<path d="M31.858 3.76364C26.391 3.80052 21.4127 9.72842 18.3519 13.7111C15.2635 17.7306 11.0319 23.6032 11.917 28.9135C12.1198 30.1027 13.7516 30.3609 14.5168 29.5957C17.6052 26.4888 18.693 21.4183 21.1914 17.7491C24.0494 13.5636 28.0136 8.84338 32.6139 6.5386C33.9692 5.8656 33.2869 3.74521 31.858 3.75442V3.76364Z" fill="#D74C3F"/>
<path d="M13.327 33.9194C13.2901 33.1635 12.7738 32.5089 11.9994 32.4167C11.3264 32.3337 10.423 32.7486 10.3123 33.5138C10.1187 34.9335 9.58402 36.7036 9.98966 38.1049C10.4875 39.8197 12.6817 39.6076 13.2625 38.1049C13.7419 36.8788 13.3915 35.2101 13.327 33.9194Z" fill="#D74C3F"/>
</svg>
