<svg width="23" height="39" viewBox="0 0 23 39" fill="none" xmlns="http://www.w3.org/2000/svg">
<path fill-rule="evenodd" clip-rule="evenodd" d="M14.9205 4.71316C14.9205 4.71316 6.17812 0.646954 2.13918 12.716C-6.07367 37.2528 23.206 45.5148 22.147 31.2731C21.7317 25.692 16.073 26.3099 15.9276 20.2007C15.7823 13.9319 20.9633 8.55014 14.9205 4.70319V4.71316Z" fill="#F08580"/>
<path d="M8.92029 8.99994C6.92029 10.5999 2.75362 11.6666 0.920288 11.9999C1.42029 10.5 2.72029 7.1 3.92029 5.5C5.42029 3.5 7.92029 1 10.9203 0C11.7536 0.333333 13.6203 1 14.4203 1C15.4203 1 17.4203 4 17.9203 6.49994C18.4203 8.99988 15.9203 7.49994 15.4203 6.49994C14.9203 5.49994 11.4203 6.99994 8.92029 8.99994Z" fill="#F0F6CA"/>
</svg>
