<svg width="38" height="28" viewBox="0 0 38 28" fill="none" xmlns="http://www.w3.org/2000/svg">
<path fill-rule="evenodd" clip-rule="evenodd" d="M22.6402 10.6383L24.8114 13.3694L33.0822 23.7725H16.5411H0L5.5198 16.8292C6.9708 17.3005 8.52392 17.5564 10.139 17.5564C15.4654 17.5564 20.1208 14.7771 22.6402 10.6383Z" fill="#0088CE"/>
<path fill-rule="evenodd" clip-rule="evenodd" d="M16.5412 2.96643L21.6858 9.43762C19.4775 13.3588 15.1349 16.0263 10.1391 16.0263C8.89034 16.0263 7.68265 15.8593 6.53857 15.5481L8.27057 13.3694L16.5412 2.96643Z" fill="#FDC504"/>
<path fill-rule="evenodd" clip-rule="evenodd" d="M10.5051 5.65451V4.6541V4.65143H10.5089C10.5094 3.42576 10.8809 2.30113 11.4787 1.47772C12.1379 0.569594 13.0757 0.00515696 14.1328 0.00377556V0H14.1357H34.3694H34.3714V0.00377556C35.4291 0.00432812 36.368 0.569595 37.0269 1.47855C37.6241 2.30113 37.9952 3.42448 37.9963 4.64867H38V4.6541V23.0906V23.0933H37.9963C37.9957 24.3186 37.6244 25.4436 37.0264 26.267C36.3672 27.1751 35.4294 27.7396 34.3724 27.741V27.7447H34.3694H14.1357H14.1325V27.741C13.5876 27.7404 13.0723 27.5876 12.6086 27.3137C12.4852 27.241 12.3781 27.1702 12.2899 27.1037C11.7897 26.7267 11.3656 26.1921 11.056 25.554L12.753 24.7165C12.9271 25.0748 13.1578 25.37 13.4238 25.5703C13.4841 25.6156 13.5316 25.649 13.565 25.6686C13.7442 25.7741 13.9367 25.8333 14.1325 25.8335V25.8298H14.1357H34.3694H34.3724V25.8335C34.7869 25.833 35.1882 25.5663 35.4994 25.1374C35.8732 24.6223 36.1058 23.8988 36.1061 23.0933H36.1024V23.0906V4.6541V4.64867H36.1061C36.1053 3.8446 35.8732 3.12241 35.4998 2.60807C35.1887 2.17873 34.7869 1.91139 34.3714 1.91111V1.91498H34.3694H14.1357H14.1328V1.91111C13.7183 1.91166 13.317 2.17846 13.0058 2.60724C12.632 3.12241 12.3994 3.84562 12.3991 4.65143H12.4029V4.6541V5.65451H10.5051Z" fill="#0088CE"/>
</svg>
