<svg width="32" height="10" viewBox="0 0 32 10" fill="none" xmlns="http://www.w3.org/2000/svg">
<path fill-rule="evenodd" clip-rule="evenodd" d="M19 8.43079C19 8.43079 19 1.78764 20.557 0.729115C22.114 -0.329408 23.1586 -0.238157 25.4449 1.02112C27.7311 2.27127 28.6673 3.13817 29.8104 3.23855C30.9535 3.33892 32.7274 4.68033 31.6828 5.26434C30.6382 5.83923 26.8935 5.16396 25.4449 6.13123C23.9864 7.09851 20.764 10.2741 19 8.43991V8.43079Z" fill="#AFE9AF"/>
<path fill-rule="evenodd" clip-rule="evenodd" d="M14 9.43079C14 9.43079 14 2.78764 12.3232 1.72912C10.6464 0.670591 9.52149 0.761843 7.05937 2.02112C4.59726 3.27127 3.58907 4.13817 2.35801 4.23855C1.12695 4.33892 -0.783318 5.68033 0.341614 6.26434C1.46655 6.83923 5.49932 6.16396 7.05937 7.13123C8.63003 8.09851 12.1004 11.2741 14 9.43991V9.43079Z" fill="#AFE9AF"/>
</svg>
