<svg width="333" height="733" viewBox="0 0 333 733" fill="none" xmlns="http://www.w3.org/2000/svg">
<path d="M175.702 0.419591C186.907 2.08914 195.204 9.95069 197.797 21.4174C199.251 27.8387 199.952 34.3334 198.673 40.9107C198.524 41.4216 198.475 41.9589 198.529 42.4901C198.583 43.0214 198.74 43.5357 198.989 44.0021C203.825 51.8912 202.887 61.7158 196.579 68.7701C195.782 69.6874 195.852 70.7057 195.703 71.7514C195.116 76.9711 193.741 81.8421 190.578 86.0985C189.955 86.7483 189.542 87.5852 189.395 88.4928C189.649 96.3727 188.913 104.39 192.225 111.839C192.59 112.84 193.27 113.681 194.153 114.224C205.069 118.71 215.223 125.718 227.129 126.911C236.188 127.828 242.688 132.506 248.059 139.405C255.944 149.55 261.2 161.366 262.663 174.172C264.635 191.308 269.821 207.746 271.495 224.873C272.786 237.46 273.102 250.136 272.441 262.777C272.224 264.414 272.552 266.078 273.369 267.492C280.974 279.83 284.066 293.691 285.836 308.029C287.072 317.945 286.861 328.21 291.925 337.274C292.801 338.851 293.423 340.649 295.175 341.42C305.461 345.952 313.442 353.786 321.458 361.601C324.412 364.317 327.564 366.786 330.885 368.986C332.453 370.096 333.513 371.564 332.742 373.628C331.972 375.692 330.403 376.297 328.511 376.242C324.639 376.123 321.756 373.838 318.874 371.444C316.552 369.527 313.661 365.307 311.567 366.913C308.939 368.949 312.032 372.894 313.048 375.857C316.088 384.755 319.347 393.57 322.501 402.459C322.837 403.305 323.089 404.184 323.254 405.083C323.5 406.743 323.868 408.624 322.054 409.541C320.425 410.367 319.312 409.037 318.339 407.89C315.002 403.945 313.398 398.964 311.05 394.423C309.964 392.314 309.018 390.121 308.01 388.002L306.889 388.507C308.492 392.57 309.99 396.68 311.725 400.68C313.128 403.859 314.203 407.187 314.931 410.605C315.334 412.522 315.711 414.375 313.635 415.302C311.558 416.228 310.13 414.907 308.991 413.064C305.724 407.761 303.989 401.735 301.562 396.038C300.855 394.24 299.956 392.532 298.881 390.947C298.005 394.699 299.871 397.937 300.318 401.386C300.73 404.551 301.483 407.661 302.07 410.798C302.5 413.036 301.702 415.045 299.784 415.687C297.392 416.485 296.533 414.293 295.999 412.321C295.015 408.071 293.666 403.923 291.969 399.927C291.969 401.881 291.969 403.835 291.969 405.78C291.969 407.046 291.732 408.303 290.392 408.752C288.85 409.266 287.913 408.165 287.133 407.046C286.607 406.312 286.226 405.477 286.011 404.588C282.691 388.442 276.821 372.985 275.945 356.363C275.63 349.841 271.678 345.126 268.481 340.117C258.59 324.596 249.688 308.534 243.854 290.838C238.772 275.418 235.504 259.456 231.588 243.687C229.442 235.028 227.944 226.194 225.92 217.442C224.527 228.744 221.969 239.752 219.787 250.852C217.027 264.795 219.034 278.619 221.469 292.572C225.692 316.689 231.352 340.521 234.865 364.766C235.802 371.187 236.521 377.783 235.916 384.369C235.355 389.171 235.355 394.025 235.916 398.827C236.109 415.339 234.234 431.667 232.254 447.977C229.971 467.485 229.384 487.169 230.502 506.788C231.247 521.3 233.735 535.436 235.653 549.719C237.213 561.268 235.031 572.771 233.025 584.201C229.398 604.896 224.141 625.188 219.621 645.663C218.149 652.332 217.036 659.102 216.116 665.844C215.503 670.229 215.617 674.687 217.623 678.824C218.365 680.155 218.698 681.692 218.578 683.228C217.395 692.483 220.611 700.657 224.422 708.592C225.21 710.234 226.042 711.848 226.691 713.545C230.143 722.535 227.015 728.085 218 729.755C214.951 730.314 211.482 729.755 208.924 732.305H196.658C188.721 731.332 185.97 724.278 186.031 718.545C186.136 708.353 185.462 698.18 186.206 687.952C186.856 678.635 188.026 669.367 189.711 660.193C192.681 644.351 191.174 627.995 190.473 611.85C189.912 598.906 186.049 586.339 186.557 573.239C186.951 562.828 188.878 552.654 190.184 542.38C190.961 536.619 190.469 530.748 188.747 525.217C181.545 502.21 179.25 478.488 178.672 454.463C178.313 439.446 176.21 424.714 171.313 410.513C169.867 406.33 169.289 401.936 168.404 397.616C168.141 396.359 168.08 394.534 166.319 394.653C164.908 394.754 164.83 396.35 164.619 397.515C162.867 407.44 159.687 416.971 157.155 426.677C154.676 436.18 154.763 446.033 154.325 455.738C153.291 479.313 151.355 502.614 144.224 525.171C141.595 533.491 142.182 542.188 143.873 550.554C147.378 567.754 146.09 584.688 143.637 601.924C140.877 621.262 141.192 640.838 142.962 660.331C142.973 660.641 143.017 660.949 143.094 661.248C149.296 679.072 146.274 697.648 147.202 715.903C147.439 720.581 145.687 724.489 143.584 728.388C141.946 731.424 138.906 731.443 136.286 732.387H124.021C121.62 729.782 118.256 730.433 115.365 729.938C112.737 729.489 110.529 727.966 107.971 727.415C106.446 727.094 105.754 725.581 105.561 723.93C105.062 719.637 105.193 715.463 107.191 711.491C111.694 702.528 115.593 693.474 114.533 682.833C114.112 678.641 117.398 674.962 117.082 670.458C116.404 661.802 115.083 653.214 113.131 644.773C107.874 621.051 101.409 597.585 98.2373 573.386C96.634 561.002 96.1259 548.499 99.4901 536.243C100.815 530.944 101.605 525.515 101.847 520.043C103.652 493.064 103.362 466.214 99.8668 439.318C97.1005 418.004 96.1564 396.475 97.0458 374.985C97.4313 365.738 98.4125 356.483 101.041 347.465C106.035 330.357 108.05 312.606 110.914 295.067C111.966 288.646 113.429 282.224 114.305 275.757C115.514 266.932 114.629 258.181 112.816 249.476C110.739 239.559 108.952 229.569 106.902 218.91C105.29 237.614 100.322 254.686 95.0045 271.813C91.9031 281.757 90.0545 292.159 85.9894 301.819C80.3386 315.294 72.8479 327.642 64.6915 339.567C60.1021 346.208 57.2756 354.004 56.4999 362.161C54.9405 376.838 50.0343 390.864 46.6438 405.184C46.2408 406.899 45.2158 408.853 43.1394 408.734C39.9242 408.587 41.5362 405.009 39.8716 403.156C38.6901 405.593 37.8267 408.185 37.3046 410.862C36.7352 413.192 36.2358 416.366 33.1694 415.623C30.3309 414.972 30.5411 412.146 31.1019 409.578C32.2758 404.074 33.3359 398.57 34.4223 393.066C34.615 392.093 35.1845 391.048 33.8353 389.974C31.8903 394.772 29.9104 399.441 28.1144 404.184C26.9612 407.313 25.5267 410.32 23.8302 413.165C22.8052 414.852 21.5173 416.091 19.5286 415.146C17.5398 414.201 17.3646 412.55 17.899 410.559C18.8784 406.729 20.171 402.994 21.7626 399.395C23.0604 396.447 24.0843 393.375 24.8202 390.222C21.3158 394.607 19.8002 400.12 16.839 404.743C15.4372 406.945 14.2632 410.935 10.8465 409.073C7.72755 407.376 9.97036 404.083 10.7413 401.735C14.2457 391.396 18.048 381.159 21.6488 370.857C22.1131 369.545 23.3221 367.784 21.7539 366.683C20.1857 365.582 19.0467 367.353 17.9429 368.188C15.4635 370.022 13.1944 372.206 10.715 374.059C8.95314 375.463 6.79683 376.218 4.58235 376.205C2.73379 376.159 0.99035 375.765 0.245667 373.783C-0.0808601 372.911 -0.0819209 371.941 0.242695 371.068C0.567311 370.194 1.19385 369.481 1.99786 369.068C10.1193 364.06 16.287 356.593 23.5411 350.511C27.132 347.382 31.1215 344.791 35.3947 342.814C38.6451 341.392 40.3447 338.934 41.7903 335.797C45.4699 327.761 45.8291 319.019 47.0468 310.451C49.132 295.406 52.4436 280.793 60.7315 267.96C62.0895 265.859 61.888 263.621 61.9405 261.355C62.2647 244.751 61.8179 227.918 65.699 211.819C69.0895 197.756 67.346 183.235 70.8329 169.402C74.5213 154.724 80.5927 141.423 92.5864 131.846C97.4751 127.938 103.222 127.177 108.847 126.342C116.381 125.168 122.943 121.618 129.707 118.453C130.644 118.022 131.503 117.242 132.466 117.104C141.105 115.82 142.568 108.995 143.12 101.748C143.654 94.7215 144.872 87.4745 139.615 81.4018C138.864 80.2756 138.364 78.9871 138.152 77.6315C137.162 73.6411 136.181 70.0452 133.649 66.3483C130.013 61.0461 128.717 52.6526 131.695 47.598C135.139 41.7638 132.922 36.7368 133.535 31.4622C134.727 21.1972 136.829 11.6111 145.503 5.18972C148.952 2.60407 152.993 1.02148 157.216 0.603058C163.355 -0.13415 169.551 -0.195641 175.702 0.419591Z" fill="#A1E3FF"/>
<path d="M224.727 211.332C225.739 209.256 225.381 207.08 225.13 204.942C224.94 203.341 223.607 201.878 224.422 200.146C227.399 193.627 225.298 187.061 224.049 180.733C223.485 177.837 224.384 174.811 222.945 171.977C223.029 174.604 221.3 175.914 219.678 177.393C211.896 184.464 202.735 189.459 193.948 195.014C189.47 197.863 185.396 197.664 181.254 194.699C180.119 193.887 179.091 192.93 178.01 192.049C177.431 191.574 176.86 190.877 176.03 191.283C175.375 191.62 175.451 192.355 175.55 192.991C176 195.902 174.675 198.178 172.999 200.346C172.322 201.219 170.997 202.376 172.139 203.272C175.878 206.222 177.089 211.324 181.368 213.791C188.846 218.096 192.295 227.213 200.771 230.37C200.87 230.408 200.938 230.553 201.014 230.661C202.149 232.293 203.621 233.66 205.33 234.668C207.038 235.675 208.943 236.3 210.913 236.498C219.442 237.471 221.574 235.503 219.373 227.665C218.125 227.933 217.721 229.197 216.891 229.895C215.018 231.58 212.809 231.772 210.472 231.427C210.023 231.407 209.591 231.255 209.228 230.989C208.865 230.723 208.588 230.356 208.431 229.933C208.315 229.495 208.343 229.031 208.511 228.61C208.678 228.189 208.976 227.833 209.36 227.596C212.733 224.915 215.802 221.582 219.587 219.759C223.562 217.844 224.156 214.764 224.749 211.27L224.727 211.332Z" stroke="#0087CB" stroke-miterlimit="10"/>
<path d="M211.248 399.184C211.736 402.788 211.03 408.911 211.048 415.03C211.088 428.174 210.082 441.267 209.296 454.366C208.559 466.526 205.593 478.315 203.187 490.178C201.133 500.246 200.342 510.928 192.582 519.132C189.537 522.343 190.327 530.129 193.556 533.014C196.785 535.899 200.336 534.228 203.444 532.548C206.796 530.703 209.805 531.635 212.947 532.798C216.517 534.164 220.391 535.17 223.221 531.939C226.051 528.707 224.3 524.985 222.534 521.924C219.017 515.824 217.933 509.233 217.997 502.412C218.112 490.81 218.441 479.206 218.786 467.609C219.206 454.359 219.626 441.109 220.321 427.87C220.996 415.014 222.672 402.227 221.986 389.29C221.709 384.149 221.493 378.691 224.323 373.979C228.258 367.451 227.303 361.031 224.186 354.651C222.627 351.457 220.472 351.19 218.488 354.083C217.058 356.122 215.468 356.181 213.546 355.674C210.613 354.907 209.437 352.891 209.862 349.911C210.161 347.818 209.105 346.411 207.412 345.578C205.547 344.653 204.203 345.913 203.231 347.309C201.298 349.992 199.499 352.784 197.723 355.568C196.691 357.15 197.161 358.393 198.837 359.35C204.794 362.705 207.187 367.93 206.547 374.663C206.335 375.675 206.512 376.73 207.043 377.616C211.416 383.292 210.59 390.111 211.248 399.184Z" stroke="#0087CB" stroke-miterlimit="10"/>
<path d="M111.345 527.909C111.262 531.509 112.705 533.325 115.956 533.713C118.329 534.007 120.486 533.219 122.617 532.193C123.86 531.523 125.224 531.185 126.601 531.209C127.977 531.233 129.327 531.617 130.541 532.33C137.516 536.22 141.661 533.206 141.638 524.519C141.686 523.11 141.463 521.708 140.982 520.408C140.502 519.108 139.776 517.939 138.853 516.981C136.116 514.182 134.953 510.528 133.893 506.718C130.705 495.638 129.442 484.093 127.06 472.821C124.025 458.481 123.835 443.755 123.034 429.152C122.356 416.861 122.517 404.433 122.51 392.075C122.507 388.149 122.637 383.976 124.511 380.541C125.987 377.843 126.343 375.242 126.438 372.217C126.637 366.72 128.399 362.017 133.013 359.188C134.5 358.277 135.547 357.134 134.444 355.239C132.716 352.247 130.904 349.316 129.011 346.446C128.359 345.41 127.264 344.642 126.013 345.148C125.349 345.381 124.756 345.816 124.302 346.404C123.847 346.992 123.548 347.708 123.44 348.473C123.372 349.237 123.363 350.006 123.412 350.771C123.446 353.073 122.511 354.725 120.489 355.402C118.467 356.079 116.804 356.164 115.482 353.685C114.159 351.207 112.118 351.469 110.907 353.886C107.788 360.134 106.775 366.629 110.154 373.162C111.602 375.919 112.397 379.044 112.464 382.246C112.781 396.517 113.285 410.749 114.174 425.002C115.718 449.897 116.225 474.907 117.024 499.837C117.267 507.412 116.583 514.884 112.92 521.673C111.938 523.577 111.397 525.721 111.345 527.909Z" stroke="#0087CB" stroke-miterlimit="10"/>
<path d="M166.757 13C159.98 14.0036 152.982 16.1181 147.294 21.251C138.758 28.9121 136.001 42.7634 140.44 54.0329C141.339 56.3313 143.677 58.5606 141.08 61.3493C140.319 62.1844 141.179 63.3565 142.215 63.7472C143.501 64.2545 144.835 64.6268 146.197 64.8581C150.88 65.6242 152.959 67.3096 153.743 71.9369C154.056 73.768 154.855 73.4692 156.028 73.3313C162.907 72.3293 169.889 72.2648 176.786 73.1397C178.537 73.3543 179.641 73.1857 180.007 71.0559C180.677 67.0645 183.54 65.4556 187.241 64.927C188.614 64.7343 189.968 64.4294 191.292 64.0154C192.35 63.6706 193.279 62.5597 192.64 61.717C190.355 58.5913 192.685 56.1934 193.592 53.5656C199.722 35.8531 190.957 15.6431 166.757 13Z" stroke="#0087CB" stroke-miterlimit="10"/>
<path d="M127.182 343.884C127.895 343.712 128.639 343.716 129.351 343.894C130.063 344.073 130.721 344.421 131.271 344.91C134.743 347.798 137.172 351.56 139.304 355.46C140.157 356.992 140.066 359.405 138.124 360.171C134.522 361.596 134.583 363.603 136.06 366.614C136.685 367.894 136.487 369.61 136.563 371.127C136.728 374.086 137.791 376.923 139.609 379.255C142.206 382.672 145.982 384.112 149.234 382.725C155.394 380.098 159.971 375.601 163.413 369.885C163.942 369.003 164.139 367.96 163.969 366.944C163.485 363.778 163.675 360.546 164.524 357.459C164.989 355.774 164.7 354.824 162.674 354.709C153.117 354.134 146.462 348.802 141.246 341.225C139.898 339.264 138.962 337.15 140.264 334.798C141.566 332.446 143.553 332.875 145.594 333.442C146.462 333.679 147.406 333.794 147.924 332.775C148.351 331.955 147.863 331.304 147.384 330.699C144.262 326.761 143.736 322.134 143.866 317.323C143.911 315.346 144.315 313.607 145.876 312.174C150.33 308.099 149.683 299.916 144.406 297.35C133.289 291.895 123.252 293.343 116.49 305.272C115.066 307.784 115.371 309.868 116.81 312.358C119.978 318.004 122.742 324.133 122.948 330.454C123.092 334.698 125.491 338.322 124.851 342.566C124.631 343.983 126.07 344.267 127.182 343.884Z" stroke="#0087CB" stroke-miterlimit="10"/>
<path d="M170.852 363.658C170.951 366.316 170.418 368.591 171.804 370.744C174.852 375.488 179.023 379.397 183.942 382.121C187.544 384.143 190.75 383.431 193.704 380.772C196.219 378.56 197.769 375.443 198.022 372.092C198.205 370.07 198.144 367.902 198.859 366.063C199.887 363.412 199.621 361.865 196.872 360.654C194.237 359.521 193.902 357.13 195.349 354.886C197.328 351.769 199.502 348.783 201.86 345.945C203.268 344.252 205.241 343.225 207.639 343.992C208.599 344.29 209.924 343.992 209.771 343.149C208.972 339.502 211.82 336.706 211.713 333.281C211.454 325.344 215.048 318.587 218.399 311.83C219.313 309.976 219.838 308.49 218.917 306.467C214.196 296.224 205.538 292.294 194.793 295.627C187.986 297.741 186.021 300.76 186.417 307.739C186.516 309.417 186.699 310.62 188.138 311.623C191.138 313.722 191.473 316.94 191.13 320.188C190.867 323.788 189.684 327.258 187.696 330.263C187.102 331.121 186.523 332.071 187.247 333.059C187.871 333.909 188.846 333.657 189.706 333.396C191.557 332.822 193.247 332.837 194.397 334.706C194.916 335.526 195.175 336.486 195.139 337.457C195.104 338.428 194.776 339.366 194.199 340.146C190.186 345.983 185.754 351.407 178.543 353.415C175.771 354.181 171.827 353.859 170.456 355.629C169.086 357.398 171.37 361.091 170.852 363.658Z" stroke="#0087CB" stroke-miterlimit="10"/>
<path d="M193.267 685.235C196.558 681.804 199.884 680.61 203.713 681.021C206.163 681.286 207.213 680.004 207.407 677.753C207.597 676.486 207.65 675.201 207.563 673.923C206.185 663.382 206.825 652.767 206.649 642.209C206.255 616.447 208.127 590.702 212.245 565.272C213.298 558.689 214.671 552.199 219.859 547.323C221.167 546.096 221.595 544.267 222.167 542.562C223.032 540.191 222.039 539.175 219.794 539.01C218.02 538.871 216.1 539.06 214.605 538.064C210.052 535.023 205.439 534.654 199.99 535.569C192.368 536.84 191.604 537.365 194.714 544.414C194.998 545.125 195.341 545.811 195.739 546.464C198.074 549.947 199.06 553.828 199.488 557.975C200.621 567.723 201.19 577.528 201.191 587.342C201.118 601.898 200.284 616.389 199.449 630.895C198.914 640.422 198.31 649.965 196.732 659.419C196.06 662.948 196.196 666.585 197.128 670.055C197.528 671.269 197.633 672.561 197.436 673.825C197.239 675.089 196.745 676.287 195.995 677.319C194.651 679.412 193.863 681.813 193.267 685.235Z" stroke="#0087CB" stroke-miterlimit="10"/>
<path d="M141.057 685.523C140.593 682.198 139.824 679.9 138.407 677.954C137.554 676.842 136.998 675.53 136.79 674.141C136.582 672.752 136.73 671.333 137.22 670.017C138.151 666.81 138.328 663.43 137.737 660.142C134.425 638.898 134.882 617.416 133.58 596.042C132.917 585.193 134.265 574.391 134.859 563.566C135.194 557.506 136.085 551.661 139.382 546.39C140.58 544.425 141.358 542.231 141.667 539.947C141.834 538.805 141.948 537.189 140.562 537.066C134.752 536.568 128.958 532.914 123.048 536.936C121.369 538.104 119.427 538.833 117.398 539.058C111.992 539.64 111.238 541.226 114.025 546.068C114.545 546.945 115.169 547.755 115.883 548.481C118.868 551.654 120.832 555.659 121.518 559.973C124.861 578.069 126.506 596.34 127.427 614.696C128.257 631.145 127.511 647.593 127.48 664.042C127.48 668.638 126.46 673.166 126.78 677.832C126.947 680.13 127.823 681.486 130.275 681.264C134.303 680.873 137.76 681.961 141.057 685.523Z" stroke="#0087CB" stroke-miterlimit="10"/>
<path d="M72.1824 263.702C72.1605 264.91 71.6926 267.166 74.0325 268.26C76.5639 269.446 79.2042 270.403 81.9227 268.604C82.7452 268.058 84.1389 267.443 84.4775 268.409C85.6568 271.74 87.7729 269.763 89.4553 269.469C90.0102 269.381 90.5342 269.154 90.979 268.808C91.4238 268.463 91.7751 268.011 92.0006 267.493C92.2262 266.975 92.3187 266.409 92.2696 265.846C92.2206 265.283 92.0315 264.741 91.7199 264.271C87.4 257.62 86.5829 250.264 87.2982 242.642C89.1244 223.2 92.2812 203.914 94.1143 184.466C94.6132 179.336 95.606 174.266 97.0786 169.329C98.0309 166.104 99.1555 162.893 101.923 160.814C104.219 159.065 104.475 156.648 103.889 154.472C103.303 152.296 101.057 151.152 100.741 148.268C100.486 145.964 96.3919 145.967 94.3438 147.898C89.5741 152.372 88.7857 158.3 88.3979 164.36C87.9612 171.094 88.1208 177.845 87.2357 184.561C86.1681 192.64 84.8723 200.758 84.701 208.878C84.3616 224.848 82.2907 240.299 74.7536 254.611C73.2338 257.41 72.3553 260.517 72.1824 263.702Z" stroke="#0087CB" stroke-miterlimit="10"/>
<path d="M254.725 271.549C256.644 268.397 256.644 268.397 260.382 269.491C265.384 270.987 269.5 267.459 268.666 262.382C268.109 259.021 266.536 256.057 264.947 253.122C260.204 244.448 256.565 235.406 255.381 225.47C254.257 216.036 252.864 206.638 251.742 197.171C250.9 190.087 248.674 183.232 248.479 176.076C248.241 170.466 247.65 164.877 246.712 159.342C246.043 154.925 243.863 150.882 240.546 147.907C238.68 146.192 236.985 146.92 235.23 147.741C233.727 148.451 232.722 149.382 233.958 151.259C234.427 151.962 233.805 152.627 233.141 153.127C230.311 155.288 230.078 158.687 232.917 160.725C236.288 163.143 238.047 166.527 239.169 170.271C241.406 177.713 243.294 185.266 244.156 192.995C245.112 201.595 246.845 210.058 248.366 218.544C249.349 224.065 250.123 229.627 251.233 235.125C253.297 245.318 254.467 255.4 249.12 265.096C247.794 267.509 249.175 269.851 251.995 270.144C253.169 270.362 253.828 271.112 254.725 271.549Z" stroke="#0087CB" stroke-miterlimit="10"/>
<path d="M167.259 352.947V353.246C170.03 353.055 172.825 352.986 175.574 352.626C177.219 352.411 178.962 351.783 178.955 349.653C178.955 341.333 184.331 335.143 187.247 327.98C188.693 324.725 189.47 321.21 189.532 317.645C189.532 314.795 187.552 313.416 185.679 311.891C185.354 311.583 185.099 311.208 184.932 310.791C184.765 310.375 184.69 309.927 184.712 309.478C184.651 308.398 185.389 306.981 184.064 306.368C182.602 305.694 181.917 307.333 180.889 307.946C177.995 309.662 176.046 313.048 172.269 313.163C165.873 313.355 159.202 314.42 154.428 308.383C153.96 307.956 153.449 307.578 152.905 307.256C151.252 305.87 150.156 305.877 150.133 308.39C150.133 310.007 149.805 311.516 148.381 312.405C145.001 314.512 144.818 317.591 145.389 321.092C146.333 326.9 149.394 331.818 151.922 336.928C153.445 339.992 155.159 342.996 155.463 346.504C155.951 352.135 156.385 352.633 161.928 352.97C163.702 353.039 165.484 352.947 167.259 352.947Z" stroke="#0087CB" stroke-miterlimit="10"/>
<path d="M111.061 172.765C112.271 176.136 110.383 179.07 110.299 182.081C110.154 186.371 107.893 190.393 109.096 194.806C110.316 198.786 110.424 203.027 109.408 207.064C108.38 210.94 111.396 214.595 111.51 218.556C113.035 218.448 114.541 218.946 115.706 219.942C118.439 222.202 121.158 224.485 123.899 226.73C125.011 227.642 127.059 228.117 126.107 230.109C125.277 231.848 123.396 231.702 121.729 231.58C120.458 231.505 119.233 231.078 118.188 230.346C117.229 229.657 116.665 227.711 115.272 228.477C113.878 229.243 114.639 231.028 114.51 232.369C114.266 234.667 115.332 235.946 117.594 236.368C120.48 236.904 123.328 237.425 126.138 236.023C132.831 232.675 138.192 227.45 144.093 222.999C145.967 221.597 146.378 218.548 148.464 217.315C153.795 214.181 157.655 209.561 161.478 204.827C162.811 203.172 163.504 202.199 161.79 200.445C160.32 198.833 159.383 196.801 159.11 194.63C158.942 193.557 159.757 192.01 158.463 191.512C157.168 191.014 156.407 192.669 155.417 193.366C151.51 196.139 147.558 198.936 142.57 196.017C133.912 190.953 125.247 185.896 117.442 179.499C115.142 177.584 112.652 175.761 111.061 172.765Z" stroke="#0087CB" stroke-miterlimit="10"/>
<path d="M165.385 206.819C165.773 208.458 164.471 211.622 167.387 211.553C170.304 211.484 169.527 208.489 169.306 206.405C169.086 204.321 169.154 202.138 170.768 200.667C174.88 196.92 174.317 191.703 174.34 187.183C174.385 178.756 171.202 170.474 173.479 161.902C173.583 161.135 173.461 160.355 173.129 159.657C170.601 153.015 172.261 147.728 178.01 143.568C179.076 142.802 180.607 141.523 179.419 140.129C177.721 138.144 176.83 135.762 175.429 133.678C174.134 131.732 172.017 130.529 169.489 131.51C168.865 131.796 168.19 131.953 167.505 131.972C166.819 131.99 166.137 131.87 165.499 131.617C162.453 130.46 160.397 132 158.851 134.475C158.09 135.762 157.633 137.386 156.567 138.428C154.115 140.91 154.96 142.596 157.443 144.212C160.892 146.472 163.367 150.08 162.674 153.788C161.623 159.373 162.377 164.805 162.027 170.229C161.684 175.477 160.747 180.855 160.557 186.134C160.374 191.006 159.62 196.392 163.816 200.468C165.545 202.184 165.575 204.428 165.385 206.819Z" stroke="#0087CB" stroke-miterlimit="10"/>
<path d="M152.767 173.592C154.412 173.592 156.064 173.661 157.709 173.592C160.869 173.424 160.686 170.987 160.694 168.827C160.694 166.215 159.034 166.582 157.26 166.881C153.346 167.471 149.346 166.954 145.708 165.387C142.043 163.942 138.153 163.164 134.217 163.089C129.915 162.974 125.08 163.372 121.592 161.082C117.282 158.239 116.467 159.549 114.807 163.526C112.896 168.122 112.629 169.172 116.102 172.964C121.843 179.231 129.588 182.341 136.662 186.517C140.317 188.669 144.36 189.152 148.343 189.412C151.405 189.627 154.466 188.963 157.168 187.497C157.996 187.11 158.641 186.413 158.967 185.555C159.292 184.696 159.273 183.744 158.912 182.9C158.204 181.077 156.696 182.517 155.653 182.832C149.165 184.77 143.119 183.598 137.377 180.349C131.857 177.224 126.427 173.922 120.534 171.508C118.728 170.881 117.097 169.831 115.774 168.444C115.298 167.919 115.017 167.244 114.981 166.534C114.945 165.824 115.155 165.123 115.576 164.552C116.254 163.503 117.099 163.61 118.234 163.985C126.024 166.644 133.89 169.11 141.634 171.899C145.266 173.209 148.914 174.044 152.767 173.592Z" stroke="#0087CB" stroke-miterlimit="10"/>
<path d="M167.084 94.3683C169.11 94.2764 171.524 94.2534 173.938 94.0389C178.011 93.6788 185.063 88.4769 185.847 84.9911C186.989 79.9807 186.837 74.6486 190.104 70.1898C190.812 69.2245 191.627 66.9645 189.342 66.5048C187.697 66.1754 185.771 66.5048 185.535 69.0943C185.215 72.2966 183.959 75.2232 182.778 78.2033C181.758 80.7622 180.075 81.8194 177.311 82.0339C171.775 82.5242 166.231 82.4093 160.711 82.348C152.845 82.2561 151.794 81.2525 149.365 73.4688C148.942 72.0014 148.606 70.5099 148.36 69.0023C147.895 66.4206 145.77 65.9839 144.042 66.5201C142.153 67.1024 143.28 69.2092 143.867 70.0979C145.977 73.2673 147.169 76.9652 147.309 80.7775C147.423 85.1367 149.7 87.8104 152.822 90.6297C157.018 94.4756 161.845 94.0695 167.084 94.3683Z" stroke="#0087CB" stroke-miterlimit="10"/>
<path d="M212.398 692.182C213.241 689.742 212.739 688.062 212.176 686.35C211.261 683.572 209.92 680.777 210.194 677.836C211.174 667.552 211.303 657.21 212.154 646.933C213.492 630.683 215.279 614.466 216.968 598.248C218.654 582.413 219.039 566.441 223.875 551.082C224.101 550.078 224.186 549.047 224.127 548.019C224.175 547.698 224.112 547.37 223.948 547.091C223.785 546.811 223.531 546.596 223.229 546.482C222.468 546.271 222.175 546.998 221.769 547.471C219.471 550.179 217.25 552.734 218.287 556.915C218.832 559.147 218.126 561.71 217.901 564.122C217.094 573.135 214.605 581.917 214.095 590.97C213.728 597.457 214.03 604.04 213.053 610.424C210.833 624.816 208.918 639.187 209.469 653.792C209.585 655.836 209.523 657.886 209.286 659.92C207.838 670.707 208.928 681.254 212.398 692.182Z" stroke="#0087CB" stroke-miterlimit="10"/>
<path d="M123.841 682.267C125.707 681.501 125.6 680.735 125.592 679.969C125.425 668.018 125.247 656.069 125.059 644.123C125.006 640.683 124.816 637.228 124.587 633.818C123.826 622.503 121.1 611.448 120.94 600.025C120.848 593.222 120.627 586.342 119.226 579.509C117.703 571.94 116.081 564.186 116.713 556.395C117.018 552.565 115.35 550.121 113.074 547.654C112.647 547.202 112.312 546.535 111.551 546.888C110.789 547.24 110.926 547.922 110.873 548.542C110.846 549.942 111.054 551.335 111.49 552.664C112.655 557.36 114.01 562.049 114.65 566.822C116.173 578.183 116.752 589.66 118 601.036C120.254 621.558 121.942 642.115 123.064 662.708C123.407 669.09 123.871 675.51 123.841 682.267Z" stroke="#0087CB" stroke-miterlimit="10"/>
<path d="M53.2804 350.298C59.0057 341.209 63.6431 331.471 67.0958 321.286C70.3418 311.69 74.7989 302.554 80.3577 294.1C83.1194 289.793 85.8956 285.493 89.0641 281.456C91.073 278.88 90.7126 275.062 88.667 274.647C86.0662 274.13 80.8782 276.886 80.2914 279.694C78.6675 287.156 74.3473 293.381 71.369 300.208C69.8964 303.573 67.6102 306.58 66.6073 310.147C63.5304 321.068 59.2355 331.517 54.7497 341.892C53.5198 344.511 53.0123 347.414 53.2804 350.298Z" stroke="#0087CB" stroke-miterlimit="10"/>
<path d="M280.099 348.288C281.097 346.453 280.686 345.126 280.565 343.822C280.287 339.837 277.958 336.411 277.309 332.544C274.16 313.739 266.087 296.288 261.665 277.852C260.82 274.335 257.183 274.808 254.752 273.584C254.586 273.493 254.4 273.44 254.209 273.431C254.019 273.422 253.829 273.457 253.655 273.532C253.481 273.607 253.327 273.722 253.206 273.865C253.085 274.009 252.999 274.179 252.956 274.361C252.041 276.642 252.599 278.672 253.985 280.597C254.402 281.209 254.78 281.846 255.116 282.504C260.295 291.898 265.571 301.301 268.216 311.72C271.272 324.172 275.244 336.394 280.099 348.288V348.288Z" stroke="#0087CB" stroke-miterlimit="10"/>
<path d="M234.337 145.193C225.611 143.477 217.783 145.124 210.107 142.128C213.724 145.354 213.259 150.019 215.323 153.237C217.387 156.455 220.082 159.366 221.514 163.135C221.902 164.154 222.275 165.87 224.019 165.487C224.707 165.331 225.337 164.98 225.835 164.477C226.332 163.974 226.677 163.338 226.829 162.645C227.263 161.044 227.682 159.45 228.908 158.209C231.352 155.735 231.687 152.448 231.451 149.338C231.306 147.369 231.596 146.204 234.337 145.193Z" stroke="#0087CB" stroke-miterlimit="10"/>
<path d="M101.604 145.055C102.121 146.319 103.637 146.679 103.347 147.79C101.756 153.972 106.842 158.071 108.061 163.373C108.26 163.989 108.625 164.538 109.116 164.959C109.606 165.38 110.203 165.655 110.84 165.755C112.439 166.077 112.295 164.315 112.927 163.457C114.45 161.542 114.267 158.615 116.232 157.098C121.234 153.268 119.81 145.967 124.684 141.776C117.26 145.446 109.317 143.216 101.604 145.055Z" stroke="#0087CB" stroke-miterlimit="10"/>
<path d="M180.995 173.654C184.868 174.021 188.774 173.497 192.417 172.122C198.92 169.612 205.555 167.461 212.291 165.679C214.172 165.277 215.936 164.446 217.447 163.25C218.871 162.063 218.97 160.546 217.865 159.213C216.502 157.596 216.045 159.627 215.284 160.155C213 161.756 210.403 162.086 207.761 162.454C202.019 163.327 196.041 162.591 190.521 164.829C185.952 166.683 181.337 167.732 176.441 166.69C174.461 166.269 173.959 167.257 173.92 168.95C173.852 171.946 174.781 173.938 178.261 173.662C179.171 173.609 180.084 173.607 180.995 173.654Z" stroke="#0087CB" stroke-miterlimit="10"/>
<path d="M220.112 164.782C220.455 167.847 218.589 169.333 216.305 170.382C209.375 173.57 202.743 177.323 196.057 180.97C193.403 182.502 190.452 183.442 187.405 183.725C184.358 184.007 181.286 183.627 178.398 182.61C177.522 182.319 176.434 181.384 175.68 182.61C175.116 183.498 175.482 184.586 175.885 185.559C176.098 186.099 176.426 186.586 176.848 186.983C177.269 187.38 177.772 187.679 178.322 187.857C181.524 189.066 184.945 189.575 188.358 189.351C193.864 188.83 198.524 186.356 203.169 183.751C209.04 180.457 215.033 177.377 219.594 172.168C221.62 169.854 222.206 167.602 220.112 164.782Z" stroke="#0087CB" stroke-miterlimit="10"/>
<path d="M276.96 311.603C273.946 301.863 270.931 292.124 267.917 282.384C267.111 279.78 266.578 277.149 267.223 274.424C267.474 273.387 268.222 272.235 266.852 271.453C265.482 270.671 264.464 271.457 263.52 272.329C262.576 273.2 261.826 274.269 263.001 275.486C264.567 277.103 264.456 279.046 264.329 281.017C264.184 283.232 264.177 285.383 265.341 287.45C275.961 306.298 280.499 326.78 282.397 347.972C282.546 349.592 282.811 351.154 284.017 352.37C284.609 352.965 285.262 353.735 286.242 353.484C287.358 353.193 287.611 352.163 287.827 351.191C288.103 349.908 287.569 348.787 286.993 347.686C285.861 345.49 285.089 343.134 284.707 340.704C283.168 330.768 280.572 321.014 276.96 311.603Z" stroke="#0087CB" stroke-miterlimit="10"/>
<path d="M239.69 142.611C235.464 142.428 232.456 140.604 229.029 140.053C219.937 138.574 210.754 137.494 201.966 134.368C194.935 131.776 187.452 130.655 179.975 131.074C178.612 131.166 177.028 130.913 177.241 133.173C177.561 136.574 180.066 138.643 183.462 138.114C187.338 137.517 191.146 137.072 195.136 137.593C205.934 139.018 216.457 142.29 227.43 142.558C231.291 142.665 235.136 143.845 239.69 142.611Z" stroke="#0087CB" stroke-miterlimit="10"/>
<path d="M95.4731 143.025C103.393 142.366 111.266 142.695 119.254 141.209C129.831 139.248 140.461 135.663 151.533 138.198C152.149 138.36 152.791 138.396 153.422 138.306C156.399 137.785 157.229 135.287 157.328 132.943C157.473 130.323 155.044 131.158 153.574 131.112C147.969 130.92 142.312 131.311 137.057 133.226C123.564 138.114 109.088 138.566 95.4731 143.025Z" stroke="#0087CB" stroke-miterlimit="10"/>
<path d="M167.57 311.439V311.508C169.214 311.592 170.861 311.592 172.505 311.508C174.949 311.255 177.492 310.228 176.936 307.417C176.137 303.425 178.947 303.065 181.216 301.878C182.655 301.112 185.83 302.33 185.389 300.032C185.016 298.093 182.099 299.227 180.279 299.495C179.277 299.596 178.295 299.841 177.363 300.223C174.23 301.756 170.791 302.553 167.307 302.553C163.824 302.553 160.385 301.756 157.252 300.223C155.272 299.296 153.087 299.181 150.955 299.089C150.193 299.089 148.944 299.089 148.929 300.292C148.929 301.158 149.843 301.395 150.62 301.502C151.389 301.534 152.154 301.639 152.904 301.817C155.638 302.774 158.562 303.402 157.983 307.601C157.648 310.06 159.773 311.155 161.905 311.431C163.791 311.551 165.683 311.554 167.57 311.439Z" stroke="#0087CB" stroke-miterlimit="10"/>
<path d="M167.387 294.837V294.791C169.672 294.791 171.956 294.845 174.241 294.791C175.246 294.753 176.525 294.592 176.045 293.075C175.284 290.662 176.533 290.57 178.33 290.57C179.466 290.49 180.581 290.218 181.627 289.766C182.312 289.521 183.15 289.038 182.853 288.119C182.556 287.199 181.589 287.46 180.888 287.59C179.259 287.896 177.69 288.287 176.137 287.199C171.697 284.135 163.017 284.173 158.394 287.322C157.403 287.901 156.239 288.105 155.112 287.896C153.955 287.804 152.066 286.625 151.785 288.126C151.427 290.018 153.704 290.026 155.074 290.425C155.943 290.56 156.823 290.613 157.701 290.585C158.577 290.654 159.285 291.129 158.958 292.049C157.732 295.55 160.344 294.768 162.049 294.86C163.755 294.952 165.613 294.837 167.387 294.837Z" stroke="#0087CB" stroke-miterlimit="10"/>
<path d="M182.168 175.431C180.691 175.431 179.297 175.431 177.912 175.431C176.678 175.431 175.627 175.761 175.452 177.232C175.327 177.798 175.394 178.39 175.643 178.913C175.891 179.437 176.306 179.862 176.823 180.12C177.723 180.576 178.657 180.96 179.617 181.269C189.296 184.334 196.69 178.971 204.289 174.451C205.211 173.899 205.211 172.987 204.731 172.099C204.251 171.21 203.771 170.153 202.522 170.39C201.29 170.663 200.079 171.024 198.898 171.471C193.415 173.34 188.161 176.159 182.168 175.431Z" stroke="#0087CB" stroke-miterlimit="10"/>
<path d="M150.018 182.112C152.53 182.152 155.014 181.582 157.26 180.449C157.983 180.176 158.582 179.645 158.942 178.958C159.303 178.27 159.401 177.474 159.217 176.718C158.89 174.849 157.237 175.324 156.171 175.447C149.539 176.213 143.356 174.619 137.325 172.038C135.797 171.423 134.23 170.911 132.634 170.505C131.202 170.107 130.608 171.195 129.999 172.183C129.39 173.171 129.459 173.876 130.456 174.481C136.426 177.929 142.099 182.242 150.018 182.112Z" stroke="#0087CB" stroke-miterlimit="10"/>
<path d="M182.038 275.371C181.734 273.762 180.668 273.708 179.457 273.999C177.028 274.566 175.17 274.375 175.01 271.18C174.941 269.87 173.86 269.203 172.649 269.081C169.004 268.678 165.324 268.702 161.684 269.15C161.014 269.242 159.872 269.916 159.879 270.284C159.971 274.88 157.009 274.398 154.008 274.053C153.846 274.039 153.683 274.065 153.532 274.127C153.382 274.19 153.248 274.288 153.143 274.413C153.038 274.539 152.964 274.688 152.928 274.847C152.892 275.007 152.894 275.173 152.935 275.332C162.621 279.178 172.299 279.063 182.038 275.371Z" stroke="#0087CB" stroke-miterlimit="10"/>
<path d="M152.432 260.608C156.24 260.477 158.608 263.626 161.707 263.059C167.57 261.971 173.83 264.591 179.396 261.06C180.158 260.592 181.909 261.504 181.719 260.025C181.528 258.547 179.929 259.075 178.855 259.259C177.058 259.581 175.368 259.55 175.216 257.244C175.063 254.938 173.563 254.44 171.698 254.08C168.586 253.495 165.391 253.532 162.293 254.188C160.656 254.517 159.422 254.992 159.491 257.038C159.56 259.083 158.227 259.596 156.445 259.336C155.364 259.167 154.244 258.639 152.432 260.608Z" stroke="#0087CB" stroke-miterlimit="10"/>
<path d="M204.997 141.638C205.698 143.377 206.52 145.078 207.076 146.871C208.02 150.088 206.543 152.946 203.269 153C194.565 153.191 185.755 154.103 177.173 151.873C176.145 151.605 175.048 150.525 174.051 151.751C173.684 152.198 173.444 152.737 173.356 153.31C173.269 153.883 173.338 154.47 173.556 155.007C174.188 156.708 175.612 156.171 176.807 156.171C186.569 156.171 196.286 154.723 206.071 155.099C207.212 155.08 208.339 154.84 209.391 154.394C212.399 153.291 213.465 150.824 211.896 148.012C210.328 145.201 208.393 142.818 204.997 141.638Z" stroke="#0087CB" stroke-miterlimit="10"/>
<path d="M126.415 634.354C126.301 611.371 122.607 562.462 117.962 556.809C122.577 582.243 122.158 608.192 126.415 634.354Z" stroke="#0087CB" stroke-miterlimit="10"/>
<path d="M216.614 556.531C210.305 581.536 209.049 607.056 208.258 632.618C212.535 607.411 212.299 581.722 216.614 556.531Z" stroke="#0087CB" stroke-miterlimit="10"/>
<path d="M129.832 141.033C127.029 142.427 125.75 144.189 124.326 145.79C122.742 147.583 121.372 149.567 122.377 151.996C123.382 154.424 125.834 155.106 128.096 155.06C138.391 154.869 148.655 156.064 158.882 156.34C159.811 156.34 160.732 156.409 161.106 155.359C161.326 154.824 161.427 154.247 161.402 153.669C161.377 153.09 161.227 152.525 160.961 152.011C160.291 150.847 159.24 151.322 158.25 151.62C149.554 154.24 140.622 153.084 131.796 153.068C128.042 153.068 126.55 150.264 127.684 146.602C128.202 144.955 128.933 143.331 129.832 141.033Z" stroke="#0087CB" stroke-miterlimit="10"/>
<path d="M143.485 157.052C141.117 157.052 139.723 156.952 138.345 157.052C136.647 157.205 136.06 158.63 135.87 160.009C135.588 161.84 137.279 161.541 138.223 161.664C141.657 162.047 144.833 163.258 148.023 164.422C151.029 165.436 154.241 165.666 157.359 165.089C160.618 164.583 159.453 161.787 159.697 159.887C159.971 157.818 158.227 157.849 156.834 157.895C152.029 158.071 147.277 157.382 143.485 157.052Z" stroke="#0087CB" stroke-miterlimit="10"/>
<path d="M191.595 157.006C187.252 157.588 182.878 157.9 178.497 157.941C177.096 157.941 174.69 157.114 175.025 159.941C175.284 162.124 174.72 165.066 178.406 165.303C181.689 165.61 185 165.17 188.092 164.016C190.688 162.986 193.379 162.216 196.125 161.718C197.184 161.519 199.072 161.963 198.851 159.956C198.684 158.37 197.793 157.06 195.92 156.999C194.77 156.976 193.628 157.006 191.595 157.006Z" stroke="#0087CB" stroke-miterlimit="10"/>
<path d="M192.265 695.013C198.281 692.263 198.357 692.194 203.093 696.967C204.563 698.445 206.177 698.139 207.662 697.786C209.391 697.373 209.185 695.71 208.896 694.278C208.553 692.408 208.134 690.539 207.906 688.647C207.677 686.754 206.733 685.827 204.86 685.368C197.329 683.567 193.156 686.593 192.265 695.013Z" stroke="#0087CB" stroke-miterlimit="10"/>
<path d="M141.835 695.218C141.409 693.357 141.188 691.985 140.784 690.675C139.551 686.722 135.949 684.485 131.647 684.922C126.659 685.42 126.156 685.971 125.403 691.709C125.288 692.59 125.098 693.464 124.968 694.345C124.786 695.601 124.359 697.225 125.821 697.708C127.398 698.221 129.179 698.604 130.718 697.003C135.188 692.307 135.233 692.345 141.835 695.218Z" stroke="#0087CB" stroke-miterlimit="10"/>
<path d="M178.292 247.89C175.543 246.611 174.294 244.948 174.134 241.892C173.959 238.59 170.639 239.509 168.667 239.279C165.887 238.95 162.872 238.758 160.572 241.11C160.539 241.166 160.516 241.228 160.507 241.292C160.498 241.357 160.502 241.423 160.519 241.485C161.28 244.473 159.704 246.243 157.107 248.051C164.235 247.369 171.157 247.959 178.292 247.89Z" stroke="#0087CB" stroke-miterlimit="10"/>
<path d="M167.281 225.864C161.189 225.864 160.298 226.684 159.666 232.108C159.438 234.039 159.948 234.636 161.874 234.407C165.631 233.867 169.447 233.911 173.19 234.537C175.192 234.928 175.223 233.985 175.063 232.445C174.484 226.776 173.433 225.849 167.281 225.864Z" stroke="#0087CB" stroke-miterlimit="10"/>
<path d="M146.629 151.475C150.025 151.291 153.482 151.835 156.757 150.502C157.754 150.096 159.186 149.889 159.041 148.38C158.932 147.809 158.668 147.28 158.279 146.852C157.889 146.423 157.388 146.111 156.833 145.952C154.412 145.16 151.819 145.067 149.348 145.683C146.21 146.312 143.164 146.97 140.035 145.783C138.679 145.27 138.253 145.944 138.169 147.239C137.994 149.851 138.352 151.835 141.725 151.506C143.317 151.345 144.969 151.475 146.629 151.475Z" stroke="#0087CB" stroke-miterlimit="10"/>
<path d="M187.422 151.46C189.577 151.46 191.724 151.46 193.872 151.46C196.864 151.46 196.385 149.162 196.385 147.346C196.385 144.741 194.755 145.867 193.499 146.12C191.258 146.578 188.944 146.52 186.729 145.952C184.145 145.293 181.453 145.186 178.825 145.638C178.12 145.709 177.456 146.003 176.928 146.478C176.4 146.953 176.035 147.584 175.886 148.281C175.627 149.935 177.302 150.15 178.414 150.579C181.33 151.812 184.407 151.299 187.422 151.46Z" stroke="#0087CB" stroke-miterlimit="10"/>
<path d="M153.802 347.117C153.726 340.988 150.368 336.284 145.327 335.096C144.147 334.82 142.845 334.062 141.84 335.395C140.834 336.728 141.208 338.345 142.106 339.639C144.407 343.137 147.251 346.24 150.528 348.833C151.289 349.407 152.15 350.426 153.186 349.806C154.221 349.185 153.711 347.952 153.802 347.117Z" stroke="#0087CB" stroke-miterlimit="10"/>
<path d="M180.789 347.117C180.934 347.998 180.355 349.262 181.398 349.844C182.442 350.427 183.279 349.377 184.056 348.818C187.513 346.351 190.095 343.034 192.569 339.624C193.037 339.09 193.317 338.416 193.366 337.706C193.416 336.996 193.232 336.289 192.843 335.694C191.975 334.407 190.62 334.79 189.371 335.028C184.65 335.962 180.934 341.157 180.789 347.117Z" stroke="#0087CB" stroke-miterlimit="10"/>
<path d="M211.462 181.338C201.395 186.701 191.77 193.481 179.236 190.447C182.198 193.511 185.488 197.089 189.577 195.22C197.47 191.624 204.834 186.953 211.462 181.338V181.338Z" stroke="#0087CB" stroke-miterlimit="10"/>
<path d="M156.049 189.788C142.229 193.619 132.573 186.035 122.225 180.664C128.103 185.759 134.949 189.29 141.383 193.458C146.105 196.523 149.92 196.569 156.049 189.788Z" stroke="#0087CB" stroke-miterlimit="10"/>
<path d="M166.84 213.699C166.078 213.699 164.601 213.247 163.078 213.699C160.032 214.611 160.649 217.422 160.55 219.399C160.443 221.697 162.598 220.341 163.74 220.402C166.626 220.548 169.535 220.349 172.398 220.64C174.279 220.831 174.5 220.265 174.31 218.61C173.754 213.875 173.282 213.5 166.84 213.699Z" stroke="#0087CB" stroke-miterlimit="10"/>
<path d="M168.491 115.437C170.86 114.671 173.106 111.66 176.609 111.162C177.286 111.063 177.081 110.005 176.54 109.63C175.192 108.619 173.395 107.485 172.04 108.588C168.849 111.185 166.161 111.239 162.902 108.649C161.257 107.347 158.775 108.32 158.006 110.067C157.046 112.242 159.582 111.599 160.61 112.051C161.931 112.502 163.139 113.237 164.151 114.204C165.088 115.177 166.199 115.613 168.491 115.437Z" stroke="#0087CB" stroke-miterlimit="10"/>
<path d="M194.923 130.077C192.486 126.898 190.354 123.948 188.07 121.129C184.635 116.9 180.858 113.292 174.698 114.311C173.708 114.472 172.459 114.112 172.147 115.314C171.802 116.395 171.845 117.564 172.269 118.616C172.848 119.635 174.127 118.823 175.064 118.616C180.394 117.322 184.879 118.425 188.13 123.098C189.317 124.744 190.367 126.487 191.268 128.308C191.923 129.725 192.646 130.591 194.923 130.077Z" stroke="#0087CB" stroke-miterlimit="10"/>
<path d="M202.211 709.961C201.282 708.1 200.582 706.767 199.927 705.411C199.166 703.81 199.927 702.162 199.843 700.554C199.744 698.301 198.138 697.489 196.12 697.995C194.102 698.5 191.619 699.037 192.419 701.764C193.218 704.491 196.34 706.361 196.805 709.632C196.866 709.954 199.996 709.839 202.211 709.961Z" stroke="#0087CB" stroke-miterlimit="10"/>
<path d="M167.524 296.554C165.133 296.554 162.742 296.554 160.359 296.554C159.506 296.554 158.432 296.477 158.31 297.695C158.29 298.151 158.433 298.599 158.712 298.959C158.991 299.318 159.389 299.566 159.833 299.656C164.773 301.279 170.104 301.236 175.017 299.534C175.235 299.48 175.44 299.384 175.62 299.249C175.799 299.115 175.951 298.945 176.064 298.751C176.178 298.557 176.251 298.341 176.281 298.118C176.31 297.895 176.295 297.667 176.236 297.45C175.977 296.577 175.093 296.554 174.34 296.554C172.055 296.554 169.786 296.554 167.524 296.554Z" stroke="#0087CB" stroke-miterlimit="10"/>
<path d="M139.686 130.177C142.533 130.805 142.937 129.173 143.622 127.879C148.191 119.068 150.742 117.712 160.466 118.877C161.768 119.038 162.796 119.153 162.751 117.391C162.697 116.012 162.964 114.288 160.855 114.372C157.725 114.495 154.763 113.813 151.717 116.333C146.904 120.264 143.653 125.167 139.686 130.177Z" stroke="#0087CB" stroke-miterlimit="10"/>
<path d="M310.305 380.41C308.615 377.499 307.495 375.182 306.013 373.137C304.746 371.382 304.064 367.272 301.596 368.829C299.414 370.206 301.389 373.711 302.755 376.003C303.09 376.58 303.733 376.975 304.086 377.542C307.276 382.713 310.84 387.712 312.449 393.705C312.842 395.177 311.886 397.606 314.774 397.1C317.217 396.641 316.398 394.456 316.247 392.891C315.767 387.722 311.928 384.145 310.305 380.41Z" stroke="#0087CB" stroke-miterlimit="10"/>
<path d="M131.715 710C134 709.287 136.391 710.827 137.327 708.843C138.313 706.659 139.595 704.622 141.135 702.791C141.988 701.818 142.186 700.707 141.272 699.726C140.689 699.041 139.944 698.515 139.105 698.196C138.267 697.877 137.362 697.777 136.475 697.903C135.073 698.079 133.893 699.167 134.251 700.5C135.195 703.94 133.71 706.675 131.715 710Z" stroke="#0087CB" stroke-miterlimit="10"/>
<path d="M136.943 147.162C136.943 144.212 134.994 140.581 133.585 140.504C132.024 140.428 128.91 145.767 129.016 148.334C129.169 151.123 131.179 151.398 133.326 151.513C136.684 151.659 136.837 149.292 136.943 147.162Z" stroke="#0087CB" stroke-miterlimit="10"/>
<path d="M198.06 147.239C198.417 148.488 197.542 150.579 199.636 151.284C201.319 151.851 203.283 151.935 204.707 150.656C206.306 149.223 205.621 147.377 204.959 145.684C204.739 145.084 204.463 144.507 204.136 143.96C203.306 142.619 202.91 140.29 200.923 140.781C199.187 141.202 198.478 143.209 198.219 145.055C198.128 145.684 198.12 146.327 198.06 147.239Z" stroke="#0087CB" stroke-miterlimit="10"/>
<path d="M289.552 395.934C291.72 394.899 291.067 393.081 290.401 391.282C289.027 387.222 287.81 383.129 288.522 378.771C288.829 376.853 289.385 374.694 286.602 374.484C283.626 374.269 283.563 376.829 283.644 378.804C283.849 383.742 284.628 388.652 284.622 393.594C284.678 398.012 287.148 396.478 289.552 395.934Z" stroke="#0087CB" stroke-miterlimit="10"/>
<path d="M173.86 106.512C174.819 106.681 175.695 106.926 175.984 105.93C176.274 104.934 175.649 104.206 175.01 103.585C174.157 102.773 172.908 101.923 171.964 102.819C168.804 105.792 165.918 105.983 162.727 102.819C161.836 101.946 160.541 102.712 159.681 103.585C159.072 104.214 158.31 105.026 158.607 105.884C159.087 107.332 160.336 106.65 161.196 106.336C164.151 105.378 164.813 109.285 167.456 109.147C170.098 109.009 170.837 104.719 173.86 106.512Z" stroke="#0087CB" stroke-miterlimit="10"/>
<path d="M190.97 138.658C189.112 139.179 186.493 138.222 185.914 140.819C185.767 141.651 185.931 142.509 186.375 143.226C186.82 143.943 187.513 144.47 188.32 144.703C190.681 145.569 192.813 144.764 194.869 143.806C196.209 143.178 197.991 142.274 197.793 140.681C197.595 139.087 195.509 139.616 194.275 139.225C193.188 138.957 192.084 138.767 190.97 138.658V138.658Z" stroke="#0087CB" stroke-miterlimit="10"/>
<path d="M143.538 138.688C141.429 139.416 137.744 138.152 137.233 140.987C136.83 143.285 140.196 143.921 142.328 144.664C144.46 145.407 146.379 145.2 147.917 143.569C148.678 142.802 149.356 141.431 148.785 140.428C147.689 138.535 145.511 138.995 143.538 138.688Z" stroke="#0087CB" stroke-miterlimit="10"/>
<path d="M167.41 283.246C169.565 283.246 171.712 283.246 173.867 283.246C174.256 283.298 174.649 283.197 174.965 282.964C175.281 282.731 175.496 282.385 175.565 281.997C175.614 281.775 175.615 281.544 175.568 281.321C175.522 281.098 175.429 280.887 175.296 280.703C175.163 280.518 174.993 280.364 174.797 280.251C174.6 280.137 174.382 280.067 174.157 280.044C169.673 279.194 165.068 279.223 160.595 280.128C160.209 280.179 159.854 280.364 159.59 280.651C159.326 280.938 159.169 281.308 159.148 281.698C159.148 282.848 160.069 283.192 160.968 283.231C163.108 283.284 165.255 283.238 167.41 283.246Z" stroke="#0087CB" stroke-miterlimit="10"/>
<path d="M130.524 161.335C132.61 161.55 134.27 160.737 134.331 158.615C134.385 156.24 132.192 157.014 130.859 156.945C128.598 156.829 126.357 156.466 124.173 155.865C123.845 155.738 123.493 155.683 123.142 155.706C122.79 155.729 122.448 155.829 122.139 155.998C121.83 156.167 121.561 156.401 121.351 156.685C121.14 156.969 120.994 157.296 120.922 157.642C120.412 159.351 121.904 159.864 123.1 160.117C125.536 160.638 128.042 160.952 130.524 161.335Z" stroke="#0087CB" stroke-miterlimit="10"/>
<path d="M204.045 161.335C206.52 160.944 209.018 160.661 211.462 160.117C212.559 159.872 214.409 159.734 213.998 158.01C213.587 156.286 212.231 155.313 210.229 155.911C208.051 156.531 205.805 156.879 203.543 156.945C202.347 156.999 200.322 156.248 200.383 158.432C200.436 160.462 201.875 161.55 204.045 161.335Z" stroke="#0087CB" stroke-miterlimit="10"/>
<path d="M295.353 371.545C293.003 373.02 294.593 374.312 295.664 375.587C300.299 381.004 305.63 386.073 304.201 394.374C303.996 395.589 304.918 396.261 306.118 396.127C307.318 395.994 309.002 396.552 309.853 395.123C310.704 393.695 309.989 392.116 309.01 390.858C304.651 385.386 300.387 379.893 299.072 372.716C298.64 370.28 296.906 371.144 295.353 371.545Z" stroke="#0087CB" stroke-miterlimit="10"/>
<path d="M167.288 98.8972V98.9661C165.004 98.9661 162.719 98.9661 160.481 98.9661C160.291 98.9526 160.101 98.9774 159.921 99.0391C159.741 99.1007 159.575 99.1979 159.433 99.325C159.291 99.4521 159.176 99.6064 159.095 99.779C159.013 99.9516 158.966 100.139 158.958 100.33C158.944 100.457 158.962 100.585 159.01 100.703C159.058 100.821 159.135 100.926 159.233 101.006C159.332 101.087 159.449 101.142 159.573 101.165C159.698 101.189 159.827 101.181 159.947 101.142C162.369 100.069 163.854 101.441 165.621 102.812C166.247 103.281 167.028 103.49 167.803 103.396C168.579 103.302 169.288 102.912 169.786 102.306C171.027 100.843 172.314 100.36 174.096 101.073C174.994 101.433 176.038 101.433 176.076 100.192C176.076 99.0734 175.025 98.8895 174.111 98.8818C171.827 98.8972 169.557 98.8972 167.288 98.8972Z" stroke="#0087CB" stroke-miterlimit="10"/>
<path d="M188.183 55.229C188.123 60.8599 184.696 63.3114 179.404 61.5034C177.881 60.9671 176.274 60.4615 174.736 59.8639C171.69 58.6535 169.977 55.3362 170.723 51.7508C171.431 48.3493 173.434 46.4493 177.074 46.388C183.424 46.2578 188.244 50.0347 188.183 55.229ZM186.493 55.4894C186.577 51.3448 184.429 49.215 178.878 48.0045C175.832 47.3457 173.418 48.3876 172.558 51.3678C171.743 54.2024 172.139 57.0293 175.406 58.393C176.929 59.0289 178.497 59.5192 180.043 60.0784C184.011 61.5111 186.402 59.8256 186.493 55.5124V55.4894Z" stroke="#0087CB" stroke-miterlimit="10"/>
<path d="M146.79 54.8381C146.995 48.7935 155.927 44.0436 161.06 47.2766C163.641 48.9007 164.243 51.4366 163.961 54.2788C163.702 56.8453 162.758 58.9598 160.062 59.8408C158.623 60.3158 157.207 60.8827 155.775 61.373C150.003 63.5564 146.576 61.0513 146.79 54.8381ZM162.248 53.3059C162.339 50.3717 161.174 48.1499 158.143 47.8665C156.563 47.6862 154.963 47.8853 153.474 48.4472C151.985 49.0092 150.649 49.9181 149.577 51.0995C147.627 53.3059 147.582 56.2477 149.272 58.9061C150.963 61.5645 153.079 60.7908 155.265 59.8178C156.415 59.3122 157.648 58.9904 158.836 58.5614C161.296 57.7033 162.461 55.9949 162.248 53.3288V53.3059Z" stroke="#0087CB" stroke-miterlimit="10"/>
<path d="M167.304 70.252C161.54 70.252 160.07 68.2524 162.309 62.9433C163.504 60.0934 164.593 55.6882 167.312 55.5044C170.03 55.3205 170.662 59.9401 172.208 62.4453C172.697 63.3342 173.032 64.3006 173.198 65.3029C174.043 69.2024 172.741 70.252 167.304 70.252ZM167.304 57.5192C166.344 58.9212 165.438 60.1087 164.677 61.3498C163.474 63.334 162.522 65.5098 163.375 67.8081C164.349 70.4359 166.489 67.9383 167.944 68.5742C168.19 68.6662 168.445 68.733 168.705 68.7734C171.477 69.371 172.155 67.9 171.621 65.5787C170.997 62.6368 169.375 60.0934 167.327 57.5269L167.304 57.5192Z" stroke="#0087CB" stroke-miterlimit="10"/>
<path d="M157.854 364.96C157.883 366.888 157.218 368.763 155.983 370.238C154.747 371.713 153.024 372.69 151.13 372.988C147.848 373.463 145.038 371.165 144.124 366.913C143.403 364.208 143.11 361.405 143.256 358.609C143.393 357.122 143.789 355.92 145.495 355.506C150.848 354.203 157.869 359.543 157.854 364.96ZM144.741 361.075C145.084 363.067 145.32 365.082 145.785 367.051C146.386 369.61 147.726 371.548 150.719 371.257C151.998 371.198 153.218 370.697 154.174 369.839C155.129 368.981 155.762 367.818 155.965 366.545C156.917 362.286 154.892 359.421 149.782 357.62C146.066 356.31 144.947 357.076 144.741 361.075Z" stroke="#0087CB" stroke-miterlimit="10"/>
<path d="M191.512 361.443C191.215 363.205 190.994 365.358 190.453 367.434C189.425 371.357 187.019 373.295 183.867 373.027C180.402 372.728 177.013 369.196 176.777 365.665C176.396 359.98 183.867 353.928 189.273 355.583C192.235 356.487 191.032 359.084 191.512 361.443ZM189.753 361.681C189.052 360.149 190.834 356.939 187.042 357.207C185.639 357.277 184.265 357.639 183.008 358.271C181.751 358.902 180.638 359.79 179.739 360.876C178.911 361.864 178.419 363.092 178.336 364.381C178.252 365.67 178.581 366.952 179.275 368.04C180.463 370.162 182.321 371.525 184.879 371.242C187.88 370.92 188.565 368.43 189.189 366.078C189.474 364.624 189.663 363.153 189.753 361.673V361.681Z" stroke="#0087CB" stroke-miterlimit="10"/>
<path d="M143.218 208.749C140.942 208.513 138.727 207.87 136.677 206.849C127.769 202.749 119.922 196.635 113.749 188.983C112.378 187.267 111.289 185.398 111.228 183.123C111.228 181.836 111.274 180.334 112.538 179.767C113.802 179.2 114.495 180.61 115.233 181.407C121.455 188.072 128.856 193.166 136.639 197.771C138.785 199.142 141.277 199.862 143.819 199.847C146.256 199.793 148.936 199.793 148.952 203.348C148.94 204.085 148.781 204.813 148.485 205.487C148.188 206.162 147.759 206.769 147.224 207.273C146.689 207.777 146.058 208.167 145.37 208.421C144.682 208.675 143.95 208.786 143.218 208.749V208.749ZM113.391 181.851C112.629 184.563 113.551 185.965 114.548 187.267C121.241 195.979 130.202 202.654 140.438 206.55C141.855 207.117 143.324 207.508 144.863 206.865C145.591 206.611 146.22 206.13 146.658 205.492C147.096 204.854 147.321 204.092 147.299 203.317C147.246 201.264 145.472 201.532 144.147 201.548C142.116 201.61 140.099 201.199 138.253 200.345C133.89 198.269 129.968 195.48 125.955 192.829C121.401 189.834 117.548 186.034 113.391 181.851Z" stroke="#0087CB" stroke-miterlimit="10"/>
<path d="M111.221 191.129C113.932 194.837 116.959 198.3 120.268 201.479C125.75 206.847 132.509 210.711 139.899 212.703C141.635 213.17 144.224 213.338 143.622 216.012C143.051 218.525 140.691 219.077 138.399 218.671C136.753 218.496 135.154 218.013 133.685 217.246C125.393 212.174 117.801 206.252 112.303 198.032C110.985 196.047 109.851 193.895 111.221 191.129ZM117.382 201.678C122.575 206.918 127.776 212.128 134.226 215.775C135.948 216.895 138.009 217.368 140.043 217.108C140.805 216.977 141.566 216.633 141.635 215.729C141.688 214.963 141.033 214.694 140.401 214.534C131.591 212.32 124.09 207.769 117.382 201.678Z" stroke="#0087CB" stroke-miterlimit="10"/>
<path d="M132.923 225.413C129.412 224.708 125.643 224.087 122.612 221.459C119.49 218.658 116.205 216.046 112.774 213.637C111.929 213.078 111.244 212.307 110.786 211.4C109.774 209.225 110.786 207.194 112.309 205.923C113.832 204.651 114.64 206.765 115.553 207.608C121.135 212.772 126.26 218.533 133.699 221.191C134.963 221.643 135.984 222.486 135.58 224.072C135.276 225.359 134.179 225.344 132.923 225.413ZM133.341 223.344C126.199 220.387 121.059 214.917 115.492 209.998C114.678 209.232 113.916 207.309 112.546 208.673C110.984 210.205 112.591 211.416 113.764 212.358C116.81 214.81 120.077 217.024 122.947 219.659C125.818 222.294 129.466 223.16 133.341 223.344Z" stroke="#0087CB" stroke-miterlimit="10"/>
<path d="M191.794 208.788C188.71 208.673 186.791 207.294 185.999 204.49C185.321 202.077 186.143 200.246 188.679 200.062C200.703 199.158 208.478 190.869 217.067 183.874C218.2 182.857 219.27 181.773 220.273 180.626C221.979 178.841 222.892 179.599 223.273 181.622C223.491 182.558 223.513 183.529 223.335 184.474C223.158 185.419 222.787 186.315 222.245 187.107C215.003 197.22 205.409 204.191 193.811 208.413C193.153 208.604 192.477 208.73 191.794 208.788V208.788ZM221.308 181.905C215.399 188.417 208.714 193.129 201.746 197.434C198.198 199.625 194.657 201.954 190.156 201.556C189.144 201.464 188.07 201.633 187.712 202.881C187.588 203.379 187.593 203.9 187.726 204.395C187.859 204.89 188.117 205.342 188.474 205.708C190.042 207.608 191.969 207.371 194.002 206.635C204.525 202.805 213.039 196.178 220.044 187.544C221.095 186.234 221.902 184.786 221.308 181.905Z" stroke="#0087CB" stroke-miterlimit="10"/>
<path d="M195.532 218.808C193.544 218.51 191.245 218.249 191.001 215.675C190.773 213.231 193.103 213.116 194.725 212.695C206.078 209.761 214.523 202.735 221.437 193.542C222.107 192.653 222.381 190.585 223.958 191.451C225.199 192.14 224.361 193.81 223.958 194.982C223.037 197.369 221.678 199.559 219.952 201.441C214.709 207.516 208.54 212.716 201.677 216.847C199.831 218.024 197.714 218.7 195.532 218.808V218.808ZM218.483 200.023C218.121 200.256 217.775 200.512 217.447 200.789C211.495 207.275 203.838 211.931 195.364 214.219C194.428 214.48 192.661 214.419 193.08 216.081C193.422 217.345 194.915 217.299 196.034 217.131C197.165 217.004 198.267 216.696 199.301 216.219C206.946 212.327 212.954 206.443 218.483 200.023Z" stroke="#0087CB" stroke-miterlimit="10"/>
<path d="M224.757 211.293C220.188 214.932 215.711 218.609 211.126 222.187C208.332 224.371 204.943 224.961 201.539 225.374C200.527 225.497 199.43 225.374 199.042 224.164C198.94 223.89 198.896 223.598 198.915 223.307C198.933 223.016 199.012 222.731 199.147 222.473C199.283 222.215 199.471 221.988 199.699 221.808C199.928 221.628 200.192 221.499 200.473 221.429C208.606 218.472 214.34 212.35 220.211 206.398C221.612 204.973 222.579 205.409 223.409 207.011C224.213 208.312 224.667 209.801 224.726 211.331L224.757 211.293ZM201.151 223.421C207.296 222.93 208.088 222.54 213.167 218.395C216.015 216.097 218.954 213.86 221.78 211.5C222.724 210.734 223.242 209.546 222.16 208.512C221.079 207.478 220.356 208.711 219.708 209.34C214.096 214.771 208.545 220.287 201.174 223.421H201.151Z" stroke="#0087CB" stroke-miterlimit="10"/>
</svg>
