<svg width="40" height="19" viewBox="0 0 40 19" fill="none" xmlns="http://www.w3.org/2000/svg">
<path d="M39.7524 7.47975L39.7525 7.4799C39.8924 8.04736 39.8762 8.53436 39.7392 8.97759C39.6017 9.42255 39.3393 9.83312 38.9724 10.2422C38.4109 10.8682 37.6246 11.471 36.7035 12.1772C36.4095 12.4025 36.1018 12.6384 35.7833 12.8889L35.783 12.8892C35.5839 13.0467 35.3927 13.2744 35.2042 13.5332C35.0325 13.7689 34.8572 14.0387 34.6765 14.3169C34.6581 14.3452 34.6397 14.3735 34.6213 14.4019C34.217 15.0236 33.7819 15.6777 33.2642 16.1559C32.75 16.6309 32.1691 16.9188 31.469 16.8358C30.7608 16.7518 29.8967 16.285 28.8299 15.1667C28.3549 14.6687 28.1441 14.1695 28.0813 13.6677C28.018 13.1612 28.1042 12.6426 28.2405 12.1044C28.2953 11.888 28.3573 11.6714 28.4203 11.4518C28.4356 11.3983 28.451 11.3445 28.4664 11.2906C28.5443 11.0168 28.6207 10.7388 28.6804 10.4594C28.7998 9.90066 28.8548 9.32643 28.7192 8.74766C28.6145 8.30093 28.4213 7.72185 28.2075 7.08116C28.1549 6.92336 28.101 6.76183 28.0468 6.59761C27.7711 5.76108 27.4862 4.84633 27.3133 3.96717C27.14 3.08547 27.0828 2.25564 27.2498 1.58376C27.4116 0.932619 27.7829 0.430126 28.4805 0.164123L28.5417 0.193032C28.6209 0.230626 28.7372 0.286118 28.8856 0.357614C29.1823 0.50061 29.607 0.707603 30.1185 0.96343C31.1417 1.47517 32.5115 2.18192 33.899 2.96246C35.2873 3.74345 36.6896 4.59627 37.7797 5.40004C38.3249 5.80207 38.7884 6.1892 39.1322 6.54651C39.4796 6.90762 39.6893 7.22277 39.7524 7.47975Z" fill="#8AEDE8" stroke="#31B0ED" stroke-width="0.3"/>
<path d="M0.254702 9.48248L0.254742 9.48233C0.322208 9.22725 0.547354 8.91238 0.922343 8.55044C1.29292 8.19277 1.79248 7.80533 2.37998 7.40308C3.55451 6.5989 5.06528 5.7458 6.5606 4.96468C8.0551 4.184 9.53048 3.47713 10.6325 2.96532C11.1834 2.70945 11.6409 2.50243 11.9605 2.3594C12.1203 2.28789 12.2456 2.23239 12.331 2.19478L12.4047 2.16241C13.1678 2.4299 13.5689 2.93652 13.7429 3.58637C13.9221 4.25598 13.8609 5.08383 13.6743 5.96504C13.4883 6.84356 13.1816 7.75785 12.8847 8.59439C12.8264 8.75848 12.7684 8.91994 12.7118 9.07768C12.4815 9.71841 12.2733 10.298 12.1604 10.7452C12.0138 11.3261 12.0733 11.9023 12.2021 12.4617C12.2665 12.7414 12.3488 13.0197 12.4328 13.2935C12.4493 13.3475 12.4659 13.4012 12.4825 13.4548C12.5502 13.6744 12.617 13.8908 12.676 14.107C12.8227 14.645 12.9151 15.162 12.8471 15.6663C12.7799 16.1654 12.554 16.6639 12.0416 17.1627C10.893 18.2808 9.9595 18.7509 9.18986 18.8356C8.42682 18.9196 7.79618 18.6276 7.24198 18.1522C6.68387 17.6736 6.21509 17.0191 5.77993 16.3977C5.76005 16.3693 5.74023 16.3409 5.72048 16.3127C5.52584 16.0345 5.33708 15.7646 5.15217 15.5289C4.94907 15.27 4.74349 15.0428 4.52997 14.886L4.52964 14.8857C4.18692 14.6354 3.85572 14.3996 3.53924 14.1743C2.54707 13.468 1.69944 12.8646 1.09428 12.2381C0.698629 11.8285 0.416552 11.4182 0.268845 10.9745C0.121903 10.5331 0.104418 10.0483 0.254702 9.48248Z" fill="#8AEDE8" stroke="#31B0ED" stroke-width="0.3"/>
</svg>
