<svg width="74" height="63" viewBox="0 0 74 63" fill="none" xmlns="http://www.w3.org/2000/svg">
<path d="M53.217 18.8008C49.6113 22.2496 45.9012 24.9302 40.9929 25.6712C35.8702 26.4449 30.9234 25.6167 25.9656 24.5815C20.821 23.4918 13.78 25.3661 12.1586 32.2856C11.2462 36.1812 9.61923 39.9134 8.13519 43.6673C6.65115 47.4213 6.06853 51.0172 7.11285 54.8801C7.20036 55.2902 7.24092 55.7088 7.23378 56.1278C7.23378 56.2313 7.11835 56.3403 6.86551 56.7925C6.31587 56.1333 5.9586 55.4032 5.36499 55.0436C4.77137 54.684 3.81499 54.3952 3.25985 54.6459C2.95929 54.8436 2.70939 55.1081 2.53 55.4183C2.35063 55.7285 2.24671 56.0759 2.22652 56.4329C2.02315 55.3433 2.22652 57.5226 2.22652 56.4329C2.99602 60.4975 1.23533 50.6776 1.99017 54.7385L2.39688 60.862L1.63506 53.2061L0.478516 62.0808C0.478516 62.0808 1.8824 54.4102 1.63506 53.2061C1.15138 50.6943 2.70471 63.3906 2.34744 60.8625C2.06163 58.8466 2.16056 56.7762 1.99017 54.7385C1.93521 53.8504 1.479 53.0331 1.43503 52.2159C1.00081 44.1904 0.45117 36.1594 2.29248 28.2756C3.87545 21.5413 6.05204 14.9814 11.6474 10.2631C15.6983 6.83061 20.4032 4.54772 25.3336 2.63533C30.6101 0.592178 35.7768 0.238031 41.0094 2.84237C42.6759 3.58491 44.4303 4.11579 46.231 4.42241C48.991 4.96053 51.5442 6.2533 53.6017 8.15457C54.1015 8.56423 54.6833 8.86399 55.3087 9.034C55.9341 9.204 56.5888 9.24039 57.2294 9.14073C63.0666 7.64242 66.9251 10.5791 69.9756 14.7471C74.0869 20.3536 74.4332 26.9134 73.6857 33.5278C73.268 37.2382 71.729 40.9595 72.0093 44.5772C72.416 49.7314 70.8331 53.5725 67.2054 56.9887C66.4084 57.7406 66.1446 59.0482 65.6005 60.1814C63.4623 55.1853 61.753 50.2163 63.1436 44.5391C63.9162 41.0038 64.2539 37.3888 64.1494 33.773C64.1494 32.3346 63.1161 30.3242 61.9179 29.5832C57.7461 27.0006 54.756 23.639 53.217 18.8008Z" fill="#31B0ED"/>
</svg>
