<svg width="63" height="54" viewBox="0 0 63 54" fill="none" xmlns="http://www.w3.org/2000/svg">
<path d="M37.5643 27.3987C44.4758 27.8839 55.9985 15.8894 61.9985 7.8894C64.4985 -0.610496 47.4985 -0.610529 33.5111 0.528899C19.2005 7.30214 31.5992 17.7143 31.5992 17.7143L37.5643 27.3987Z" fill="#6F2721"/>
<path d="M31.6162 0.100098C40.6727 0.100098 40.5949 23.4477 37.1999 27.3783C33.8049 31.309 22.2285 31.0355 21.4989 39.3894C18.5763 47.377 13.528 50.2213 9.99902 53.3894C2.96585 55.6059 -3.57889 30.3239 2.24804 17.3005C8.07498 4.27705 24.5733 0.100098 31.6162 0.100098Z" fill="#6F2721"/>
<path d="M9.03614 34.4085C7.53967 28.8161 8.32126 23.6785 8.31173 18.0184C8.31173 16.7122 6.51024 16.1897 5.87162 17.3508C3.28853 22.0046 1.6586 27.6454 2.35442 33.0153C2.8596 36.9048 3.45057 44.0065 7.47295 45.7868C8.46424 46.2319 9.40788 46.0287 10.0465 45.0998C12.2769 41.8586 9.95119 37.8143 9.03614 34.4085Z" fill="#972825"/>
</svg>
