<svg width="12" height="11" viewBox="0 0 12 11" fill="none" xmlns="http://www.w3.org/2000/svg">
<path fill-rule="evenodd" clip-rule="evenodd" d="M10.8295 3.14664C10.9341 4.34182 10.8608 6 9.56352 6C8.26619 6 6.97933 4.78328 7.00025 2.64057C7.03164 0.508619 7.85816 -0.0512891 8.74746 0.0348502C9.63675 0.12099 11.6037 -0.794238 10.819 3.14664H10.8295Z" fill="#BF82BE"/>
<path fill-rule="evenodd" clip-rule="evenodd" d="M8.71469 6.52042C8.71469 6.52042 9.63931 5.46949 11.094 6.35448C12.5611 7.23947 11.8584 10.2263 11.6365 10.2595C11.4146 10.2927 10.0831 11.233 9.7256 10.9454C9.38042 10.6578 6.76684 7.78153 8.71469 6.53148V6.52042Z" fill="#BF82BE"/>
<path fill-rule="evenodd" clip-rule="evenodd" d="M1.17055 3.14664C1.06593 4.34182 1.13915 6 2.43648 6C3.7338 6 5.02067 4.78328 4.99975 2.64057C4.96836 0.508619 4.14183 -0.0512891 3.25253 0.0348502C2.36324 0.12099 0.396336 -0.794238 1.18101 3.14664H1.17055Z" fill="#BF82BE"/>
<path fill-rule="evenodd" clip-rule="evenodd" d="M2.46398 6.52042C2.46398 6.52042 1.77053 5.46949 0.679481 6.35448C-0.42081 7.23947 0.106218 10.2263 0.272648 10.2595C0.439079 10.2927 1.43767 11.233 1.7058 10.9454C1.9647 10.6578 3.92487 7.78153 2.46398 6.53148V6.52042Z" fill="#BF82BE"/>
</svg>
