<svg width="14" height="16" viewBox="0 0 14 16" fill="none" xmlns="http://www.w3.org/2000/svg">
<path d="M7.00081 0.68335C10.327 0.68335 13.0231 3.37948 13.0231 6.70564C13.0231 9.25044 11.2349 12.0238 7.70495 15.0553C7.50867 15.2239 7.25841 15.3165 6.99965 15.3163C6.74089 15.3161 6.49079 15.223 6.29481 15.0541L6.06133 14.8515C2.68761 11.899 0.978516 9.19362 0.978516 6.70564C0.978516 3.37948 3.67465 0.68335 7.00081 0.68335ZM7.00081 4.38937C6.38649 4.38937 5.79734 4.63341 5.36296 5.06779C4.92857 5.50218 4.68454 6.09133 4.68454 6.70564C4.68454 7.31995 4.92857 7.9091 5.36296 8.34349C5.79734 8.77787 6.38649 9.0219 7.00081 9.0219C7.61512 9.0219 8.20427 8.77787 8.63865 8.34349C9.07304 7.9091 9.31707 7.31995 9.31707 6.70564C9.31707 6.09133 9.07304 5.50218 8.63865 5.06779C8.20427 4.63341 7.61512 4.38937 7.00081 4.38937Z" fill="#31B0ED"/>
</svg>
