<svg width="16" height="20" viewBox="0 0 16 20" fill="none" xmlns="http://www.w3.org/2000/svg">
<path d="M8 0C12.4185 0 16 3.58154 16 8C16 11.3805 13.6246 15.0646 8.93538 19.0917C8.67464 19.3157 8.3422 19.4387 7.99847 19.4384C7.65473 19.4381 7.3225 19.3145 7.06215 19.0901L6.752 18.8209C2.27036 14.8989 0 11.305 0 8C0 3.58154 3.58154 0 8 0ZM8 4.92308C7.18395 4.92308 6.40132 5.24725 5.82429 5.82429C5.24725 6.40132 4.92308 7.18395 4.92308 8C4.92308 8.81605 5.24725 9.59868 5.82429 10.1757C6.40132 10.7527 7.18395 11.0769 8 11.0769C8.81605 11.0769 9.59868 10.7527 10.1757 10.1757C10.7527 9.59868 11.0769 8.81605 11.0769 8C11.0769 7.18395 10.7527 6.40132 10.1757 5.82429C9.59868 5.24725 8.81605 4.92308 8 4.92308Z" fill="#31B0ED"/>
</svg>
