<svg width="32" height="40" viewBox="0 0 32 40" fill="none" xmlns="http://www.w3.org/2000/svg">
<path d="M31.5 16C31.5 18.0994 30.7136 20.6242 29.4481 23.2616C28.1871 25.8896 26.4717 28.5858 24.6627 31.0151C22.8537 33.4444 20.9606 35.594 19.3513 37.1311C18.5457 37.9005 17.8205 38.5075 17.2196 38.9185C16.919 39.1241 16.6588 39.2742 16.4424 39.3714C16.2192 39.4716 16.0762 39.5 16 39.5C15.9238 39.5 15.7808 39.4716 15.5576 39.3714C15.3412 39.2742 15.081 39.1241 14.7804 38.9185C14.1795 38.5075 13.4543 37.9005 12.6487 37.1311C11.0394 35.594 9.14632 33.4444 7.33732 31.0151C5.52834 28.5858 3.81293 25.8896 2.5519 23.2616C1.28636 20.6242 0.5 18.0994 0.5 16C0.5 7.43959 7.43959 0.5 16 0.5C24.5604 0.5 31.5 7.43959 31.5 16Z" fill="#0088CE" stroke="#0088CE"/>
<path fill-rule="evenodd" clip-rule="evenodd" d="M17.3114 13.6659L18.6829 15.3751L23.9106 21.8951H3L6.50594 17.5429C7.4491 17.8452 8.43365 17.9985 9.42408 17.9973C11.0049 18.0124 12.5632 17.6217 13.9499 16.8627C15.3367 16.1036 16.5055 15.0015 17.3447 13.6617" fill="white"/>
<path fill-rule="evenodd" clip-rule="evenodd" d="M13.4558 8.85938L16.7074 12.9156C15.9651 14.1845 14.9005 15.2346 13.6215 15.9594C12.3425 16.6842 10.8946 17.0579 9.42459 17.0427C8.65598 17.043 7.89069 16.9421 7.14844 16.7425L8.24482 15.3793L13.4558 8.85938Z" fill="#FDC504"/>
<path fill-rule="evenodd" clip-rule="evenodd" d="M9.64088 10.5435V9.91814C9.63221 9.20561 9.84808 8.50844 10.2579 7.92547C10.4421 7.64966 10.6895 7.4218 10.9796 7.26084C11.2696 7.09988 11.5938 7.01045 11.9254 7H24.7193C25.0509 7.01045 25.3751 7.09988 25.6651 7.26084C25.9552 7.4218 26.2026 7.64966 26.3868 7.92547C26.7943 8.50777 27.0086 9.20331 26.9996 9.91397V21.4656C27.0086 22.1763 26.7943 22.8718 26.3868 23.4541C26.2021 23.7292 25.9545 23.9562 25.6645 24.1164C25.3745 24.2767 25.0505 24.3654 24.7193 24.3754H11.9254C11.5863 24.3742 11.2538 24.282 10.9624 24.1086C10.8932 24.068 10.8264 24.0235 10.7623 23.9752C10.4294 23.7175 10.1623 23.3846 9.98272 23.0039L11.0541 22.4786C11.1496 22.6866 11.2923 22.8693 11.471 23.0123L11.5585 23.0748C11.6666 23.1508 11.7935 23.1956 11.9254 23.204H24.7235C24.8664 23.1941 25.0051 23.1514 25.1288 23.0791C25.2524 23.0068 25.3577 22.9068 25.4364 22.7871C25.6947 22.4111 25.8288 21.9635 25.8199 21.5073V9.91814C25.8288 9.46195 25.6947 9.0144 25.4364 8.63832C25.3577 8.51861 25.2524 8.4187 25.1288 8.34639C25.0051 8.27408 24.8664 8.23131 24.7235 8.22145H11.9254C11.7825 8.23131 11.6438 8.27408 11.5201 8.34639C11.3964 8.4187 11.2912 8.51861 11.2125 8.63832C10.9541 9.0144 10.82 9.46195 10.829 9.91814V10.5435H9.64088Z" fill="white"/>
</svg>
