<svg width="50" height="28" viewBox="0 0 50 28" fill="none" xmlns="http://www.w3.org/2000/svg">
<path d="M1.40987 27.08C0.576533 22.08 0.209867 12.18 5.40987 12.58C11.9099 13.08 9.90955 14.58 21.9095 13.58C33.9095 12.58 43.9095 2.58008 45.9095 0.580025L45.9095 0.58C47.9095 -1.42 50.9095 2.08 47.9095 6.08C44.9095 10.08 39.9095 23.5801 37.4095 24.0801C34.9095 24.5801 24.4092 26.0801 12.9095 23.0801C5.05024 21.0298 4.19693 20.6143 4.12504 20.5567C4.11871 20.5659 4.07788 20.5801 3.90955 20.5801C2.90955 20.5801 3.40923 23.0801 2.40955 24.0801C1.6098 24.8801 1.40987 26.0801 1.40987 27.08Z" fill="#E0C461"/>
</svg>
