<svg width="26" height="21" viewBox="0 0 26 21" fill="none" xmlns="http://www.w3.org/2000/svg">
<path d="M9.62846 10.628C9.62846 11.5332 9.9713 12.4014 10.5815 13.0414C11.1918 13.6815 12.0195 14.0411 12.8825 14.0411C13.7455 14.0411 14.5732 13.6815 15.1834 13.0414C15.7937 12.4014 16.1365 11.5332 16.1365 10.628C16.1365 9.72278 15.7937 8.85464 15.1834 8.21455C14.5732 7.57447 13.7455 7.21487 12.8825 7.21487C12.0195 7.21487 11.1918 7.57447 10.5815 8.21455C9.9713 8.85464 9.62846 9.72278 9.62846 10.628V10.628ZM25.4976 9.84176C22.7433 3.75603 18.5799 0.693359 12.9987 0.693359C7.41458 0.693359 3.25409 3.75603 0.499802 9.84481C0.389327 10.0902 0.332031 10.3582 0.332031 10.6295C0.332031 10.9009 0.389327 11.1689 0.499802 11.4142C3.25409 17.5 7.41748 20.5626 12.9987 20.5626C18.5828 20.5626 22.7433 17.5 25.4976 11.4112C25.7213 10.9175 25.7213 10.3446 25.4976 9.84176V9.84176ZM12.8825 15.9915C10.0585 15.9915 7.76903 13.5901 7.76903 10.628C7.76903 7.66589 10.0585 5.26451 12.8825 5.26451C15.7065 5.26451 17.9959 7.66589 17.9959 10.628C17.9959 13.5901 15.7065 15.9915 12.8825 15.9915Z" fill="#8296A9"/>
</svg>
