<svg width="14" height="14" viewBox="0 0 14 14" fill="none" xmlns="http://www.w3.org/2000/svg">
<path d="M0.652627 2.21214L2.46207 0.404369C2.58971 0.276166 2.74142 0.174446 2.90849 0.105052C3.07555 0.0356575 3.25469 -4.33586e-05 3.43559 3.95186e-08C3.80428 3.95186e-08 4.15088 0.144418 4.41082 0.404369L6.35788 2.35146C6.48608 2.4791 6.5878 2.63081 6.65719 2.79788C6.72659 2.96495 6.76229 3.14409 6.76224 3.325C6.76224 3.69369 6.61783 4.04029 6.35788 4.30024L4.93412 5.72403C5.26739 6.45862 5.73074 7.1269 6.30181 7.6966C6.87145 8.26907 7.53966 8.73412 8.27436 9.06942L9.69812 7.64563C9.82576 7.51743 9.97747 7.41571 10.1445 7.34631C10.3116 7.27692 10.4907 7.24122 10.6717 7.24126C11.0403 7.24126 11.3869 7.38568 11.6469 7.64563L13.5956 9.59102C13.724 9.7189 13.8258 9.87089 13.8952 10.0383C13.9646 10.2056 14.0002 10.3851 14 10.5663C14 10.935 13.8556 11.2816 13.5956 11.5415L11.7896 13.3476C11.375 13.7638 10.8025 14 10.2146 14C10.0906 14 9.97166 13.9898 9.85443 13.9694C7.56417 13.5922 5.29261 12.374 3.45938 10.5425C1.62785 8.71262 0.411368 6.44272 0.0290928 4.14563C-0.0864391 3.44393 0.146324 2.72184 0.652627 2.21214Z" fill="#31B0ED"/>
</svg>
