<svg width="14" height="14" viewBox="0 0 14 14" fill="none" xmlns="http://www.w3.org/2000/svg">
<path d="M0 6.99992C0 9.86623 1.72363 12.3286 4.19009 13.4113C4.1704 12.9225 4.18658 12.3357 4.31193 11.8039C4.44651 11.2356 5.21263 7.98963 5.21263 7.98963C5.21263 7.98963 4.98901 7.54268 4.98901 6.88212C4.98901 5.84479 5.59024 5.07005 6.33902 5.07005C6.97575 5.07005 7.28336 5.54828 7.28336 6.12095C7.28336 6.76099 6.87512 7.71838 6.66518 8.60512C6.48979 9.34764 7.03749 9.95329 7.77002 9.95329C9.0963 9.95329 9.98956 8.24988 9.98956 6.23163C9.98956 4.69747 8.95625 3.54918 7.07681 3.54918C4.95341 3.54918 3.63058 5.13266 3.63058 6.90143C3.63058 7.51129 3.81039 7.94134 4.09203 8.27438C4.22153 8.42733 4.23952 8.48885 4.19266 8.66451C4.15908 8.79329 4.08197 9.10336 4.05003 9.22624C4.00344 9.40353 3.85977 9.46691 3.69954 9.40145C2.72151 9.00219 2.26602 7.93117 2.26602 6.7272C2.26602 4.73876 3.94306 2.35445 7.26892 2.35445C9.94149 2.35445 11.7005 4.28837 11.7005 6.3643C11.7005 9.11025 10.1739 11.1617 7.92348 11.1617C7.16775 11.1617 6.45687 10.7532 6.21335 10.2892C6.21335 10.2892 5.80697 11.902 5.72089 12.2134C5.57247 12.7531 5.28197 13.2925 5.01636 13.713C5.66044 13.9034 6.3286 14.0001 7.00025 14C10.8658 14 14 10.866 14 6.99992C14 3.134 10.8658 0 7.00025 0C3.13435 0 0 3.134 0 6.99992Z" fill="#CB1F27"/>
</svg>
