<svg width="27" height="31" viewBox="0 0 27 31" fill="none" xmlns="http://www.w3.org/2000/svg">
<path d="M24.327 8.9007L1.90811 1.42775C1.6078 1.32764 1.45764 1.27759 1.35382 1.35242C1.25 1.42725 1.25 1.58553 1.25 1.90209V17.5417L24.327 9.84938C24.9153 9.65328 25.2094 9.55523 25.2094 9.37504C25.2094 9.19485 24.9153 9.0968 24.327 8.9007Z" fill="#31B0ED"/>
<path d="M1.25 17.5417V1.90209C1.25 1.58553 1.25 1.42725 1.35382 1.35242C1.45764 1.27759 1.6078 1.32764 1.90811 1.42775L24.327 8.9007C24.9153 9.0968 25.2094 9.19485 25.2094 9.37504C25.2094 9.55523 24.9153 9.65328 24.327 9.84938L1.25 17.5417ZM1.25 17.5417V27.75V29.7917" stroke="#31B0ED" stroke-width="2" stroke-linecap="round"/>
</svg>
