<svg width="20" height="36" viewBox="0 0 20 36" fill="none" xmlns="http://www.w3.org/2000/svg">
<path fill-rule="evenodd" clip-rule="evenodd" d="M6.68272 1.87527C6.68272 1.87527 14.6303 -2.19094 18.3021 9.87813C25.7683 34.4149 -0.849585 42.6769 0.11319 28.4352C0.49075 22.8541 5.635 23.472 5.76714 17.3628C5.89929 11.094 1.18924 5.71227 6.68272 1.86531V1.87527Z" fill="#F08580"/>
<path d="M11.9511 8.99998C13.9434 10.6 18.094 11.6667 19.9203 12C19.4222 10.5 18.1272 7.10003 16.9318 5.50003C15.4376 3.50002 12.9473 1 9.95881 0C9.12869 0.333335 7.26921 1 6.4723 1C5.47615 1 3.48385 4.00002 2.98578 6.49997C2.48771 8.99992 4.97808 7.49998 5.47615 6.49997C5.97422 5.49997 9.46074 6.99998 11.9511 8.99998Z" fill="#F0F6CA"/>
</svg>
