<svg width="45" height="79" viewBox="0 0 45 79" fill="none" xmlns="http://www.w3.org/2000/svg">
<path d="M6.87099 0.122924C-1.66755 1.03209 6.25844 25.1156 3.16786 31.2942C0.0772754 37.4635 0.699102 43.3266 1.93348 47.0282C3.16786 50.7298 -1.1571 71.4086 5.94289 74.804C13.0429 78.1995 35.8928 81.2795 42.6772 76.6594C49.4709 72.0302 41.7491 -3.57867 6.8617 0.132196L6.87099 0.122924Z" fill="#D2242A"/>
<path d="M28.8172 65.9082C24.6266 64.9222 20.8895 64.3799 17.8821 60.9287C16.3735 59.2032 15.6635 57.4382 15.3283 55.614C15.6734 55.9 16.0283 56.176 16.403 56.4324C17.1919 56.955 18.1779 57.6847 19.1541 57.665C19.6767 57.6551 19.9035 57.0437 19.5682 56.6691C18.9667 55.9986 17.8821 55.6929 17.1031 55.2492C16.4228 54.8646 15.772 54.4209 15.1311 53.987C14.9634 51.7685 15.1804 49.4513 15.1015 46.9961C15.0719 46.1776 14.9536 45.3099 14.7366 44.4521C15.3085 44.7183 15.8804 44.9845 16.4129 45.3099C16.9947 45.6649 17.5863 46.3749 18.2568 46.4932C18.6216 46.5622 18.9174 46.2861 18.8484 45.9016C18.6906 45.1226 17.7046 44.5606 17.0736 44.1859C16.3143 43.7421 15.4762 43.4463 14.5986 43.3477C14.5296 43.3379 14.4901 43.3773 14.431 43.397C13.5435 40.7446 11.7785 38.3781 9.23456 38.0428C9.62897 37.7963 10.0037 37.54 10.3685 37.2244C13.2872 36.1102 16.1664 37.3428 19.1344 37.7372C19.7457 38.9796 20.8106 40.0051 22.053 40.6164C23.0686 41.1094 25.0999 41.8095 26.0169 40.8038C26.2042 40.6065 26.1352 40.36 25.938 40.2023C25.1196 39.5811 23.749 39.7586 22.7728 39.3543C21.9051 38.9993 21.2248 38.4669 20.6134 37.8358C20.7317 37.8358 20.8599 37.8555 20.9782 37.8456C22.8123 37.7865 25.159 37.254 25.5337 35.2129C25.583 34.927 25.3464 34.5917 25.0308 34.7101C23.6307 35.2129 22.5362 36.1004 20.9782 36.2187C20.0612 36.2877 19.1639 36.1891 18.2568 36.0412C18.7399 35.7158 19.2231 35.4003 19.7358 35.1143C20.3275 34.7889 21.3234 34.5819 21.5107 33.8522C21.56 33.6649 21.4811 33.4874 21.3234 33.3888C20.6529 32.945 19.6668 33.6155 19.0653 33.9607C18.2469 34.434 17.4581 35.0059 16.827 35.7059C16.8073 35.7257 16.7975 35.7552 16.7777 35.775C16.5214 35.7257 16.265 35.6862 16.0086 35.6468C14.6085 35.4397 13.2182 35.3608 11.8969 35.6369C12.2321 35.2129 12.5575 34.7593 12.8435 34.2959C13.721 32.8859 14.2239 31.3871 14.5592 29.8588C14.638 29.8292 14.7071 29.7799 14.7761 29.7207C15.6734 28.8629 16.5509 28.0247 17.6356 27.4035C18.5427 26.8908 19.7654 26.7626 20.3768 25.9048C20.5641 25.6385 20.4458 25.1455 20.1401 25.0075C18.9865 24.4849 17.5764 25.3624 16.5904 25.9738C16.0382 26.3189 15.5057 26.7034 15.0325 27.1373C15.4564 23.9918 15.6931 20.8365 17.4975 18.1151C17.8525 17.5826 17.1524 16.8825 16.6101 17.2276C14.1746 18.8152 13.8788 21.5859 13.7309 24.3074C13.6717 25.4117 13.5041 26.7133 13.2182 28.0642C12.9223 27.2359 12.4885 26.3583 11.6996 26.1414C11.4729 26.0822 11.2264 26.2203 11.1672 26.4471C10.8911 27.4035 11.7194 28.5572 12.0053 29.4742C12.1434 29.9179 12.2223 30.5194 12.3899 31.042C10.9503 35.065 8.23867 38.5753 3.63388 37.6484C2.9338 37.5104 2.65771 38.4964 3.33807 38.7232C4.42271 39.0782 5.44819 39.1669 6.40464 39.0486C6.49338 39.1669 6.64129 39.2458 6.84835 39.1867C8.61336 39.8473 10.3685 40.5178 12.1335 41.1883L12.8336 42.6674C12.8237 44.6887 12.6265 46.6608 12.0349 48.6131C11.4433 50.5754 10.3389 52.2615 9.68814 54.1645C9.54024 54.5984 10.122 54.8843 10.4277 54.5984C12.2913 52.8235 13.2773 50.0528 13.6619 47.2524C13.652 48.9583 13.2379 50.6444 13.2182 52.3601C13.1787 55.2393 14.0168 58.089 15.5156 60.5442C16.3636 61.9345 17.5271 63.2459 18.8879 64.3601C18.7695 65.78 19.0752 67.1802 19.8443 68.4325C20.6529 69.7439 22.2305 71.4201 23.8969 71.1342C24.3801 71.0553 24.4195 70.444 24.1631 70.1383C23.7589 69.665 23.2461 69.4875 22.7433 69.1424C22.0826 68.6987 21.5304 68.1367 21.0867 67.476C20.643 66.8055 20.3373 66.0758 20.1697 65.3166C22.763 67.0224 25.8591 67.9394 28.8172 67.2689C29.4877 67.121 29.4779 66.0758 28.8172 65.9181V65.9082Z" fill="#E65D4C"/>
<path d="M29.1626 13.1063C26.1256 8.7875 22.2209 3.85733 16.7188 3.04878C15.7722 2.91073 14.9341 4.28131 15.9892 4.76447C21.1658 7.13096 24.8635 13.0077 27.437 17.8492C29.5274 21.7834 30.6712 27.4137 33.9449 30.4605C34.9802 31.4269 36.7255 30.7465 36.7452 29.297C36.8241 23.8936 32.1601 17.3759 29.1626 13.1063Z" fill="#D74C3F"/>
<path d="M39.2209 36.5144C38.9152 35.6171 38.018 35.0255 37.0714 35.2917C36.2135 35.5284 35.5233 36.5539 35.8487 37.4413C36.1544 38.2893 36.1346 38.7922 36.2037 39.65C36.2727 40.4881 36.7953 41.2178 37.6827 41.3164C38.4814 41.415 39.359 40.9417 39.5463 40.1036C39.8027 38.9401 39.6153 37.6385 39.2308 36.5144H39.2209Z" fill="#D74C3F"/>
</svg>
