<svg width="25" height="21" viewBox="0 0 25 21" fill="none" xmlns="http://www.w3.org/2000/svg">
<path fill-rule="evenodd" clip-rule="evenodd" d="M0 2.78613C0 1.68156 0.895431 0.786133 2 0.786133H20C21.1046 0.786133 22 1.68156 22 2.78613V7.78613H20.5V3.29004C20.5 2.73775 20.0523 2.29004 19.5 2.29004H2.5C1.94772 2.29004 1.5 2.73775 1.5 3.29004V16.29C1.5 16.8423 1.94771 17.29 2.5 17.29H11V18.7861H2C0.89543 18.7861 0 17.8907 0 16.7861V2.78613Z" fill="#31B0ED"/>
<path d="M1 1.78613L11 11.7861L21 1.78613" stroke="#31B0ED" stroke-width="1.5"/>
<path d="M1 17.7861L9 9.78613" stroke="#31B0ED" stroke-width="1.5"/>
<rect x="8" y="17.29" width="4" height="1.5" rx="0.75" fill="#31B0ED"/>
<rect x="22" y="4.78613" width="4" height="1.5" rx="0.75" transform="rotate(90 22 4.78613)" fill="#31B0ED"/>
<path d="M24.04 14.7832C24.04 15.4349 23.9375 16.0319 23.7324 16.5742C23.5273 17.112 23.238 17.5312 22.8643 17.832C22.4951 18.1328 22.0667 18.2832 21.5791 18.2832C21.2191 18.2832 20.9069 18.1875 20.6426 17.9961C20.3783 17.8047 20.2005 17.5449 20.1094 17.2168H20.0273C19.804 17.5723 19.5283 17.8389 19.2002 18.0166C18.8721 18.1943 18.5029 18.2832 18.0928 18.2832C17.3499 18.2832 16.7643 18.0439 16.3359 17.5654C15.9121 17.0869 15.7002 16.4398 15.7002 15.624C15.7002 14.6852 15.9827 13.9242 16.5479 13.3408C17.113 12.7529 17.8717 12.459 18.8242 12.459C19.1706 12.459 19.5534 12.4909 19.9727 12.5547C20.3965 12.6139 20.7725 12.6982 21.1006 12.8076L20.9502 15.9863V16.1504C20.9502 16.8796 21.1872 17.2441 21.6611 17.2441C22.0212 17.2441 22.306 17.0117 22.5156 16.5469C22.7298 16.082 22.8369 15.4896 22.8369 14.7695C22.8369 13.9902 22.6774 13.3066 22.3584 12.7188C22.0394 12.1263 21.5859 11.6706 20.998 11.3516C20.4102 11.0326 19.7357 10.873 18.9746 10.873C18.0039 10.873 17.1585 11.0736 16.4385 11.4746C15.723 11.8757 15.1761 12.4499 14.7979 13.1973C14.4196 13.9401 14.2305 14.8037 14.2305 15.7881C14.2305 17.1097 14.5837 18.126 15.29 18.8369C15.9964 19.5479 17.0104 19.9033 18.332 19.9033C19.3392 19.9033 20.3896 19.6982 21.4834 19.2881V20.4092C20.5264 20.8011 19.485 20.9971 18.3594 20.9971C16.6732 20.9971 15.3584 20.5436 14.415 19.6367C13.4717 18.7253 13 17.4561 13 15.8291C13 14.6396 13.2552 13.5824 13.7656 12.6572C14.276 11.7275 14.9824 11.0166 15.8848 10.5244C16.7917 10.0322 17.8171 9.78613 18.9609 9.78613C19.9499 9.78613 20.8294 9.99121 21.5996 10.4014C22.3743 10.8115 22.9736 11.3971 23.3975 12.1582C23.8258 12.9147 24.04 13.7897 24.04 14.7832ZM17.0127 15.6514C17.0127 16.7132 17.4297 17.2441 18.2637 17.2441C19.1432 17.2441 19.624 16.5765 19.7061 15.2412L19.7881 13.6074C19.501 13.5299 19.1934 13.4912 18.8652 13.4912C18.2819 13.4912 17.8262 13.6849 17.498 14.0723C17.1745 14.4596 17.0127 14.986 17.0127 15.6514Z" fill="#31B0ED"/>
</svg>
