<svg width="296" height="670" viewBox="0 0 296 670" fill="none" xmlns="http://www.w3.org/2000/svg">
<path d="M146.096 54.1005C140.289 54.1005 138.808 52.1435 141.064 46.9474C142.268 44.1581 143.365 39.8468 146.104 39.6668C148.843 39.4869 149.479 44.0082 151.037 46.46C151.53 47.33 151.867 48.2758 152.034 49.2568C152.886 53.0733 151.574 54.1005 146.096 54.1005ZM146.096 41.6388C145.13 43.0109 144.217 44.1731 143.45 45.3878C142.238 47.3298 141.279 49.4592 142.138 51.7086C143.12 54.2804 145.275 51.8361 146.741 52.4584C146.989 52.5485 147.246 52.6138 147.508 52.6534C150.3 53.2382 150.983 51.7986 150.446 49.5267C149.817 46.6475 148.183 44.1581 146.119 41.6463L146.096 41.6388Z" stroke="#0087CB" stroke-miterlimit="10"/>
<path d="M119.83 315.754C119.748 315.705 119.666 315.665 119.576 315.617C119.1 315.36 118.526 315.521 118.31 316.075C118.116 316.565 118.355 317.264 118.891 317.377C118.988 317.393 119.077 317.417 119.174 317.433C119.591 317.513 120.016 317.345 120.18 316.903C120.329 316.501 120.217 315.962 119.83 315.754Z" fill="#E64F3C"/>
<path d="M196.32 200.029C197.587 197.882 197.731 195.415 197.957 193.006C198.124 191.202 197.31 189.375 198.342 187.58C202.152 180.806 201.736 173.204 201.982 165.996C202.102 162.699 203.467 159.481 202.844 156.117C202.379 159.044 200.67 160.232 199.017 161.623C191.087 168.273 182.431 172.409 173.972 177.223C169.657 179.698 166.3 178.854 163.449 174.932C162.668 173.858 162.006 172.638 161.283 171.496C160.897 170.881 160.563 170.02 159.788 170.343C159.173 170.617 159.087 171.444 159.04 172.164C158.822 175.461 157.254 177.782 155.416 179.929C154.673 180.794 153.332 181.874 154.102 183.043C156.62 186.886 156.592 192.729 159.659 196.119C165.019 202.038 166.04 212.675 172.466 217.473C172.541 217.53 172.568 217.702 172.61 217.833C173.224 219.817 174.174 221.558 175.393 222.937C176.613 224.316 178.075 225.3 179.678 225.821C186.592 228.206 188.771 226.349 188.531 217.322C187.435 217.428 186.841 218.768 186.007 219.414C184.102 220.996 182.221 220.87 180.341 220.13C179.971 220.04 179.642 219.805 179.393 219.454C179.144 219.104 178.988 218.654 178.944 218.161C178.936 217.658 179.054 217.147 179.279 216.706C179.504 216.265 179.825 215.916 180.194 215.712C183.553 213.255 186.791 210.03 190.318 208.587C194.023 207.072 195.145 203.748 196.351 199.965L196.32 200.029Z" stroke="#0087CB" stroke-miterlimit="10"/>
<path d="M192.874 372.676C193.354 375.964 192.623 381.555 192.622 387.14C192.621 399.136 191.565 411.089 190.732 423.046C189.951 434.147 186.927 444.916 184.466 455.751C182.364 464.945 181.534 474.697 173.692 482.209C170.615 485.149 171.385 492.253 174.629 494.876C177.872 497.499 181.454 495.963 184.591 494.42C187.973 492.725 191.001 493.567 194.161 494.619C197.753 495.854 201.652 496.76 204.513 493.802C207.374 490.844 205.622 487.452 203.853 484.664C200.33 479.107 199.259 473.095 199.345 466.87C199.498 456.281 199.866 445.689 200.249 435.103C200.715 423.009 201.18 410.915 201.921 398.829C202.642 387.094 204.371 375.418 203.721 363.613C203.458 358.922 203.258 353.941 206.123 349.632C210.107 343.661 209.166 337.805 206.046 331.991C204.486 329.081 202.316 328.845 200.308 331.491C198.862 333.356 197.259 333.415 195.325 332.958C192.374 332.267 191.195 330.431 191.633 327.71C191.941 325.799 190.881 324.518 189.179 323.763C187.303 322.925 185.945 324.079 184.962 325.356C183.006 327.811 181.185 330.365 179.387 332.911C178.343 334.358 178.812 335.491 180.497 336.359C186.487 339.402 188.881 344.164 188.216 350.311C187.999 351.235 188.174 352.198 188.706 353.004C193.093 358.172 192.239 364.398 192.874 372.676Z" stroke="#0087CB" stroke-miterlimit="10"/>
<path d="M93.4073 488.23C93.337 491.426 94.8012 493.043 98.0875 493.398C100.486 493.667 102.663 492.975 104.812 492.072C106.065 491.481 107.443 491.187 108.834 491.212C110.225 491.238 111.59 491.584 112.819 492.221C119.88 495.697 124.059 493.036 124.005 485.326C124.048 484.075 123.817 482.83 123.327 481.675C122.837 480.519 122.1 479.479 121.164 478.625C118.389 476.132 117.201 472.885 116.116 469.499C112.856 459.653 111.54 449.401 109.094 439.388C105.976 426.649 105.733 413.577 104.872 400.613C104.144 389.701 104.263 378.67 104.212 367.701C104.196 364.217 104.313 360.513 106.194 357.471C107.676 355.081 108.026 352.773 108.112 350.089C108.294 345.21 110.057 341.041 114.71 338.547C116.209 337.743 117.263 336.733 116.142 335.046C114.385 332.385 112.545 329.777 110.621 327.223C109.959 326.301 108.85 325.615 107.588 326.06C106.918 326.265 106.32 326.649 105.863 327.169C105.405 327.689 105.106 328.325 105 329.003C104.934 329.681 104.927 330.363 104.98 331.043C105.022 333.085 104.083 334.549 102.042 335.143C100.002 335.737 98.3214 335.807 96.9765 333.602C95.6317 331.397 93.5698 331.623 92.3553 333.764C89.2255 339.3 88.2242 345.061 91.6622 350.871C93.1349 353.323 93.9486 356.1 94.0275 358.943C94.3977 371.611 94.9572 384.244 95.9057 396.899C97.5532 419.001 98.153 441.203 99.0477 463.333C99.3192 470.057 98.6545 476.688 94.9778 482.701C93.9922 484.388 93.4525 486.288 93.4073 488.23Z" stroke="#0087CB" stroke-miterlimit="10"/>
<path d="M145.981 1C139.154 1.98224 132.104 4.05169 126.373 9.07535C117.774 16.5733 114.997 30.1297 119.469 41.1593C120.374 43.4087 122.729 45.5906 120.113 48.3199C119.346 49.1372 120.213 50.2844 121.256 50.6668C122.552 51.1633 123.896 51.5276 125.269 51.754C129.987 52.5038 132.081 54.1533 132.871 58.6821C133.186 60.4741 133.991 60.1817 135.172 60.0468C142.103 59.0661 149.137 59.003 156.085 59.8593C157.849 60.0693 158.961 59.9043 159.33 57.8198C160.005 53.9134 162.889 52.3388 166.618 51.8214C168.001 51.6329 169.365 51.3344 170.699 50.9292C171.765 50.5918 172.701 49.5046 172.057 48.6798C169.755 45.6206 172.103 43.2737 173.016 40.7019C179.191 23.3665 170.361 3.58681 145.981 1Z" stroke="#0087CB" stroke-miterlimit="10"/>
<path d="M105.686 321.906C106.405 321.738 107.155 321.742 107.872 321.917C108.589 322.092 109.252 322.433 109.806 322.911C113.304 325.738 115.751 329.419 117.899 333.236C118.758 334.735 118.666 337.097 116.71 337.847C113.081 339.242 113.143 341.206 114.631 344.153C115.26 345.405 115.061 347.085 115.137 348.569C115.304 351.465 116.375 354.242 118.206 356.525C120.822 359.869 124.627 361.278 127.903 359.921C134.109 357.349 138.719 352.948 142.187 347.355C142.72 346.491 142.919 345.47 142.747 344.475C142.26 341.377 142.451 338.214 143.307 335.193C143.775 333.543 143.483 332.614 141.443 332.501C131.815 331.939 125.11 326.72 119.855 319.305C118.498 317.385 117.554 315.316 118.866 313.014C120.178 310.712 122.18 311.132 124.236 311.687C125.11 311.919 126.062 312.031 126.583 311.034C127.013 310.232 126.522 309.595 126.039 309.002C122.893 305.148 122.364 300.62 122.494 295.911C122.54 293.976 122.947 292.274 124.52 290.872C129.007 286.883 128.355 278.875 123.039 276.364C111.839 271.025 93.7272 272.682 86.915 284.356C85.4805 286.816 85.7873 288.855 87.2372 291.292C90.4285 296.818 93.2133 302.817 93.4204 309.002C93.5662 313.156 103.983 316.463 103.339 320.617C103.116 322.004 104.566 322.281 105.686 321.906Z" stroke="#0087CB" stroke-miterlimit="10"/>
<path d="M188.708 322.148C187.971 321.98 187.202 321.984 186.467 322.159C185.731 322.333 185.051 322.675 184.483 323.153C180.894 325.98 178.384 329.662 176.181 333.479C175.299 334.979 175.394 337.341 177.401 338.091C181.123 339.486 181.06 341.451 179.533 344.398C178.888 345.65 179.092 347.33 179.014 348.815C178.843 351.711 177.744 354.488 175.866 356.771C173.183 360.116 169.28 361.526 165.92 360.169C159.554 357.596 154.824 353.194 151.268 347.6C150.721 346.737 150.517 345.715 150.693 344.72C151.192 341.622 150.997 338.458 150.119 335.437C149.639 333.787 149.938 332.857 152.031 332.744C161.906 332.182 168.784 326.963 174.174 319.546C175.567 317.626 176.535 315.557 175.189 313.254C173.844 310.952 171.79 311.372 169.681 311.927C168.784 312.159 167.808 312.272 167.273 311.275C166.832 310.472 167.336 309.835 167.832 309.242C171.058 305.388 171.601 300.858 171.467 296.149C171.42 294.214 171.003 292.512 169.39 291.11C164.787 287.12 165.455 279.111 170.909 276.599C182.397 271.259 200.975 272.917 207.963 284.593C209.434 287.053 209.12 289.092 207.632 291.53C204.359 297.056 201.502 303.056 201.29 309.242C201.14 313.397 190.455 316.704 191.116 320.858C191.344 322.246 189.857 322.523 188.708 322.148Z" stroke="#0087CB" stroke-miterlimit="10"/>
<path d="M169.863 644.976C173.092 641.718 176.274 640.666 179.874 641.213C182.178 641.566 183.215 640.342 183.477 638.131C183.702 636.889 183.796 635.626 183.76 634.363C182.83 623.924 183.808 613.488 184.015 603.078C184.551 577.68 187.227 552.38 192.011 527.477C193.238 521.029 194.763 514.686 199.832 510.074C201.111 508.914 201.579 507.127 202.18 505.468C203.08 503.165 202.179 502.126 200.064 501.88C198.395 501.677 196.575 501.792 195.199 500.755C191.007 497.588 186.664 497.054 181.487 497.752C174.247 498.721 173.507 499.209 176.194 506.271C176.438 506.982 176.738 507.67 177.09 508.33C179.172 511.848 179.966 515.709 180.224 519.812C180.95 529.458 181.141 539.141 180.796 548.812C180.214 563.152 178.915 577.399 177.616 591.662C176.775 601.03 175.868 610.411 174.045 619.667C173.286 623.12 173.286 626.709 174.043 630.162C174.378 631.373 174.433 632.651 174.202 633.889C173.971 635.127 173.462 636.289 172.717 637.278C171.376 639.29 170.546 641.627 169.863 644.976Z" stroke="#0087CB" stroke-miterlimit="10"/>
<path d="M124.054 643.487C123.497 640.247 122.661 638.018 121.182 636.152C120.293 635.087 119.697 633.817 119.45 632.464C119.203 631.111 119.314 629.718 119.772 628.418C120.623 625.256 120.711 621.944 120.028 618.743C116.12 598.046 116.002 577.017 114.116 556.14C113.157 545.544 114.224 534.94 114.531 524.334C114.705 518.396 115.445 512.654 118.624 507.41C119.777 505.456 120.502 503.288 120.751 501.046C120.889 499.924 120.96 498.34 119.561 498.257C113.697 497.923 107.763 494.501 101.92 498.593C100.26 499.779 98.3243 500.544 96.2869 500.818C90.8578 501.531 90.1413 503.102 93.0783 507.766C93.6258 508.61 94.2759 509.386 95.0144 510.078C98.1063 513.102 100.192 516.969 100.998 521.171C104.852 538.787 107 556.62 108.422 574.554C109.7 590.624 109.391 606.736 109.803 622.83C109.927 627.327 109.021 631.784 109.468 636.34C109.699 638.584 110.617 639.887 113.081 639.605C117.127 639.116 120.638 640.089 124.054 643.487Z" stroke="#0087CB" stroke-miterlimit="10"/>
<path d="M50.2997 235.749C50.2764 236.855 49.7997 238.915 52.1722 239.953C54.739 241.081 57.4164 241.999 60.1757 240.395C61.0105 239.908 62.4249 239.367 62.7674 240.257C63.9607 243.327 66.1091 241.55 67.8159 241.308C68.3789 241.236 68.9106 241.036 69.3621 240.727C69.8136 240.418 70.1704 240.009 70.3997 239.538C70.6289 239.068 70.7233 238.55 70.674 238.034C70.6248 237.517 70.4335 237.018 70.1179 236.582C65.7418 230.422 64.9197 223.671 65.6522 216.7C67.5225 198.922 70.7422 181.307 72.6194 163.523C73.1302 158.831 74.1419 154.204 75.6402 149.705C76.6091 146.765 77.7529 143.842 80.5618 141.982C82.8931 140.417 83.1551 138.208 82.5623 136.205C81.9695 134.202 79.6924 133.119 79.3744 130.472C79.1183 128.358 74.9649 128.295 72.8856 130.031C68.0432 134.052 67.238 139.47 66.8391 145.014C66.39 151.175 66.5458 157.362 65.6417 163.5C64.5514 170.882 63.2296 178.297 63.0485 185.732C62.6895 200.355 60.5748 214.474 52.9162 227.463C51.3719 230.003 50.4779 232.834 50.2997 235.749V235.749Z" stroke="#0087CB" stroke-miterlimit="10"/>
<path d="M234.383 242.328C236.05 239.406 236.05 239.406 239.416 240.398C243.921 241.754 247.551 238.473 246.721 233.788C246.168 230.686 244.71 227.957 243.239 225.253C238.849 217.265 235.442 208.932 234.22 199.759C233.059 191.05 231.658 182.375 230.499 173.636C229.629 167.097 227.523 160.776 227.233 154.166C226.927 148.985 226.308 143.826 225.377 138.717C224.706 134.641 222.687 130.917 219.667 128.186C217.968 126.612 216.461 127.293 214.902 128.061C213.568 128.724 212.683 129.589 213.82 131.317C214.253 131.964 213.706 132.581 213.119 133.046C210.619 135.057 210.466 138.199 213.043 140.066C216.102 142.283 217.732 145.4 218.798 148.852C220.923 155.715 222.737 162.683 223.635 169.818C224.632 177.757 226.322 185.566 227.823 193.397C228.794 198.492 229.577 203.626 230.662 208.699C232.676 218.104 233.888 227.411 229.256 236.396C228.109 238.631 229.384 240.788 231.914 241.044C232.97 241.239 233.572 241.928 234.383 242.328Z" stroke="#0087CB" stroke-miterlimit="10"/>
<path d="M146.051 330.777V331.069C148.843 330.882 151.659 330.814 154.428 330.462C156.085 330.252 157.842 329.637 157.834 327.553C157.834 319.41 163.25 313.352 166.188 306.341C167.645 303.155 168.428 299.715 168.49 296.226C168.49 293.437 166.495 292.087 164.608 290.595C164.281 290.294 164.024 289.926 163.856 289.519C163.688 289.111 163.612 288.672 163.634 288.233C163.572 287.176 164.316 285.789 162.982 285.189C161.509 284.529 160.818 286.134 159.783 286.734C156.867 288.413 154.904 291.727 151.099 291.84C144.655 292.027 137.934 293.069 133.124 287.161C132.653 286.743 132.139 286.374 131.59 286.059C129.925 284.702 128.821 284.709 128.798 287.169C128.798 288.751 128.468 290.228 127.033 291.097C123.627 293.159 123.443 296.174 124.018 299.6C124.97 305.284 128.054 310.097 130.601 315.099C132.135 318.098 133.861 321.037 134.168 324.471C134.659 329.982 135.096 330.47 140.681 330.799C142.468 330.867 144.263 330.777 146.051 330.777Z" stroke="#0087CB" stroke-miterlimit="10"/>
<path d="M89.409 153.246C91.1864 156.739 90.8418 160.29 91.6803 163.612C92.8587 168.35 92.5967 173.161 94.6779 177.8C96.6416 181.96 97.9678 186.6 98.5114 191.211C98.9993 195.648 102.021 199.139 103.268 203.471C104.217 203.088 105.333 203.374 106.377 204.266C108.804 206.275 111.228 208.311 113.656 210.302C114.641 211.11 116.099 211.277 116.077 213.63C116.059 215.685 114.806 215.851 113.698 216.005C112.859 216.143 111.944 215.887 111.056 215.265C110.235 214.674 109.296 212.634 108.627 213.717C107.958 214.8 108.977 216.629 109.291 218.124C109.815 220.691 110.88 221.912 112.459 221.983C114.473 222.071 116.458 222.15 117.849 220.122C121.161 215.283 123.059 208.614 125.534 202.701C126.323 200.835 125.683 197.415 126.659 195.698C129.158 191.331 130.271 185.587 131.325 179.723C131.691 177.674 131.849 176.485 130.227 174.854C128.804 173.338 127.6 171.269 126.781 168.932C126.355 167.782 126.42 165.941 125.44 165.619C124.461 165.296 124.461 167.246 124.032 168.184C122.342 171.908 120.63 175.665 116.558 173.324C109.491 169.262 102.421 165.211 95.5073 159.537C93.4612 157.832 91.3199 156.261 89.409 153.246Z" stroke="#0087CB" stroke-miterlimit="10"/>
<path d="M144.164 187.76C144.555 189.365 143.243 192.461 146.181 192.394C149.119 192.326 148.337 189.395 148.114 187.355C147.892 185.316 147.961 183.179 149.587 181.739C153.73 178.073 153.162 172.967 153.185 168.543C153.231 160.295 150.025 152.19 152.318 143.799C152.423 143.049 152.3 142.285 151.966 141.602C149.419 135.102 151.091 129.928 156.883 125.857C157.957 125.107 159.499 123.855 158.302 122.49C156.591 120.548 155.694 118.216 154.282 116.177C152.978 114.272 150.846 113.095 148.299 114.055C147.67 114.335 146.99 114.489 146.3 114.507C145.609 114.525 144.922 114.407 144.279 114.16C141.21 113.027 139.139 114.535 137.582 116.956C136.814 118.216 136.354 119.806 135.28 120.825C132.81 123.255 133.662 124.904 136.162 126.486C139.638 128.698 142.131 132.23 141.433 135.859C140.374 141.325 141.133 146.641 140.781 151.95C140.435 157.086 139.492 162.349 139.3 167.515C139.116 172.284 138.356 177.555 142.583 181.544C144.325 183.224 144.355 185.421 144.164 187.76Z" stroke="#0087CB" stroke-miterlimit="10"/>
<path d="M131.452 155.241C133.109 155.241 134.774 155.309 136.431 155.241C139.614 155.076 139.43 152.692 139.438 150.577C139.438 148.021 137.766 148.38 135.978 148.673C132.035 149.251 128.006 148.744 124.341 147.211C120.649 145.797 116.729 145.035 112.764 144.961C108.43 144.849 103.559 145.239 100.045 142.997C95.7031 140.215 94.8823 141.497 93.2099 145.389C91.2844 149.888 91.0159 150.915 94.5141 154.626C100.298 160.76 108.1 163.804 115.227 167.89C118.909 169.997 122.983 170.47 126.995 170.725C130.08 170.934 133.163 170.284 135.886 168.85C136.72 168.471 137.37 167.789 137.698 166.949C138.026 166.109 138.006 165.177 137.643 164.351C136.929 162.567 135.41 163.976 134.359 164.284C127.823 166.181 121.732 165.034 115.948 161.854C110.386 158.795 104.917 155.564 98.9788 153.202C97.1599 152.588 95.5165 151.56 94.1842 150.203C93.7041 149.689 93.4216 149.028 93.3852 148.333C93.3488 147.638 93.5608 146.952 93.9847 146.394C94.6675 145.366 95.519 145.471 96.6621 145.839C104.51 148.44 112.435 150.855 120.236 153.584C123.896 154.866 127.57 155.684 131.452 155.241Z" stroke="#0087CB" stroke-miterlimit="10"/>
<path d="M146.312 80.6363C148.352 80.5463 150.784 80.5239 153.216 80.3139C157.32 79.9615 164.424 74.8704 165.214 71.4588C166.365 66.5551 166.211 61.3365 169.502 56.9726C170.216 56.0279 171.037 53.816 168.735 53.3661C167.078 53.0437 165.137 53.3661 164.899 55.9004C164.577 59.0346 163.311 61.8988 162.122 64.8155C161.094 67.3199 159.399 68.3546 156.614 68.5645C151.037 69.0444 145.452 68.9319 139.891 68.872C131.966 68.782 130.907 67.7997 128.46 60.1818C128.034 58.7456 127.696 57.2859 127.448 55.8104C126.98 53.2836 124.839 52.8562 123.098 53.3811C121.195 53.9509 122.331 56.0129 122.921 56.8827C125.048 59.9845 126.248 63.6037 126.389 67.3349C126.504 71.6012 128.798 74.218 131.943 76.9773C136.17 80.7413 141.034 80.3439 146.312 80.6363Z" stroke="#0087CB" stroke-miterlimit="10"/>
<path d="M187.681 652.534C188.562 650.162 188.148 648.487 187.677 646.78C186.911 644.009 185.743 641.204 186.105 638.317C187.394 628.22 187.879 618.034 189.045 607.939C190.882 591.977 193.141 576.063 195.307 560.146C197.458 544.606 198.384 528.882 203.492 513.928C203.741 512.947 203.857 511.934 203.838 510.919C203.894 510.605 203.846 510.279 203.701 509.998C203.557 509.716 203.325 509.495 203.043 509.371C202.333 509.135 202.031 509.84 201.631 510.291C199.365 512.874 197.178 515.309 198.01 519.467C198.446 521.687 197.689 524.186 197.391 526.554C196.312 535.405 193.652 543.966 192.852 552.868C192.276 559.246 192.329 565.744 191.182 571.998C188.579 586.097 186.264 600.185 186.269 614.597C186.306 616.616 186.176 618.634 185.88 620.629C184.133 631.204 184.789 641.638 187.681 652.534Z" stroke="#0087CB" stroke-miterlimit="10"/>
<path d="M106.627 640.757C108.485 639.958 108.357 639.212 108.329 638.462C107.839 626.774 107.339 615.089 106.828 603.406C106.682 600.042 106.397 596.667 106.075 593.337C105.004 582.287 101.961 571.543 101.493 560.372C101.218 553.719 100.81 546.994 99.2152 540.345C97.4779 532.98 95.6358 525.438 96.0627 517.798C96.2664 514.043 94.5212 511.696 92.1619 509.342C91.7203 508.911 91.3649 508.268 90.6076 508.633C89.8502 508.998 90.0066 509.662 89.9696 510.27C89.9801 511.64 90.2276 512.997 90.7016 514.286C92.0013 518.85 93.4925 523.401 94.265 528.054C96.1045 539.129 96.9961 550.342 98.5598 561.439C101.382 581.457 103.635 601.525 105.319 621.642C105.836 627.877 106.476 634.146 106.627 640.757Z" stroke="#0087CB" stroke-miterlimit="10"/>
<path d="M260.426 320.677C261.364 318.769 260.886 317.437 260.703 316.115C260.242 312.074 257.711 308.689 256.876 304.783C252.823 285.792 243.802 268.384 238.465 249.821C237.445 246.28 233.752 246.915 231.215 245.773C231.041 245.687 230.849 245.641 230.654 245.64C230.459 245.639 230.267 245.682 230.092 245.766C229.918 245.85 229.766 245.972 229.648 246.124C229.531 246.275 229.451 246.451 229.415 246.639C228.582 248.997 229.242 251.038 230.744 252.937C231.197 253.542 231.611 254.174 231.984 254.829C237.691 264.164 243.498 273.504 246.663 283.988C250.339 296.523 254.938 308.785 260.426 320.677V320.677Z" stroke="#0087CB" stroke-miterlimit="10"/>
<path d="M36.9722 318.017C36.0551 316.109 36.5229 314.777 36.7012 313.455C37.1521 309.414 39.6268 306.029 40.443 302.123C44.4059 283.131 53.2255 265.724 58.443 247.161C59.4405 243.62 63.0512 244.254 65.5316 243.113C65.7018 243.027 65.8896 242.981 66.0801 242.98C66.2705 242.979 66.4585 243.022 66.6291 243.106C66.7997 243.19 66.9483 243.312 67.0632 243.464C67.178 243.615 67.2561 243.791 67.2911 243.978C68.1059 246.336 67.4604 248.378 65.992 250.277C65.5493 250.882 65.1445 251.514 64.7798 252.169C59.2 261.504 53.5228 270.844 50.4283 281.328C46.8345 293.863 42.3373 306.125 36.9722 318.017V318.017Z" stroke="#0087CB" stroke-miterlimit="10"/>
<path d="M213.628 127.446C204.837 125.766 196.95 127.378 189.218 124.447C192.861 127.603 192.394 132.17 194.472 135.319C196.551 138.468 199.267 141.317 200.709 145.006C201.101 146.004 201.476 147.683 203.233 147.308C203.927 147.155 204.561 146.812 205.062 146.319C205.564 145.827 205.911 145.205 206.064 144.526C206.501 142.959 206.923 141.4 208.158 140.185C210.621 137.763 210.958 134.547 210.721 131.502C210.575 129.575 210.866 128.436 213.628 127.446Z" stroke="#0087CB" stroke-miterlimit="10"/>
<path d="M79.9075 127.311C80.4291 128.548 81.9557 128.901 81.6642 129.988C80.0609 136.039 85.1854 140.05 86.4128 145.239C86.6135 145.843 86.9814 146.38 87.4757 146.792C87.97 147.203 88.5713 147.473 89.2129 147.571C90.8239 147.886 90.6781 146.161 91.3149 145.321C92.8492 143.447 92.665 140.583 94.6443 139.098C99.6844 135.349 98.2498 128.203 103.16 124.102C95.6799 127.694 87.6786 125.512 79.9075 127.311Z" stroke="#0087CB" stroke-miterlimit="10"/>
<path d="M159.89 155.301C163.792 155.661 167.727 155.148 171.397 153.802C177.949 151.345 184.633 149.24 191.419 147.496C193.314 147.103 195.091 146.29 196.613 145.119C198.047 143.957 198.147 142.472 197.035 141.168C195.662 139.586 195.201 141.573 194.434 142.09C192.133 143.657 189.517 143.979 186.855 144.339C181.071 145.194 175.049 144.474 169.487 146.664C164.884 148.478 160.235 149.505 155.302 148.486C153.308 148.073 152.801 149.041 152.763 150.698C152.694 153.629 153.63 155.579 157.136 155.309C158.053 155.258 158.972 155.255 159.89 155.301Z" stroke="#0087CB" stroke-miterlimit="10"/>
<path d="M198.722 146.632C199.035 150.16 197.332 151.871 195.248 153.079C188.926 156.748 182.875 161.07 176.775 165.268C174.354 167.032 171.661 168.114 168.882 168.439C166.102 168.765 163.299 168.327 160.664 167.156C159.865 166.821 158.872 165.745 158.184 167.156C157.67 168.179 158.003 169.431 158.371 170.551C158.565 171.173 158.865 171.733 159.25 172.191C159.634 172.648 160.093 172.992 160.595 173.197C163.516 174.588 166.638 175.175 169.751 174.917C174.774 174.318 179.026 171.469 183.264 168.47C188.62 164.677 194.088 161.132 198.25 155.134C200.098 152.471 200.632 149.878 198.722 146.632Z" stroke="#0087CB" stroke-miterlimit="10"/>
<path d="M255.588 283.5C252.076 273.722 248.563 263.944 245.051 254.166C244.112 251.552 243.451 248.898 243.988 246.1C244.198 245.035 244.911 243.831 243.477 243.094C242.043 242.357 241.039 243.199 240.113 244.125C239.188 245.052 238.469 246.171 239.724 247.358C241.395 248.937 241.368 250.918 241.326 252.927C241.277 255.186 241.365 257.374 242.646 259.427C254.331 278.148 259.877 298.786 262.76 320.258C262.984 321.899 263.323 323.477 264.609 324.662C265.24 325.243 265.942 325.998 266.931 325.702C268.058 325.359 268.271 324.301 268.448 323.303C268.673 321.986 268.077 320.869 267.44 319.773C266.186 317.588 265.293 315.225 264.794 312.77C262.781 302.729 259.695 292.919 255.588 283.5V283.5Z" stroke="#0087CB" stroke-miterlimit="10"/>
<path d="M42.8242 282.577C45.7189 272.626 48.6135 262.675 51.5082 252.724C52.2822 250.064 52.7824 247.379 52.105 244.614C51.8418 243.561 51.0808 242.397 52.4402 241.585C53.7997 240.772 54.8263 241.559 55.7804 242.435C56.7345 243.31 57.497 244.389 56.3371 245.642C54.7919 247.308 54.9266 249.284 55.0767 251.288C55.2481 253.541 55.2819 255.731 54.1431 257.849C43.759 277.166 39.472 298.069 37.8309 319.663C37.7017 321.314 37.4565 322.907 36.2656 324.159C35.6816 324.773 35.0379 325.565 34.0558 325.322C32.9369 325.039 32.6716 323.994 32.4441 323.007C32.1523 321.704 32.6732 320.557 33.2353 319.429C34.34 317.18 35.0826 314.772 35.4354 312.294C36.8526 302.162 39.3291 292.201 42.8242 282.577V282.577Z" stroke="#0087CB" stroke-miterlimit="10"/>
<path d="M219.021 124.919C214.763 124.739 211.733 122.955 208.281 122.415C199.121 120.968 189.87 119.91 181.017 116.851C173.933 114.315 166.394 113.218 158.862 113.627C157.489 113.717 155.893 113.47 156.108 115.682C156.43 119.011 158.954 121.035 162.375 120.518C166.28 119.933 170.116 119.498 174.136 120.008C185.014 121.403 195.616 124.604 206.67 124.867C210.559 124.972 214.434 126.126 219.021 124.919Z" stroke="#0087CB" stroke-miterlimit="10"/>
<path d="M73.7317 125.324C81.71 124.68 89.6422 125.002 97.6895 123.547C108.345 121.628 119.054 118.119 130.209 120.601C130.829 120.759 131.476 120.794 132.111 120.706C135.111 120.196 135.947 117.751 136.047 115.457C136.192 112.893 133.745 113.71 132.265 113.665C126.618 113.478 120.919 113.86 115.625 115.735C102.032 120.518 87.4482 120.961 73.7317 125.324Z" stroke="#0087CB" stroke-miterlimit="10"/>
<path d="M146.365 290.153V290.22C148.021 290.303 149.68 290.303 151.336 290.22C153.798 289.973 156.361 288.968 155.801 286.216C154.995 282.31 157.826 281.958 160.112 280.795C161.562 280.046 164.761 281.238 164.316 278.988C163.94 277.091 161.002 278.201 159.168 278.464C158.159 278.562 157.17 278.802 156.23 279.176C153.074 280.676 149.61 281.456 146.1 281.456C142.59 281.456 139.126 280.676 135.97 279.176C133.976 278.269 131.774 278.156 129.626 278.066C128.859 278.066 127.601 278.066 127.585 279.243C127.585 280.091 128.506 280.323 129.288 280.428C130.064 280.459 130.834 280.561 131.59 280.735C134.344 281.673 137.29 282.288 136.707 286.396C136.369 288.803 138.509 289.875 140.657 290.145C142.558 290.263 144.464 290.266 146.365 290.153Z" stroke="#0087CB" stroke-miterlimit="10"/>
<path d="M146.181 273.905V273.86C148.482 273.86 150.784 273.912 153.085 273.86C154.098 273.822 155.386 273.665 154.903 272.18C154.136 269.818 155.394 269.728 157.205 269.728C158.349 269.65 159.472 269.384 160.526 268.941C161.217 268.701 162.061 268.229 161.761 267.329C161.462 266.429 160.488 266.684 159.782 266.812C158.141 267.112 156.56 267.494 154.995 266.429C150.523 263.43 141.777 263.468 137.121 266.549C136.123 267.116 134.95 267.315 133.814 267.112C132.648 267.022 130.746 265.867 130.462 267.336C130.101 269.188 132.395 269.196 133.776 269.586C134.651 269.718 135.537 269.771 136.423 269.743C137.305 269.811 138.018 270.276 137.688 271.175C136.453 274.602 139.085 273.837 140.803 273.927C142.521 274.017 144.393 273.905 146.181 273.905Z" stroke="#0087CB" stroke-miterlimit="10"/>
<path d="M161.071 157.041C159.583 157.041 158.179 157.041 156.783 157.041C155.54 157.041 154.481 157.363 154.305 158.803C154.179 159.357 154.246 159.936 154.497 160.449C154.747 160.961 155.165 161.377 155.686 161.629C156.593 162.075 157.534 162.451 158.501 162.754C168.251 165.753 175.7 160.505 183.356 156.081C184.285 155.541 184.285 154.649 183.801 153.779C183.318 152.909 182.835 151.874 181.577 152.107C180.335 152.373 179.115 152.727 177.925 153.164C172.402 154.994 167.108 157.753 161.071 157.041Z" stroke="#0087CB" stroke-miterlimit="10"/>
<path d="M128.682 163.579C131.213 163.618 133.715 163.06 135.978 161.952C136.706 161.684 137.309 161.164 137.672 160.492C138.036 159.819 138.134 159.039 137.949 158.3C137.619 156.471 135.955 156.936 134.881 157.056C128.199 157.805 121.97 156.246 115.894 153.719C114.355 153.117 112.776 152.616 111.168 152.219C109.726 151.829 109.128 152.894 108.514 153.861C107.9 154.829 107.969 155.518 108.974 156.111C114.989 159.485 120.704 163.706 128.682 163.579Z" stroke="#0087CB" stroke-miterlimit="10"/>
<path d="M160.94 254.852C160.634 253.278 159.56 253.225 158.34 253.51C155.893 254.065 154.021 253.877 153.86 250.751C153.791 249.469 152.701 248.816 151.482 248.696C147.809 248.303 144.102 248.325 140.435 248.764C139.76 248.854 138.609 249.514 138.617 249.873C138.709 254.372 135.724 253.9 132.702 253.562C132.538 253.549 132.374 253.574 132.222 253.635C132.07 253.697 131.936 253.793 131.83 253.915C131.724 254.038 131.65 254.184 131.613 254.34C131.577 254.497 131.579 254.659 131.62 254.815C141.378 258.579 151.129 258.466 160.94 254.852Z" stroke="#0087CB" stroke-miterlimit="10"/>
<path d="M131.115 240.404C134.95 240.276 137.336 243.358 140.458 242.803C146.365 241.738 152.671 244.303 158.279 240.846C159.046 240.389 160.811 241.281 160.619 239.834C160.427 238.387 158.816 238.904 157.734 239.084C155.924 239.399 154.221 239.369 154.067 237.112C153.914 234.855 152.403 234.368 150.523 234.015C147.389 233.443 144.169 233.478 141.049 234.12C139.4 234.443 138.157 234.908 138.226 236.91C138.295 238.912 136.952 239.414 135.157 239.159C134.068 238.994 132.94 238.477 131.115 240.404Z" stroke="#0087CB" stroke-miterlimit="10"/>
<path d="M184.07 123.967C184.776 125.669 185.604 127.334 186.164 129.088C187.116 132.238 185.627 135.034 182.329 135.087C173.56 135.274 164.684 136.167 156.039 133.985C155.003 133.722 153.898 132.665 152.893 133.865C152.523 134.302 152.282 134.83 152.194 135.391C152.106 135.952 152.176 136.526 152.395 137.051C153.031 138.716 154.466 138.191 155.67 138.191C165.505 138.191 175.294 136.774 185.152 137.141C186.301 137.123 187.437 136.888 188.496 136.451C191.527 135.372 192.601 132.957 191.02 130.206C189.44 127.454 187.491 125.122 184.07 123.967Z" stroke="#0087CB" stroke-miterlimit="10"/>
<path d="M107.93 593.814C107.197 571.331 102.162 523.579 97.3317 518.17C102.663 542.932 102.94 568.33 107.93 593.814Z" stroke="#0087CB" stroke-miterlimit="10"/>
<path d="M196.444 519.026C189.606 543.43 187.521 568.53 185.873 593.688C190.8 569.01 191.482 543.688 196.444 519.026Z" stroke="#0087CB" stroke-miterlimit="10"/>
<path d="M108.345 123.375C105.522 124.739 104.234 126.464 102.799 128.031C101.203 129.785 99.8225 131.727 100.835 134.104C101.848 136.481 104.318 137.148 106.596 137.103C116.968 136.916 127.309 138.086 137.612 138.356C138.548 138.356 139.476 138.423 139.852 137.396C140.074 136.872 140.176 136.308 140.151 135.742C140.126 135.176 139.974 134.622 139.706 134.119C139.031 132.979 137.973 133.444 136.975 133.737C128.214 136.301 119.216 135.169 110.325 135.154C106.543 135.154 105.039 132.41 106.182 128.826C106.704 127.213 107.44 125.624 108.345 123.375Z" stroke="#0087CB" stroke-miterlimit="10"/>
<path d="M122.1 139.053C119.714 139.053 118.31 138.956 116.922 139.053C115.211 139.203 114.62 140.598 114.429 141.947C114.145 143.739 115.848 143.447 116.799 143.567C120.259 143.942 123.458 145.126 126.672 146.266C129.7 147.259 132.936 147.483 136.077 146.918C139.361 146.424 138.187 143.687 138.433 141.827C138.709 139.803 136.952 139.833 135.548 139.878C130.707 140.05 125.921 139.376 122.1 139.053Z" stroke="#0087CB" stroke-miterlimit="10"/>
<path d="M170.568 139.008C166.193 139.577 161.787 139.882 157.374 139.923C155.962 139.923 153.538 139.113 153.875 141.88C154.136 144.017 153.569 146.896 157.281 147.128C160.59 147.428 163.925 146.998 167.04 145.869C169.655 144.86 172.366 144.107 175.133 143.619C176.199 143.424 178.102 143.859 177.879 141.895C177.71 140.343 176.813 139.061 174.926 139.001C173.767 138.978 172.617 139.008 170.568 139.008Z" stroke="#0087CB" stroke-miterlimit="10"/>
<path d="M167.92 653.929C173.981 651.238 174.058 651.17 178.829 655.841C180.31 657.289 181.936 656.989 183.432 656.644C185.173 656.239 184.966 654.612 184.675 653.21C184.33 651.38 183.908 649.551 183.678 647.699C183.447 645.847 182.496 644.939 180.609 644.489C173.022 642.727 168.818 645.689 167.92 653.929Z" stroke="#0087CB" stroke-miterlimit="10"/>
<path d="M124.848 653.614C124.361 651.94 124.099 650.704 123.649 649.529C122.275 645.984 118.491 644.059 114.046 644.574C108.893 645.163 108.386 645.676 107.745 650.893C107.648 651.694 107.472 652.49 107.36 653.291C107.201 654.434 106.799 655.916 108.325 656.312C109.97 656.733 111.825 657.031 113.379 655.538C117.893 651.162 117.941 651.196 124.848 653.614Z" stroke="#0087CB" stroke-miterlimit="10"/>
<path d="M157.166 227.957C154.397 226.705 153.139 225.078 152.978 222.086C152.801 218.854 149.457 219.754 147.47 219.529C144.67 219.207 141.632 219.019 139.315 221.321C139.281 221.376 139.259 221.437 139.25 221.5C139.24 221.563 139.244 221.627 139.261 221.689C140.028 224.613 138.44 226.345 135.824 228.115C143.005 227.447 149.978 228.025 157.166 227.957Z" stroke="#0087CB" stroke-miterlimit="10"/>
<path d="M146.074 206.4C139.937 206.4 139.039 207.202 138.402 212.511C138.172 214.4 138.686 214.985 140.627 214.76C144.411 214.233 148.256 214.276 152.027 214.888C154.044 215.27 154.075 214.348 153.914 212.841C153.331 207.292 152.272 206.385 146.074 206.4Z" stroke="#0087CB" stroke-miterlimit="10"/>
<path d="M125.269 133.595C128.69 133.415 132.173 133.947 135.472 132.643C136.477 132.245 137.919 132.043 137.773 130.566C137.664 130.007 137.398 129.489 137.005 129.07C136.612 128.65 136.108 128.345 135.548 128.189C133.109 127.414 130.497 127.323 128.007 127.926C124.847 128.541 121.778 129.186 118.625 128.024C117.26 127.521 116.83 128.181 116.746 129.448C116.569 132.005 116.93 133.947 120.328 133.625C121.932 133.467 123.596 133.595 125.269 133.595Z" stroke="#0087CB" stroke-miterlimit="10"/>
<path d="M166.364 133.58C168.535 133.58 170.699 133.58 172.862 133.58C175.877 133.58 175.394 131.33 175.394 129.553C175.394 127.004 173.752 128.106 172.486 128.354C170.229 128.802 167.898 128.745 165.666 128.189C163.063 127.544 160.35 127.439 157.703 127.881C156.993 127.951 156.324 128.239 155.792 128.704C155.26 129.169 154.893 129.786 154.742 130.468C154.481 132.088 156.169 132.298 157.289 132.718C160.227 133.925 163.326 133.422 166.364 133.58Z" stroke="#0087CB" stroke-miterlimit="10"/>
<path d="M132.495 325.071C132.418 319.073 129.035 314.469 123.957 313.307C122.768 313.037 121.456 312.294 120.443 313.599C119.431 314.904 119.807 316.486 120.712 317.753C123.03 321.176 125.895 324.213 129.196 326.751C129.964 327.313 130.83 328.31 131.874 327.703C132.917 327.095 132.403 325.888 132.495 325.071Z" stroke="#0087CB" stroke-miterlimit="10"/>
<path d="M159.683 325.071C159.829 325.933 159.246 327.17 160.297 327.74C161.348 328.31 162.191 327.283 162.974 326.735C166.457 324.321 169.057 321.074 171.551 317.738C172.021 317.215 172.303 316.555 172.353 315.86C172.403 315.165 172.218 314.473 171.827 313.891C170.952 312.632 169.587 313.006 168.329 313.239C163.572 314.154 159.829 319.237 159.683 325.071Z" stroke="#0087CB" stroke-miterlimit="10"/>
<path d="M191.92 166.18C182.236 172.004 172.977 179.368 160.92 176.073C163.77 179.401 166.934 183.287 170.868 181.257C178.46 177.351 185.544 172.278 191.92 166.18V166.18Z" stroke="#0087CB" stroke-miterlimit="10"/>
<path d="M130.92 173.506C119.479 177.812 111.487 169.285 102.92 163.248C107.786 168.975 113.453 172.946 118.78 177.632C122.688 181.077 125.846 181.128 130.92 173.506Z" stroke="#0087CB" stroke-miterlimit="10"/>
<path d="M145.629 194.493C144.862 194.493 143.373 194.051 141.839 194.493C138.771 195.386 139.392 198.138 139.292 200.072C139.185 202.321 141.356 200.994 142.506 201.054C145.414 201.197 148.344 201.002 151.229 201.287C153.124 201.474 153.346 200.919 153.154 199.3C152.594 194.666 152.119 194.299 145.629 194.493Z" stroke="#0087CB" stroke-miterlimit="10"/>
<path d="M147.293 98.3237C149.679 97.5739 151.942 94.6272 155.471 94.1398C156.154 94.0424 155.947 93.0076 155.402 92.6402C154.044 91.6505 152.234 90.5408 150.868 91.6205C147.654 94.1623 144.946 94.2148 141.663 91.6805C140.006 90.4058 137.505 91.3581 136.73 93.0676C135.763 95.1971 138.318 94.5672 139.353 95.0096C140.684 95.4515 141.901 96.1704 142.921 97.1165C143.864 98.0688 144.984 98.4962 147.293 98.3237Z" stroke="#0087CB" stroke-miterlimit="10"/>
<path d="M173.921 112.652C171.466 109.541 169.318 106.654 167.017 103.895C163.557 99.7559 159.752 96.2244 153.546 97.2216C152.548 97.3791 151.29 97.0267 150.976 98.2038C150.628 99.2619 150.672 100.406 151.098 101.435C151.681 102.433 152.97 101.638 153.914 101.435C159.284 100.168 163.802 101.248 167.078 105.822C168.274 107.433 169.331 109.139 170.239 110.92C170.898 112.308 171.627 113.155 173.921 112.652Z" stroke="#0087CB" stroke-miterlimit="10"/>
<path d="M177.941 667.854C177.005 666.031 176.299 664.727 175.639 663.4C174.872 661.833 175.639 660.221 175.555 658.646C175.455 656.442 173.836 655.647 171.804 656.142C169.771 656.636 167.27 657.161 168.075 659.831C168.881 662.5 172.026 664.329 172.494 667.531C172.555 667.846 175.708 667.734 177.941 667.854Z" stroke="#0087CB" stroke-miterlimit="10"/>
<path d="M146.319 275.584C143.91 275.584 141.502 275.584 139.1 275.584C138.241 275.584 137.16 275.509 137.037 276.702C137.017 277.148 137.16 277.586 137.441 277.938C137.723 278.29 138.123 278.532 138.571 278.621C143.547 280.209 148.918 280.167 153.868 278.501C154.087 278.449 154.293 278.354 154.475 278.223C154.656 278.091 154.808 277.925 154.923 277.735C155.037 277.545 155.111 277.334 155.141 277.115C155.171 276.897 155.155 276.674 155.095 276.462C154.834 275.607 153.945 275.584 153.185 275.584C150.884 275.584 148.598 275.584 146.319 275.584Z" stroke="#0087CB" stroke-miterlimit="10"/>
<path d="M118.272 112.75C121.141 113.365 121.548 111.768 122.238 110.501C126.841 101.878 129.411 100.551 139.208 101.691C140.519 101.848 141.555 101.96 141.509 100.236C141.455 98.8863 141.724 97.1992 139.599 97.2817C136.446 97.4017 133.462 96.7344 130.393 99.2012C125.545 103.048 122.269 107.846 118.272 112.75Z" stroke="#0087CB" stroke-miterlimit="10"/>
<path d="M289.145 358.676C287.934 355.586 287.153 353.179 286.061 350.94C285.128 349.02 284.808 345.051 282.705 345.924C280.845 346.697 282.255 350.404 283.238 352.845C283.478 353.457 283.98 353.972 284.235 354.579C286.541 360.112 289.162 365.571 290.13 371.501C290.366 372.956 289.446 374.988 291.832 375.186C293.852 375.325 293.309 373.109 293.276 371.623C293.181 366.719 290.255 362.515 289.145 358.676Z" stroke="#0087CB" stroke-miterlimit="10"/>
<path d="M7.69078 361.249C9.02751 358.4 9.91375 356.133 11.0867 354.131C12.0891 352.414 12.6286 348.391 14.5811 349.915C16.3074 351.262 14.7447 354.693 13.6642 356.936C13.3993 357.501 12.8901 357.888 12.6112 358.442C10.0869 363.503 7.26712 368.396 5.99393 374.262C5.68335 375.701 6.43942 378.08 4.15439 377.584C2.22189 377.135 2.86956 374.996 2.98935 373.464C3.36924 368.406 6.40614 364.905 7.69078 361.249Z" stroke="#0087CB" stroke-miterlimit="10"/>
<path d="M115.236 668.976C117.44 668.23 119.805 669.652 120.665 667.715C121.567 665.584 122.76 663.587 124.21 661.782C125.015 660.822 125.178 659.746 124.264 658.824C123.68 658.179 122.941 657.691 122.117 657.406C121.293 657.12 120.411 657.047 119.551 657.192C118.193 657.398 117.073 658.477 117.456 659.753C118.463 663.044 117.09 665.719 115.236 668.976Z" stroke="#0087CB" stroke-miterlimit="10"/>
<path d="M115.51 129.373C115.51 126.486 113.546 122.932 112.127 122.857C110.555 122.782 107.417 128.008 107.524 130.52C107.678 133.249 109.703 133.519 111.866 133.632C115.25 133.774 115.403 131.457 115.51 129.373Z" stroke="#0087CB" stroke-miterlimit="10"/>
<path d="M177.081 129.449C177.442 130.671 176.56 132.718 178.669 133.408C180.365 133.962 182.344 134.045 183.778 132.793C185.389 131.391 184.699 129.584 184.032 127.927C183.81 127.34 183.533 126.775 183.203 126.239C182.367 124.927 181.968 122.648 179.966 123.128C178.217 123.54 177.503 125.505 177.242 127.312C177.15 127.927 177.143 128.556 177.081 129.449Z" stroke="#0087CB" stroke-miterlimit="10"/>
<path d="M264.397 355.763C263.178 356.043 263.755 357.829 264.338 359.602C265.576 363.566 266.721 367.513 266.716 371.133C266.718 372.727 266.591 374.462 268.309 375.454C270.145 376.507 269.931 374.277 269.687 372.519C269.076 368.124 268.117 363.587 267.634 359.249C267.165 355.353 265.81 355.984 264.397 355.763Z" stroke="#0087CB" stroke-miterlimit="10"/>
<path d="M270.397 354.763C269.178 355.043 269.755 356.829 270.338 358.602C271.576 362.566 272.721 366.513 272.716 370.133C272.718 371.727 272.591 373.462 274.309 374.454C276.145 375.507 275.931 373.277 275.687 371.519C275.076 367.124 274.117 362.587 273.634 358.249C273.165 354.353 271.81 354.984 270.397 354.763Z" stroke="#0087CB" stroke-miterlimit="10"/>
<path d="M26.784 376.471C25.1558 375.324 25.8144 373.589 26.4814 371.874C27.8861 367.996 29.1687 364.075 28.9506 359.775C28.86 357.883 28.5914 355.739 30.8038 355.709C33.1687 355.686 33.0169 358.19 32.7966 360.114C32.2459 364.923 31.2438 369.668 30.8587 374.495C30.4658 378.806 28.6386 377.153 26.784 376.471Z" stroke="#0087CB" stroke-miterlimit="10"/>
<path d="M152.702 89.5887C153.669 89.7537 154.551 89.9936 154.842 89.0189C155.134 88.0441 154.505 87.3318 153.86 86.7245C153.001 85.9297 151.743 85.0974 150.792 85.9747C147.608 88.8839 144.701 89.0714 141.486 85.9747C140.589 85.1199 139.285 85.8697 138.418 86.7245C137.804 87.3393 137.037 88.1341 137.336 88.9739C137.819 90.391 139.078 89.7237 139.944 89.4163C142.921 88.479 143.588 92.303 146.25 92.168C148.912 92.0331 149.656 87.8342 152.702 89.5887Z" stroke="#0087CB" stroke-miterlimit="10"/>
<path d="M169.939 121.05C168.067 121.56 165.428 120.623 164.845 123.165C164.697 123.979 164.862 124.819 165.31 125.521C165.758 126.223 166.456 126.738 167.27 126.966C169.648 127.813 171.796 127.026 173.867 126.089C175.217 125.474 177.012 124.589 176.813 123.03C176.613 121.47 174.511 121.988 173.269 121.605C172.174 121.343 171.061 121.157 169.939 121.05V121.05Z" stroke="#0087CB" stroke-miterlimit="10"/>
<path d="M122.154 121.081C120.029 121.793 116.316 120.556 115.802 123.33C115.396 125.579 118.786 126.202 120.934 126.929C123.082 127.656 125.016 127.454 126.565 125.857C127.332 125.107 128.015 123.765 127.44 122.783C126.335 120.931 124.141 121.38 122.154 121.081Z" stroke="#0087CB" stroke-miterlimit="10"/>
<path d="M146.204 262.56C148.375 262.56 150.538 262.56 152.709 262.56C153.101 262.611 153.497 262.512 153.815 262.284C154.134 262.057 154.351 261.718 154.42 261.338C154.469 261.12 154.47 260.895 154.423 260.676C154.377 260.458 154.283 260.252 154.149 260.071C154.015 259.891 153.843 259.74 153.646 259.629C153.448 259.517 153.228 259.448 153.001 259.426C148.484 258.595 143.845 258.623 139.338 259.509C138.95 259.559 138.592 259.74 138.326 260.02C138.06 260.301 137.902 260.664 137.881 261.046C137.881 262.17 138.809 262.508 139.714 262.545C141.87 262.598 144.033 262.553 146.204 262.56Z" stroke="#0087CB" stroke-miterlimit="10"/>
<path d="M109.044 143.245C111.146 143.455 112.818 142.66 112.879 140.583C112.933 138.259 110.724 139.016 109.381 138.948C107.104 138.834 104.845 138.48 102.646 137.891C102.315 137.767 101.96 137.714 101.606 137.736C101.253 137.758 100.908 137.856 100.597 138.021C100.285 138.187 100.014 138.416 99.8021 138.694C99.5904 138.972 99.4429 139.292 99.37 139.631C98.856 141.303 100.36 141.805 101.564 142.053C104.019 142.563 106.543 142.87 109.044 143.245Z" stroke="#0087CB" stroke-miterlimit="10"/>
<path d="M183.111 143.245C185.604 142.862 188.12 142.585 190.583 142.052C191.688 141.813 193.552 141.678 193.138 139.991C192.723 138.303 191.358 137.351 189.34 137.936C187.146 138.543 184.884 138.883 182.605 138.948C181.4 139.001 179.36 138.266 179.421 140.403C179.475 142.39 180.925 143.455 183.111 143.245Z" stroke="#0087CB" stroke-miterlimit="10"/>
<path d="M276.883 350.322C275.856 350.714 276.71 352.433 277.314 353.942C279.92 360.385 282.836 366.787 282.726 373.441C282.712 374.417 283.202 375.347 283.77 375.684C284.338 376.021 285.186 377.14 285.496 376.223C285.806 375.307 285.353 373.669 284.795 372.209C282.318 365.823 279.885 359.455 278.754 352.74C278.376 350.466 277.602 350.561 276.883 350.322Z" stroke="#0087CB" stroke-miterlimit="10"/>
<path d="M20.5587 360.187C22.0599 361.37 20.899 362.696 20.091 363.965C16.6012 369.365 12.6611 374.496 13.104 382.092C13.1663 383.205 12.4976 383.902 11.6915 383.874C10.8854 383.845 9.70684 384.497 9.21983 383.238C8.73282 381.979 9.31858 380.455 10.0626 379.209C13.3687 373.78 16.6116 368.34 17.9594 361.57C18.4071 359.273 19.5295 359.938 20.5587 360.187Z" stroke="#0087CB" stroke-miterlimit="10"/>
<path d="M25.4807 365.284C27.1287 366.243 26.317 367.177 25.8237 368.087C23.6758 371.953 23.3361 373.5 23.3362 378.993C23.6242 379.828 22.8403 382.622 22.0807 382.561C21.3212 382.5 20.3539 382.929 19.6387 381.964C18.9234 380.999 19.1566 379.888 19.5949 378.993C21.565 375.096 23.4739 371.187 23.3361 366.191C23.2805 364.495 24.4672 365.047 25.4807 365.284Z" stroke="#0087CB" stroke-miterlimit="10"/>
<path d="M146.081 82.1356V82.2031C143.78 82.2031 141.478 82.2031 139.223 82.2031C139.032 82.1899 138.84 82.2142 138.659 82.2745C138.478 82.3348 138.311 82.43 138.168 82.5543C138.025 82.6787 137.909 82.8298 137.827 82.9987C137.744 83.1676 137.698 83.3508 137.689 83.5377C137.675 83.662 137.693 83.7876 137.742 83.9032C137.79 84.0188 137.868 84.1208 137.967 84.1997C138.066 84.2787 138.183 84.3322 138.309 84.3554C138.435 84.3786 138.564 84.3707 138.686 84.3325C141.126 83.2828 142.622 84.6249 144.401 85.9671C145.032 86.426 145.82 86.6305 146.601 86.5384C147.381 86.4463 148.096 86.0646 148.598 85.4722C149.848 84.0401 151.144 83.5677 152.94 84.265C153.845 84.6174 154.896 84.6174 154.934 83.4028C154.934 82.3081 153.876 82.1281 152.955 82.1206C150.654 82.1356 148.367 82.1356 146.081 82.1356Z" stroke="#0087CB" stroke-miterlimit="10"/>
<path d="M167.132 39.3976C167.07 44.9086 163.618 47.308 158.287 45.5384C156.752 45.0136 155.134 44.5187 153.584 43.9339C150.516 42.7492 148.789 39.5026 149.541 35.9935C150.255 32.6644 152.272 30.8049 155.939 30.7449C162.337 30.6174 167.193 34.3139 167.132 39.3976ZM165.429 39.6525C165.513 35.5961 163.35 33.5117 157.757 32.327C154.689 31.6821 152.257 32.7019 151.39 35.6186C150.569 38.3929 150.968 41.1596 154.259 42.4943C155.793 43.1166 157.374 43.5965 158.931 44.1438C162.928 45.5459 165.337 43.8964 165.429 39.675V39.6525Z" stroke="#0087CB" stroke-miterlimit="10"/>
<path d="M125.43 39.0147C125.637 33.0988 134.635 28.45 139.806 31.6142C142.406 33.2037 143.013 35.6856 142.729 38.4673C142.468 40.9792 141.517 43.0486 138.801 43.9109C137.351 44.3758 135.924 44.9306 134.482 45.4105C128.667 47.5474 125.215 45.0956 125.43 39.0147ZM141.003 37.5151C141.095 34.6434 139.921 32.4689 136.868 32.1915C135.276 32.0151 133.664 32.2099 132.164 32.7599C130.663 33.3099 129.318 34.1994 128.237 35.3557C126.273 37.5151 126.227 40.3943 127.931 42.9961C129.634 45.5979 131.766 44.8406 133.968 43.8884C135.126 43.3935 136.369 43.0786 137.566 42.6587C140.044 41.8189 141.217 40.1469 141.003 37.5376V37.5151Z" stroke="#0087CB" stroke-miterlimit="10"/>
<path d="M136.576 342.534C136.605 344.422 135.936 346.256 134.691 347.7C133.447 349.143 131.711 350.099 129.802 350.392C126.496 350.857 123.665 348.607 122.745 344.446C122.018 341.798 121.723 339.055 121.87 336.318C122.008 334.863 122.407 333.686 124.126 333.281C129.519 332.007 136.592 337.233 136.576 342.534ZM123.366 338.732C123.711 340.682 123.949 342.654 124.417 344.581C125.023 347.085 126.373 348.982 129.388 348.697C130.677 348.639 131.906 348.149 132.869 347.309C133.832 346.469 134.469 345.331 134.674 344.086C135.633 339.917 133.592 337.113 128.445 335.351C124.701 334.069 123.573 334.818 123.366 338.732Z" stroke="#0087CB" stroke-miterlimit="10"/>
<path d="M170.484 339.092C170.185 340.817 169.962 342.924 169.418 344.956C168.382 348.795 165.958 350.692 162.782 350.429C159.291 350.137 155.878 346.68 155.64 343.224C155.256 337.66 162.782 331.737 168.229 333.356C171.213 334.241 170.001 336.783 170.484 339.092ZM168.712 339.325C168.006 337.825 169.801 334.684 165.981 334.946C164.567 335.014 163.183 335.369 161.917 335.987C160.65 336.605 159.529 337.474 158.624 338.538C157.79 339.504 157.294 340.706 157.21 341.968C157.126 343.229 157.457 344.484 158.156 345.548C159.353 347.625 161.225 348.96 163.802 348.682C166.825 348.367 167.515 345.931 168.144 343.629C168.432 342.206 168.621 340.765 168.712 339.317V339.325Z" stroke="#0087CB" stroke-miterlimit="10"/>
<path d="M120.208 195.493C118.338 195.224 116.518 194.49 114.833 193.325C107.513 188.647 101.065 181.669 95.9914 172.937C94.8651 170.979 93.9702 168.845 93.9202 166.249C93.9202 164.78 93.9577 163.066 94.9965 162.419C96.0352 161.772 96.6047 163.381 97.2116 164.29C102.324 171.897 108.406 177.711 114.802 182.965C116.565 184.529 118.614 185.352 120.703 185.334C122.705 185.273 124.908 185.273 124.92 189.33C124.911 190.171 124.78 191.002 124.536 191.771C124.293 192.541 123.94 193.234 123.5 193.809C123.061 194.384 122.543 194.83 121.977 195.119C121.411 195.408 120.81 195.536 120.208 195.493V195.493ZM95.6973 164.797C95.0716 167.892 95.8287 169.492 96.6485 170.979C102.148 180.921 109.513 188.538 117.924 192.984C119.088 193.631 120.296 194.077 121.56 193.343C122.158 193.053 122.675 192.504 123.035 191.777C123.395 191.049 123.58 190.179 123.562 189.295C123.518 186.952 122.06 187.258 120.972 187.275C119.303 187.347 117.645 186.877 116.128 185.903C112.543 183.533 109.32 180.351 106.022 177.326C102.28 173.907 99.1139 169.571 95.6973 164.797Z" stroke="#0087CB" stroke-miterlimit="10"/>
<path d="M95.702 173.3C98.4791 176.993 101.376 180.361 104.36 183.365C109.334 188.455 114.637 191.654 119.762 192.657C120.966 192.892 122.602 192.653 123.039 195.739C123.447 198.639 122.167 199.645 120.642 199.571C119.581 199.648 118.457 199.372 117.326 198.758C110.72 194.463 104.287 189.103 98.4439 180.83C97.0394 178.832 95.696 176.615 95.702 173.3ZM102.653 184.064C107.412 189.059 112.166 194.018 117.214 197.026C118.606 197.993 120.01 198.18 121.178 197.553C121.605 197.282 121.967 196.771 121.737 195.75C121.539 194.886 121.057 194.695 120.621 194.619C114.56 193.602 108.596 189.758 102.653 184.064Z" stroke="#0087CB" stroke-miterlimit="10"/>
<path d="M119.509 208.306C117.144 208.064 114.646 207.962 111.969 205.399C109.182 202.649 106.354 200.147 103.501 197.907C102.81 197.395 102.149 196.609 101.584 195.628C100.282 193.26 100.262 190.727 100.792 188.994C101.323 187.262 102.481 189.592 103.304 190.424C108.336 195.52 113.277 201.388 118.657 203.26C119.571 203.578 120.459 204.392 120.711 206.306C120.93 207.856 120.255 208.019 119.509 208.306ZM119.115 205.827C113.823 203.559 108.964 198.032 104.018 193.219C103.279 192.46 102.21 190.345 101.801 192.16C101.329 194.203 102.691 195.348 103.704 196.253C106.335 198.607 109.026 200.649 111.608 203.246C114.19 205.844 116.69 206.252 119.115 205.827Z" stroke="#0087CB" stroke-miterlimit="10"/>
<path d="M169.349 192.671C166.797 192.07 165.476 190.242 165.387 187C165.314 184.21 166.375 182.299 168.53 182.483C178.758 183.32 186.945 175.287 195.548 168.82C196.702 167.862 197.817 166.819 198.889 165.696C200.678 163.971 201.287 164.956 201.191 167.265C201.183 168.34 201.002 169.424 200.661 170.448C200.32 171.472 199.827 172.414 199.212 173.212C191.098 183.355 181.66 189.643 171.112 192.563C170.522 192.675 169.932 192.711 169.349 192.671V192.671ZM199.493 167.279C193.227 173.62 186.68 177.838 179.981 181.562C176.57 183.456 173.137 185.505 169.459 184.372C168.632 184.114 167.701 184.137 167.147 185.472C166.941 186.006 166.839 186.587 166.849 187.158C166.86 187.73 166.982 188.272 167.205 188.735C168.128 191.09 169.785 191.121 171.634 190.614C181.206 187.964 189.67 181.895 197.285 173.36C198.43 172.063 199.4 170.576 199.493 167.279Z" stroke="#0087CB" stroke-miterlimit="10"/>
<path d="M170.125 203.997C168.499 203.357 166.601 202.711 166.917 199.825C167.22 197.087 169.22 197.322 170.681 197.109C180.908 195.631 189.498 189.175 197.229 180.082C197.978 179.204 198.631 176.958 199.792 178.161C200.705 179.117 199.655 180.834 199.075 182.068C197.809 184.564 196.212 186.776 194.366 188.588C188.685 194.492 182.396 199.284 175.736 202.784C173.931 203.799 171.998 204.216 170.125 203.997V203.997ZM193.407 186.792C193.054 186.993 192.708 187.222 192.373 187.478C186.007 193.724 178.567 197.683 170.914 198.895C170.067 199.037 168.581 198.694 168.598 200.598C168.632 202.05 169.908 202.231 170.892 202.219C171.876 202.255 172.874 202.086 173.848 201.719C181.123 198.605 187.414 193.032 193.407 186.792Z" stroke="#0087CB" stroke-miterlimit="10"/>
<path d="M196.296 200.323C191.711 203.763 187.194 207.26 182.609 210.628C179.813 212.684 176.853 212.834 173.917 212.782C173.043 212.766 172.151 212.458 172.079 211.021C172.051 210.694 172.075 210.355 172.151 210.026C172.227 209.697 172.353 209.386 172.52 209.113C172.688 208.839 172.892 208.61 173.121 208.441C173.35 208.271 173.598 208.164 173.849 208.128C181.275 206.012 187.354 199.926 193.513 194.053C194.984 192.647 195.702 193.292 196.062 195.242C196.464 196.846 196.533 198.611 196.263 200.362L196.296 200.323ZM174 210.499C179.247 210.885 179.992 210.562 185.11 206.625C187.974 204.447 190.902 202.353 193.76 200.101C194.711 199.374 195.392 198.102 194.703 196.759C194.014 195.416 193.151 196.709 192.478 197.324C186.644 202.644 180.845 208.069 174.019 210.503L174 210.499Z" stroke="#0087CB" stroke-miterlimit="10"/>
</svg>
