<svg width="25" height="131" viewBox="0 0 25 131" fill="none" xmlns="http://www.w3.org/2000/svg">
<path d="M13.1289 124.962C11.556 116.362 10.6661 83.1826 10.6661 83.1826L16.2748 83.6752C16.2748 83.6752 16.9489 119.553 18.2972 127.178C19.6454 134.793 13.1379 124.972 13.1379 124.972L13.1289 124.962Z" fill="#E95E5B"/>
<path d="M9.5009 76.9879C9.5009 76.9879 9.5009 20.7479 9.5009 16.1268C9.5009 11.4935 4.14426 6.26752 5.01627 2.84401C5.8779 -0.579507 11.2345 1.02942 12.7813 3.04966C12.7813 3.04966 17.0999 -1.37792 19.3422 0.436663C21.5845 2.25125 16.5808 12.9089 16.5808 16.1268C16.5808 19.3446 14.8575 76.7944 14.8575 76.7944L9.5009 77V76.9879Z" fill="#E95E5B"/>
<path fill-rule="evenodd" clip-rule="evenodd" d="M12.1145 9.39281C13.4036 9.53128 16.0019 8.50265 18.1269 6.96959C20.2519 5.43654 22.6186 5.31785 24.099 12.093C25.5895 18.8681 19.8188 22.6562 17.9255 22.6166C16.0321 22.5672 14.4611 20.1242 12.0743 20.1242C9.68744 20.1242 6.9582 22.7551 4.94401 22.31C2.92982 21.8748 -0.403658 16.4449 1.42926 10.0555C3.88657 1.46049 7.57254 9.20489 12.1145 9.39281Z" fill="#A45077"/>
</svg>
