<svg width="53" height="82" viewBox="0 0 53 82" fill="none" xmlns="http://www.w3.org/2000/svg">
<path d="M21.2047 0.452221C21.2047 0.452221 23.4167 22.0584 25.569 28.6534C27.7212 35.2485 30.8499 45.6726 18.6938 47.8086C1.70508 48.35 -1.33396 58.1244 0.589097 80.9708L5.053 81.5221C5.053 81.5221 1.6154 55.8506 10.035 57.2484C18.4546 58.6461 34.437 70.2416 48.4862 48.6748C62.5455 27.108 38.4325 19.7747 33.4804 20.0208C28.5382 20.2669 24.2138 2.2634 24.3832 0.658938L21.1848 0.442383L21.2047 0.452221Z" fill="#E95E5B"/>
<path d="M41.9054 26.1979C39.643 24.9084 37.5675 27.3824 38.5326 29.3024C41.1893 34.5467 37.0486 38.6446 34.0597 42.6184C31.2785 46.3151 36.6957 50.9575 40.6497 48.6841C49.2322 43.7551 50.986 31.3848 41.9054 26.1979Z" fill="#F08682"/>
<path d="M32.8917 49.1911C32.3074 48.2942 31.2647 48.0487 30.4197 48.6038C30.3208 48.6679 30.222 48.732 30.1231 48.7853C30.1321 48.7747 29.8264 48.9348 29.7545 48.9562C29.2781 49.127 28.8377 49.3299 28.4062 49.6288C26.6893 50.7925 27.3814 54.2945 29.4399 54.1664C30.186 54.1236 30.8152 53.9315 31.4354 53.4403C31.9029 53.0667 32.3433 52.6503 32.7478 52.1805C33.422 51.3798 33.4759 50.0772 32.9006 49.1911H32.8917Z" fill="#F08682"/>
</svg>
