<svg width="12" height="12" viewBox="0 0 12 12" fill="none" xmlns="http://www.w3.org/2000/svg">
<path fill-rule="evenodd" clip-rule="evenodd" d="M5.99935 11.3327C4.58486 11.3327 3.22831 10.7708 2.22811 9.77059C1.22792 8.77039 0.666016 7.41384 0.666016 5.99935C0.666016 4.58486 1.22792 3.22831 2.22811 2.22811C3.22831 1.22792 4.58486 0.666016 5.99935 0.666016C7.41384 0.666016 8.77039 1.22792 9.77059 2.22811C10.7708 3.22831 11.3327 4.58486 11.3327 5.99935C11.3327 7.41384 10.7708 8.77039 9.77059 9.77059C8.77039 10.7708 7.41384 11.3327 5.99935 11.3327ZM6.90868 4.02335L5.47402 6.76335L4.44535 5.83668C4.38026 5.77811 4.30427 5.73294 4.22172 5.70374C4.13917 5.67453 4.05167 5.66188 3.96423 5.66649C3.87679 5.6711 3.79111 5.69289 3.71209 5.73061C3.63307 5.76834 3.56225 5.82126 3.50368 5.88635C3.44511 5.95144 3.39994 6.02743 3.37074 6.10998C3.34153 6.19253 3.32888 6.28003 3.33349 6.36747C3.3381 6.45491 3.35989 6.54059 3.39762 6.61961C3.43534 6.69863 3.48826 6.76945 3.55335 6.82802L5.22002 8.32802C5.29553 8.39602 5.38559 8.44587 5.48332 8.47374C5.58105 8.50161 5.68386 8.50677 5.78389 8.48882C5.88391 8.47087 5.97852 8.43029 6.06046 8.37019C6.1424 8.31008 6.20952 8.23203 6.25668 8.14201L8.09001 4.64202C8.17206 4.48536 8.18851 4.30253 8.13575 4.13375C8.08298 3.96497 7.96534 3.82406 7.80868 3.74202C7.65203 3.65998 7.4692 3.64353 7.30042 3.69629C7.13163 3.74905 6.99072 3.86669 6.90868 4.02335Z" fill="#00D90E"/>
</svg>
