<svg width="34" height="34" viewBox="0 0 34 34" fill="none" xmlns="http://www.w3.org/2000/svg">
<path d="M17.0017 1.88892C14.013 1.88892 11.0915 2.77517 8.60646 4.4356C6.12145 6.09603 4.18462 8.45606 3.0409 11.2173C1.89717 13.9785 1.59792 17.0168 2.18099 19.9481C2.76405 22.8793 4.20325 25.5719 6.31657 27.6852C8.4299 29.7985 11.1224 31.2377 14.0537 31.8208C16.985 32.4039 20.0233 32.1046 22.7845 30.9609C25.5457 29.8172 27.9057 27.8803 29.5662 25.3953C31.2266 22.9103 32.1129 19.9887 32.1129 17C32.1129 12.9923 30.5208 9.14874 27.6869 6.31486C24.853 3.48098 21.0095 1.88892 17.0017 1.88892ZM26.8712 11.9284L14.4612 24.3289L7.1323 17C6.88182 16.7495 6.7411 16.4098 6.7411 16.0556C6.7411 15.7013 6.88182 15.3616 7.1323 15.1111C7.38278 14.8607 7.72251 14.7199 8.07674 14.7199C8.43098 14.7199 8.77071 14.8607 9.02119 15.1111L14.4801 20.57L25.0012 10.0584C25.1252 9.93433 25.2725 9.83595 25.4345 9.76883C25.5965 9.70171 25.7702 9.66716 25.9456 9.66716C26.121 9.66716 26.2947 9.70171 26.4568 9.76883C26.6188 9.83595 26.766 9.93433 26.8901 10.0584C27.0141 10.1824 27.1125 10.3296 27.1796 10.4917C27.2467 10.6537 27.2813 10.8274 27.2813 11.0028C27.2813 11.1782 27.2467 11.3519 27.1796 11.5139C27.1125 11.676 27.0141 11.8232 26.8901 11.9473L26.8712 11.9284Z" fill="#81FD88"/>
</svg>
