<svg width="20" height="16" viewBox="0 0 20 16" fill="none" xmlns="http://www.w3.org/2000/svg">
<path d="M7.84784 10.5082L7.517 14.9598C7.99034 14.9598 8.19535 14.7653 8.44118 14.5317L10.6604 12.5028L15.2588 15.7243C16.1022 16.1739 16.6964 15.9372 16.9239 14.9821L19.9423 1.45203L19.9431 1.45123C20.2106 0.258616 19.4923 -0.207746 18.6706 0.0848265L0.928504 6.58281C-0.282359 7.03243 -0.264025 7.67816 0.722666 7.97073L5.25861 9.32039L15.7947 3.01374C16.2905 2.69964 16.7414 2.87343 16.3705 3.18753L7.84784 10.5082Z" fill="#31B0ED"/>
<path d="M7.59468 10.6238L7.27451 14.9709C7.73259 14.9709 7.93098 14.781 8.16889 14.5529L10.3165 12.5716L14.7666 15.7175C15.5828 16.1566 16.1578 15.9254 16.378 14.9927L19.299 1.78002L19.2998 1.77925C19.5587 0.61461 18.8635 0.159188 18.0683 0.444897L0.898552 6.79045C-0.27325 7.22952 -0.255508 7.8601 0.699354 8.14581L5.08898 9.46381L15.2852 3.3051C15.765 2.99838 16.2013 3.16809 15.8425 3.47482L7.59468 10.6238Z" fill="#31B0ED"/>
</svg>
