<svg width="18" height="20" viewBox="0 0 18 20" fill="none" xmlns="http://www.w3.org/2000/svg">
<path d="M9.44316 0.016875C10.5338 0 11.6182 0.01 12.7013 0C12.7669 1.27562 13.2257 2.575 14.1594 3.47688C15.0913 4.40125 16.4094 4.82438 17.6919 4.9675V8.32312C16.49 8.28375 15.2825 8.03375 14.1919 7.51625C13.7169 7.30125 13.2744 7.02437 12.8413 6.74125C12.8357 9.17625 12.8513 11.6081 12.8257 14.0331C12.7607 15.1981 12.3763 16.3575 11.6988 17.3175C10.6088 18.9156 8.71691 19.9575 6.77378 19.99C5.58191 20.0581 4.39128 19.7331 3.37566 19.1344C1.69253 18.1419 0.508157 16.325 0.335657 14.375C0.313929 13.962 0.310592 13.5483 0.325657 13.135C0.475657 11.5494 1.26003 10.0325 2.47753 9.00062C3.85753 7.79875 5.79066 7.22625 7.60066 7.565C7.61753 8.79938 7.56816 10.0325 7.56816 11.2669C6.74128 10.9994 5.77503 11.0744 5.05253 11.5763C4.52393 11.9245 4.12447 12.4368 3.91566 13.0344C3.74316 13.4569 3.79253 13.9263 3.80253 14.375C4.00066 15.7425 5.31566 16.8919 6.71941 16.7675C7.65003 16.7575 8.54191 16.2175 9.02691 15.4269C9.18378 15.15 9.35941 14.8669 9.36878 14.5413C9.45066 13.0506 9.41816 11.5662 9.42816 10.0756C9.43503 6.71625 9.41816 3.36625 9.44378 0.0175L9.44316 0.016875Z" fill="#31B0ED"/>
</svg>
