<svg width="20" height="16" viewBox="0 0 20 16" fill="none" xmlns="http://www.w3.org/2000/svg">
<path d="M20 1.89404C19.2641 2.21528 18.4733 2.43239 17.6433 2.53006C18.4905 2.03017 19.1411 1.23857 19.4474 0.295396C18.642 0.765896 17.7608 1.09739 16.8419 1.27556C16.0934 0.490584 15.027 0 13.8468 0C11.5807 0 9.74344 1.80852 9.74344 4.03911C9.74344 4.35573 9.77977 4.66397 9.84969 4.95967C6.43953 4.79117 3.41609 3.18314 1.39227 0.739375C1.03914 1.33594 0.836797 2.02986 0.836797 2.77C0.836797 4.17139 1.56125 5.40765 2.66219 6.13203C2.01059 6.11194 1.37332 5.93869 0.803594 5.62676C0.803359 5.64368 0.803359 5.66059 0.803359 5.67759C0.803359 7.63462 2.21773 9.26718 4.09477 9.63825C3.49054 9.80002 2.85674 9.82369 2.2418 9.70747C2.76391 11.3122 4.2793 12.4799 6.07477 12.5126C4.67047 13.5959 2.90117 14.2417 0.978828 14.2417C0.647578 14.2417 0.321016 14.2225 0 14.1852C1.81586 15.3313 3.97266 16 6.28984 16C13.8373 16 17.9644 9.84513 17.9644 4.50754C17.9644 4.33235 17.9605 4.15816 17.9525 3.98497C18.7558 3.41331 19.4492 2.70526 20 1.89404Z" fill="#31B0ED"/>
</svg>
