<svg width="301" height="690" viewBox="0 0 301 690" fill="none" xmlns="http://www.w3.org/2000/svg">
<path d="M160.353 10.9815C162.572 15.4664 165.322 26.1072 165.255 42.2249C165.486 40.8286 165.838 38.7294 166.365 35.8094C168.671 23.0418 167.622 14.0645 165.607 8.21782C163.813 4.88577 161.73 1.81609 160.353 0C161.957 1.10378 164.065 3.74454 165.607 8.21782C167.429 11.6018 168.954 15.2565 169.14 18.1434C169.603 25.3053 161.297 77.3482 160.353 95.4916C159.598 110.006 158.805 132.415 158.503 141.805C159.582 134.962 165.995 120.892 183.014 119.365C204.288 117.455 211.225 130.824 216.313 145.625C221.4 160.426 229.475 205.92 230.862 213.082C232.25 220.244 258.611 244.117 261.385 264.17C264.16 284.223 274.797 313.348 276.185 319.555C276.796 322.288 281.264 331.896 286.289 342.186C288.019 345.139 289.649 347.887 290.984 350.112L297.921 365.391C294.871 359.452 290.394 350.591 286.289 342.186C280.226 331.833 272.947 318.951 272.947 317.168C272.947 314.303 260.461 271.332 258.611 259.395C257.131 249.846 238.57 227.087 229.475 216.902C231.263 225.655 236.171 245.263 241.499 253.666C246.827 262.069 263.143 296.955 270.635 313.348V342.473C270.635 346.862 271.839 359.033 272.651 366.527C272.777 367.562 272.877 368.488 272.947 369.211C272.858 368.416 272.758 367.512 272.651 366.527C272.222 363.001 271.493 358.204 270.635 355.842C269.248 352.022 268.785 324.807 267.86 313.348C266.935 301.889 253.523 284.701 246.586 271.332C239.649 257.963 229.937 231.225 227.625 218.334C225.313 205.443 225.457 156.431 207.421 135.423C189.384 114.415 173.765 127.959 165.44 138.94C158.781 147.726 158.041 173.795 158.503 185.731L155.266 273.106C156.191 273.106 158.461 280.959 161.421 283.251C165.121 286.116 183.014 294.592 183.014 310.825C183.014 327.059 193.189 394.858 187.639 405.362C183.199 413.765 180.427 433.373 179.596 442.126C181.591 431.813 180.427 472.843 179.596 494.647C179.774 497.894 179.903 501.183 179.959 504.456C181.962 510.701 187.234 516.159 193.189 524.249C200.218 533.798 197.659 548.599 195.501 554.806V541.438C195.501 530.456 184.402 516.61 182.089 514.222C179.777 511.835 179.384 532.843 182.089 550.987C184.196 565.111 186.268 587.312 187.11 597.442C187.154 597.523 187.177 597.788 187.177 598.255C187.155 597.994 187.133 597.723 187.11 597.442C186.398 596.144 180.196 643.261 177.002 668.441V633.109C177.002 630.722 182.089 622.605 184.402 606.372C186.714 590.138 179.777 564.833 179.777 550.987C179.777 537.14 178.852 534.276 179.777 516.61C179.984 512.663 180.029 508.572 179.959 504.456C179.006 501.487 178.793 498.34 179.596 494.647C178.996 483.703 177.833 473.242 177.002 465.522C175.615 452.63 176.077 434.487 183.014 405.362C189.952 376.237 183.014 343.292 177.927 313.69C172.84 284.088 154.045 289.094 149.421 291.004C144.796 292.914 129.367 294.114 124.743 310.825C120.118 327.536 121.968 364.778 126.593 386.264C131.217 407.749 133.992 436.397 126.593 462.657C119.193 488.917 121.968 488.917 117.343 514.222C112.718 539.528 121.968 588.228 121.968 606.372C121.968 624.515 122.844 633.109 127.518 646.001C131.256 656.314 127.225 667.805 124.743 672.261C124.743 670.988 125.298 666.436 127.518 658.415C129.737 650.393 126.593 650.298 124.743 651.253L106.706 676.081C110.869 669.237 119.748 654.691 121.968 651.253C124.743 646.956 121.968 626.425 121.968 616.876C121.968 607.327 113.181 557.671 113.181 541.438C113.181 525.204 115.493 478.413 121.968 467.909C128.443 457.405 123.355 421.596 121.968 394.858C120.858 373.468 118.731 349.977 117.806 340.905C115.802 343.929 111.238 352.46 109.018 362.391C106.243 374.805 119.655 426.848 115.493 436.397C111.331 445.946 113.181 445.946 111.793 454.54C110.406 463.134 105.781 493.214 103.006 507.061C100.232 520.907 106.706 547.645 113.181 577.724C119.655 607.804 119.193 634.064 119.193 638.839C119.193 643.614 114.106 653.64 112.256 658.415C110.776 662.234 108.865 665.417 106.706 668.441C110.714 661.28 116.233 648.866 117.343 641.226C118.731 631.677 115.955 601.12 113.181 586.319C110.406 571.517 96.5315 522.817 100.694 507.061C104.856 491.304 109.018 465.999 109.018 459.315C109.018 452.63 109.018 446.901 113.181 434.487C117.343 422.073 104.394 384.354 103.931 373.85C103.469 363.346 109.018 348.544 113.181 338.04C117.343 327.536 110.869 334.221 117.806 310.825C124.743 287.43 150.346 286.952 149.421 275.971C148.496 264.989 153.878 211.991 153.878 202.92C153.878 195.662 155.729 167.429 156.654 154.219C154.187 146.102 151.474 120.224 160.353 81.6453C163.909 66.1971 165.21 52.9895 165.255 42.2249C163.703 51.6053 167.599 29.2677 160.353 10.9815Z" fill="#D78788"/>
<path d="M140.65 16.1893C133.969 19.6171 132.537 44.1015 137.787 65.1581C139.831 73.359 142.158 87.0821 144.339 100.855C146.774 111.587 148.376 120.096 147.808 121.962C148.698 128.623 148.701 133.613 149.24 138.122L153.058 161.627L155.921 199.333L149.24 293.698C146.058 297.289 138.645 323.909 134.446 334.486C129.196 347.708 126.81 405.981 123.469 439.769C120.129 473.558 123.469 478.455 123.469 490.697C123.469 502.939 131.105 533.789 130.628 548.97C130.15 564.15 126.333 604.794 124.901 609.691C123.755 613.609 123.787 623.076 123.946 627.32C123.628 628.299 122.992 629.572 122.992 626.83V609.691C122.992 606.753 133.014 547.011 126.81 526.934C122.292 512.313 120.067 491.984 119.345 481.314C118.667 482.99 117.686 485.251 116.311 488.248C108.675 504.898 104.857 539.176 101.994 548.97C99.1304 558.764 110.107 612.629 112.016 622.913C113.925 633.196 115.356 658.17 113.925 665.515C112.779 671.392 103.903 684.287 99.6076 690V689.021C104.38 683.797 113.925 669.727 113.925 655.232C113.925 637.114 100.562 568.557 99.6076 551.418C98.6532 534.279 112.016 492.656 113.925 475.517C115.833 458.377 125.855 381.986 128.241 347.708C130.15 320.285 143.036 283.845 149.24 280.743V175.338C149.24 169.951 147.061 159.668 143.036 143.998C139.01 128.328 132.059 127.838 120.129 124.41C108.198 120.982 92.4492 131.756 82.9046 141.06C73.36 150.364 78.1323 177.786 74.3144 199.333C70.4965 220.879 66.2717 234.367 62.9311 265.217C59.5904 296.068 55.7727 299.496 42.8875 322.511C30.0022 345.526 35.2518 339.65 31.4339 351.892C30.0891 356.204 28.6334 361.181 27.3028 365.861C26.6083 370.416 26.1844 373.722 26.1844 374.418C26.1844 376.377 24.2754 379.151 23.3209 380.294C24.1223 377.279 25.6114 371.81 27.3028 365.861C29.0523 354.384 32.5188 334.975 35.2518 329.367C39.0696 321.532 53.8638 301.944 55.7727 295.578C57.6816 289.212 62.4539 253.465 61.0222 250.037C59.5905 246.609 58.6361 250.527 53.8638 256.893C49.0914 263.259 49.0914 302.923 40.024 312.227C30.9566 321.532 31.989 325.255 23.3209 329.367C19.1611 331.34 12.9619 334.749 8.02088 337.566C6.35478 338.75 4.80203 339.758 3.42072 340.526C-3.2205 344.217 1.20203 341.455 8.02088 337.566C20.1697 328.938 38.3453 311.012 40.024 309.289C41.9329 307.331 48.1369 274.032 49.0914 265.217C50.0458 256.403 64.2926 239.487 67.156 222.348C70.0193 205.209 68.5876 172.889 74.3144 149.384C80.0411 125.879 96.7442 124.41 112.493 120.982C128.241 117.555 129.196 120.982 137.787 124.41C140.173 126.369 145.231 130.091 146.376 129.307C147.522 128.524 147.808 124.084 147.808 121.962C147.224 117.592 146.166 112.549 145.422 107.761C145.066 105.475 144.705 103.164 144.339 100.855C139.746 80.6121 132.187 52.4607 130.628 46.0602C128.241 36.2664 133.014 21.5758 134.446 13.7408C135.591 7.47279 140.013 3.29412 142.081 1.98828C142.718 2.47797 143.322 3.75116 140.65 4.92641C137.31 6.39547 136.355 12.2717 133.014 23.5346C130.341 32.5448 131.9 42.3059 133.014 46.0602C133.809 36.7561 135.877 17.7563 137.787 16.1893C140.173 14.2305 147.331 12.7615 140.65 16.1893Z" fill="#5C9DED"/>
<path d="M165.978 46.3688C164.29 52.1729 162.068 59.3145 159.781 68.3307C157.44 77.5606 161.079 97.8864 165.725 122.743C164.313 123.884 160.394 128.433 153.881 132.461C148.714 135.05 145.262 136.732 147.874 135.603L146.921 143.77L156.448 131.76L164.069 127.437L169.785 125.179L174.9 129.259C174.941 129.292 174.982 129.325 175.025 129.358C177.99 132.636 175.244 141.963 175.025 143.77L153.59 155.299L150.732 157.221L147.333 288.03H154.84C158.016 291.553 168.451 319.785 172.643 330.161C177.883 343.132 181.693 400.298 185.028 433.445C188.362 466.592 185.028 471.396 185.028 483.406C185.028 495.416 177.406 525.68 177.883 540.572C178.359 555.464 182.17 595.337 183.599 600.141C184.742 603.984 184.71 613.271 184.551 617.435C184.869 618.396 185.504 619.645 185.504 616.954V600.141C185.504 597.258 175.501 538.651 181.693 518.955C186.203 504.612 188.423 484.669 189.144 474.201C189.821 475.846 190.801 478.063 192.173 481.004C199.794 497.337 197.03 528.633 199.888 538.24C202.746 547.848 189.315 602.668 187.409 612.756C186.478 617.689 186.116 626.816 186.156 635.699C185.74 639.277 185.504 642.263 185.504 644.462C185.504 656.646 186.32 673.997 189.55 681.938C190.001 683.589 190.594 684.996 191.379 686.023V685.062C190.697 684.329 190.09 683.265 189.55 681.938C187.539 674.577 188.343 662.389 187.409 657.68C186.679 653.998 186.198 644.982 186.156 635.699C189.1 610.348 201.055 555.306 201.89 540.572C202.842 523.759 196.46 485.327 194.554 468.514C192.649 451.7 183.599 377.24 181.217 343.612C179.312 316.711 166.038 287.296 159.846 284.253C159.846 243.9 155.019 178.262 155.019 174.035C155.019 169.564 156.392 170.301 159.305 158.662C169.309 150.976 178.217 148.058 178.835 145.692C182.853 130.319 176.454 127.437 188.362 124.074C200.27 120.711 215.564 122.027 225.516 140.407C230.49 149.594 230.706 171.48 234.517 192.617C238.327 213.754 238.327 234.083 241.662 264.348C244.996 294.613 251.665 295.584 264.526 318.163C266.382 321.655 268.006 324.721 269.064 326.829C269.389 327.531 269.682 328.193 269.946 328.82C270.648 330.682 271.383 333.276 272.115 336.275C272.601 340.71 270.943 342.58 273.1 349.377C275.954 358.371 276.804 367.366 278.073 372.813C277.886 373.165 277.759 373.195 278.339 373.877C278.248 373.54 278.16 373.184 278.073 372.813C278.193 372.587 278.339 372.227 278.339 371.475C278.339 369.635 275.266 349.197 272.115 336.275C271.911 334.421 271.333 332.118 269.946 328.82C269.723 328.229 269.504 327.712 269.289 327.279C269.217 327.134 269.142 326.984 269.064 326.829C267.961 324.446 266.487 321.606 264.526 318.163C259.249 308.237 252.095 294.873 250.712 290.341C248.807 284.095 242.138 252.819 243.567 249.456C244.996 246.093 245.949 249.936 250.712 256.181C255.475 262.426 255.475 301.338 264.526 310.465C272.443 318.45 273.799 317.612 278.797 321.457C285.034 327.165 292.105 333.096 297.42 336C308.852 342.245 288.343 329.681 281.198 323.436C280.303 322.654 279.513 322.007 278.797 321.457C271.619 314.887 265.545 308.611 264.526 307.583C262.62 305.662 256.428 272.995 255.475 264.348C254.523 255.701 244.52 234.083 241.662 217.27C238.804 200.456 240.233 168.75 234.517 145.692C228.801 122.633 220.611 119.55 204.892 116.187C193.395 113.728 182.483 117.286 174.096 120.691C174.126 119.907 173.691 119.884 173.008 120.265C156.781 108.508 164.594 59.0039 166.926 49.5954C167.806 46.0474 169.205 41.5192 170.548 36.8315C173.295 30.5701 175.648 23.5085 174.268 18.9356C174.315 17.6619 174.258 16.5067 174.072 15.5059C172.929 9.35693 168.515 5.2576 166.451 3.97656C165.815 4.45695 165.212 5.70597 167.879 6.8589C171.213 8.30007 170.933 7.88664 174.268 18.9356C174.086 23.8316 172.369 30.478 170.548 36.8315C168.935 40.5087 167.187 43.9098 165.978 46.3688C168.158 38.8752 169.446 33.6108 168.832 29.4191C168.668 28.3052 168.463 27.3898 168.247 26.647C168.28 25.8739 168.176 25.3352 167.879 25.0955C167.757 24.9971 167.647 24.903 167.55 24.814C166.418 23.7844 166.847 23.4312 167.55 24.814C167.769 25.2453 168.014 25.8456 168.247 26.647C168.069 30.8327 163.874 41.8912 164.545 49.5954C164.743 48.9368 165.267 47.816 165.978 46.3688Z" fill="#5C9DED"/>
<path d="M134.466 116.707C136.934 112.348 139.648 94.8166 130.764 59.5592C121.879 24.3018 124.594 11.9359 127.062 10.1601V13.0659C127.062 18.8776 125.211 25.1735 127.062 34.3753C128.912 43.5771 143.257 102.178 141.869 116.707C140.481 131.236 148.347 127.846 150.198 135.111C151.679 140.922 152.975 143.99 153.438 144.797C155.443 143.344 159.916 141.6 161.767 146.25C163.618 150.899 164.081 159.487 164.081 163.2C168.091 167.398 176.389 177.052 177.5 182.088C178.888 188.384 177.5 191.29 177.5 193.227C177.5 195.165 181.665 200.492 168.708 198.555C158.343 197.005 146.034 190.157 141.869 185.314C141.715 183.054 143.165 174.921 144.646 173.371C146.496 171.434 150.198 165.138 150.198 160.779C150.198 156.42 147.422 143.344 146.034 141.407C144.646 139.47 142.795 122.035 132.614 121.066C122.434 120.097 84.3208 109.443 73.6778 141.407C63.0348 173.371 81.1377 227.1 67.8309 237.634C65.9425 239.129 64.4491 241.593 63.2076 244.71C62.9698 249.323 60.4184 259.422 57.583 269.023C55.5361 280.344 53.2486 291.768 48.3958 298.172C38.4962 311.236 36.2033 333.099 35.5589 338.428C35.6153 342.671 35.6576 346.751 35.5936 350.249C35.7436 354.482 35.8656 358.808 35.6432 361.068C37.6036 356.384 34.8546 364.085 35.4392 362.25C35.5267 361.975 35.5935 361.573 35.6432 361.068C35.1208 362.317 34.2639 364.445 32.9204 367.867L31.9204 373.833C31.4577 371.896 32.9396 363.123 34.4204 360.411C35.1991 358.984 35.5029 355.2 35.5936 350.249C35.423 345.434 35.2162 340.738 35.4392 339.338C35.4715 339.135 35.5106 338.828 35.5589 338.428C35.5054 334.4 35.4392 330.224 35.4392 326.262C35.4392 312.217 48.396 296.235 52.5606 284.611C54.037 280.491 55.8623 274.849 57.583 269.023C59.217 259.985 60.6977 251.012 63.2076 244.71C63.2325 244.226 63.232 243.802 63.2036 243.445C62.7409 237.634 49.7842 251.679 45.1568 268.145C40.5294 284.611 38.2155 307.858 35.4392 311.733C32.6629 315.607 26.1845 339.003 22.4826 344.331C20.2136 347.596 16.7302 353.292 14.1603 357.659C12.9597 360.514 12.0867 362.995 11.9204 364.388C11.5502 367.487 9.68016 373.873 8.1377 376.295C9.68016 373.873 10.18 364.943 10.9204 363.393C11.2786 362.643 12.5373 360.416 14.1603 357.659C16.3005 352.568 19.482 346.291 21.5571 342.878C24.7963 337.55 32.1999 317.06 35.4392 303.015C38.6785 288.97 47.4706 248.289 57.6508 240.54C65.7949 234.341 72.3041 227.774 71.5329 222.77C72.1499 207.434 64.8694 162.63 67.8309 149.845C71.5328 133.863 74.407 126.148 89.6377 118.748C100.351 113.543 111.328 112.833 121.046 114.77C128.82 116.32 133.232 116.707 134.466 116.707Z" fill="#D78788"/>
</svg>
