<svg width="22" height="22" viewBox="0 0 22 22" fill="none" xmlns="http://www.w3.org/2000/svg">
<mask id="path-1-outside-1_2005_49447" maskUnits="userSpaceOnUse" x="0" y="0" width="22" height="22" fill="black">
<rect fill="white" width="22" height="22"/>
<path fill-rule="evenodd" clip-rule="evenodd" d="M8.36914 8.89483C8.36914 8.02283 9.07603 7.3158 9.94809 7.3158C10.8201 7.3158 11.527 8.02283 11.527 8.89483C11.527 9.76684 10.8201 10.4737 9.94809 10.4737C9.07603 10.4737 8.36914 9.76684 8.36914 8.89483ZM9.15861 8.89483C9.15861 9.33084 9.51206 9.68426 9.94809 9.68426C10.3841 9.68426 10.7376 9.33084 10.7376 8.89483C10.7376 8.45883 10.3841 8.10541 9.94809 8.10541C9.51206 8.10541 9.15861 8.45883 9.15861 8.89483Z"/>
<path d="M9.97215 15.6563C9.97215 15.4735 10.1203 15.3253 10.3031 15.3253C12.8603 15.3226 14.9327 13.2502 14.9354 10.693C14.9354 10.5102 15.0835 10.3621 15.2663 10.3621C15.449 10.3621 15.5971 10.5102 15.5971 10.693C15.5937 13.6154 13.2255 15.9836 10.3031 15.9871C10.1203 15.9871 9.97215 15.839 9.97215 15.6563Z"/>
<path fill-rule="evenodd" clip-rule="evenodd" d="M9.42167 12.5789C9.42167 11.9976 8.95031 11.5264 8.3691 11.5264C7.78776 11.5264 7.31641 11.9976 7.31641 12.5789C7.31641 13.1603 7.78776 13.6316 8.3691 13.6316C8.95031 13.6316 9.42167 13.1603 9.42167 12.5789ZM7.84269 12.5789C7.84269 12.2883 8.07843 12.0527 8.3691 12.0527C8.65977 12.0527 8.89538 12.2883 8.89538 12.5789C8.89538 12.8696 8.65977 13.1052 8.3691 13.1052C8.07843 13.1052 7.84269 12.8696 7.84269 12.5789Z"/>
<path fill-rule="evenodd" clip-rule="evenodd" d="M18.3816 10.6668C18.5331 10.0803 19.0613 9.66956 19.6673 9.66742C20.3586 9.66636 20.9355 10.1948 20.995 10.8834C21.0544 11.5722 20.5763 12.1915 19.895 12.3088C19.2136 12.4261 18.556 12.0021 18.3816 11.3332H17.3176C17.2427 12.8671 16.6372 14.3274 15.6046 15.4644L16.3504 16.2068C17.0641 15.7353 18.0188 15.8805 18.5599 16.5428C19.1009 17.2053 19.0523 18.1697 18.4475 18.7744C17.8427 19.3791 16.878 19.4278 16.2154 18.8868C15.5529 18.346 15.4076 17.3913 15.8792 16.678L15.1351 15.9338C13.9979 16.9662 12.5372 17.5715 11.0029 17.6464V18.3771C11.6529 18.5449 12.0766 19.1695 11.992 19.8353C11.9075 20.5011 11.341 21 10.6698 21C9.99841 21 9.43201 20.5011 9.34734 19.8353C9.26283 19.1695 9.68661 18.5449 10.3365 18.3771V17.6464C8.8029 17.5717 7.34303 16.967 6.20595 15.9355L5.46183 16.6795C5.93351 17.3929 5.78813 18.3477 5.12562 18.8885C4.46311 19.4294 3.49841 19.3808 2.89356 18.7761C2.28871 18.1714 2.2402 17.207 2.78113 16.5445C3.32221 15.8821 4.277 15.7368 4.99062 16.2085L5.73474 15.4644C4.70215 14.3274 4.09669 12.8671 4.02179 11.3332H3.28408C3.11857 11.888 2.57092 12.2376 1.99796 12.1538C1.42484 12.0703 1 11.579 1 11.0001C1 10.421 1.42484 9.92975 1.99796 9.84617C2.57092 9.76259 3.11857 10.112 3.28408 10.6668H4.02179C4.09715 9.13348 4.70261 7.67394 5.73474 6.53726L4.99062 5.79331C4.27792 6.26396 3.32466 6.11877 2.78449 5.45717C2.24447 4.79573 2.29298 3.83276 2.89692 3.22897C3.50085 2.62517 4.46403 2.57667 5.12562 3.11657C5.78721 3.65661 5.93259 4.60966 5.46183 5.3222L6.20595 6.06615C7.34273 5.03425 8.80275 4.42893 10.3365 4.35359V3.62306C9.68661 3.45529 9.26283 2.83045 9.34734 2.16474C9.43201 1.49902 9.99841 1 10.6698 1C11.341 1 11.9075 1.49902 11.992 2.16474C12.0766 2.83045 11.6529 3.45529 11.0029 3.62306V4.35359C12.5372 4.42848 13.9979 5.0338 15.1351 6.06615L15.8776 5.3222C15.4059 4.60875 15.5513 3.65417 16.2138 3.11321C16.8764 2.5724 17.841 2.6209 18.4458 3.22561C19.0507 3.83032 19.0992 4.79481 18.5583 5.45717C18.0172 6.11968 17.0624 6.26488 16.3488 5.79331L15.6046 6.53726C16.6369 7.67394 17.2422 9.13348 17.3176 10.6668H18.3816ZM17.6503 3.48015C17.2767 3.32551 16.8467 3.41107 16.5608 3.69703C16.3726 3.88401 16.2667 4.1384 16.2667 4.40362C16.2667 4.66899 16.3726 4.92323 16.5608 5.11036C16.8467 5.39617 17.2767 5.48173 17.6503 5.32708C18.0239 5.17243 18.2675 4.80793 18.2675 4.40362C18.2675 3.99931 18.0239 3.6348 17.6503 3.48015ZM10.6698 1.67136C10.3017 1.67136 10.0031 1.96967 10.0031 2.33769C10.0031 2.7057 10.3017 3.00401 10.6698 3.00401C11.0379 3.00401 11.3362 2.7057 11.3362 2.33769C11.3362 1.96967 11.0379 1.67136 10.6698 1.67136ZM3.14816 4.02096C2.99348 4.39447 3.07906 4.8244 3.36508 5.11036C3.75545 5.50048 4.38821 5.50048 4.77858 5.11036C5.0646 4.8244 5.15018 4.39447 4.9955 4.02096C4.84081 3.64746 4.47623 3.4039 4.07183 3.4039C3.66743 3.4039 3.30284 3.64746 3.14816 4.02096ZM1.67212 11.0001C1.67212 11.276 1.89591 11.4999 2.17201 11.4999C2.44812 11.4999 2.67191 11.276 2.67191 11.0001C2.67191 10.724 2.44812 10.5003 2.17201 10.5003C1.89591 10.5003 1.67212 10.724 1.67212 11.0001ZM3.68909 18.5198C4.06268 18.6745 4.4927 18.5889 4.77858 18.3031C5.16894 17.9128 5.16894 17.2801 4.77858 16.8898C4.4927 16.6038 4.06268 16.5183 3.68909 16.6729C3.3155 16.8277 3.07189 17.1921 3.07189 17.5964C3.07189 18.0007 3.3155 18.3652 3.68909 18.5198ZM10.6698 20.3288C11.0379 20.3288 11.3362 20.0305 11.3362 19.6625C11.3362 19.2945 11.0379 18.9961 10.6698 18.9961C10.3017 18.9961 10.0031 19.2945 10.0031 19.6625C10.0031 20.0305 10.3017 20.3288 10.6698 20.3288ZM18.2481 17.4022C18.1552 16.9345 17.7449 16.5974 17.2679 16.5973C17.0027 16.5968 16.7484 16.7019 16.5611 16.8895C16.2235 17.2264 16.1711 17.7548 16.4359 18.1515C16.7005 18.5482 17.2087 18.7027 17.6495 18.5205C18.0902 18.3382 18.3409 17.87 18.2481 17.4022ZM4.67134 11.0001C4.67134 14.312 7.35692 16.997 10.6698 16.997C13.9809 16.9932 16.6642 14.3105 16.668 11.0001C16.668 7.68797 13.9825 5.00299 10.6698 5.00299C7.35692 5.00299 4.67134 7.68797 4.67134 11.0001ZM19.0008 11.0001C19.0008 11.3681 19.2992 11.6664 19.6673 11.6664C20.0354 11.6664 20.3337 11.3681 20.3337 11.0001C20.3337 10.6321 20.0354 10.3338 19.6673 10.3338C19.2992 10.3338 19.0008 10.6321 19.0008 11.0001Z"/>
</mask>
<path fill-rule="evenodd" clip-rule="evenodd" d="M8.36914 8.89483C8.36914 8.02283 9.07603 7.3158 9.94809 7.3158C10.8201 7.3158 11.527 8.02283 11.527 8.89483C11.527 9.76684 10.8201 10.4737 9.94809 10.4737C9.07603 10.4737 8.36914 9.76684 8.36914 8.89483ZM9.15861 8.89483C9.15861 9.33084 9.51206 9.68426 9.94809 9.68426C10.3841 9.68426 10.7376 9.33084 10.7376 8.89483C10.7376 8.45883 10.3841 8.10541 9.94809 8.10541C9.51206 8.10541 9.15861 8.45883 9.15861 8.89483Z" fill="#29294B"/>
<path d="M9.97215 15.6563C9.97215 15.4735 10.1203 15.3253 10.3031 15.3253C12.8603 15.3226 14.9327 13.2502 14.9354 10.693C14.9354 10.5102 15.0835 10.3621 15.2663 10.3621C15.449 10.3621 15.5971 10.5102 15.5971 10.693C15.5937 13.6154 13.2255 15.9836 10.3031 15.9871C10.1203 15.9871 9.97215 15.839 9.97215 15.6563Z" fill="#29294B"/>
<path fill-rule="evenodd" clip-rule="evenodd" d="M9.42167 12.5789C9.42167 11.9976 8.95031 11.5264 8.3691 11.5264C7.78776 11.5264 7.31641 11.9976 7.31641 12.5789C7.31641 13.1603 7.78776 13.6316 8.3691 13.6316C8.95031 13.6316 9.42167 13.1603 9.42167 12.5789ZM7.84269 12.5789C7.84269 12.2883 8.07843 12.0527 8.3691 12.0527C8.65977 12.0527 8.89538 12.2883 8.89538 12.5789C8.89538 12.8696 8.65977 13.1052 8.3691 13.1052C8.07843 13.1052 7.84269 12.8696 7.84269 12.5789Z" fill="#29294B"/>
<path fill-rule="evenodd" clip-rule="evenodd" d="M18.3816 10.6668C18.5331 10.0803 19.0613 9.66956 19.6673 9.66742C20.3586 9.66636 20.9355 10.1948 20.995 10.8834C21.0544 11.5722 20.5763 12.1915 19.895 12.3088C19.2136 12.4261 18.556 12.0021 18.3816 11.3332H17.3176C17.2427 12.8671 16.6372 14.3274 15.6046 15.4644L16.3504 16.2068C17.0641 15.7353 18.0188 15.8805 18.5599 16.5428C19.1009 17.2053 19.0523 18.1697 18.4475 18.7744C17.8427 19.3791 16.878 19.4278 16.2154 18.8868C15.5529 18.346 15.4076 17.3913 15.8792 16.678L15.1351 15.9338C13.9979 16.9662 12.5372 17.5715 11.0029 17.6464V18.3771C11.6529 18.5449 12.0766 19.1695 11.992 19.8353C11.9075 20.5011 11.341 21 10.6698 21C9.99841 21 9.43201 20.5011 9.34734 19.8353C9.26283 19.1695 9.68661 18.5449 10.3365 18.3771V17.6464C8.8029 17.5717 7.34303 16.967 6.20595 15.9355L5.46183 16.6795C5.93351 17.3929 5.78813 18.3477 5.12562 18.8885C4.46311 19.4294 3.49841 19.3808 2.89356 18.7761C2.28871 18.1714 2.2402 17.207 2.78113 16.5445C3.32221 15.8821 4.277 15.7368 4.99062 16.2085L5.73474 15.4644C4.70215 14.3274 4.09669 12.8671 4.02179 11.3332H3.28408C3.11857 11.888 2.57092 12.2376 1.99796 12.1538C1.42484 12.0703 1 11.579 1 11.0001C1 10.421 1.42484 9.92975 1.99796 9.84617C2.57092 9.76259 3.11857 10.112 3.28408 10.6668H4.02179C4.09715 9.13348 4.70261 7.67394 5.73474 6.53726L4.99062 5.79331C4.27792 6.26396 3.32466 6.11877 2.78449 5.45717C2.24447 4.79573 2.29298 3.83276 2.89692 3.22897C3.50085 2.62517 4.46403 2.57667 5.12562 3.11657C5.78721 3.65661 5.93259 4.60966 5.46183 5.3222L6.20595 6.06615C7.34273 5.03425 8.80275 4.42893 10.3365 4.35359V3.62306C9.68661 3.45529 9.26283 2.83045 9.34734 2.16474C9.43201 1.49902 9.99841 1 10.6698 1C11.341 1 11.9075 1.49902 11.992 2.16474C12.0766 2.83045 11.6529 3.45529 11.0029 3.62306V4.35359C12.5372 4.42848 13.9979 5.0338 15.1351 6.06615L15.8776 5.3222C15.4059 4.60875 15.5513 3.65417 16.2138 3.11321C16.8764 2.5724 17.841 2.6209 18.4458 3.22561C19.0507 3.83032 19.0992 4.79481 18.5583 5.45717C18.0172 6.11968 17.0624 6.26488 16.3488 5.79331L15.6046 6.53726C16.6369 7.67394 17.2422 9.13348 17.3176 10.6668H18.3816ZM17.6503 3.48015C17.2767 3.32551 16.8467 3.41107 16.5608 3.69703C16.3726 3.88401 16.2667 4.1384 16.2667 4.40362C16.2667 4.66899 16.3726 4.92323 16.5608 5.11036C16.8467 5.39617 17.2767 5.48173 17.6503 5.32708C18.0239 5.17243 18.2675 4.80793 18.2675 4.40362C18.2675 3.99931 18.0239 3.6348 17.6503 3.48015ZM10.6698 1.67136C10.3017 1.67136 10.0031 1.96967 10.0031 2.33769C10.0031 2.7057 10.3017 3.00401 10.6698 3.00401C11.0379 3.00401 11.3362 2.7057 11.3362 2.33769C11.3362 1.96967 11.0379 1.67136 10.6698 1.67136ZM3.14816 4.02096C2.99348 4.39447 3.07906 4.8244 3.36508 5.11036C3.75545 5.50048 4.38821 5.50048 4.77858 5.11036C5.0646 4.8244 5.15018 4.39447 4.9955 4.02096C4.84081 3.64746 4.47623 3.4039 4.07183 3.4039C3.66743 3.4039 3.30284 3.64746 3.14816 4.02096ZM1.67212 11.0001C1.67212 11.276 1.89591 11.4999 2.17201 11.4999C2.44812 11.4999 2.67191 11.276 2.67191 11.0001C2.67191 10.724 2.44812 10.5003 2.17201 10.5003C1.89591 10.5003 1.67212 10.724 1.67212 11.0001ZM3.68909 18.5198C4.06268 18.6745 4.4927 18.5889 4.77858 18.3031C5.16894 17.9128 5.16894 17.2801 4.77858 16.8898C4.4927 16.6038 4.06268 16.5183 3.68909 16.6729C3.3155 16.8277 3.07189 17.1921 3.07189 17.5964C3.07189 18.0007 3.3155 18.3652 3.68909 18.5198ZM10.6698 20.3288C11.0379 20.3288 11.3362 20.0305 11.3362 19.6625C11.3362 19.2945 11.0379 18.9961 10.6698 18.9961C10.3017 18.9961 10.0031 19.2945 10.0031 19.6625C10.0031 20.0305 10.3017 20.3288 10.6698 20.3288ZM18.2481 17.4022C18.1552 16.9345 17.7449 16.5974 17.2679 16.5973C17.0027 16.5968 16.7484 16.7019 16.5611 16.8895C16.2235 17.2264 16.1711 17.7548 16.4359 18.1515C16.7005 18.5482 17.2087 18.7027 17.6495 18.5205C18.0902 18.3382 18.3409 17.87 18.2481 17.4022ZM4.67134 11.0001C4.67134 14.312 7.35692 16.997 10.6698 16.997C13.9809 16.9932 16.6642 14.3105 16.668 11.0001C16.668 7.68797 13.9825 5.00299 10.6698 5.00299C7.35692 5.00299 4.67134 7.68797 4.67134 11.0001ZM19.0008 11.0001C19.0008 11.3681 19.2992 11.6664 19.6673 11.6664C20.0354 11.6664 20.3337 11.3681 20.3337 11.0001C20.3337 10.6321 20.0354 10.3338 19.6673 10.3338C19.2992 10.3338 19.0008 10.6321 19.0008 11.0001Z" fill="#29294B"/>
<path fill-rule="evenodd" clip-rule="evenodd" d="M8.36914 8.89483C8.36914 8.02283 9.07603 7.3158 9.94809 7.3158C10.8201 7.3158 11.527 8.02283 11.527 8.89483C11.527 9.76684 10.8201 10.4737 9.94809 10.4737C9.07603 10.4737 8.36914 9.76684 8.36914 8.89483ZM9.15861 8.89483C9.15861 9.33084 9.51206 9.68426 9.94809 9.68426C10.3841 9.68426 10.7376 9.33084 10.7376 8.89483C10.7376 8.45883 10.3841 8.10541 9.94809 8.10541C9.51206 8.10541 9.15861 8.45883 9.15861 8.89483Z" stroke="#29294B" stroke-width="0.4" mask="url(#path-1-outside-1_2005_49447)"/>
<path d="M9.97215 15.6563C9.97215 15.4735 10.1203 15.3253 10.3031 15.3253C12.8603 15.3226 14.9327 13.2502 14.9354 10.693C14.9354 10.5102 15.0835 10.3621 15.2663 10.3621C15.449 10.3621 15.5971 10.5102 15.5971 10.693C15.5937 13.6154 13.2255 15.9836 10.3031 15.9871C10.1203 15.9871 9.97215 15.839 9.97215 15.6563Z" stroke="#29294B" stroke-width="0.4" mask="url(#path-1-outside-1_2005_49447)"/>
<path fill-rule="evenodd" clip-rule="evenodd" d="M9.42167 12.5789C9.42167 11.9976 8.95031 11.5264 8.3691 11.5264C7.78776 11.5264 7.31641 11.9976 7.31641 12.5789C7.31641 13.1603 7.78776 13.6316 8.3691 13.6316C8.95031 13.6316 9.42167 13.1603 9.42167 12.5789ZM7.84269 12.5789C7.84269 12.2883 8.07843 12.0527 8.3691 12.0527C8.65977 12.0527 8.89538 12.2883 8.89538 12.5789C8.89538 12.8696 8.65977 13.1052 8.3691 13.1052C8.07843 13.1052 7.84269 12.8696 7.84269 12.5789Z" stroke="#29294B" stroke-width="0.4" mask="url(#path-1-outside-1_2005_49447)"/>
<path fill-rule="evenodd" clip-rule="evenodd" d="M18.3816 10.6668C18.5331 10.0803 19.0613 9.66956 19.6673 9.66742C20.3586 9.66636 20.9355 10.1948 20.995 10.8834C21.0544 11.5722 20.5763 12.1915 19.895 12.3088C19.2136 12.4261 18.556 12.0021 18.3816 11.3332H17.3176C17.2427 12.8671 16.6372 14.3274 15.6046 15.4644L16.3504 16.2068C17.0641 15.7353 18.0188 15.8805 18.5599 16.5428C19.1009 17.2053 19.0523 18.1697 18.4475 18.7744C17.8427 19.3791 16.878 19.4278 16.2154 18.8868C15.5529 18.346 15.4076 17.3913 15.8792 16.678L15.1351 15.9338C13.9979 16.9662 12.5372 17.5715 11.0029 17.6464V18.3771C11.6529 18.5449 12.0766 19.1695 11.992 19.8353C11.9075 20.5011 11.341 21 10.6698 21C9.99841 21 9.43201 20.5011 9.34734 19.8353C9.26283 19.1695 9.68661 18.5449 10.3365 18.3771V17.6464C8.8029 17.5717 7.34303 16.967 6.20595 15.9355L5.46183 16.6795C5.93351 17.3929 5.78813 18.3477 5.12562 18.8885C4.46311 19.4294 3.49841 19.3808 2.89356 18.7761C2.28871 18.1714 2.2402 17.207 2.78113 16.5445C3.32221 15.8821 4.277 15.7368 4.99062 16.2085L5.73474 15.4644C4.70215 14.3274 4.09669 12.8671 4.02179 11.3332H3.28408C3.11857 11.888 2.57092 12.2376 1.99796 12.1538C1.42484 12.0703 1 11.579 1 11.0001C1 10.421 1.42484 9.92975 1.99796 9.84617C2.57092 9.76259 3.11857 10.112 3.28408 10.6668H4.02179C4.09715 9.13348 4.70261 7.67394 5.73474 6.53726L4.99062 5.79331C4.27792 6.26396 3.32466 6.11877 2.78449 5.45717C2.24447 4.79573 2.29298 3.83276 2.89692 3.22897C3.50085 2.62517 4.46403 2.57667 5.12562 3.11657C5.78721 3.65661 5.93259 4.60966 5.46183 5.3222L6.20595 6.06615C7.34273 5.03425 8.80275 4.42893 10.3365 4.35359V3.62306C9.68661 3.45529 9.26283 2.83045 9.34734 2.16474C9.43201 1.49902 9.99841 1 10.6698 1C11.341 1 11.9075 1.49902 11.992 2.16474C12.0766 2.83045 11.6529 3.45529 11.0029 3.62306V4.35359C12.5372 4.42848 13.9979 5.0338 15.1351 6.06615L15.8776 5.3222C15.4059 4.60875 15.5513 3.65417 16.2138 3.11321C16.8764 2.5724 17.841 2.6209 18.4458 3.22561C19.0507 3.83032 19.0992 4.79481 18.5583 5.45717C18.0172 6.11968 17.0624 6.26488 16.3488 5.79331L15.6046 6.53726C16.6369 7.67394 17.2422 9.13348 17.3176 10.6668H18.3816ZM17.6503 3.48015C17.2767 3.32551 16.8467 3.41107 16.5608 3.69703C16.3726 3.88401 16.2667 4.1384 16.2667 4.40362C16.2667 4.66899 16.3726 4.92323 16.5608 5.11036C16.8467 5.39617 17.2767 5.48173 17.6503 5.32708C18.0239 5.17243 18.2675 4.80793 18.2675 4.40362C18.2675 3.99931 18.0239 3.6348 17.6503 3.48015ZM10.6698 1.67136C10.3017 1.67136 10.0031 1.96967 10.0031 2.33769C10.0031 2.7057 10.3017 3.00401 10.6698 3.00401C11.0379 3.00401 11.3362 2.7057 11.3362 2.33769C11.3362 1.96967 11.0379 1.67136 10.6698 1.67136ZM3.14816 4.02096C2.99348 4.39447 3.07906 4.8244 3.36508 5.11036C3.75545 5.50048 4.38821 5.50048 4.77858 5.11036C5.0646 4.8244 5.15018 4.39447 4.9955 4.02096C4.84081 3.64746 4.47623 3.4039 4.07183 3.4039C3.66743 3.4039 3.30284 3.64746 3.14816 4.02096ZM1.67212 11.0001C1.67212 11.276 1.89591 11.4999 2.17201 11.4999C2.44812 11.4999 2.67191 11.276 2.67191 11.0001C2.67191 10.724 2.44812 10.5003 2.17201 10.5003C1.89591 10.5003 1.67212 10.724 1.67212 11.0001ZM3.68909 18.5198C4.06268 18.6745 4.4927 18.5889 4.77858 18.3031C5.16894 17.9128 5.16894 17.2801 4.77858 16.8898C4.4927 16.6038 4.06268 16.5183 3.68909 16.6729C3.3155 16.8277 3.07189 17.1921 3.07189 17.5964C3.07189 18.0007 3.3155 18.3652 3.68909 18.5198ZM10.6698 20.3288C11.0379 20.3288 11.3362 20.0305 11.3362 19.6625C11.3362 19.2945 11.0379 18.9961 10.6698 18.9961C10.3017 18.9961 10.0031 19.2945 10.0031 19.6625C10.0031 20.0305 10.3017 20.3288 10.6698 20.3288ZM18.2481 17.4022C18.1552 16.9345 17.7449 16.5974 17.2679 16.5973C17.0027 16.5968 16.7484 16.7019 16.5611 16.8895C16.2235 17.2264 16.1711 17.7548 16.4359 18.1515C16.7005 18.5482 17.2087 18.7027 17.6495 18.5205C18.0902 18.3382 18.3409 17.87 18.2481 17.4022ZM4.67134 11.0001C4.67134 14.312 7.35692 16.997 10.6698 16.997C13.9809 16.9932 16.6642 14.3105 16.668 11.0001C16.668 7.68797 13.9825 5.00299 10.6698 5.00299C7.35692 5.00299 4.67134 7.68797 4.67134 11.0001ZM19.0008 11.0001C19.0008 11.3681 19.2992 11.6664 19.6673 11.6664C20.0354 11.6664 20.3337 11.3681 20.3337 11.0001C20.3337 10.6321 20.0354 10.3338 19.6673 10.3338C19.2992 10.3338 19.0008 10.6321 19.0008 11.0001Z" stroke="#29294B" stroke-width="0.4" mask="url(#path-1-outside-1_2005_49447)"/>
</svg>
