<svg width="27" height="19" viewBox="0 0 27 19" fill="none" xmlns="http://www.w3.org/2000/svg">
<path d="M25.6963 2.71677C24.9875 1.45604 24.2184 1.22415 22.6523 1.13596C21.0878 1.02981 17.1537 0.985718 13.7455 0.985718C10.3308 0.985718 6.39509 1.02981 4.83225 1.13433C3.26941 1.22415 2.4986 1.45441 1.78332 2.71677C1.05334 3.97586 0.677734 6.14457 0.677734 9.96267C0.677734 9.96594 0.677734 9.96757 0.677734 9.96757C0.677734 9.97084 0.677734 9.97247 0.677734 9.97247V9.97574C0.677734 13.7775 1.05334 15.9626 1.78332 17.2086C2.4986 18.4693 3.26777 18.6979 4.83062 18.8041C6.39509 18.8955 10.3308 18.9494 13.7455 18.9494C17.1537 18.9494 21.0878 18.8955 22.6539 18.8057C24.22 18.6996 24.9892 18.4709 25.6979 17.2102C26.4344 15.9642 26.8068 13.7791 26.8068 9.97737C26.8068 9.97737 26.8068 9.97247 26.8068 9.96921C26.8068 9.96921 26.8068 9.96594 26.8068 9.96431C26.8068 6.14457 26.4344 3.97586 25.6963 2.71677ZM10.4761 14.8668V5.06838L18.6414 9.96757L10.4761 14.8668Z" fill="#31B0ED"/>
</svg>
