<svg width="18" height="19" viewBox="0 0 18 19" fill="none" xmlns="http://www.w3.org/2000/svg">
<path d="M15.3778 3.11602C13.6858 1.43035 11.4357 0.501023 9.03855 0.5C4.09731 0.5 0.0770945 4.5008 0.0760666 9.41863C0.0740108 10.9835 0.486209 12.5218 1.27154 13.8779L0 18.5L4.75107 17.2595C6.06579 17.9719 7.53778 18.3455 9.03444 18.3455H9.03855C13.9777 18.3455 17.9979 14.3436 18 9.4258C18.001 7.04313 17.0697 4.80272 15.3778 3.11602Z" fill="#31B0ED"/>
<path d="M8.44721 10.053C7.88166 9.48748 7.45532 8.8543 7.17207 8.21193C7.11213 8.07611 7.14741 7.91709 7.25231 7.81221L7.64819 7.41683C7.97253 7.0925 7.97253 6.63381 7.68928 6.35057L7.12179 5.78312C6.74428 5.40563 6.13232 5.40563 5.75481 5.78312L5.43965 6.09826C5.08147 6.45642 4.9321 6.97312 5.02878 7.48546C5.26757 8.74845 6.00133 10.1313 7.18512 11.315C8.3689 12.4987 9.75184 13.2324 11.0149 13.4712C11.5273 13.5679 12.044 13.4185 12.4022 13.0604L12.7169 12.7457C13.0944 12.3682 13.0944 11.7563 12.7169 11.3788L12.1499 10.8119C11.8666 10.5286 11.4074 10.5286 11.1246 10.8119L10.6881 11.2488C10.5832 11.3537 10.4242 11.389 10.2884 11.329C9.64598 11.0453 9.01276 10.6185 8.44721 10.053Z" fill="#EBF8FF"/>
</svg>
