<svg width="63" height="56" viewBox="0 0 63 56" fill="none" xmlns="http://www.w3.org/2000/svg">
<path d="M37.9864 27.509C44.8979 27.9942 56.4207 15.9998 62.4207 7.99975C64.9207 -0.500144 47.9207 -0.500177 33.9332 0.63925C19.6226 7.41249 32.0213 17.8247 32.0213 17.8247L37.9864 27.509Z" fill="#6F2721"/>
<path d="M13.1355 52.9645C12.982 52.6811 12.8115 52.4173 12.6666 52.1339C12.6581 52.0949 12.5729 51.8799 12.5644 51.831C12.5217 51.6552 12.4962 51.4793 12.4706 51.3034C12.3598 50.4435 11.4648 49.9452 10.7914 50.0429C10.0157 50.1602 9.50426 50.8832 9.46164 51.7626C9.39345 53.0427 9.71736 54.352 10.4504 55.3291C11.0045 56.0717 12.0614 56.0326 12.6922 55.4854C13.3486 54.8992 13.5702 53.8048 13.1355 52.9645Z" fill="#972825"/>
<path d="M32.0376 0.210449C41.0941 0.210449 41.0163 23.558 37.6213 27.4887C34.2263 31.4194 22.6499 31.1459 21.9203 39.4998C18.9977 47.4874 13.9493 50.3316 10.4204 53.4998C3.38723 55.7163 -3.1575 30.4342 2.66943 17.4108C8.49636 4.38741 24.9947 0.210449 32.0376 0.210449Z" fill="#6F2721"/>
<path d="M9.45753 34.5189C7.96105 28.9265 8.74265 23.7888 8.73312 18.1287C8.73312 16.8226 6.93163 16.3001 6.29301 17.4611C3.70991 22.115 2.07999 27.7558 2.77581 33.1256C3.28099 37.0151 3.87195 44.1169 7.89433 45.8972C8.88563 46.3422 9.82927 46.139 10.4679 45.2102C12.6983 41.9689 10.3726 37.9246 9.45753 34.5189Z" fill="#972825"/>
</svg>
