<svg width="124" height="135" viewBox="0 0 124 135" fill="none" xmlns="http://www.w3.org/2000/svg">
<path d="M53.0839 2.72537L48.8138 1.77475L48.9351 1.2454C51.2188 0.497108 53.2464 1.35626 55.1996 2.65331L55.4613 2.37616L54.3594 0.316963C55.2409 -0.273359 55.2795 -0.23733 56.7671 2.17662C57.8691 1.91887 58.3402 0.183933 60.0372 0.760397L59.2879 2.0907C60.084 1.81355 60.7948 1.55026 61.5138 1.30915C63.2567 0.698118 65.1539 0.698118 66.8968 1.30915C69.3211 2.14059 71.8776 2.60619 74.222 3.59838C80.9522 6.44744 85.7925 11.4582 89.3738 17.7495C92.7871 23.7497 94.856 30.2155 96.0571 36.9834C97.159 43.2359 97.3987 49.5299 97.3739 55.8571C97.3491 61.5358 97.1811 67.2201 97.4318 72.8961C97.6742 78.306 97.6191 83.7713 99.1315 89.0731C100.448 93.6793 103.3 96.8748 107.322 99.3635C109.92 100.971 112.721 101.237 115.54 101.73C119.504 102.423 123.151 105.971 123.912 109.928C123.967 110.206 123.749 110.555 123.655 110.868C123.38 110.654 123.005 110.497 122.829 110.219C121.925 108.859 121.093 107.448 120.179 106.095C119.877 105.729 119.445 105.495 118.975 105.444C119.545 106.755 120.336 108.022 120.628 109.393C120.972 111.04 120.917 112.775 120.964 114.474C120.964 114.751 120.62 115.042 120.435 115.327C120.226 115.017 119.912 114.734 119.832 114.396C119.647 113.609 119.578 112.797 119.46 111.996L119.058 111.96C118.916 112.35 118.801 112.749 118.713 113.154C118.099 117.217 115.931 120.454 113.165 123.281C112.135 124.332 110.666 124.964 109.349 125.698C109.038 125.87 108.523 125.681 108.11 125.659C108.217 125.255 108.209 124.758 108.449 124.465C109.873 122.713 111.052 119.886 111.002 117.916C109.625 119.942 108.424 121.89 107.046 123.703C105.162 126.183 103.17 128.586 101.159 130.964C100.884 131.285 100.225 131.277 99.7459 131.421C99.8643 130.944 99.8946 130.421 100.121 130.002C100.721 128.893 101.404 127.824 101.818 126.518C101.181 126.998 100.561 127.497 99.9084 127.948C97.5392 129.584 95.1673 131.219 92.7705 132.812C92.4455 133.026 91.9579 132.995 91.5446 133.076C91.7182 132.663 91.8036 132.178 92.0763 131.848C93.8863 129.653 95.9083 127.613 97.531 125.291C99.5007 122.464 98.3767 120.058 94.9744 119.471C93.4951 119.213 91.9634 119.235 90.4565 119.132C86.4288 118.855 83.8888 116.267 83.6547 112.204C83.6189 111.613 83.5941 111.023 83.5472 110.084C82.1064 111.935 82.2387 113.817 82.145 115.651C82.0894 116.6 82.2212 117.55 82.5328 118.446C82.8444 119.343 83.3297 120.169 83.9605 120.876C85.1561 122.261 86.4619 123.57 87.8972 125.102C85.7566 125.526 84.404 124.434 83.2139 123.306C82.0238 122.178 81.0403 120.762 79.7896 119.257C79.5968 120.465 79.2221 121.582 79.302 122.663C79.3874 123.8 80.2827 124.326 81.4563 124.637C83.3847 125.127 85.3489 125.687 87.112 126.577C89.1672 127.624 89.5914 132.366 87.9385 133.96C87.7913 134.081 87.6169 134.163 87.4307 134.201C87.2444 134.239 87.0518 134.23 86.8696 134.176C86.6189 134.037 86.5335 133.514 86.4757 133.142C86.4481 132.951 86.6547 132.729 86.7319 132.513C87.4344 130.559 86.6189 128.844 84.6437 128.278C83.01 127.81 81.5059 127.771 79.9797 128.927C77.0623 131.122 71.9548 129.453 70.4203 125.947C69.0594 122.838 69.0952 119.628 70.1668 116.494C71.39 112.924 72.8501 109.435 74.1917 105.904C74.4168 105.398 74.5654 104.861 74.6325 104.311C74.8694 100.339 76.5967 96.9496 78.7152 93.7264C82.2552 88.347 84.2084 82.3911 85.0156 76.0444C85.7071 70.6041 86.393 65.1554 86.7897 59.6928C86.9412 57.5449 86.2966 55.3278 85.9247 53.1577C85.2194 49.0005 84.3379 44.8682 82.2938 41.1739C79.7565 36.5927 77.5719 31.7509 74.1201 27.7572C70.5167 23.6 65.9657 22.2143 61.1143 26.2579C60.8388 26.499 60.3402 26.499 59.9435 26.6126C60.0179 26.1747 60.0675 25.7313 60.1749 25.3017C60.2228 25.1791 60.3027 25.0718 60.4063 24.9913L58.3595 23.5058L58.1639 23.7303C58.2606 23.9668 58.3935 24.1865 58.5578 24.3816C59.7562 25.4098 58.7589 26.1803 58.23 26.9313C57.6349 27.7628 57.0206 27.1392 56.4586 26.7789C51.9957 23.9243 46.6816 25.4264 44.1471 30.1047C42.4033 33.3279 41.5603 36.7562 41.2242 40.3591C40.5217 47.842 38.5933 54.9425 34.8466 61.4776C31.8163 66.7434 31.8934 72.1977 33.8742 77.735C35.2186 81.4987 36.5657 85.2734 38.1911 88.9151C39.1801 91.1323 40.5795 93.186 42.0203 95.1454C43.6733 97.3847 44.3509 99.9095 44.8 102.559C45.9019 108.986 45.4143 115.327 43.698 121.591C43.0975 123.794 42.4721 125.997 41.7256 128.156C41.0727 130.035 39.6153 131.205 37.8908 132.128C34.494 133.96 30.7805 134.567 27.0449 134.952C22.9676 135.373 19.9125 132.998 18.8684 128.905C18.1466 126.075 17.5295 125.681 14.7912 126.613C11.6203 127.691 8.60927 127.572 5.97561 125.385C5.14915 124.7 4.70286 123.542 4.11607 122.58C3.92874 122.275 3.92048 121.854 3.71662 121.569C0.135286 116.538 0.2565 111.173 2.59814 105.799C3.67254 103.338 5.35301 101.14 6.81034 98.8564C7.46969 97.7457 8.23156 96.6999 9.08586 95.7329C11.3696 93.3162 11.7416 90.2648 12.0611 87.194C12.546 82.5685 12.7002 77.8902 13.4992 73.3367C14.2981 68.7832 15.7113 64.3045 16.8408 59.787C16.9676 59.2501 17.0369 58.7009 17.0474 58.1491C17.3229 50.7521 18.1494 43.416 20.0778 36.2684C21.1797 32.2276 22.626 28.281 24.0393 24.3511C24.5462 23.0633 25.2146 21.846 26.0283 20.7288C29.6096 15.5295 33.0505 10.2166 38.4004 6.59433C42.0975 4.10001 46.0369 2.37893 50.6238 2.78357C51.4227 2.85285 52.2133 3.00251 53.0095 3.11614C53.0315 2.9748 53.0591 2.85008 53.0839 2.72537ZM10.8324 97.8143L10.32 97.515L4.66705 106.633L5.10507 106.91L10.8324 97.8143Z" fill="#55ACEE"/>
</svg>
