<svg width="13" height="11" viewBox="0 0 13 11" fill="none" xmlns="http://www.w3.org/2000/svg">
<path fill-rule="evenodd" clip-rule="evenodd" d="M11.4995 3.07384C11.6017 4.24137 11.5302 5.86118 10.2629 5.86118C8.99556 5.86118 7.73847 4.67262 7.75891 2.57947C7.78957 0.496851 8.59697 -0.0501025 9.46569 0.0340439C10.3344 0.11819 12.2558 -0.775862 11.4893 3.07384H11.4995Z" fill="#EC9DEB"/>
<path fill-rule="evenodd" clip-rule="evenodd" d="M9.43338 6.36971C9.43338 6.36971 10.3366 5.34309 11.7577 6.20761C13.1908 7.07212 12.5043 9.98987 12.2876 10.0223C12.0708 10.0547 10.7702 10.9733 10.4209 10.6923C10.0837 10.4113 7.5306 7.60164 9.43338 6.38052V6.36971Z" fill="#EC9DEB"/>
<path fill-rule="evenodd" clip-rule="evenodd" d="M2.06394 3.07384C1.96174 4.24137 2.03327 5.86118 3.30058 5.86118C4.56789 5.86118 5.82499 4.67262 5.80455 2.57947C5.77389 0.496851 4.96648 -0.0501025 4.09776 0.0340439C3.22904 0.11819 1.30764 -0.775862 2.07416 3.07384H2.06394Z" fill="#EC9DEB"/>
<path fill-rule="evenodd" clip-rule="evenodd" d="M3.32726 6.36971C3.32726 6.36971 2.64985 5.34309 1.58405 6.20761C0.509214 7.07212 1.02405 9.98987 1.18663 10.0223C1.34921 10.0547 2.32469 10.9733 2.58663 10.6923C2.83953 10.4113 4.75435 7.60164 3.32726 6.38052V6.36971Z" fill="#EC9DEB"/>
</svg>
