<svg width="35" height="35" viewBox="0 0 35 35" fill="none" xmlns="http://www.w3.org/2000/svg">
<path fill-rule="evenodd" clip-rule="evenodd" d="M16.9054 0.0937633C18.1653 0.100559 19.1979 2.72081 19.1979 5.96066C19.1979 8.80044 18.4091 11.1669 17.354 11.7092V15.004C17.5835 15.0174 17.8039 15.0645 18.0105 15.1404L19.1758 12.3834C18.4448 11.4535 18.6501 8.99246 19.7442 6.40399C21.0017 3.42883 22.9678 1.40449 24.14 1.89257C25.2978 2.38936 25.2289 5.20491 23.9675 8.18911C23.6595 8.91771 23.3095 9.58865 22.9391 10.1795C23.4408 9.63476 24.0395 9.08696 24.7149 8.56928C27.2784 6.60419 29.9881 5.81589 30.7659 6.81952C31.5269 7.8236 30.0756 10.2372 27.5043 12.2082C27.0046 12.5913 26.4997 12.9294 26.0049 13.2182C26.7281 12.8887 27.562 12.6001 28.4651 12.3814C31.6044 11.6208 34.4014 11.9957 34.7068 13.2282C34.9836 14.3989 32.8958 15.9293 29.9653 16.7292C32.5531 17.3485 34.3884 18.5614 34.2255 19.6561C34.0266 20.9001 31.2797 21.5215 28.0778 21.0279C25.2712 20.5953 23.0525 19.4552 22.6772 18.3298L19.4526 17.8327C19.3989 18.0575 19.3123 18.2695 19.198 18.4632L21.7334 20.0276C22.7638 19.4468 25.1648 20.0246 27.5564 21.5003C30.3052 23.1963 32.0064 25.4478 31.3456 26.532C30.6783 27.6007 27.906 27.1037 25.1487 25.4023C24.476 24.9873 23.8666 24.5394 23.3394 24.0837C23.801 24.6623 24.2508 25.337 24.6593 26.0828C26.2109 28.9158 26.5772 31.7139 25.4669 32.3298C24.3586 32.929 22.1942 31.1269 20.6379 28.2854C20.4386 27.9215 20.259 27.5584 20.0995 27.2006C20.1983 27.7021 20.2734 28.2338 20.3204 28.786C20.5937 32.0043 19.7973 34.7115 18.5328 34.8259C17.2768 34.9259 16.026 32.4024 15.7517 29.1741C15.7226 28.8309 15.7056 28.4937 15.7 28.1649C14.8445 31.0277 13.3018 33.0546 12.1388 32.7574C10.9214 32.4323 10.5853 29.6359 11.4051 26.5013C11.7052 25.354 12.1174 24.3214 12.5802 23.4889C12.0206 24.2461 11.2655 25.0392 10.3645 25.7806C7.87024 27.8329 5.18941 28.7141 4.37742 27.738C3.58216 26.7608 4.9494 24.2985 7.45121 22.24C9.64409 20.4357 11.9727 19.5412 13.0618 20.0113L14.4314 18.8845L11.7081 19.1124C11.2245 20.1919 8.95012 21.1541 6.14972 21.3885C2.93098 21.658 0.224751 20.8581 0.112031 19.5934C0.0160448 18.3675 2.41888 17.1496 5.53583 16.8406C2.43945 16.1207 0.154468 14.5679 0.423149 13.3419C0.706089 12.1142 3.48904 11.6814 6.65002 12.392C7.42088 12.5652 8.14261 12.7901 8.78928 13.0491C8.16476 12.6525 7.52001 12.1612 6.89124 11.5894C4.50164 9.41623 3.24404 6.88999 4.09326 5.94607C4.94596 5.01854 7.57924 6.0175 9.97613 8.19732C10.4436 8.6224 10.8674 9.06062 11.2404 9.49769C10.7863 8.84355 10.3528 8.07236 9.97591 7.22042C8.66927 4.26648 8.54074 1.44743 9.69917 0.927594C10.8541 0.424177 12.8585 2.40272 14.1691 5.36563C14.3409 5.75405 14.4923 6.13993 14.623 6.51842C14.6163 6.33484 14.6128 6.14879 14.6128 5.96066C14.6128 2.73065 15.6357 0.100572 16.9054 0.0937633ZM16.9054 0.0937633L16.9004 0.09375H16.9103L16.9054 0.0937633ZM4.09326 5.94607L4.08995 5.94969L4.09657 5.94241L4.09326 5.94607ZM17.9206 19.4855C17.8562 19.5061 17.7906 19.524 17.7239 19.539L18.0375 23.2304C18.4917 23.4332 18.9257 23.9529 19.2937 24.6954C19.1085 23.6751 19.1677 22.8394 19.4937 22.3577L17.9206 19.4855ZM16.7851 19.5542C16.5615 19.5116 16.3493 19.4366 16.1537 19.3342L15.5448 21.6624C16.0287 22.1227 16.2872 23.1089 16.2927 24.3698C16.5129 23.8618 16.787 23.4876 17.1024 23.29L16.7851 19.5542ZM14.9993 17.8969C14.9478 17.7058 14.9203 17.5048 14.9203 17.2975C14.9203 17.232 14.9231 17.1671 14.9284 17.103L11.6295 16.3614C11.3004 16.7323 10.6771 16.9891 9.86216 17.1169C10.7327 17.3634 11.3695 17.7289 11.6496 18.1773L14.9993 17.8969ZM15.5291 15.7397C15.7718 15.4766 16.0753 15.2704 16.4173 15.1433V15.11L15.599 15.4719L13.9436 11.7297C13.3494 11.6771 12.6344 11.1843 11.9258 10.3789C12.7745 11.5878 13.1819 12.711 12.9884 13.4292L15.5291 15.7397ZM19.3522 16.4457L23.3221 15.4839C23.4792 14.9095 24.0896 14.2947 25.0056 13.7413C23.6672 14.3596 22.4916 14.5598 21.8202 14.2421L19.2453 16.2159C19.285 16.2901 19.3207 16.3668 19.3522 16.4457ZM12.3436 14.1089L14.4657 16.0388L11.8542 15.4518C11.7217 14.9406 11.225 14.4017 10.4702 13.906C11.2264 14.1866 11.8816 14.2662 12.3436 14.1089ZM15.2299 9.96619C15.1982 10.5731 15.0586 11.0589 14.8082 11.3688L16.4173 15.0063V11.6895C15.9527 11.4329 15.5418 10.819 15.2299 9.96619ZM23.9147 16.7169C23.7569 16.6231 23.6254 16.517 23.5235 16.399L20.7145 17.0795L22.8394 17.407C23.0562 17.1263 23.4269 16.8936 23.9147 16.7169ZM13.6418 20.7472L15.1379 19.5162L14.6436 21.4063C14.1687 21.512 13.6596 21.9258 13.1745 22.5666C13.5589 21.8607 13.7308 21.2259 13.6418 20.7472ZM18.9885 15.2324L21.2659 13.4867C21.1933 13.0036 21.3884 12.3725 21.7997 11.6775C21.1772 12.3331 20.558 12.7267 20.031 12.7662L18.9885 15.2324ZM20.3247 21.925L18.9466 19.4088L21.2248 20.8145C21.1836 21.3411 21.4779 22.0127 22.0305 22.7275C21.4067 22.2156 20.813 21.9268 20.3247 21.925Z" fill="#EF9CC3"/>
</svg>
