<svg width="30" height="9" viewBox="0 0 30 9" fill="none" xmlns="http://www.w3.org/2000/svg">
<path fill-rule="evenodd" clip-rule="evenodd" d="M16.5502 8.23573C16.5502 8.23573 16.5502 1.74628 18.0712 0.712246C19.5922 -0.321787 20.6126 -0.232647 22.8459 0.997496C25.0793 2.21873 25.9938 3.06556 27.1105 3.16362C28.2272 3.26167 29.9599 4.57204 28.9395 5.14254C27.9191 5.70413 24.261 5.04449 22.8459 5.98938C21.4212 6.93427 18.2733 10.0364 16.5502 8.24464V8.23573Z" fill="#D0FFD0"/>
<path fill-rule="evenodd" clip-rule="evenodd" d="M14.5964 8.23573C14.5964 8.23573 14.5964 1.74628 12.9584 0.712246C11.3204 -0.321787 10.2215 -0.232647 7.81633 0.997496C5.41118 2.21873 4.42632 3.06556 3.22374 3.16362C2.02117 3.26167 0.155093 4.57204 1.254 5.14254C2.3529 5.70413 6.29238 5.04449 7.81633 5.98938C9.35065 6.93427 12.7407 10.0364 14.5964 8.24464V8.23573Z" fill="#D0FFD0"/>
</svg>
