<svg width="44" height="18" viewBox="0 0 44 18" fill="none" xmlns="http://www.w3.org/2000/svg">
<path d="M43.3743 7.30753L43.3743 7.30767C43.5109 7.86146 43.4951 8.33654 43.3614 8.76886C43.2273 9.20289 42.9713 9.60354 42.6131 10.0029C42.0648 10.6142 41.2971 11.2027 40.3974 11.8925C40.1102 12.1127 39.8095 12.3432 39.4982 12.588L39.4979 12.5883C39.303 12.7424 39.116 12.9652 38.9319 13.218C38.7641 13.4484 38.5928 13.712 38.4163 13.9838C38.3983 14.0114 38.3804 14.0391 38.3623 14.0668C37.9674 14.6741 37.5425 15.3128 37.0372 15.7796C36.5354 16.2431 35.9689 16.5237 35.2863 16.4428C34.5957 16.3609 33.7523 15.9056 32.7104 14.8134C32.2468 14.3274 32.0413 13.8404 31.98 13.3511C31.9182 12.8569 32.0023 12.3509 32.1354 11.8252C32.189 11.6139 32.2496 11.4024 32.311 11.1878C32.326 11.1355 32.3411 11.083 32.3561 11.0303C32.4322 10.7628 32.5069 10.4912 32.5652 10.2181C32.6819 9.67208 32.7357 9.11056 32.6031 8.54448C32.5008 8.10792 32.3119 7.54202 32.1031 6.91613C32.0517 6.76201 31.9991 6.60425 31.9462 6.44388C31.6769 5.62671 31.3986 4.73331 31.2298 3.87472C31.0605 3.01359 31.0047 2.20355 31.1677 1.54796C31.3254 0.913265 31.6871 0.423625 32.3664 0.164096L32.4248 0.191702C32.5022 0.228422 32.6158 0.282628 32.7608 0.352467C33.0506 0.492148 33.4655 0.694344 33.9651 0.944244C34.9646 1.44413 36.3026 2.1345 37.6579 2.89695C39.0141 3.65984 40.3838 4.49284 41.4485 5.2779C41.9811 5.67057 42.4336 6.0486 42.7693 6.39745C43.1085 6.7501 43.3129 7.05741 43.3743 7.30753Z" fill="#B484E4" stroke="#31B0ED" stroke-width="0.3"/>
<path d="M1.17245 8.31026L1.17249 8.31011C1.23814 8.06189 1.45748 7.75486 1.8237 7.40139C2.18551 7.05218 2.67334 6.67383 3.24716 6.28094C4.39435 5.49548 5.87003 4.66218 7.33071 3.89917C8.79057 3.13657 10.2318 2.44608 11.3083 1.94613C11.8464 1.69619 12.2933 1.49397 12.6055 1.35426C12.7616 1.2844 12.884 1.23018 12.9674 1.19345L13.0381 1.16238C13.7816 1.42339 14.1723 1.91716 14.3418 2.55056C14.5167 3.20389 14.4571 4.01194 14.2748 4.87258C14.0932 5.73054 13.7937 6.62349 13.5036 7.44066C13.4467 7.60091 13.3901 7.75859 13.3347 7.91267C13.1098 8.53859 12.9063 9.10499 12.796 9.542C12.6526 10.1103 12.7109 10.6737 12.8367 11.2204C12.8996 11.4938 12.9801 11.7657 13.0621 12.0332C13.0783 12.0859 13.0945 12.1385 13.1106 12.1908C13.1768 12.4053 13.242 12.6167 13.2996 12.8278C13.4429 13.3533 13.533 13.8577 13.4667 14.3497C13.4012 14.8364 13.1809 15.3227 12.6809 15.8094C11.5591 16.9013 10.6479 17.36 9.89715 17.4427C9.15301 17.5246 8.53787 17.2398 7.99697 16.7759C7.45216 16.3086 6.99446 15.6696 6.56933 15.0626C6.54992 15.0348 6.53056 15.0072 6.51126 14.9796C6.32114 14.7078 6.13669 14.4441 5.95599 14.2138C5.75753 13.9608 5.55647 13.7385 5.3475 13.585L5.34718 13.5848C5.01226 13.3402 4.68865 13.1098 4.37944 12.8897C3.41031 12.1998 2.58267 11.6106 1.99175 10.9989C1.60547 10.599 1.33028 10.1985 1.18621 9.76578C1.0429 9.33533 1.0258 8.86238 1.17245 8.31026Z" fill="#B484E4" stroke="#31B0ED" stroke-width="0.3"/>
</svg>
