<svg width="94" height="53" viewBox="0 0 94 53" fill="none" xmlns="http://www.w3.org/2000/svg">
<path fill-rule="evenodd" clip-rule="evenodd" d="M27.1733 5.96914C29.0912 6.8473 29.7271 7.26115 31.11 8.45222C32.2001 9.39096 33.3003 10.8142 32.7956 13.1661C32.8158 13.1964 32.8259 13.2367 32.836 13.267L33.0783 14.4884C33.1792 14.983 33.3306 15.3766 33.4114 15.841C33.5527 16.063 33.6839 16.5172 33.7949 16.7797C34.4006 18.2938 34.7337 17.5973 34.7639 20.151C34.8144 25.1273 34.552 24.2391 36.6515 26.8433C37.1865 27.5095 39.5686 31.4865 39.6393 32.3445C39.7907 34.1412 39.3264 35.8874 39.5989 37.9163C39.9926 40.8334 42.2233 44.6489 41.5874 47.2027C41.1029 49.1609 41.2341 50.4832 41.3048 52.5524H43.1721L43.2125 51.9468C45.4635 51.4118 48.2897 51.3512 50.6517 51.8156L50.7224 51.7752C50.036 51.109 48.1081 51.4017 47.0684 51.4118C46.3921 51.4118 45.7057 51.3614 45.0395 51.3916C44.3531 51.4219 43.8888 51.6238 43.2327 51.7146C43.2428 50.7658 43.2024 50.574 43.1015 49.7968C45.1203 48.8681 49.2487 49.393 51.3078 49.7665L51.3684 49.5747C49.7735 49.494 50.47 49.1912 47.1794 49.1912C45.3221 49.1912 44.6055 49.393 42.9703 49.5949C42.829 48.6562 42.8088 48.2423 42.8895 47.2632C44.7064 46.3447 44.7771 46.5567 47.0684 46.5567C49.5414 46.5567 49.4606 46.3548 51.4895 47.2632L51.439 46.9806C50.6214 46.91 50.47 46.5062 49.5919 46.4456H44.7973C44.0099 46.486 43.5961 46.809 42.9905 47.0311C42.9804 46.4557 43.1015 45.9712 43.0712 45.3656C43.0409 44.8205 42.829 44.2452 42.8491 43.8616C44.3733 43.579 48.7238 43.3771 50.2581 43.6597L50.6315 43.6193C50.1975 43.3064 45.7461 43.4074 44.6862 43.4376C43.9897 43.4578 43.4144 43.6193 42.7785 43.6597C42.6271 43.4881 41.6883 41.6308 41.5773 41.3785L41.8801 41.3482C41.6883 41.1665 42.1527 41.2372 41.5874 41.1766L41.6984 40.9343C41.7792 39.6221 41.6379 39.9855 41.3351 39.0266C43.6163 38.6935 44.9487 38.855 47.1996 38.8651C48.7743 38.8651 50.7325 38.6128 52.4081 38.9257C53.2963 39.0872 52.8926 38.8449 52.9329 39.3799C53.2257 39.0771 53.1752 39.7635 53.1752 39.0266C53.4376 39.0266 53.1954 39.067 53.2156 38.7843C52.3576 38.9358 51.2574 38.6128 50.3085 38.6128C47.7043 38.6128 47.2501 38.7541 44.1916 38.6128C43.1621 38.5623 42.2132 38.7945 41.1937 38.8348C41.1937 37.9869 41.5268 37.2905 41.2139 36.6344C40.8203 35.8067 40.6386 35.9076 40.8102 34.7872C41.6076 34.8982 42.7583 36.2407 43.2327 36.7555C44.1815 37.7851 44.555 37.9163 46.4224 38.0677C46.271 37.0381 46.2912 35.9581 46.1297 34.9386C45.524 30.9414 45.7966 33.0308 46.0792 30.5074C46.6344 25.5311 44.4541 27.1865 43.4043 21.8468C43.0308 19.9492 43.0712 18.1424 42.2536 16.5576C41.8397 15.7602 41.4057 15.1445 40.9313 14.5388C39.9522 13.2973 39.9118 13.4689 39.3869 12.8532C37.2268 10.3398 29.5858 5.58555 27.5165 5.22217C27.2945 5.43414 27.2541 5.59565 27.1834 5.95903L27.1733 5.96914Z" fill="#EC8888"/>
<path fill-rule="evenodd" clip-rule="evenodd" d="M47.886 38.068C49.5313 37.9973 50.2884 37.6844 51.0757 36.8466C51.4694 36.4328 51.7217 36.1501 52.1356 35.7565C52.5797 35.3325 52.7816 34.8178 53.478 34.8581C53.7506 36.0593 53.3367 35.9988 53.0238 36.776C52.8623 37.1797 53.0743 38.3607 53.1853 38.8049C53.1651 39.0774 53.4074 39.0471 53.1449 39.0471C53.1449 39.784 53.1853 39.0976 52.9027 39.4004C52.4888 39.7234 52.5191 40.541 52.7008 41.076L52.7311 41.4091C52.5595 41.8128 52.3172 42.1762 52.1154 42.5497C51.8933 42.9635 51.7823 43.2764 51.6006 43.6802L50.6013 43.6297L50.2278 43.6701C50.6719 43.7509 51.1262 43.7408 51.4895 43.9426C51.3079 45.0025 51.0353 45.7999 51.4189 46.9809L51.4694 47.2635C51.4593 47.3039 51.3482 49.3832 51.3482 49.575L51.2877 49.7668C50.9243 50.4734 51.0353 50.7863 51.0656 51.5938L50.7022 51.7755L50.6316 51.8159L51.106 52.0379L51.1161 52.5527H52.9733C53.0541 50.3725 53.155 49.1713 52.6806 47.1525C52.0851 44.6391 54.2855 40.7227 54.6691 37.9368C54.9417 35.9584 54.5379 34.303 54.6287 32.4558C54.6893 31.295 55.9914 29.5488 56.5567 28.5797C58.0001 26.1269 58.3433 26.2077 58.9489 25.2387C59.7262 23.987 59.4839 21.6452 59.5142 20.0201C59.5546 17.8297 60.2006 17.5471 60.8567 15.7403L61.4219 13.56C61.3109 12.803 61.3715 11.1173 61.6036 10.441C61.9165 9.53258 62.5121 9.10865 63.0571 8.5333C64.6419 6.84762 66.267 6.53469 67.0745 5.92906L66.7313 5.2124C65.086 5.51522 59.9079 8.83609 58.414 9.86567C56.2942 11.3394 53.1752 14.1354 51.9942 16.5983C50.6518 19.4044 51.5804 23.0988 48.8348 26.4802C47.6135 27.9842 48.2999 30.1241 48.4816 31.9713C48.5926 33.0412 48.3201 33.8589 48.1485 34.8884C47.987 35.918 48.0576 37.0384 47.8658 38.0478L47.886 38.068Z" fill="#EC8888"/>
<path fill-rule="evenodd" clip-rule="evenodd" d="M28.0308 4.67735C27.4757 4.74801 27.7482 4.43508 27.6573 5.01043C29.4642 5.15175 35.8738 9.25997 37.731 10.7942C39.3259 12.1064 38.6496 11.5513 39.7801 12.6818C40.0425 12.9442 40.2242 13.0149 40.4766 13.2975C44.504 17.9104 42.5357 19.2024 44.8775 24.6935C45.463 26.0663 46.1292 26.7426 46.3008 27.2069C46.4522 27.6208 46.4017 27.9337 46.6036 28.2466C46.6742 27.8125 46.644 27.9942 46.5531 27.5198C46.6238 27.6107 46.6339 27.5804 46.7146 27.7621C46.8458 28.0447 46.755 27.7722 46.8155 28.0447C46.866 28.2769 46.8458 28.4989 46.8357 28.7311C46.8256 29.2358 46.8256 29.7808 46.8458 30.2855C47.4414 30.6085 47.1486 29.9121 47.3505 30.7498C47.3606 30.3461 47.3808 30.0029 47.3101 29.6092C47.2395 29.1954 47.078 28.8825 47.3909 28.4585L47.4717 28.8522C47.4817 28.9733 47.4615 29.2963 47.4615 29.4477C47.4615 29.4982 47.4615 29.8919 47.4615 29.9322L47.6432 30.447C47.613 29.5689 47.5928 28.5999 47.7038 27.7318C47.9057 26.0865 49.3895 26.0158 50.3383 21.9884C51.2266 18.2132 50.1566 17.6076 53.2151 13.7517C53.6289 13.2269 54.1437 12.8231 54.5777 12.3588C55.1127 11.7935 55.4054 11.5311 56.0111 11.0365C58.262 9.22968 63.955 5.75739 66.5996 4.91959C66.5693 4.65715 66.65 4.52592 66.3068 4.59658C64.8937 5.26278 63.7329 5.9189 62.239 6.50434C57.9289 8.2203 51.7918 9.34072 47.1486 9.371C42.7376 9.40128 36.1261 8.25059 31.9876 6.57501C31.271 6.28228 28.4043 5.0609 28.0106 4.65714L28.0308 4.67735Z" fill="#AB3137"/>
<path fill-rule="evenodd" clip-rule="evenodd" d="M28.2638 4.05156L27.9711 4.11212C27.9812 4.39475 27.9307 4.24333 28.0417 4.41492C29.7981 5.31328 34.5523 7.12009 36.5105 7.60459C42.2035 9.00764 52.0753 9.13887 57.738 7.6147C61.614 6.57503 64.6119 4.91963 66.3278 4.42503L66.3379 4.17268L66.0553 4.03135C65.5405 4.03135 64.3494 4.60672 63.7337 4.77832C61.3011 5.4647 59.8173 3.94052 56.7992 2.74944C48.3304 -0.59164 46.3722 -1.22755 37.4391 2.74944C36.0058 3.38535 34.5826 4.13229 33.1795 4.69755C31.0396 5.55553 29.3338 4.03137 28.2739 4.05156H28.2638Z" fill="#EC8888"/>
<path fill-rule="evenodd" clip-rule="evenodd" d="M61.4416 13.5701L60.8763 15.7504C67.4576 13.4086 67.7503 15.7504 70.4554 15.1649C70.9904 17.8196 72.2017 18.9703 74.9169 20.0504C79.2573 21.7764 82.2047 20.222 82.77 20.3431C82.8003 19.7879 82.8305 19.8081 83.1535 19.5558C83.1435 19.5356 83.1132 19.475 83.1031 19.4952L83.0021 19.364C82.8507 19.1621 82.8911 19.4548 82.7902 19.0309C83.1939 18.6978 83.6078 18.3142 84.2437 18.0921L83.5169 17.9307L84.6071 16.5781C84.7585 16.1238 84.5566 16.2046 84.4758 15.7201C84.6777 15.4476 84.6676 15.4678 84.9402 15.2457C84.1528 14.1858 84.6474 15.2154 84.819 14.0344C84.8695 13.7215 84.7282 13.5398 84.8392 12.7727C84.1629 13.4288 84.6979 12.9039 84.4859 12.9947C83.1636 11.0466 80.1153 10.118 77.5514 10.2997C75.4721 10.4511 71.8383 11.7027 71.0207 13.348C70.0416 13.4288 69.123 13.3682 68.2953 13.1361C67.3869 12.8837 67.0235 12.7323 65.9435 12.7525C64.7221 12.7828 62.3803 13.348 61.5324 13.7821L61.4517 13.56L61.4416 13.5701Z" fill="#F3DEE5"/>
<path fill-rule="evenodd" clip-rule="evenodd" d="M9.41766 12.8637C9.55897 13.3987 9.52869 13.1564 9.47822 13.6712C9.44794 13.9538 9.40756 13.7923 9.44794 14.0447C9.51859 14.5191 9.86179 14.2264 9.67 14.7916C9.42775 15.4679 9.09465 15.0541 9.8315 15.7203C9.75075 16.3764 9.51859 15.9524 9.70028 16.6085L9.86178 17.2848C10.2958 17.4867 10.4472 17.4968 10.7501 17.9308L10.0939 18.1024C10.6592 18.3346 11.2951 18.7686 11.5273 19.3137C11.1639 19.4247 11.3153 19.243 11.0731 19.4348C11.386 19.6872 11.5071 19.7881 11.5071 20.2827C12.4155 19.9294 23.216 20.5249 23.7813 15.3165C26.2745 15.3972 29.4036 14.943 31.4122 15.2358C32.0683 15.3266 32.9465 15.4276 33.4108 15.8515C33.3301 15.3872 33.1787 15.0036 33.0777 14.4989L32.8355 13.2775C32.8254 13.2574 32.8153 13.2069 32.7951 13.1766L32.7547 13.7822C30.4029 12.3691 24.0134 13.9942 23.0242 12.9646C22.3681 12.2783 21.9341 11.9653 20.9247 11.4808C19.1885 10.643 16.877 10.3604 14.6564 10.7541C13.3846 10.9761 10.316 12.2076 9.78104 13.1564C9.75076 13.1261 9.70028 13.1059 9.68009 13.0858L9.41766 12.8738V12.8637Z" fill="#F3DEE5"/>
<path fill-rule="evenodd" clip-rule="evenodd" d="M66.0549 4.02125L66.3376 4.16254L66.3275 4.41489V4.62685C66.6707 4.5562 66.5798 4.68743 66.6202 4.94987C66.8221 5.0609 66.7918 4.79846 66.7615 5.23249L67.1047 5.94915C72.0305 4.46535 69.3758 5.02052 73.6052 4.90948C74.4026 4.88929 75.2505 4.78836 76.0075 4.7278C80.9737 4.38461 81.862 5.87852 84.0523 6.60528C85.5866 7.12007 87.4943 6.51442 88.4331 6.99893C89.1901 7.39259 90.1289 8.87639 90.3307 10.128C90.5831 11.7128 89.8664 13.0754 88.7561 13.5297C87.0603 14.2161 85.8087 12.8029 85.1828 12.4496L84.8498 12.7827C84.7387 13.5499 84.88 13.7316 84.8296 14.0445C84.6479 15.2255 84.1634 14.1959 84.9507 15.2557C84.6782 15.4778 84.6883 15.4677 84.4864 15.7301C84.5671 16.2247 84.7791 16.1339 84.6176 16.5881L83.5274 17.9407L84.2542 18.1022C83.6183 18.3344 83.2045 18.7179 82.8007 19.0409C82.9016 19.4649 82.8613 19.1722 83.0127 19.374L83.1136 19.5053C83.1237 19.4851 83.154 19.5456 83.1641 19.5658C82.831 19.8182 82.8108 19.798 82.7805 20.3532C84.0725 20.0301 87.4136 18.9299 88.2413 18.2839C89.1498 17.5874 90.795 15.8412 92.077 14.8217C92.5615 14.4381 92.6826 14.4381 92.8744 13.7114C93.2277 12.3588 93.581 10.2996 93.1267 9.03791C92.5009 7.32195 91.1584 6.00974 89.5939 5.2527C87.4843 4.24331 86.7979 5.38389 83.477 3.96065C76.1993 0.831549 78.43 3.27428 74.8063 3.05221C71.7075 2.86043 71.9195 1.79049 68.8106 3.16326C67.7406 3.63767 66.4082 3.81937 66.065 4.05153L66.0549 4.02125Z" fill="#DDA79D"/>
<path fill-rule="evenodd" clip-rule="evenodd" d="M11.5072 20.2722C11.5072 19.7776 11.3861 19.6766 11.0732 19.4243C11.3256 19.2325 11.164 19.4142 11.5274 19.3032C11.2953 18.7581 10.6594 18.324 10.0941 18.0919L10.7502 17.9203C10.4474 17.4863 10.296 17.4762 9.86193 17.2743L9.70044 16.598C9.51875 15.9419 9.74081 16.3759 9.83165 15.7097C9.10489 15.0435 9.438 15.4574 9.67016 14.7811C9.87203 14.2158 9.52884 14.5086 9.44809 14.0341C9.40771 13.7818 9.45818 13.9534 9.47837 13.6607C9.52884 13.1459 9.55912 13.3882 9.41781 12.8532L9.2664 12.4797C8.4387 12.5705 7.42931 14.1956 5.59222 13.5193C4.49199 13.1156 3.75513 11.8438 3.94692 10.2388C4.08823 9.03766 4.99668 7.5337 5.75372 7.04919C6.71264 6.43346 8.5901 7.14002 10.1849 6.59495C11.4265 6.17101 12.2643 5.53508 13.7582 5.13133C17.5333 4.11184 23.953 4.66702 27.173 5.95903C27.2335 5.59565 27.2739 5.43414 27.506 5.22217L27.6676 5.00013C27.7584 4.42478 27.496 4.73767 28.041 4.66702C27.8593 4.41467 27.6877 4.45506 28.0309 4.39449C27.93 4.23299 27.9704 4.37429 27.9603 4.09166L28.253 4.0311C27.7988 3.65762 23.6502 3.00152 22.2673 2.79964C20.0971 2.46654 17.8159 2.28485 15.5852 2.51701C13.1626 2.76936 12.0624 3.46583 10.0739 4.21278C7.84316 5.04048 6.36945 4.26327 4.18918 5.49472C2.90725 6.21139 1.39317 7.73555 1.01969 9.51207C0.797629 10.5517 0.989411 11.6318 1.19129 12.6513C1.53448 14.337 1.46382 14.0341 2.44293 14.983C3.05866 15.5785 3.70467 16.1841 4.33049 16.6888C4.815 17.0825 5.34997 17.7487 6.21804 18.3846C6.72274 18.7581 10.6694 20.2318 11.4971 20.2621L11.5072 20.2722Z" fill="#DDA79D"/>
<path fill-rule="evenodd" clip-rule="evenodd" d="M45.1803 35.4742C45.039 35.3127 45.1197 35.5045 44.9784 35.1411C44.615 34.2629 44.6554 31.2146 43.5148 28.6003C43.2826 28.0754 43.0303 27.7524 42.788 27.278C42.2934 26.2989 40.8702 24.2801 40.2645 23.3515C39.6589 22.4127 39.2955 21.3428 39.4368 20.0205C39.6286 18.1632 39.235 17.8099 38.5789 16.5381C37.6805 14.7717 38.165 15.5388 36.9739 13.9641C36.2976 13.0658 35.9141 12.2381 35.3387 11.2791C35.0662 11.7132 36.8629 15.3975 37.1052 15.9526C37.2162 16.2151 37.0749 15.9829 37.2768 16.2756C37.5594 16.6693 37.731 16.6087 38.0338 17.2951C38.4476 18.2238 38.5688 19.9902 38.6394 21.2216C38.8211 24.3406 39.8305 24.1792 41.7181 27.2679C44.9279 32.5167 43.4845 34.9089 44.1911 36.1404C44.5746 36.7965 44.9986 36.7763 45.4124 37.1397L45.9272 36.7662C45.7859 34.9998 45.3519 32.224 45.4427 30.5787C45.5638 28.2571 45.8969 28.681 44.6857 26.9348C43.7469 25.5822 42.3338 24.0782 41.7988 22.8972C41.1326 21.4134 41.6272 20.3536 41.5364 18.8294C41.4556 17.4162 40.6986 16.6693 40.0122 15.8315C39.5277 15.236 39.3864 14.6001 38.1953 13.1062L36.6005 11.2489C36.3683 10.946 36.1866 10.835 35.8636 10.623C36.0655 11.8242 36.6812 12.8437 37.1556 13.6714C37.731 14.6606 38.3063 15.347 38.9523 16.205C39.3056 16.6693 39.9415 18.3651 40.1535 19.1423C40.5976 20.7472 40.1737 21.1207 40.9106 22.7256C41.9805 25.0573 44.0901 26.6925 44.9683 31.3559C45.4124 33.728 45.1197 33.1122 45.0894 34.4042C45.0793 34.7676 45.1702 35.1209 45.1803 35.5045V35.4742Z" fill="#F69D9A"/>
<path fill-rule="evenodd" clip-rule="evenodd" d="M49.3388 37.392C50.005 37.3718 50.4794 36.958 50.9034 36.5542C51.1759 36.2918 51.2768 36.2918 51.4888 35.9284C53.4672 32.6479 51.62 30.084 55.4052 26.5915C58.0094 24.1892 57.1111 25.3096 57.7167 21.6153C58.6555 15.9728 60.3411 17.0629 60.4421 14.6404C60.5026 13.1263 60.6742 11.6526 60.9266 10.1587C60.4219 10.4312 60.8458 10.1284 60.5834 10.512C60.2099 11.0571 59.3418 12.7629 59.251 13.3585C59.1299 14.166 59.5942 14.7817 59.0491 15.4277C58.6857 15.8617 58.282 16.2049 58.0296 16.7803C56.5055 20.3737 58.4132 22.3622 52.801 28.5599C51.0043 30.5484 51.4181 31.477 50.8832 34.0408C50.54 35.6559 50.0555 36.423 49.3186 37.4021L49.3388 37.392Z" fill="#F69D9A"/>
<path fill-rule="evenodd" clip-rule="evenodd" d="M44.6148 37.3209C44.4129 36.4226 43.7164 36.4226 43.2521 33.8789C42.4345 29.4275 43.2723 30.7902 40.5469 27.2472C38.8511 25.0366 38.0941 23.7244 37.5591 20.8073C37.3471 19.6465 36.9737 16.9313 36.3983 16.0935C36.2368 15.8613 36.0753 15.7402 35.8634 15.4374C35.4091 14.7914 35.4798 13.9435 34.4603 12.066C34.218 11.6219 33.8849 10.8749 33.5115 10.562C33.6124 11.6118 34.3695 15.0942 34.9448 16.1036C35.2678 16.6688 35.5908 16.9716 35.8634 17.5672C36.469 18.8895 36.6507 19.6263 36.9333 21.1404C37.1756 22.4324 37.0241 24.2594 37.7206 25.1578C39.1741 27.0049 40.6277 27.2573 41.4856 30.8608C41.8086 32.2336 41.7077 34.7268 43.0502 36.3418C43.464 36.8364 43.9385 37.22 44.6046 37.331L44.6148 37.3209Z" fill="#F69D9A"/>
<path fill-rule="evenodd" clip-rule="evenodd" d="M48.4098 37.1695C51.4783 36.5841 49.1668 34.6057 51.1452 29.9726C52.2858 27.2977 53.5678 26.1167 55.1727 23.9566C56.2628 22.493 55.7581 19.586 56.4142 17.6782C56.7473 16.689 57.0199 16.8909 57.4337 16.1742C57.9485 15.2759 60.4013 10.2188 60.694 9.33057C60.3408 9.52235 58.968 11.8237 58.6753 12.2881C57.6356 13.9435 57.2722 14.0949 56.2628 16.0632C55.8288 16.9212 55.203 17.7489 55.0314 18.6977C54.7992 20.02 55.6572 20.9385 54.3955 23.0583C52.3868 26.4397 50.0652 27.8427 49.51 33.2329C49.4394 33.9294 49.2779 34.7874 49.076 35.3223C48.8035 36.0289 48.4199 36.4024 48.4098 37.1695Z" fill="#F69D9A"/>
<path fill-rule="evenodd" clip-rule="evenodd" d="M41.8488 41.3588L41.546 41.3891C41.647 41.6313 42.5958 43.4886 42.7472 43.6703C43.3831 43.6299 43.9585 43.4785 44.6549 43.4482C45.7148 43.4079 50.1662 43.317 50.6002 43.6299L51.5995 43.6804C51.7711 43.2766 51.8923 42.9637 52.1143 42.5499C52.3162 42.1663 52.5585 41.813 52.7301 41.4093C51.9427 41.3487 51.1857 40.9853 50.1662 40.9147C49.2376 40.8541 48.2282 40.9046 47.2894 40.9348C44.8972 40.9954 44.2108 40.8036 41.8488 41.379V41.3588Z" fill="#A74C4B"/>
<path fill-rule="evenodd" clip-rule="evenodd" d="M51.4179 46.9806C51.0343 45.7895 51.3068 45.0022 51.4885 43.9423C51.1251 43.7405 50.6709 43.7405 50.2268 43.6698C48.6925 43.3872 44.3421 43.5891 42.8179 43.8717C42.7977 44.2552 43.0097 44.8205 43.0399 45.3757C43.0702 45.9813 42.9491 46.4658 42.9592 47.0412C43.5749 46.8191 43.9888 46.4961 44.766 46.4557H49.5606C50.4388 46.5062 50.5902 46.9099 51.4078 46.9907L51.4179 46.9806Z" fill="#A74C4B"/>
<path fill-rule="evenodd" clip-rule="evenodd" d="M48.1786 36.6952L48.6732 35.9685C49.5109 33.5964 48.6126 32.3347 49.4403 28.9532C50.056 26.4297 51.3178 24.9964 52.6905 23.2703C54.2248 21.3323 53.0842 18.9603 55.3351 15.9927C56.2739 14.7511 58.0403 12.157 58.1614 10.6934C57.5962 11.0164 56.607 12.2377 56.1224 12.8333C54.457 14.8924 54.9415 14.6703 54.033 15.8917C53.2053 17.0121 52.5593 17.4159 52.4987 18.9401C52.4281 20.5753 52.9126 21.3828 52.2363 22.9474C51.4893 24.6734 48.8649 27.0455 48.552 28.3375C48.3703 29.0844 48.6933 31.2849 48.5217 32.476C48.4107 33.2532 48.4511 33.768 48.3905 34.5452C48.33 35.2316 48.1685 36.1501 48.1685 36.7053L48.1786 36.6952Z" fill="#F69D9A"/>
<path fill-rule="evenodd" clip-rule="evenodd" d="M51.3581 49.5748C51.3581 49.3932 51.4691 47.3037 51.4792 47.2634C49.4504 46.3549 49.5311 46.5568 47.0581 46.5568C44.7668 46.5568 44.6962 46.3448 42.8793 47.2634C42.7985 48.2324 42.8288 48.6563 42.96 49.5951C44.5952 49.4033 45.322 49.1913 47.1692 49.1913C50.4598 49.1913 49.7633 49.4941 51.3581 49.5748Z" fill="#A74C4B"/>
<path fill-rule="evenodd" clip-rule="evenodd" d="M41.678 40.9449C41.9001 41.0559 41.6175 41.0155 41.9909 40.9853L42.8489 40.8035C45.2008 40.5512 45.11 40.7329 47.1691 40.6925C50.5405 40.632 49.5614 40.5613 52.7006 41.0761C52.529 40.5411 52.4886 39.7134 52.9024 39.4005C52.8621 38.8655 53.2658 39.1078 52.3775 38.9463C50.702 38.6334 48.7438 38.8857 47.1691 38.8857C44.9182 38.8756 43.5858 38.7141 41.3046 39.0472C41.6074 40.0061 41.7487 39.6428 41.6679 40.955L41.678 40.9449Z" fill="#A74C4B"/>
<path fill-rule="evenodd" clip-rule="evenodd" d="M47.6636 30.4674C47.7847 31.9714 48.0472 32.254 47.8453 33.9902C47.704 35.2115 47.6434 36.3824 47.6838 37.6442L47.6939 38.0782L47.8958 38.058C48.0977 37.0486 48.0169 35.9282 48.1784 34.8986C48.3399 33.869 48.6124 33.0514 48.5115 31.9815C48.3298 30.1343 47.6434 27.9944 48.8648 26.4904C51.6103 23.1089 50.6918 19.4146 52.0242 16.6085C53.1951 14.1456 56.3141 11.3496 58.4439 9.87587C59.9378 8.84629 65.1159 5.52539 66.7612 5.22257C66.8016 4.78853 66.8218 5.05097 66.6199 4.93994C63.9753 5.77773 58.2824 9.25006 56.0314 11.0569C55.4258 11.5414 55.1331 11.8139 54.5981 12.3792C54.1641 12.8435 53.6493 13.2371 53.2354 13.7721C50.177 17.6381 51.2469 18.2437 50.3587 22.0087C49.4098 26.0362 47.9261 26.1068 47.7242 27.7521C47.6132 28.6202 47.6333 29.5892 47.6636 30.4674Z" fill="#F5BDA2"/>
<path fill-rule="evenodd" clip-rule="evenodd" d="M53.1851 38.7944C53.074 38.3502 52.8621 37.1693 53.0236 36.7655C53.3365 35.9782 53.7604 36.0387 53.4778 34.8477C52.7712 34.8073 52.5693 35.3221 52.1353 35.746C51.7215 36.1397 51.4691 36.4223 51.0755 36.8362C50.2881 37.674 49.5311 37.9869 47.8858 38.0575L47.6839 38.0777L47.6738 37.6437C47.5527 38.0172 47.7445 37.8254 47.4215 38.1282L46.8764 38.1686L46.6543 37.1693L46.7149 37.9667C46.5231 38.1282 47.0076 38.1686 46.3919 38.0979C44.5245 37.9465 44.151 37.8052 43.2022 36.7857C42.7278 36.2709 41.5771 34.9284 40.7797 34.8174C40.598 35.9378 40.7898 35.8268 41.1834 36.6646C41.4863 37.3207 41.1532 38.0172 41.1633 38.865C42.1827 38.8348 43.1316 38.6026 44.1611 38.643C47.2196 38.7843 47.6637 38.643 50.278 38.643C51.2269 38.643 52.3372 38.966 53.1851 38.8146V38.7944Z" fill="#A74C4B"/>
<path fill-rule="evenodd" clip-rule="evenodd" d="M35.9039 4.83898C36.3279 5.03076 39.5074 3.66808 40.961 3.34507C50.0455 1.3162 57.5957 5.04084 59.0795 4.66737C58.9584 4.53615 58.9987 4.55634 58.8372 4.42512C58.3326 4.03146 54.3959 2.85047 53.6389 2.64859C49.3288 1.48779 44.9783 1.40705 40.6582 2.59813C39.3863 2.95142 36.3985 4.03146 35.9039 4.82887V4.83898Z" fill="#F69D9A"/>
<path fill-rule="evenodd" clip-rule="evenodd" d="M28.0312 4.67716C28.4148 5.08091 31.2915 6.31236 32.0082 6.59499C36.1467 8.27058 42.7582 9.42127 47.1692 9.39099C51.8124 9.36071 57.9495 8.24029 62.2596 6.52433C63.7434 5.92879 64.9143 5.28279 66.3274 4.6166V4.4046C64.6115 4.8992 61.6136 6.55461 57.7375 7.59428C52.0749 9.11845 42.203 8.98725 36.5101 7.5842C34.5519 7.0997 29.7977 5.29289 28.0413 4.39453C27.688 4.445 27.8596 4.41471 28.0514 4.66706L28.0312 4.67716Z" fill="#F5BDA2"/>
<path fill-rule="evenodd" clip-rule="evenodd" d="M27.5063 5.23281C29.5756 5.60628 37.2167 10.3504 39.3768 12.8638C39.9117 13.4795 39.942 13.318 40.9211 14.5495C41.3955 15.1551 41.8397 15.7708 42.2434 16.5683C43.061 18.153 43.0207 19.9699 43.3941 21.8574C44.4439 27.1971 46.6242 25.5417 46.069 30.518C45.7864 33.0415 45.5038 30.952 46.1195 34.9492C46.2709 35.9687 46.2608 37.0488 46.4122 38.0783C47.0279 38.149 46.5434 38.1086 46.7352 37.9471L46.6746 37.1497C46.6746 35.6356 46.392 34.2729 46.3214 32.8093C46.281 31.9211 46.4728 31.4466 46.5434 30.6189C46.604 29.8417 46.4627 28.9837 46.6242 28.2469C46.4223 27.934 46.4728 27.6211 46.3214 27.2072C46.1498 26.7328 45.4836 26.0666 44.8981 24.6938C42.5563 19.2027 44.5247 17.9107 40.4972 13.2978C40.2448 13.0152 40.0632 12.9445 39.8007 12.6821C38.6601 11.5415 39.3465 12.1068 37.7517 10.7946C35.8944 9.26028 29.4848 5.15206 27.678 5.01074L27.5165 5.23281H27.5063Z" fill="#F5BDA2"/>
<path fill-rule="evenodd" clip-rule="evenodd" d="M50.7012 51.7752L51.0646 51.5935C51.0343 50.786 50.9233 50.463 51.2867 49.7665C49.2275 49.3931 45.0991 48.8783 43.0803 49.7968C43.1813 50.574 43.2115 50.7659 43.2115 51.7147C43.8677 51.6238 44.332 51.4219 45.0183 51.3917C45.6845 51.3614 46.381 51.4118 47.0472 51.4118C48.0869 51.4017 50.0148 51.109 50.7012 51.7752Z" fill="#A74C4B"/>
<path fill-rule="evenodd" clip-rule="evenodd" d="M46.6141 28.2565C46.4526 28.9934 46.5939 29.8514 46.5334 30.6286C46.4627 31.4563 46.2709 31.9307 46.3113 32.819C46.382 34.2826 46.6646 35.6453 46.6646 37.1594L46.8867 38.1586L47.4317 38.1183C47.7547 37.8054 47.563 38.0073 47.6841 37.6338C47.6538 36.372 47.7043 35.2012 47.8456 33.9798C48.0475 32.2436 47.785 31.961 47.6639 30.457L47.4822 29.9422C47.4822 29.9019 47.4822 29.5183 47.4822 29.4577C47.4822 29.3063 47.5024 28.9833 47.4923 28.8622L47.4115 28.4685C47.0885 28.8925 47.25 29.2054 47.3308 29.6192C47.4014 30.0129 47.3813 30.3662 47.3712 30.7598C47.1693 29.922 47.462 30.6185 46.8665 30.2955C46.8564 29.7807 46.8564 29.2458 46.8564 28.7411C46.8564 28.5089 46.8867 28.2868 46.8362 28.0547C46.7756 27.7822 46.8665 28.0547 46.7353 27.7721C46.6545 27.6005 46.6444 27.6307 46.5737 27.5298C46.6646 28.0042 46.6949 27.8225 46.6242 28.2565H46.6141Z" fill="#8E3031"/>
<path fill-rule="evenodd" clip-rule="evenodd" d="M38.246 5.55536C38.2763 5.57555 38.3267 5.55535 38.3469 5.60582C38.5185 5.9793 42.334 4.94974 42.5662 4.89927C46.6946 3.95044 51.2469 4.657 55.3854 5.4847C55.7892 5.56545 56.1929 5.68659 56.5058 5.43424L53.3969 4.59643C49.1575 3.74855 47.3103 3.24386 42.6065 4.32391C41.8192 4.5056 38.7204 5.06076 38.246 5.55536Z" fill="#F69D9A"/>
<path fill-rule="evenodd" clip-rule="evenodd" d="M43.1609 52.5524H51.1148L51.1047 52.0376L50.6303 51.8155C48.2684 51.3512 45.4522 51.4117 43.1911 51.9467L43.1508 52.5524H43.1609Z" fill="#A74C4B"/>
<path fill-rule="evenodd" clip-rule="evenodd" d="M41.597 6.39294C42.7982 6.22134 43.3029 6.10024 44.3022 5.78733C45.0794 5.53498 46.2099 5.43404 47.0477 5.43404C49.6923 5.44413 51.913 6.45353 52.4883 6.03968C52.3571 5.94883 52.4783 6.00937 52.2158 5.88825C52.0745 5.82768 51.9937 5.79743 51.8625 5.75705L49.8942 5.20187C47.5827 4.50539 44.9583 4.98989 42.7276 5.6359C41.7182 5.92862 41.7989 5.90843 41.597 6.39294Z" fill="#F69D9A"/>
<path fill-rule="evenodd" clip-rule="evenodd" d="M41.6776 40.9448L41.5665 41.187C42.1318 41.2476 41.6675 41.1668 41.8592 41.3586C44.2212 40.7934 44.8975 40.9751 47.2998 40.9145C48.2386 40.8943 49.2379 40.8338 50.1766 40.8943C51.1961 40.965 51.9632 41.3283 52.7405 41.3889L52.7102 41.0558C49.571 40.541 50.5602 40.6117 47.1787 40.6723C45.1196 40.7126 45.2104 40.5309 42.8585 40.7833L42.0006 40.965C41.6271 41.0053 41.9097 41.0457 41.6877 40.9246L41.6776 40.9448Z" fill="#C76868"/>
</svg>
