<svg width="314" height="713" viewBox="0 0 314 713" fill="none" xmlns="http://www.w3.org/2000/svg">
<path d="M125.44 712.982C124.17 711.466 123.409 709.886 120.361 710.998C117.313 712.109 104.107 706.148 102.452 703.365C101.436 701.601 101.984 699.774 102.807 698.083C104.443 694.74 106.068 691.378 107.886 688.118C110.721 683.048 112.265 677.95 109.918 672.31C108.618 669.215 109.288 666.028 109.989 662.84C112.935 649.393 110.345 636.204 107.886 622.931C103.366 598.738 96.2955 574.985 92.2625 550.737C90.1597 538.07 91.5717 525.487 92.2625 512.876C92.9533 499.356 95.9704 485.991 96.0821 472.397C95.9192 471.178 96.1858 469.944 96.844 468.87C98.0772 462.597 98.0772 456.176 96.844 449.903C95.2593 441.545 94.9952 433.049 93.2276 424.69C90.7286 412.75 88.6359 400.763 86.7871 388.74C84.9382 376.717 83.3637 364.647 83.963 352.44C84.6132 347.63 84.6132 342.766 83.963 337.956C83.6989 321 87.4271 304.632 92.6892 288.467C96.7526 276.159 101.659 264.154 106.728 252.195C109.738 245.044 110.415 237.262 108.679 229.774C105.57 214.738 99.9932 200.308 95.7063 185.539C95.3304 184.244 94.9748 182.93 94.3552 180.744C91.9781 188.763 91.1959 196.175 90.0276 203.514C87.8842 217.117 85.436 230.546 81.1897 243.836C77.9796 253.857 76.9841 264.466 74.0788 274.661C68.4713 294.051 61.4415 312.954 51.0595 330.69C47.1891 337.304 47.372 344.56 46.4577 351.614C45.0254 363.436 42.8856 375.18 40.0477 386.793C39.9273 387.24 39.7712 387.679 39.5804 388.106C38.9303 389.622 38.7677 391.67 36.3906 391.78C33.465 391.89 34.684 389.291 33.79 387.886C31.6568 390.072 32.4694 392.928 31.2504 395.234C30.5393 396.575 30.3361 398.476 28.0098 397.989C25.8766 397.576 25.9781 395.803 25.9781 394.315C25.907 389.217 28.1317 384.469 28.7311 379.472C28.8022 378.893 28.8428 378.315 28.9851 376.781C25.8664 380.262 25.6328 383.789 24.3426 386.884C23.0525 389.98 22.0976 392.956 20.8786 395.959C20.2487 397.502 19.111 398.715 17.0386 398.118C14.9663 397.521 14.8952 396.014 15.4438 394.389C17.1707 389.3 18.2069 384.019 20.716 379.151C20.9341 379.046 21.1202 378.895 21.2577 378.71C21.3952 378.524 21.4798 378.311 21.5039 378.089C21.5281 377.867 21.491 377.643 21.3961 377.438C21.3011 377.232 21.1512 377.05 20.9598 376.91C20.2284 376.221 19.5275 376.634 19.1313 377.433C17.3942 381.732 15.7079 386.049 13.8895 390.292C13.28 391.734 12.2946 393.25 10.1512 392.542C8.32262 391.927 8.52579 390.246 8.84071 388.969C9.95815 384.524 11.0756 380.051 12.5892 375.697C14.8546 369.148 15.6977 362.25 18.6843 355.867C19.2227 354.709 19.5884 352.982 17.9021 352.193C16.4596 351.513 15.393 352.707 14.4381 353.534C12.254 355.444 10.2629 357.557 7.9366 359.302C5.9049 360.836 3.18241 361.708 1.03896 359.733C-1.64289 357.253 1.53673 355.903 3.07067 354.645C10.1816 348.73 14.3263 339.949 22.2601 335.301C35.5678 327.448 37.7417 315.636 39.1741 303.291C40.7182 289.945 42.4959 276.655 45.1879 263.446C46.3253 258.057 48.188 252.813 50.7345 247.832C53.7211 241.917 54.1173 235.809 54.483 229.572C56.0503 201.553 59.8835 173.675 65.9519 146.162C70.0153 127.893 80.885 121.96 101.405 117.882C112.681 115.64 124.109 112.903 131.881 104.104C137.082 98.1797 136.818 91.0245 136.523 83.952C136.523 82.758 135.507 82.115 134.542 81.417C132.275 79.7813 130.593 77.5764 129.707 75.0793C126.659 65.784 118.207 58.5921 117.161 48.6171C116.755 44.7318 113.25 39.7076 120.798 37.7787C121.296 37.6502 121.306 35.8315 121.468 34.7936C122.677 26.775 123.937 18.8024 128.782 11.684C131.73 7.38724 136.139 4.07082 141.348 2.23257C153.539 -2.35996 170.168 0.312889 177.777 8.84581C183.537 15.2754 186.117 23.0367 186.371 31.3768C186.452 34.1323 185.721 37.3011 190.028 38.4309C191.196 38.7432 191.511 40.1026 191.511 41.1864C191.511 49.1682 191.511 57.0857 184.837 63.4969C183.547 64.7553 182.988 66.7117 182.369 68.4385C180.581 73.426 178.082 78.0736 173.825 81.7476C173.063 82.3456 172.515 83.1354 172.251 84.0163C169.884 92.7146 175.786 105.142 184.289 109.973C192.619 114.722 201.964 116.642 211.331 118.662C217.913 120.068 224.364 121.813 230.032 125.377C235.598 128.677 239.586 133.749 241.207 139.586C246.286 158.268 249.334 177.245 251.365 196.396C252.95 210.963 254.484 225.521 255.368 240.135C255.456 241.2 255.773 242.239 256.302 243.193C264.866 259.377 267.873 276.893 271.54 294.272C273.023 301.307 274.588 308.334 276.447 315.305C278.011 321.147 280.754 326.226 286.504 330.112C296.896 337.092 303.174 347.692 312.804 355.462C313.718 356.206 314.409 357.299 313.637 358.319C313.191 358.884 312.588 359.333 311.889 359.622C311.19 359.911 310.42 360.028 309.655 359.963C306.841 359.871 305.175 357.97 303.296 356.509C302.026 355.527 301.152 354.14 299.954 353.074C298.755 352.009 297.566 350.319 295.748 351.421C294.316 352.275 295.138 353.919 295.535 355.242C298.623 365.394 301.697 375.544 304.759 385.69C305.023 386.609 305.378 387.436 305.652 388.317C306.038 389.566 306.089 390.806 304.637 391.56C302.94 392.478 301.67 391.56 300.746 390.402C298.806 388.042 298.003 385.204 296.845 382.494C296.053 380.657 295.992 378.361 293.117 376.386C294.874 382.173 296.337 387.114 297.902 392.001C298.521 393.975 299.456 396.161 296.479 396.951C293.503 397.741 292.802 395.344 292.142 393.498C290.252 388.134 288.515 382.714 286.707 377.323C286.209 376.68 285.549 376.239 284.828 376.9C284.647 377.035 284.501 377.204 284.401 377.395C284.301 377.586 284.249 377.795 284.249 378.007C284.249 378.219 284.301 378.428 284.401 378.619C284.501 378.811 284.647 378.98 284.828 379.114C286.717 383.844 287.245 388.813 287.804 393.755C287.977 395.289 287.702 396.997 285.447 397.163C283.537 397.31 283.141 395.858 282.552 394.536C281.242 391.606 282.318 388.106 279.667 385.507C278.489 383.67 279.748 381.576 279.159 380.29C279.596 381.594 278.58 383.651 279.667 385.507C279.169 387.546 281.038 390.953 277.635 391.257C274.771 391.523 274.415 388.033 273.897 385.966C270.331 371.821 267.416 357.538 266.623 343.053C266.227 335.77 262.651 329.873 259.34 323.765C247.322 301.665 236.331 279.199 230.581 255.015C226.731 238.803 220.991 222.95 219.275 206.334C218.431 198.196 216.755 190.131 215.374 181.534C213.108 183.022 213.535 184.933 213.068 186.356C209.573 197.038 206.475 207.822 202.909 218.504C197.545 234.348 200.014 249.274 207.054 264.365C215.8 283.103 222.139 302.676 224.466 322.966C225.862 334.801 226.202 346.719 225.481 358.604C224.442 373.97 222.526 389.277 219.742 404.465C217.497 416.956 215.211 429.43 213.291 441.967C211.341 454.771 211.879 467.575 213.372 480.324C214.805 492.614 215.587 504.949 217.019 517.22C220.311 545.465 212.58 572.386 206.272 599.537C202.046 617.742 197.82 635.965 197.535 654.693C197.43 657.443 197.859 660.188 198.805 662.804C200.067 665.656 200.354 668.785 199.628 671.787C197.322 680.053 199.719 687.401 204.453 694.474C208.232 700.113 207.592 704.017 202.584 706.791C198.064 709.289 192.771 709.96 187.621 710.777C187.336 710.823 186.909 710.382 186.696 710.465C183.486 711.824 180.225 713.22 177.096 710.465C173.622 707.397 173.256 703.172 172.261 699.195C172.969 692.23 172.986 685.221 172.312 678.253C171.905 674.395 173.328 670.73 173.653 666.937C173.744 665.578 174.404 664.181 174.1 662.877C171.916 653.848 175.217 645.426 177.381 636.865C179.514 628.452 178.742 619.955 178.061 611.468C177.147 600.263 175.857 589.057 175.359 577.833C174.831 566.287 172.942 554.815 173.328 543.233C173.978 537.811 173.978 532.342 173.328 526.92C172.769 517.276 175.268 507.797 175.247 498.18C175.247 484.503 171.082 471.359 168.837 457.968C165.668 439.147 162.834 420.309 160.944 401.323C159.461 386.453 157.216 371.646 156.596 356.702C156.535 355.288 155.835 353.892 155.123 351.449C151.944 358.696 152.757 365.327 152.076 371.656C149.326 399.137 145.666 426.515 141.095 453.788C138.829 467.189 135.081 480.361 133.923 493.936C133.445 499.64 134.41 505.225 134.999 510.8C137.285 532.762 135.304 554.613 133.984 576.519C132.968 594.026 129.92 611.422 130.57 629.012C130.702 632.548 130.855 636.149 132.257 639.382C135.538 646.978 135.518 654.822 135.751 662.785C136.066 674.065 137.112 685.325 136.655 696.623C136.401 703.053 135.131 709.124 128.528 713L125.44 712.982Z" fill="#A1E3FF"/>
</svg>
