<svg width="31" height="18" viewBox="0 0 31 18" fill="none" xmlns="http://www.w3.org/2000/svg">
<path d="M30.0549 15.7095C29.9743 15.5745 29.4755 14.4907 27.0753 12.263C24.5626 9.93032 24.9001 10.3091 27.9266 6.27567C29.7699 3.81924 30.5068 2.31913 30.2762 1.67783C30.0568 1.06654 28.701 1.2278 28.701 1.2278L24.1932 1.25405C24.1932 1.25405 23.8594 1.20905 23.61 1.35718C23.3681 1.50344 23.2125 1.84097 23.2125 1.84097C23.2125 1.84097 22.4981 3.74236 21.5455 5.35873C19.5372 8.76961 18.7328 8.94962 18.4046 8.73773C17.6415 8.24457 17.8327 6.75383 17.8327 5.69625C17.8327 2.39038 18.3334 1.01216 16.8558 0.65588C16.3645 0.537746 16.0045 0.458991 14.75 0.445865C13.1411 0.428988 11.7779 0.45149 11.0072 0.828393C10.4934 1.07966 10.0978 1.64033 10.3397 1.67221C10.6378 1.71158 11.3129 1.85409 11.671 2.34163C12.1342 2.9698 12.1173 4.38366 12.1173 4.38366C12.1173 4.38366 12.3836 8.27457 11.4966 8.75836C10.8872 9.09025 10.0528 8.41333 8.26202 5.31748C7.34508 3.73298 6.65128 1.97973 6.65128 1.97973C6.65128 1.97973 6.51814 1.65345 6.28 1.47907C5.99123 1.26718 5.5862 1.19967 5.5862 1.19967L1.29963 1.22592C1.29963 1.22592 0.656459 1.24467 0.420191 1.52407C0.210176 1.77346 0.403315 2.28725 0.403315 2.28725C0.403315 2.28725 3.75981 10.1385 7.55885 14.0969C11.0447 17.7253 15.0013 17.4871 15.0013 17.4871H16.7939C16.7939 17.4871 17.3358 17.4271 17.6115 17.129C17.8665 16.8552 17.8571 16.3414 17.8571 16.3414C17.8571 16.3414 17.8215 13.9356 18.9391 13.5812C20.0398 13.2324 21.4536 15.9064 22.9519 16.9358C24.0844 17.714 24.9451 17.5434 24.9451 17.5434L28.9523 17.4871C28.9523 17.4871 31.0487 17.3577 30.0549 15.7095Z" fill="#31B0ED"/>
</svg>
